<?xml version="1.0" encoding="utf-8" standalone="no"?>
<!DOCTYPE svg PUBLIC "-//W3C//DTD SVG 1.1//EN"
  "http://www.w3.org/Graphics/SVG/1.1/DTD/svg11.dtd">
<!-- Created with matplotlib (https://matplotlib.org/) -->
<svg height="167.6575pt" version="1.1" viewBox="0 0 361.281719 167.6575" width="361.281719pt" xmlns="http://www.w3.org/2000/svg" xmlns:xlink="http://www.w3.org/1999/xlink">
 <metadata>
  <rdf:RDF xmlns:cc="http://creativecommons.org/ns#" xmlns:dc="http://purl.org/dc/elements/1.1/" xmlns:rdf="http://www.w3.org/1999/02/22-rdf-syntax-ns#">
   <cc:Work>
    <dc:type rdf:resource="http://purl.org/dc/dcmitype/StillImage"/>
    <dc:date>2021-10-20T13:26:04.715236</dc:date>
    <dc:format>image/svg+xml</dc:format>
    <dc:creator>
     <cc:Agent>
      <dc:title>Matplotlib v3.3.4, https://matplotlib.org/</dc:title>
     </cc:Agent>
    </dc:creator>
   </cc:Work>
  </rdf:RDF>
 </metadata>
 <defs>
  <style type="text/css">*{stroke-linecap:butt;stroke-linejoin:round;}</style>
 </defs>
 <g id="figure_1">
  <g id="patch_1">
   <path d="M 0 167.6575 
L 361.281719 167.6575 
L 361.281719 0 
L 0 0 
z
" style="fill:#ffffff;"/>
  </g>
  <g id="axes_1">
   <g id="patch_2">
    <path d="M 57.77375 124.697812 
L 130.034549 124.697812 
L 130.034549 10.717812 
L 57.77375 10.717812 
z
" style="fill:#ffffff;"/>
   </g>
   <g id="matplotlib.axis_1">
    <g id="xtick_1">
     <g id="line2d_1">
      <defs>
       <path d="M 0 0 
L 0 6 
" id="m8fd718eb83" style="stroke:#262626;stroke-width:1.25;"/>
      </defs>
      <g>
       <use style="fill:#262626;stroke:#262626;stroke-width:1.25;" x="59.717686" xlink:href="#m8fd718eb83" y="124.697812"/>
      </g>
     </g>
     <g id="text_1">
      <!-- 0 -->
      <g style="fill:#262626;" transform="translate(56.218311 142.556094)scale(0.11 -0.11)">
       <defs>
        <path d="M 31.78125 66.40625 
Q 24.171875 66.40625 20.328125 58.90625 
Q 16.5 51.421875 16.5 36.375 
Q 16.5 21.390625 20.328125 13.890625 
Q 24.171875 6.390625 31.78125 6.390625 
Q 39.453125 6.390625 43.28125 13.890625 
Q 47.125 21.390625 47.125 36.375 
Q 47.125 51.421875 43.28125 58.90625 
Q 39.453125 66.40625 31.78125 66.40625 
z
M 31.78125 74.21875 
Q 44.046875 74.21875 50.515625 64.515625 
Q 56.984375 54.828125 56.984375 36.375 
Q 56.984375 17.96875 50.515625 8.265625 
Q 44.046875 -1.421875 31.78125 -1.421875 
Q 19.53125 -1.421875 13.0625 8.265625 
Q 6.59375 17.96875 6.59375 36.375 
Q 6.59375 54.828125 13.0625 64.515625 
Q 19.53125 74.21875 31.78125 74.21875 
z
" id="DejaVuSans-48"/>
       </defs>
       <use xlink:href="#DejaVuSans-48"/>
      </g>
     </g>
    </g>
    <g id="xtick_2">
     <g id="line2d_2">
      <g>
       <use style="fill:#262626;stroke:#262626;stroke-width:1.25;" x="93.233827" xlink:href="#m8fd718eb83" y="124.697812"/>
      </g>
     </g>
     <g id="text_2">
      <!-- 25 -->
      <g style="fill:#262626;" transform="translate(86.235077 142.556094)scale(0.11 -0.11)">
       <defs>
        <path d="M 19.1875 8.296875 
L 53.609375 8.296875 
L 53.609375 0 
L 7.328125 0 
L 7.328125 8.296875 
Q 12.9375 14.109375 22.625 23.890625 
Q 32.328125 33.6875 34.8125 36.53125 
Q 39.546875 41.84375 41.421875 45.53125 
Q 43.3125 49.21875 43.3125 52.78125 
Q 43.3125 58.59375 39.234375 62.25 
Q 35.15625 65.921875 28.609375 65.921875 
Q 23.96875 65.921875 18.8125 64.3125 
Q 13.671875 62.703125 7.8125 59.421875 
L 7.8125 69.390625 
Q 13.765625 71.78125 18.9375 73 
Q 24.125 74.21875 28.421875 74.21875 
Q 39.75 74.21875 46.484375 68.546875 
Q 53.21875 62.890625 53.21875 53.421875 
Q 53.21875 48.921875 51.53125 44.890625 
Q 49.859375 40.875 45.40625 35.40625 
Q 44.1875 33.984375 37.640625 27.21875 
Q 31.109375 20.453125 19.1875 8.296875 
z
" id="DejaVuSans-50"/>
        <path d="M 10.796875 72.90625 
L 49.515625 72.90625 
L 49.515625 64.59375 
L 19.828125 64.59375 
L 19.828125 46.734375 
Q 21.96875 47.46875 24.109375 47.828125 
Q 26.265625 48.1875 28.421875 48.1875 
Q 40.625 48.1875 47.75 41.5 
Q 54.890625 34.8125 54.890625 23.390625 
Q 54.890625 11.625 47.5625 5.09375 
Q 40.234375 -1.421875 26.90625 -1.421875 
Q 22.3125 -1.421875 17.546875 -0.640625 
Q 12.796875 0.140625 7.71875 1.703125 
L 7.71875 11.625 
Q 12.109375 9.234375 16.796875 8.0625 
Q 21.484375 6.890625 26.703125 6.890625 
Q 35.15625 6.890625 40.078125 11.328125 
Q 45.015625 15.765625 45.015625 23.390625 
Q 45.015625 31 40.078125 35.4375 
Q 35.15625 39.890625 26.703125 39.890625 
Q 22.75 39.890625 18.8125 39.015625 
Q 14.890625 38.140625 10.796875 36.28125 
z
" id="DejaVuSans-53"/>
       </defs>
       <use xlink:href="#DejaVuSans-50"/>
       <use x="63.623047" xlink:href="#DejaVuSans-53"/>
      </g>
     </g>
    </g>
    <g id="xtick_3">
     <g id="line2d_3">
      <g>
       <use style="fill:#262626;stroke:#262626;stroke-width:1.25;" x="126.749967" xlink:href="#m8fd718eb83" y="124.697812"/>
      </g>
     </g>
     <g id="text_3">
      <!-- 50 -->
      <g style="fill:#262626;" transform="translate(119.751217 142.556094)scale(0.11 -0.11)">
       <use xlink:href="#DejaVuSans-53"/>
       <use x="63.623047" xlink:href="#DejaVuSans-48"/>
      </g>
     </g>
    </g>
    <g id="text_4">
     <!-- Output Firing Rate -->
     <g style="fill:#262626;" transform="translate(39.066024 157.961875)scale(0.12 -0.12)">
      <defs>
       <path d="M 39.40625 66.21875 
Q 28.65625 66.21875 22.328125 58.203125 
Q 16.015625 50.203125 16.015625 36.375 
Q 16.015625 22.609375 22.328125 14.59375 
Q 28.65625 6.59375 39.40625 6.59375 
Q 50.140625 6.59375 56.421875 14.59375 
Q 62.703125 22.609375 62.703125 36.375 
Q 62.703125 50.203125 56.421875 58.203125 
Q 50.140625 66.21875 39.40625 66.21875 
z
M 39.40625 74.21875 
Q 54.734375 74.21875 63.90625 63.9375 
Q 73.09375 53.65625 73.09375 36.375 
Q 73.09375 19.140625 63.90625 8.859375 
Q 54.734375 -1.421875 39.40625 -1.421875 
Q 24.03125 -1.421875 14.8125 8.828125 
Q 5.609375 19.09375 5.609375 36.375 
Q 5.609375 53.65625 14.8125 63.9375 
Q 24.03125 74.21875 39.40625 74.21875 
z
" id="DejaVuSans-79"/>
       <path d="M 8.5 21.578125 
L 8.5 54.6875 
L 17.484375 54.6875 
L 17.484375 21.921875 
Q 17.484375 14.15625 20.5 10.265625 
Q 23.53125 6.390625 29.59375 6.390625 
Q 36.859375 6.390625 41.078125 11.03125 
Q 45.3125 15.671875 45.3125 23.6875 
L 45.3125 54.6875 
L 54.296875 54.6875 
L 54.296875 0 
L 45.3125 0 
L 45.3125 8.40625 
Q 42.046875 3.421875 37.71875 1 
Q 33.40625 -1.421875 27.6875 -1.421875 
Q 18.265625 -1.421875 13.375 4.4375 
Q 8.5 10.296875 8.5 21.578125 
z
M 31.109375 56 
z
" id="DejaVuSans-117"/>
       <path d="M 18.3125 70.21875 
L 18.3125 54.6875 
L 36.8125 54.6875 
L 36.8125 47.703125 
L 18.3125 47.703125 
L 18.3125 18.015625 
Q 18.3125 11.328125 20.140625 9.421875 
Q 21.96875 7.515625 27.59375 7.515625 
L 36.8125 7.515625 
L 36.8125 0 
L 27.59375 0 
Q 17.1875 0 13.234375 3.875 
Q 9.28125 7.765625 9.28125 18.015625 
L 9.28125 47.703125 
L 2.6875 47.703125 
L 2.6875 54.6875 
L 9.28125 54.6875 
L 9.28125 70.21875 
z
" id="DejaVuSans-116"/>
       <path d="M 18.109375 8.203125 
L 18.109375 -20.796875 
L 9.078125 -20.796875 
L 9.078125 54.6875 
L 18.109375 54.6875 
L 18.109375 46.390625 
Q 20.953125 51.265625 25.265625 53.625 
Q 29.59375 56 35.59375 56 
Q 45.5625 56 51.78125 48.09375 
Q 58.015625 40.1875 58.015625 27.296875 
Q 58.015625 14.40625 51.78125 6.484375 
Q 45.5625 -1.421875 35.59375 -1.421875 
Q 29.59375 -1.421875 25.265625 0.953125 
Q 20.953125 3.328125 18.109375 8.203125 
z
M 48.6875 27.296875 
Q 48.6875 37.203125 44.609375 42.84375 
Q 40.53125 48.484375 33.40625 48.484375 
Q 26.265625 48.484375 22.1875 42.84375 
Q 18.109375 37.203125 18.109375 27.296875 
Q 18.109375 17.390625 22.1875 11.75 
Q 26.265625 6.109375 33.40625 6.109375 
Q 40.53125 6.109375 44.609375 11.75 
Q 48.6875 17.390625 48.6875 27.296875 
z
" id="DejaVuSans-112"/>
       <path id="DejaVuSans-32"/>
       <path d="M 9.8125 72.90625 
L 51.703125 72.90625 
L 51.703125 64.59375 
L 19.671875 64.59375 
L 19.671875 43.109375 
L 48.578125 43.109375 
L 48.578125 34.8125 
L 19.671875 34.8125 
L 19.671875 0 
L 9.8125 0 
z
" id="DejaVuSans-70"/>
       <path d="M 9.421875 54.6875 
L 18.40625 54.6875 
L 18.40625 0 
L 9.421875 0 
z
M 9.421875 75.984375 
L 18.40625 75.984375 
L 18.40625 64.59375 
L 9.421875 64.59375 
z
" id="DejaVuSans-105"/>
       <path d="M 41.109375 46.296875 
Q 39.59375 47.171875 37.8125 47.578125 
Q 36.03125 48 33.890625 48 
Q 26.265625 48 22.1875 43.046875 
Q 18.109375 38.09375 18.109375 28.8125 
L 18.109375 0 
L 9.078125 0 
L 9.078125 54.6875 
L 18.109375 54.6875 
L 18.109375 46.1875 
Q 20.953125 51.171875 25.484375 53.578125 
Q 30.03125 56 36.53125 56 
Q 37.453125 56 38.578125 55.875 
Q 39.703125 55.765625 41.0625 55.515625 
z
" id="DejaVuSans-114"/>
       <path d="M 54.890625 33.015625 
L 54.890625 0 
L 45.90625 0 
L 45.90625 32.71875 
Q 45.90625 40.484375 42.875 44.328125 
Q 39.84375 48.1875 33.796875 48.1875 
Q 26.515625 48.1875 22.3125 43.546875 
Q 18.109375 38.921875 18.109375 30.90625 
L 18.109375 0 
L 9.078125 0 
L 9.078125 54.6875 
L 18.109375 54.6875 
L 18.109375 46.1875 
Q 21.34375 51.125 25.703125 53.5625 
Q 30.078125 56 35.796875 56 
Q 45.21875 56 50.046875 50.171875 
Q 54.890625 44.34375 54.890625 33.015625 
z
" id="DejaVuSans-110"/>
       <path d="M 45.40625 27.984375 
Q 45.40625 37.75 41.375 43.109375 
Q 37.359375 48.484375 30.078125 48.484375 
Q 22.859375 48.484375 18.828125 43.109375 
Q 14.796875 37.75 14.796875 27.984375 
Q 14.796875 18.265625 18.828125 12.890625 
Q 22.859375 7.515625 30.078125 7.515625 
Q 37.359375 7.515625 41.375 12.890625 
Q 45.40625 18.265625 45.40625 27.984375 
z
M 54.390625 6.78125 
Q 54.390625 -7.171875 48.1875 -13.984375 
Q 42 -20.796875 29.203125 -20.796875 
Q 24.46875 -20.796875 20.265625 -20.09375 
Q 16.0625 -19.390625 12.109375 -17.921875 
L 12.109375 -9.1875 
Q 16.0625 -11.328125 19.921875 -12.34375 
Q 23.78125 -13.375 27.78125 -13.375 
Q 36.625 -13.375 41.015625 -8.765625 
Q 45.40625 -4.15625 45.40625 5.171875 
L 45.40625 9.625 
Q 42.625 4.78125 38.28125 2.390625 
Q 33.9375 0 27.875 0 
Q 17.828125 0 11.671875 7.65625 
Q 5.515625 15.328125 5.515625 27.984375 
Q 5.515625 40.671875 11.671875 48.328125 
Q 17.828125 56 27.875 56 
Q 33.9375 56 38.28125 53.609375 
Q 42.625 51.21875 45.40625 46.390625 
L 45.40625 54.6875 
L 54.390625 54.6875 
z
" id="DejaVuSans-103"/>
       <path d="M 44.390625 34.1875 
Q 47.5625 33.109375 50.5625 29.59375 
Q 53.5625 26.078125 56.59375 19.921875 
L 66.609375 0 
L 56 0 
L 46.6875 18.703125 
Q 43.0625 26.03125 39.671875 28.421875 
Q 36.28125 30.8125 30.421875 30.8125 
L 19.671875 30.8125 
L 19.671875 0 
L 9.8125 0 
L 9.8125 72.90625 
L 32.078125 72.90625 
Q 44.578125 72.90625 50.734375 67.671875 
Q 56.890625 62.453125 56.890625 51.90625 
Q 56.890625 45.015625 53.6875 40.46875 
Q 50.484375 35.9375 44.390625 34.1875 
z
M 19.671875 64.796875 
L 19.671875 38.921875 
L 32.078125 38.921875 
Q 39.203125 38.921875 42.84375 42.21875 
Q 46.484375 45.515625 46.484375 51.90625 
Q 46.484375 58.296875 42.84375 61.546875 
Q 39.203125 64.796875 32.078125 64.796875 
z
" id="DejaVuSans-82"/>
       <path d="M 34.28125 27.484375 
Q 23.390625 27.484375 19.1875 25 
Q 14.984375 22.515625 14.984375 16.5 
Q 14.984375 11.71875 18.140625 8.90625 
Q 21.296875 6.109375 26.703125 6.109375 
Q 34.1875 6.109375 38.703125 11.40625 
Q 43.21875 16.703125 43.21875 25.484375 
L 43.21875 27.484375 
z
M 52.203125 31.203125 
L 52.203125 0 
L 43.21875 0 
L 43.21875 8.296875 
Q 40.140625 3.328125 35.546875 0.953125 
Q 30.953125 -1.421875 24.3125 -1.421875 
Q 15.921875 -1.421875 10.953125 3.296875 
Q 6 8.015625 6 15.921875 
Q 6 25.140625 12.171875 29.828125 
Q 18.359375 34.515625 30.609375 34.515625 
L 43.21875 34.515625 
L 43.21875 35.40625 
Q 43.21875 41.609375 39.140625 45 
Q 35.0625 48.390625 27.6875 48.390625 
Q 23 48.390625 18.546875 47.265625 
Q 14.109375 46.140625 10.015625 43.890625 
L 10.015625 52.203125 
Q 14.9375 54.109375 19.578125 55.046875 
Q 24.21875 56 28.609375 56 
Q 40.484375 56 46.34375 49.84375 
Q 52.203125 43.703125 52.203125 31.203125 
z
" id="DejaVuSans-97"/>
       <path d="M 56.203125 29.59375 
L 56.203125 25.203125 
L 14.890625 25.203125 
Q 15.484375 15.921875 20.484375 11.0625 
Q 25.484375 6.203125 34.421875 6.203125 
Q 39.59375 6.203125 44.453125 7.46875 
Q 49.3125 8.734375 54.109375 11.28125 
L 54.109375 2.78125 
Q 49.265625 0.734375 44.1875 -0.34375 
Q 39.109375 -1.421875 33.890625 -1.421875 
Q 20.796875 -1.421875 13.15625 6.1875 
Q 5.515625 13.8125 5.515625 26.8125 
Q 5.515625 40.234375 12.765625 48.109375 
Q 20.015625 56 32.328125 56 
Q 43.359375 56 49.78125 48.890625 
Q 56.203125 41.796875 56.203125 29.59375 
z
M 47.21875 32.234375 
Q 47.125 39.59375 43.09375 43.984375 
Q 39.0625 48.390625 32.421875 48.390625 
Q 24.90625 48.390625 20.390625 44.140625 
Q 15.875 39.890625 15.1875 32.171875 
z
" id="DejaVuSans-101"/>
      </defs>
      <use xlink:href="#DejaVuSans-79"/>
      <use x="78.710938" xlink:href="#DejaVuSans-117"/>
      <use x="142.089844" xlink:href="#DejaVuSans-116"/>
      <use x="181.298828" xlink:href="#DejaVuSans-112"/>
      <use x="244.775391" xlink:href="#DejaVuSans-117"/>
      <use x="308.154297" xlink:href="#DejaVuSans-116"/>
      <use x="347.363281" xlink:href="#DejaVuSans-32"/>
      <use x="379.150391" xlink:href="#DejaVuSans-70"/>
      <use x="429.419922" xlink:href="#DejaVuSans-105"/>
      <use x="457.203125" xlink:href="#DejaVuSans-114"/>
      <use x="498.316406" xlink:href="#DejaVuSans-105"/>
      <use x="526.099609" xlink:href="#DejaVuSans-110"/>
      <use x="589.478516" xlink:href="#DejaVuSans-103"/>
      <use x="652.955078" xlink:href="#DejaVuSans-32"/>
      <use x="684.742188" xlink:href="#DejaVuSans-82"/>
      <use x="751.974609" xlink:href="#DejaVuSans-97"/>
      <use x="813.253906" xlink:href="#DejaVuSans-116"/>
      <use x="852.462891" xlink:href="#DejaVuSans-101"/>
     </g>
    </g>
   </g>
   <g id="matplotlib.axis_2">
    <g id="ytick_1">
     <g id="line2d_4">
      <defs>
       <path d="M 0 0 
L -6 0 
" id="mf1f73823cf" style="stroke:#262626;stroke-width:1.25;"/>
      </defs>
      <g>
       <use style="fill:#262626;stroke:#262626;stroke-width:1.25;" x="57.77375" xlink:href="#mf1f73823cf" y="118.922301"/>
      </g>
     </g>
     <g id="text_5">
      <!-- 0.00 -->
      <g style="fill:#262626;" transform="translate(23.781563 123.101442)scale(0.11 -0.11)">
       <defs>
        <path d="M 10.6875 12.40625 
L 21 12.40625 
L 21 0 
L 10.6875 0 
z
" id="DejaVuSans-46"/>
       </defs>
       <use xlink:href="#DejaVuSans-48"/>
       <use x="63.623047" xlink:href="#DejaVuSans-46"/>
       <use x="95.410156" xlink:href="#DejaVuSans-48"/>
       <use x="159.033203" xlink:href="#DejaVuSans-48"/>
      </g>
     </g>
    </g>
    <g id="ytick_2">
     <g id="line2d_5">
      <g>
       <use style="fill:#262626;stroke:#262626;stroke-width:1.25;" x="57.77375" xlink:href="#mf1f73823cf" y="74.563356"/>
      </g>
     </g>
     <g id="text_6">
      <!-- 0.02 -->
      <g style="fill:#262626;" transform="translate(23.781563 78.742496)scale(0.11 -0.11)">
       <use xlink:href="#DejaVuSans-48"/>
       <use x="63.623047" xlink:href="#DejaVuSans-46"/>
       <use x="95.410156" xlink:href="#DejaVuSans-48"/>
       <use x="159.033203" xlink:href="#DejaVuSans-50"/>
      </g>
     </g>
    </g>
    <g id="ytick_3">
     <g id="line2d_6">
      <g>
       <use style="fill:#262626;stroke:#262626;stroke-width:1.25;" x="57.77375" xlink:href="#mf1f73823cf" y="30.204411"/>
      </g>
     </g>
     <g id="text_7">
      <!-- 0.04 -->
      <g style="fill:#262626;" transform="translate(23.781563 34.383551)scale(0.11 -0.11)">
       <defs>
        <path d="M 37.796875 64.3125 
L 12.890625 25.390625 
L 37.796875 25.390625 
z
M 35.203125 72.90625 
L 47.609375 72.90625 
L 47.609375 25.390625 
L 58.015625 25.390625 
L 58.015625 17.1875 
L 47.609375 17.1875 
L 47.609375 0 
L 37.796875 0 
L 37.796875 17.1875 
L 4.890625 17.1875 
L 4.890625 26.703125 
z
" id="DejaVuSans-52"/>
       </defs>
       <use xlink:href="#DejaVuSans-48"/>
       <use x="63.623047" xlink:href="#DejaVuSans-46"/>
       <use x="95.410156" xlink:href="#DejaVuSans-48"/>
       <use x="159.033203" xlink:href="#DejaVuSans-52"/>
      </g>
     </g>
    </g>
    <g id="text_8">
     <!-- E $[\Delta V_r]$ -->
     <g style="fill:#262626;" transform="translate(17.077969 89.937812)rotate(-90)scale(0.13 -0.13)">
      <defs>
       <path d="M 9.8125 72.90625 
L 55.90625 72.90625 
L 55.90625 64.59375 
L 19.671875 64.59375 
L 19.671875 43.015625 
L 54.390625 43.015625 
L 54.390625 34.71875 
L 19.671875 34.71875 
L 19.671875 8.296875 
L 56.78125 8.296875 
L 56.78125 0 
L 9.8125 0 
z
" id="DejaVuSans-69"/>
       <path d="M 8.59375 75.984375 
L 29.296875 75.984375 
L 29.296875 69 
L 17.578125 69 
L 17.578125 -6.203125 
L 29.296875 -6.203125 
L 29.296875 -13.1875 
L 8.59375 -13.1875 
z
" id="DejaVuSans-91"/>
       <path d="M 34.1875 63.1875 
L 14.15625 8.203125 
L 54.25 8.203125 
z
M 0.78125 0 
L 28.609375 72.90625 
L 39.796875 72.90625 
L 67.578125 0 
z
" id="DejaVuSans-916"/>
       <path d="M 20.609375 0 
L 7.8125 72.90625 
L 17.484375 72.90625 
L 28.078125 10.203125 
L 63.484375 72.90625 
L 74.21875 72.90625 
L 32.078125 0 
z
" id="DejaVuSans-Oblique-86"/>
       <path d="M 44.578125 46.390625 
Q 43.21875 47.125 41.453125 47.515625 
Q 39.703125 47.90625 37.703125 47.90625 
Q 30.515625 47.90625 25.140625 42.453125 
Q 19.78125 37.015625 18.015625 27.875 
L 12.5 0 
L 3.515625 0 
L 14.203125 54.6875 
L 23.1875 54.6875 
L 21.484375 46.1875 
Q 25.046875 50.921875 30 53.453125 
Q 34.96875 56 40.578125 56 
Q 42.046875 56 43.453125 55.828125 
Q 44.875 55.671875 46.296875 55.28125 
z
" id="DejaVuSans-Oblique-114"/>
       <path d="M 30.421875 75.984375 
L 30.421875 -13.1875 
L 9.71875 -13.1875 
L 9.71875 -6.203125 
L 21.390625 -6.203125 
L 21.390625 69 
L 9.71875 69 
L 9.71875 75.984375 
z
" id="DejaVuSans-93"/>
      </defs>
      <use transform="translate(0 0.015625)" xlink:href="#DejaVuSans-69"/>
      <use transform="translate(63.183594 0.015625)" xlink:href="#DejaVuSans-32"/>
      <use transform="translate(94.970703 0.015625)" xlink:href="#DejaVuSans-91"/>
      <use transform="translate(133.984375 0.015625)" xlink:href="#DejaVuSans-916"/>
      <use transform="translate(202.392578 0.015625)" xlink:href="#DejaVuSans-Oblique-86"/>
      <use transform="translate(270.800781 -16.390625)scale(0.7)" xlink:href="#DejaVuSans-Oblique-114"/>
      <use transform="translate(302.314453 0.015625)" xlink:href="#DejaVuSans-93"/>
     </g>
    </g>
   </g>
   <g id="line2d_7">
    <path clip-path="url(#p510194ec58)" d="M 61.058332 118.916481 
L 65.437774 118.88354 
L 69.817216 118.941564 
L 74.196659 119.209085 
L 78.576101 119.089487 
L 82.955544 119.013941 
L 87.334986 118.995041 
L 91.714428 119.170916 
L 96.093871 119.516903 
L 100.473313 119.299823 
L 104.852755 118.826796 
L 109.232198 118.936377 
L 113.61164 119.050508 
L 117.991082 118.934856 
L 122.370525 119.030192 
L 126.749967 119.147699 
" style="fill:none;stroke:#450d00;stroke-linecap:round;stroke-width:3;"/>
   </g>
   <g id="line2d_8">
    <path clip-path="url(#p510194ec58)" d="M 61.058332 118.908928 
L 65.437774 118.890059 
L 69.817216 118.950226 
L 74.196659 119.11512 
L 78.576101 119.095794 
L 82.955544 118.787933 
L 87.334986 118.837806 
L 91.714428 118.649496 
L 96.093871 118.720397 
L 100.473313 118.612278 
L 104.852755 118.276794 
L 109.232198 118.250232 
L 113.61164 118.42872 
L 117.991082 118.158004 
L 122.370525 118.008965 
L 126.749967 118.065704 
" style="fill:none;stroke:#5e2a00;stroke-linecap:round;stroke-width:3;"/>
   </g>
   <g id="line2d_9">
    <path clip-path="url(#p510194ec58)" d="M 61.058332 118.916032 
L 65.437774 118.920503 
L 69.817216 118.936403 
L 74.196659 119.078967 
L 78.576101 119.243885 
L 82.955544 119.079429 
L 87.334986 118.958138 
L 91.714428 118.795494 
L 96.093871 118.828838 
L 100.473313 118.622461 
L 104.852755 118.435058 
L 109.232198 118.450261 
L 113.61164 118.507072 
L 117.991082 118.479441 
L 122.370525 118.216997 
L 126.749967 118.348825 
" style="fill:none;stroke:#7b4400;stroke-linecap:round;stroke-width:3;"/>
   </g>
   <g id="line2d_10">
    <path clip-path="url(#p510194ec58)" d="M 61.058332 118.921109 
L 65.437774 118.919297 
L 69.817216 118.909491 
L 74.196659 118.921886 
L 78.576101 118.942817 
L 82.955544 118.904301 
L 87.334986 118.84912 
L 91.714428 118.88111 
L 96.093871 118.935723 
L 100.473313 118.912376 
L 104.852755 118.864778 
L 109.232198 118.874545 
L 113.61164 118.951539 
L 117.991082 118.984879 
L 122.370525 119.071087 
L 126.749967 119.134901 
" style="fill:none;stroke:#9a5e00;stroke-linecap:round;stroke-width:3;"/>
   </g>
   <g id="line2d_11">
    <path clip-path="url(#p510194ec58)" d="M 61.058332 116.991017 
L 65.437774 109.753323 
L 69.817216 102.876744 
L 74.196659 96.367887 
L 78.576101 89.720913 
L 82.955544 82.475752 
L 87.334986 75.282897 
L 91.714428 68.473714 
L 96.093871 61.454992 
L 100.473313 54.887256 
L 104.852755 48.047537 
L 109.232198 41.735929 
L 113.61164 34.868432 
L 117.991082 28.324725 
L 122.370525 22.032302 
L 126.749967 15.898722 
" style="fill:none;stroke:#bb7900;stroke-linecap:round;stroke-width:3;"/>
   </g>
   <g id="line2d_12">
    <path clip-path="url(#p510194ec58)" d="M 61.058332 117.179284 
L 65.437774 110.629068 
L 69.817216 104.40769 
L 74.196659 98.40832 
L 78.576101 92.288479 
L 82.955544 85.893419 
L 87.334986 79.494899 
L 91.714428 73.400895 
L 96.093871 67.027706 
L 100.473313 61.229702 
L 104.852755 55.156852 
L 109.232198 49.402451 
L 113.61164 43.14998 
L 117.991082 37.21867 
L 122.370525 31.595225 
L 126.749967 25.875437 
" style="fill:none;stroke:#dc9500;stroke-linecap:round;stroke-width:3;"/>
   </g>
   <g id="line2d_13">
    <path clip-path="url(#p510194ec58)" d="M 61.058332 117.389626 
L 65.437774 111.603933 
L 69.817216 106.071081 
L 74.196659 100.761867 
L 78.576101 95.490805 
L 82.955544 89.868555 
L 87.334986 84.095452 
L 91.714428 78.782822 
L 96.093871 73.148231 
L 100.473313 68.022581 
L 104.852755 62.795366 
L 109.232198 57.792805 
L 113.61164 52.224776 
L 117.991082 47.09928 
L 122.370525 42.205518 
L 126.749967 37.19671 
" style="fill:none;stroke:#f9b427;stroke-linecap:round;stroke-width:3;"/>
   </g>
   <g id="line2d_14">
    <path clip-path="url(#p510194ec58)" d="M 61.058332 117.71916 
L 65.437774 113.250994 
L 69.817216 108.938817 
L 74.196659 104.772961 
L 78.576101 100.784621 
L 82.955544 96.251851 
L 87.334986 91.811441 
L 91.714428 87.34144 
L 96.093871 82.716067 
L 100.473313 78.720845 
L 104.852755 74.705137 
L 109.232198 70.74678 
L 113.61164 66.414523 
L 117.991082 62.395554 
L 122.370525 58.417167 
L 126.749967 54.700833 
" style="fill:none;stroke:#ffdc57;stroke-linecap:round;stroke-width:3;"/>
   </g>
   <g id="patch_3">
    <path d="M 57.77375 124.697812 
L 57.77375 10.717812 
" style="fill:none;stroke:#262626;stroke-linecap:square;stroke-linejoin:miter;stroke-width:1.25;"/>
   </g>
   <g id="patch_4">
    <path d="M 57.77375 124.697812 
L 130.034549 124.697812 
" style="fill:none;stroke:#262626;stroke-linecap:square;stroke-linejoin:miter;stroke-width:1.25;"/>
   </g>
  </g>
  <g id="axes_2">
   <g id="patch_5">
    <path d="M 191.292021 124.697812 
L 263.55282 124.697812 
L 263.55282 10.717812 
L 191.292021 10.717812 
z
" style="fill:#ffffff;"/>
   </g>
   <g id="matplotlib.axis_3">
    <g id="xtick_4">
     <g id="line2d_15">
      <g>
       <use style="fill:#262626;stroke:#262626;stroke-width:1.25;" x="193.235958" xlink:href="#m8fd718eb83" y="124.697812"/>
      </g>
     </g>
     <g id="text_9">
      <!-- 0 -->
      <g style="fill:#262626;" transform="translate(189.736583 142.556094)scale(0.11 -0.11)">
       <use xlink:href="#DejaVuSans-48"/>
      </g>
     </g>
    </g>
    <g id="xtick_5">
     <g id="line2d_16">
      <g>
       <use style="fill:#262626;stroke:#262626;stroke-width:1.25;" x="226.752098" xlink:href="#m8fd718eb83" y="124.697812"/>
      </g>
     </g>
     <g id="text_10">
      <!-- 25 -->
      <g style="fill:#262626;" transform="translate(219.753348 142.556094)scale(0.11 -0.11)">
       <use xlink:href="#DejaVuSans-50"/>
       <use x="63.623047" xlink:href="#DejaVuSans-53"/>
      </g>
     </g>
    </g>
    <g id="xtick_6">
     <g id="line2d_17">
      <g>
       <use style="fill:#262626;stroke:#262626;stroke-width:1.25;" x="260.268238" xlink:href="#m8fd718eb83" y="124.697812"/>
      </g>
     </g>
     <g id="text_11">
      <!-- 50 -->
      <g style="fill:#262626;" transform="translate(253.269488 142.556094)scale(0.11 -0.11)">
       <use xlink:href="#DejaVuSans-53"/>
       <use x="63.623047" xlink:href="#DejaVuSans-48"/>
      </g>
     </g>
    </g>
    <g id="text_12">
     <!-- Output Firing Rate -->
     <g style="fill:#262626;" transform="translate(172.584296 157.961875)scale(0.12 -0.12)">
      <use xlink:href="#DejaVuSans-79"/>
      <use x="78.710938" xlink:href="#DejaVuSans-117"/>
      <use x="142.089844" xlink:href="#DejaVuSans-116"/>
      <use x="181.298828" xlink:href="#DejaVuSans-112"/>
      <use x="244.775391" xlink:href="#DejaVuSans-117"/>
      <use x="308.154297" xlink:href="#DejaVuSans-116"/>
      <use x="347.363281" xlink:href="#DejaVuSans-32"/>
      <use x="379.150391" xlink:href="#DejaVuSans-70"/>
      <use x="429.419922" xlink:href="#DejaVuSans-105"/>
      <use x="457.203125" xlink:href="#DejaVuSans-114"/>
      <use x="498.316406" xlink:href="#DejaVuSans-105"/>
      <use x="526.099609" xlink:href="#DejaVuSans-110"/>
      <use x="589.478516" xlink:href="#DejaVuSans-103"/>
      <use x="652.955078" xlink:href="#DejaVuSans-32"/>
      <use x="684.742188" xlink:href="#DejaVuSans-82"/>
      <use x="751.974609" xlink:href="#DejaVuSans-97"/>
      <use x="813.253906" xlink:href="#DejaVuSans-116"/>
      <use x="852.462891" xlink:href="#DejaVuSans-101"/>
     </g>
    </g>
   </g>
   <g id="matplotlib.axis_4">
    <g id="ytick_4">
     <g id="line2d_18">
      <g>
       <use style="fill:#262626;stroke:#262626;stroke-width:1.25;" x="191.292021" xlink:href="#mf1f73823cf" y="108.249217"/>
      </g>
     </g>
     <g id="text_13">
      <!-- $-5e^{-4}$ -->
      <g style="fill:#262626;" transform="translate(146.592021 112.428357)scale(0.11 -0.11)">
       <defs>
        <path d="M 10.59375 35.5 
L 73.1875 35.5 
L 73.1875 27.203125 
L 10.59375 27.203125 
z
" id="DejaVuSans-8722"/>
        <path d="M 48.09375 32.234375 
Q 48.25 33.015625 48.3125 33.84375 
Q 48.390625 34.671875 48.390625 35.5 
Q 48.390625 41.453125 44.890625 44.921875 
Q 41.40625 48.390625 35.40625 48.390625 
Q 28.71875 48.390625 23.578125 44.15625 
Q 18.453125 39.9375 15.828125 32.171875 
z
M 55.90625 25.203125 
L 14.109375 25.203125 
Q 13.8125 23.34375 13.71875 22.265625 
Q 13.625 21.1875 13.625 20.40625 
Q 13.625 13.625 17.796875 9.90625 
Q 21.96875 6.203125 29.59375 6.203125 
Q 35.453125 6.203125 40.671875 7.515625 
Q 45.90625 8.84375 50.390625 11.375 
L 48.6875 2.484375 
Q 43.84375 0.53125 38.6875 -0.4375 
Q 33.546875 -1.421875 28.21875 -1.421875 
Q 16.84375 -1.421875 10.71875 4.015625 
Q 4.59375 9.46875 4.59375 19.484375 
Q 4.59375 28.03125 7.640625 35.375 
Q 10.6875 42.71875 16.609375 48.484375 
Q 20.40625 52.09375 25.65625 54.046875 
Q 30.90625 56 36.8125 56 
Q 46.09375 56 51.578125 50.4375 
Q 57.078125 44.875 57.078125 35.5 
Q 57.078125 33.25 56.78125 30.6875 
Q 56.5 28.125 55.90625 25.203125 
z
" id="DejaVuSans-Oblique-101"/>
       </defs>
       <use transform="translate(0 0.684375)" xlink:href="#DejaVuSans-8722"/>
       <use transform="translate(83.789062 0.684375)" xlink:href="#DejaVuSans-53"/>
       <use transform="translate(147.412109 0.684375)" xlink:href="#DejaVuSans-Oblique-101"/>
       <use transform="translate(213.585443 38.965625)scale(0.7)" xlink:href="#DejaVuSans-8722"/>
       <use transform="translate(272.237786 38.965625)scale(0.7)" xlink:href="#DejaVuSans-52"/>
      </g>
     </g>
    </g>
    <g id="ytick_5">
     <g id="line2d_19">
      <g>
       <use style="fill:#262626;stroke:#262626;stroke-width:1.25;" x="191.292021" xlink:href="#mf1f73823cf" y="68.355426"/>
      </g>
     </g>
     <g id="text_14">
      <!-- $0$ -->
      <g style="fill:#262626;" transform="translate(174.752021 72.534567)scale(0.11 -0.11)">
       <use transform="translate(0 0.78125)" xlink:href="#DejaVuSans-48"/>
      </g>
     </g>
    </g>
    <g id="ytick_6">
     <g id="line2d_20">
      <g>
       <use style="fill:#262626;stroke:#262626;stroke-width:1.25;" x="191.292021" xlink:href="#mf1f73823cf" y="28.461635"/>
      </g>
     </g>
     <g id="text_15">
      <!-- $5e^{-4}$ -->
      <g style="fill:#262626;" transform="translate(155.832021 32.640776)scale(0.11 -0.11)">
       <use transform="translate(0 0.684375)" xlink:href="#DejaVuSans-53"/>
       <use transform="translate(63.623047 0.684375)" xlink:href="#DejaVuSans-Oblique-101"/>
       <use transform="translate(129.79638 38.965625)scale(0.7)" xlink:href="#DejaVuSans-8722"/>
       <use transform="translate(188.448724 38.965625)scale(0.7)" xlink:href="#DejaVuSans-52"/>
      </g>
     </g>
    </g>
   </g>
   <g id="line2d_21">
    <path clip-path="url(#p4a8bc521d8)" d="M 194.576603 68.190653 
L 198.956046 64.827191 
L 203.335488 60.156133 
L 207.71493 55.254512 
L 212.094373 50.480476 
L 216.473815 46.62527 
L 220.853257 44.305004 
L 225.2327 42.90412 
L 229.612142 42.187149 
L 233.991584 42.609022 
L 238.371027 44.038033 
L 242.750469 45.511945 
L 247.129911 46.667123 
L 251.509354 48.266209 
L 255.888796 49.828651 
L 260.268238 51.604139 
" style="fill:none;stroke:#4c0032;stroke-linecap:round;stroke-width:3;"/>
   </g>
   <g id="line2d_22">
    <path clip-path="url(#p4a8bc521d8)" d="M 194.576603 68.190333 
L 198.956046 64.560799 
L 203.335488 59.333181 
L 207.71493 53.453737 
L 212.094373 47.587096 
L 216.473815 42.22561 
L 220.853257 38.131785 
L 225.2327 35.066955 
L 229.612142 32.603152 
L 233.991584 31.714595 
L 238.371027 31.852064 
L 242.750469 32.358122 
L 247.129911 32.846096 
L 251.509354 33.858145 
L 255.888796 35.388124 
L 260.268238 37.17208 
" style="fill:none;stroke:#6a1d4c;stroke-linecap:round;stroke-width:3;"/>
   </g>
   <g id="line2d_23">
    <path clip-path="url(#p4a8bc521d8)" d="M 194.576603 68.18886 
L 198.956046 64.452437 
L 203.335488 58.963234 
L 207.71493 52.615164 
L 212.094373 46.173332 
L 216.473815 39.974605 
L 220.853257 34.924211 
L 225.2327 30.956529 
L 229.612142 27.433121 
L 233.991584 25.655296 
L 238.371027 24.749885 
L 242.750469 24.40453 
L 247.129911 24.195005 
L 251.509354 24.601149 
L 255.888796 25.825556 
L 260.268238 27.358877 
" style="fill:none;stroke:#873967;stroke-linecap:round;stroke-width:3;"/>
   </g>
   <g id="line2d_24">
    <path clip-path="url(#p4a8bc521d8)" d="M 194.576603 68.193511 
L 198.956046 64.390203 
L 203.335488 58.673812 
L 207.71493 51.940239 
L 212.094373 44.971072 
L 216.473815 38.050839 
L 220.853257 32.129422 
L 225.2327 27.381523 
L 229.612142 22.931536 
L 233.991584 20.27158 
L 238.371027 18.338013 
L 242.750469 17.06656 
L 247.129911 16.11443 
L 251.509354 15.898722 
L 255.888796 16.736036 
L 260.268238 17.865895 
" style="fill:none;stroke:#a55582;stroke-linecap:round;stroke-width:3;"/>
   </g>
   <g id="line2d_25">
    <path clip-path="url(#p4a8bc521d8)" d="M 194.576603 68.513342 
L 198.956046 72.222744 
L 203.335488 77.797993 
L 207.71493 84.36531 
L 212.094373 91.162404 
L 216.473815 97.911772 
L 220.853257 103.686983 
L 225.2327 108.317651 
L 229.612142 112.657762 
L 233.991584 115.252038 
L 238.371027 117.137859 
L 242.750469 118.377914 
L 247.129911 119.306528 
L 251.509354 119.516903 
L 255.888796 118.700255 
L 260.268238 117.598284 
" style="fill:none;stroke:#c4719f;stroke-linecap:round;stroke-width:3;"/>
   </g>
   <g id="line2d_26">
    <path clip-path="url(#p4a8bc521d8)" d="M 194.576603 68.501984 
L 198.956046 71.797647 
L 203.335488 76.640082 
L 207.71493 82.2405 
L 212.094373 87.923703 
L 216.473815 93.39199 
L 220.853257 97.846845 
L 225.2327 101.346583 
L 229.612142 104.453866 
L 233.991584 106.021013 
L 238.371027 106.818323 
L 242.750469 107.121561 
L 247.129911 107.304894 
L 251.509354 106.945029 
L 255.888796 105.863614 
L 260.268238 104.508792 
" style="fill:none;stroke:#e38ebc;stroke-linecap:round;stroke-width:3;"/>
   </g>
   <g id="line2d_27">
    <path clip-path="url(#p4a8bc521d8)" d="M 194.576603 68.477844 
L 198.956046 71.282544 
L 203.335488 75.333223 
L 207.71493 79.891182 
L 212.094373 84.443262 
L 216.473815 88.60077 
L 220.853257 91.768579 
L 225.2327 94.14054 
L 229.612142 96.043056 
L 233.991584 96.716432 
L 238.371027 96.595881 
L 242.750469 96.1883 
L 247.129911 95.802857 
L 251.509354 95.009362 
L 255.888796 93.81128 
L 260.268238 92.416064 
" style="fill:none;stroke:#fbafde;stroke-linecap:round;stroke-width:3;"/>
   </g>
   <g id="line2d_28">
    <path clip-path="url(#p4a8bc521d8)" d="M 194.576603 68.3804 
L 198.956046 70.153189 
L 203.335488 72.769997 
L 207.71493 75.574408 
L 212.094373 78.302079 
L 216.473815 80.510959 
L 220.853257 81.812568 
L 225.2327 82.590625 
L 229.612142 83.011211 
L 233.991584 82.745173 
L 238.371027 81.909006 
L 242.750469 81.042803 
L 247.129911 80.366805 
L 251.509354 79.460441 
L 255.888796 78.558077 
L 260.268238 77.505301 
" style="fill:none;stroke:#ffd9ff;stroke-linecap:round;stroke-width:3;"/>
   </g>
   <g id="patch_6">
    <path d="M 191.292021 124.697812 
L 191.292021 10.717812 
" style="fill:none;stroke:#262626;stroke-linecap:square;stroke-linejoin:miter;stroke-width:1.25;"/>
   </g>
   <g id="patch_7">
    <path d="M 191.292021 124.697812 
L 263.55282 124.697812 
" style="fill:none;stroke:#262626;stroke-linecap:square;stroke-linejoin:miter;stroke-width:1.25;"/>
   </g>
  </g>
  <g id="legend_1">
   <g id="patch_8">
    <path d="M 280.77875 129.435625 
L 351.881719 129.435625 
Q 354.081719 129.435625 354.081719 127.235625 
L 354.081719 9.4 
Q 354.081719 7.2 351.881719 7.2 
L 280.77875 7.2 
Q 278.57875 7.2 278.57875 9.4 
L 278.57875 127.235625 
Q 278.57875 129.435625 280.77875 129.435625 
z
" style="fill:#ffffff;opacity:0.8;stroke:#ffffff;stroke-linejoin:miter;"/>
   </g>
   <g id="text_16">
    <!-- $\hat{t}_{out} - \hat{t}_{target}$ -->
    <g style="fill:#262626;" transform="translate(284.050234 24.44)scale(0.12 -0.12)">
     <defs>
      <path d="M -28.609375 79.984375 
L -21.390625 79.984375 
L -9.421875 61.625 
L -16.21875 61.625 
L -25 73.578125 
L -33.796875 61.625 
L -40.578125 61.625 
z
M -25 56 
z
" id="DejaVuSans-770"/>
      <path d="M 42.28125 54.6875 
L 40.921875 47.703125 
L 23 47.703125 
L 17.1875 18.015625 
Q 16.890625 16.359375 16.75 15.234375 
Q 16.609375 14.109375 16.609375 13.484375 
Q 16.609375 10.359375 18.484375 8.9375 
Q 20.359375 7.515625 24.515625 7.515625 
L 33.59375 7.515625 
L 32.078125 0 
L 23.484375 0 
Q 15.484375 0 11.546875 3.125 
Q 7.625 6.25 7.625 12.59375 
Q 7.625 13.71875 7.765625 15.0625 
Q 7.90625 16.40625 8.203125 18.015625 
L 14.015625 47.703125 
L 6.390625 47.703125 
L 7.8125 54.6875 
L 15.28125 54.6875 
L 18.3125 70.21875 
L 27.296875 70.21875 
L 24.3125 54.6875 
z
" id="DejaVuSans-Oblique-116"/>
      <path d="M 25.390625 -1.421875 
Q 15.765625 -1.421875 10.171875 4.515625 
Q 4.59375 10.453125 4.59375 20.703125 
Q 4.59375 26.65625 6.515625 32.828125 
Q 8.453125 39.015625 11.53125 43.21875 
Q 16.359375 49.75 22.3125 52.875 
Q 28.265625 56 35.796875 56 
Q 45.125 56 50.859375 50.1875 
Q 56.59375 44.390625 56.59375 35.015625 
Q 56.59375 28.515625 54.6875 22.0625 
Q 52.78125 15.625 49.703125 11.375 
Q 44.921875 4.828125 38.96875 1.703125 
Q 33.015625 -1.421875 25.390625 -1.421875 
z
M 13.921875 21 
Q 13.921875 13.578125 17.015625 9.890625 
Q 20.125 6.203125 26.421875 6.203125 
Q 35.453125 6.203125 41.375 14.078125 
Q 47.3125 21.96875 47.3125 34.078125 
Q 47.3125 41.15625 44.140625 44.765625 
Q 40.96875 48.390625 34.8125 48.390625 
Q 29.734375 48.390625 25.78125 46.015625 
Q 21.828125 43.65625 18.703125 38.8125 
Q 16.40625 35.203125 15.15625 30.5625 
Q 13.921875 25.921875 13.921875 21 
z
" id="DejaVuSans-Oblique-111"/>
      <path d="M 6.6875 21.6875 
L 13.09375 54.6875 
L 22.125 54.6875 
L 15.71875 22.015625 
Q 15.234375 19.625 15.015625 17.921875 
Q 14.796875 16.21875 14.796875 15.09375 
Q 14.796875 10.9375 17.328125 8.65625 
Q 19.875 6.390625 24.515625 6.390625 
Q 31.734375 6.390625 37 11.265625 
Q 42.28125 16.15625 43.890625 24.421875 
L 49.90625 54.6875 
L 58.890625 54.6875 
L 48.296875 0 
L 39.3125 0 
L 41.109375 8.59375 
Q 37.3125 3.8125 32.0625 1.1875 
Q 26.8125 -1.421875 20.90625 -1.421875 
Q 13.71875 -1.421875 9.71875 2.515625 
Q 5.71875 6.453125 5.71875 13.484375 
Q 5.71875 14.9375 5.953125 17.140625 
Q 6.203125 19.34375 6.6875 21.6875 
z
" id="DejaVuSans-Oblique-117"/>
      <path d="M 53.71875 31.203125 
L 47.609375 0 
L 38.625 0 
L 40.28125 8.296875 
Q 36.328125 3.421875 31.265625 1 
Q 26.21875 -1.421875 20.015625 -1.421875 
Q 13.03125 -1.421875 8.5625 2.84375 
Q 4.109375 7.125 4.109375 13.8125 
Q 4.109375 23.390625 11.75 28.953125 
Q 19.390625 34.515625 32.8125 34.515625 
L 45.3125 34.515625 
L 45.796875 36.921875 
Q 45.90625 37.3125 45.953125 37.765625 
Q 46 38.234375 46 39.203125 
Q 46 43.5625 42.453125 45.96875 
Q 38.921875 48.390625 32.515625 48.390625 
Q 28.125 48.390625 23.5 47.265625 
Q 18.890625 46.140625 14.015625 43.890625 
L 15.578125 52.203125 
Q 20.65625 54.109375 25.515625 55.046875 
Q 30.375 56 34.90625 56 
Q 44.578125 56 49.625 51.796875 
Q 54.6875 47.609375 54.6875 39.59375 
Q 54.6875 37.984375 54.4375 35.8125 
Q 54.203125 33.640625 53.71875 31.203125 
z
M 44 27.484375 
L 35.015625 27.484375 
Q 23.96875 27.484375 18.671875 24.53125 
Q 13.375 21.578125 13.375 15.375 
Q 13.375 11.078125 16.078125 8.640625 
Q 18.796875 6.203125 23.578125 6.203125 
Q 30.90625 6.203125 36.375 11.453125 
Q 41.84375 16.703125 43.609375 25.484375 
z
" id="DejaVuSans-Oblique-97"/>
      <path d="M 59.625 54.6875 
L 50.296875 6.78125 
Q 47.609375 -7.125 40.015625 -13.953125 
Q 32.421875 -20.796875 19.578125 -20.796875 
Q 14.84375 -20.796875 10.78125 -20.09375 
Q 6.734375 -19.390625 3.21875 -17.921875 
L 4.890625 -9.1875 
Q 8.203125 -11.328125 11.90625 -12.34375 
Q 15.625 -13.375 19.828125 -13.375 
Q 28.375 -13.375 33.859375 -8.703125 
Q 39.359375 -4.046875 41.109375 4.6875 
L 41.890625 8.796875 
Q 38.140625 4.5 33.15625 2.25 
Q 28.171875 0 22.40625 0 
Q 14.109375 0 9.34375 5.484375 
Q 4.59375 10.984375 4.59375 20.609375 
Q 4.59375 28.171875 7.46875 35.421875 
Q 10.359375 42.671875 15.578125 48.296875 
Q 19.046875 52 23.65625 54 
Q 28.265625 56 33.296875 56 
Q 38.8125 56 42.90625 53.4375 
Q 47.015625 50.875 49.03125 46.1875 
L 50.59375 54.6875 
z
M 46.09375 34.625 
Q 46.09375 41.265625 42.96875 44.875 
Q 39.84375 48.484375 34.078125 48.484375 
Q 30.515625 48.484375 27.296875 47.0625 
Q 24.078125 45.65625 21.78125 43.109375 
Q 18.0625 38.921875 15.984375 33.234375 
Q 13.921875 27.546875 13.921875 21.484375 
Q 13.921875 14.75 17.0625 11.125 
Q 20.21875 7.515625 26.125 7.515625 
Q 34.671875 7.515625 40.375 15.25 
Q 46.09375 23 46.09375 34.625 
z
" id="DejaVuSans-Oblique-103"/>
     </defs>
     <use transform="translate(49.380371 27.015625)" xlink:href="#DejaVuSans-770"/>
     <use transform="translate(0 0.296875)" xlink:href="#DejaVuSans-Oblique-116"/>
     <use transform="translate(40.166016 -16.109375)scale(0.7)" xlink:href="#DejaVuSans-Oblique-111"/>
     <use transform="translate(82.993164 -16.109375)scale(0.7)" xlink:href="#DejaVuSans-Oblique-117"/>
     <use transform="translate(127.358398 -16.109375)scale(0.7)" xlink:href="#DejaVuSans-Oblique-116"/>
     <use transform="translate(177.021484 0.296875)" xlink:href="#DejaVuSans-8722"/>
     <use transform="translate(329.67334 27.015625)" xlink:href="#DejaVuSans-770"/>
     <use transform="translate(280.292969 0.296875)" xlink:href="#DejaVuSans-Oblique-116"/>
     <use transform="translate(320.458984 -16.109375)scale(0.7)" xlink:href="#DejaVuSans-Oblique-116"/>
     <use transform="translate(347.905273 -16.109375)scale(0.7)" xlink:href="#DejaVuSans-Oblique-97"/>
     <use transform="translate(390.800781 -16.109375)scale(0.7)" xlink:href="#DejaVuSans-Oblique-114"/>
     <use transform="translate(419.580078 -16.109375)scale(0.7)" xlink:href="#DejaVuSans-Oblique-103"/>
     <use transform="translate(464.013672 -16.109375)scale(0.7)" xlink:href="#DejaVuSans-Oblique-101"/>
     <use transform="translate(507.080078 -16.109375)scale(0.7)" xlink:href="#DejaVuSans-Oblique-116"/>
    </g>
   </g>
   <g id="line2d_29">
    <path d="M 282.97875 38.168281 
L 289.57875 38.168281 
" style="fill:none;stroke:#450d00;stroke-linecap:round;stroke-width:3;"/>
   </g>
   <g id="line2d_30"/>
   <g id="text_17">
    <!--   -->
    <g style="fill:#262626;" transform="translate(298.37875 42.018281)scale(0.11 -0.11)">
     <use xlink:href="#DejaVuSans-32"/>
    </g>
   </g>
   <g id="line2d_31">
    <path d="M 282.97875 54.314219 
L 289.57875 54.314219 
" style="fill:none;stroke:#7b4400;stroke-linecap:round;stroke-width:3;"/>
   </g>
   <g id="line2d_32"/>
   <g id="text_18">
    <!--   -->
    <g style="fill:#262626;" transform="translate(298.37875 58.164219)scale(0.11 -0.11)">
     <use xlink:href="#DejaVuSans-32"/>
    </g>
   </g>
   <g id="line2d_33">
    <path d="M 282.97875 70.460156 
L 289.57875 70.460156 
" style="fill:none;stroke:#9a5e00;stroke-linecap:round;stroke-width:3;"/>
   </g>
   <g id="line2d_34"/>
   <g id="text_19">
    <!--   -->
    <g style="fill:#262626;" transform="translate(298.37875 74.310156)scale(0.11 -0.11)">
     <use xlink:href="#DejaVuSans-32"/>
    </g>
   </g>
   <g id="line2d_35">
    <path d="M 282.97875 86.606094 
L 289.57875 86.606094 
" style="fill:none;stroke:#bb7900;stroke-linecap:round;stroke-width:3;"/>
   </g>
   <g id="line2d_36"/>
   <g id="text_20">
    <!--   -->
    <g style="fill:#262626;" transform="translate(298.37875 90.456094)scale(0.11 -0.11)">
     <use xlink:href="#DejaVuSans-32"/>
    </g>
   </g>
   <g id="line2d_37">
    <path d="M 282.97875 102.752031 
L 289.57875 102.752031 
" style="fill:none;stroke:#dc9500;stroke-linecap:round;stroke-width:3;"/>
   </g>
   <g id="line2d_38"/>
   <g id="text_21">
    <!--   -->
    <g style="fill:#262626;" transform="translate(298.37875 106.602031)scale(0.11 -0.11)">
     <use xlink:href="#DejaVuSans-32"/>
    </g>
   </g>
   <g id="line2d_39">
    <path d="M 282.97875 118.897969 
L 289.57875 118.897969 
" style="fill:none;stroke:#ffdc57;stroke-linecap:round;stroke-width:3;"/>
   </g>
   <g id="line2d_40"/>
   <g id="text_22">
    <!--   -->
    <g style="fill:#262626;" transform="translate(298.37875 122.747969)scale(0.11 -0.11)">
     <use xlink:href="#DejaVuSans-32"/>
    </g>
   </g>
   <g id="line2d_41">
    <path d="M 296.374687 38.168281 
L 302.974688 38.168281 
" style="fill:none;stroke:#4c0032;stroke-linecap:round;stroke-width:3;"/>
   </g>
   <g id="line2d_42"/>
   <g id="text_23">
    <!-- -20 ms -->
    <g style="fill:#262626;" transform="translate(311.774687 42.018281)scale(0.11 -0.11)">
     <defs>
      <path d="M 4.890625 31.390625 
L 31.203125 31.390625 
L 31.203125 23.390625 
L 4.890625 23.390625 
z
" id="DejaVuSans-45"/>
      <path d="M 52 44.1875 
Q 55.375 50.25 60.0625 53.125 
Q 64.75 56 71.09375 56 
Q 79.640625 56 84.28125 50.015625 
Q 88.921875 44.046875 88.921875 33.015625 
L 88.921875 0 
L 79.890625 0 
L 79.890625 32.71875 
Q 79.890625 40.578125 77.09375 44.375 
Q 74.3125 48.1875 68.609375 48.1875 
Q 61.625 48.1875 57.5625 43.546875 
Q 53.515625 38.921875 53.515625 30.90625 
L 53.515625 0 
L 44.484375 0 
L 44.484375 32.71875 
Q 44.484375 40.625 41.703125 44.40625 
Q 38.921875 48.1875 33.109375 48.1875 
Q 26.21875 48.1875 22.15625 43.53125 
Q 18.109375 38.875 18.109375 30.90625 
L 18.109375 0 
L 9.078125 0 
L 9.078125 54.6875 
L 18.109375 54.6875 
L 18.109375 46.1875 
Q 21.1875 51.21875 25.484375 53.609375 
Q 29.78125 56 35.6875 56 
Q 41.65625 56 45.828125 52.96875 
Q 50 49.953125 52 44.1875 
z
" id="DejaVuSans-109"/>
      <path d="M 44.28125 53.078125 
L 44.28125 44.578125 
Q 40.484375 46.53125 36.375 47.5 
Q 32.28125 48.484375 27.875 48.484375 
Q 21.1875 48.484375 17.84375 46.4375 
Q 14.5 44.390625 14.5 40.28125 
Q 14.5 37.15625 16.890625 35.375 
Q 19.28125 33.59375 26.515625 31.984375 
L 29.59375 31.296875 
Q 39.15625 29.25 43.1875 25.515625 
Q 47.21875 21.78125 47.21875 15.09375 
Q 47.21875 7.46875 41.1875 3.015625 
Q 35.15625 -1.421875 24.609375 -1.421875 
Q 20.21875 -1.421875 15.453125 -0.5625 
Q 10.6875 0.296875 5.421875 2 
L 5.421875 11.28125 
Q 10.40625 8.6875 15.234375 7.390625 
Q 20.0625 6.109375 24.8125 6.109375 
Q 31.15625 6.109375 34.5625 8.28125 
Q 37.984375 10.453125 37.984375 14.40625 
Q 37.984375 18.0625 35.515625 20.015625 
Q 33.0625 21.96875 24.703125 23.78125 
L 21.578125 24.515625 
Q 13.234375 26.265625 9.515625 29.90625 
Q 5.8125 33.546875 5.8125 39.890625 
Q 5.8125 47.609375 11.28125 51.796875 
Q 16.75 56 26.8125 56 
Q 31.78125 56 36.171875 55.265625 
Q 40.578125 54.546875 44.28125 53.078125 
z
" id="DejaVuSans-115"/>
     </defs>
     <use xlink:href="#DejaVuSans-45"/>
     <use x="36.083984" xlink:href="#DejaVuSans-50"/>
     <use x="99.707031" xlink:href="#DejaVuSans-48"/>
     <use x="163.330078" xlink:href="#DejaVuSans-32"/>
     <use x="195.117188" xlink:href="#DejaVuSans-109"/>
     <use x="292.529297" xlink:href="#DejaVuSans-115"/>
    </g>
   </g>
   <g id="line2d_43">
    <path d="M 296.374687 54.314219 
L 302.974688 54.314219 
" style="fill:none;stroke:#873967;stroke-linecap:round;stroke-width:3;"/>
   </g>
   <g id="line2d_44"/>
   <g id="text_24">
    <!-- -5 ms -->
    <g style="fill:#262626;" transform="translate(311.774687 58.164219)scale(0.11 -0.11)">
     <use xlink:href="#DejaVuSans-45"/>
     <use x="36.083984" xlink:href="#DejaVuSans-53"/>
     <use x="99.707031" xlink:href="#DejaVuSans-32"/>
     <use x="131.494141" xlink:href="#DejaVuSans-109"/>
     <use x="228.90625" xlink:href="#DejaVuSans-115"/>
    </g>
   </g>
   <g id="line2d_45">
    <path d="M 296.374687 70.460156 
L 302.974688 70.460156 
" style="fill:none;stroke:#a55582;stroke-linecap:round;stroke-width:3;"/>
   </g>
   <g id="line2d_46"/>
   <g id="text_25">
    <!-- -1 ms -->
    <g style="fill:#262626;" transform="translate(311.774687 74.310156)scale(0.11 -0.11)">
     <defs>
      <path d="M 12.40625 8.296875 
L 28.515625 8.296875 
L 28.515625 63.921875 
L 10.984375 60.40625 
L 10.984375 69.390625 
L 28.421875 72.90625 
L 38.28125 72.90625 
L 38.28125 8.296875 
L 54.390625 8.296875 
L 54.390625 0 
L 12.40625 0 
z
" id="DejaVuSans-49"/>
     </defs>
     <use xlink:href="#DejaVuSans-45"/>
     <use x="36.083984" xlink:href="#DejaVuSans-49"/>
     <use x="99.707031" xlink:href="#DejaVuSans-32"/>
     <use x="131.494141" xlink:href="#DejaVuSans-109"/>
     <use x="228.90625" xlink:href="#DejaVuSans-115"/>
    </g>
   </g>
   <g id="line2d_47">
    <path d="M 296.374687 86.606094 
L 302.974688 86.606094 
" style="fill:none;stroke:#c4719f;stroke-linecap:round;stroke-width:3;"/>
   </g>
   <g id="line2d_48"/>
   <g id="text_26">
    <!-- 1 ms -->
    <g style="fill:#262626;" transform="translate(311.774687 90.456094)scale(0.11 -0.11)">
     <use xlink:href="#DejaVuSans-49"/>
     <use x="63.623047" xlink:href="#DejaVuSans-32"/>
     <use x="95.410156" xlink:href="#DejaVuSans-109"/>
     <use x="192.822266" xlink:href="#DejaVuSans-115"/>
    </g>
   </g>
   <g id="line2d_49">
    <path d="M 296.374687 102.752031 
L 302.974688 102.752031 
" style="fill:none;stroke:#e38ebc;stroke-linecap:round;stroke-width:3;"/>
   </g>
   <g id="line2d_50"/>
   <g id="text_27">
    <!-- 5 ms -->
    <g style="fill:#262626;" transform="translate(311.774687 106.602031)scale(0.11 -0.11)">
     <use xlink:href="#DejaVuSans-53"/>
     <use x="63.623047" xlink:href="#DejaVuSans-32"/>
     <use x="95.410156" xlink:href="#DejaVuSans-109"/>
     <use x="192.822266" xlink:href="#DejaVuSans-115"/>
    </g>
   </g>
   <g id="line2d_51">
    <path d="M 296.374687 118.897969 
L 302.974688 118.897969 
" style="fill:none;stroke:#ffd9ff;stroke-linecap:round;stroke-width:3;"/>
   </g>
   <g id="line2d_52"/>
   <g id="text_28">
    <!-- 20 ms -->
    <g style="fill:#262626;" transform="translate(311.774687 122.747969)scale(0.11 -0.11)">
     <use xlink:href="#DejaVuSans-50"/>
     <use x="63.623047" xlink:href="#DejaVuSans-48"/>
     <use x="127.246094" xlink:href="#DejaVuSans-32"/>
     <use x="159.033203" xlink:href="#DejaVuSans-109"/>
     <use x="256.445312" xlink:href="#DejaVuSans-115"/>
    </g>
   </g>
  </g>
 </g>
 <defs>
  <clipPath id="p510194ec58">
   <rect height="113.98" width="72.260799" x="57.77375" y="10.717812"/>
  </clipPath>
  <clipPath id="p4a8bc521d8">
   <rect height="113.98" width="72.260799" x="191.292021" y="10.717812"/>
  </clipPath>
 </defs>
</svg>
