<?xml version="1.0" encoding="utf-8" standalone="no"?>
<!DOCTYPE svg PUBLIC "-//W3C//DTD SVG 1.1//EN"
  "http://www.w3.org/Graphics/SVG/1.1/DTD/svg11.dtd">
<!-- Created with matplotlib (https://matplotlib.org/) -->
<svg height="180pt" version="1.1" viewBox="0 0 230.4 180" width="230.4pt" xmlns="http://www.w3.org/2000/svg" xmlns:xlink="http://www.w3.org/1999/xlink">
 <metadata>
  <rdf:RDF xmlns:cc="http://creativecommons.org/ns#" xmlns:dc="http://purl.org/dc/elements/1.1/" xmlns:rdf="http://www.w3.org/1999/02/22-rdf-syntax-ns#">
   <cc:Work>
    <dc:type rdf:resource="http://purl.org/dc/dcmitype/StillImage"/>
    <dc:date>2021-06-03T18:43:09.888110</dc:date>
    <dc:format>image/svg+xml</dc:format>
    <dc:creator>
     <cc:Agent>
      <dc:title>Matplotlib v3.3.4, https://matplotlib.org/</dc:title>
     </cc:Agent>
    </dc:creator>
   </cc:Work>
  </rdf:RDF>
 </metadata>
 <defs>
  <style type="text/css">*{stroke-linecap:butt;stroke-linejoin:round;}</style>
 </defs>
 <g id="figure_1">
  <g id="patch_1">
   <path d="M 0 180 
L 230.4 180 
L 230.4 0 
L 0 0 
z
" style="fill:#ffffff;"/>
  </g>
  <g id="axes_1">
   <g id="patch_2">
    <path d="M 56.835 130.54 
L 92.853186 130.54 
L 92.853186 16.96 
L 56.835 16.96 
z
" style="fill:#ffffff;"/>
   </g>
   <g id="matplotlib.axis_1">
    <g id="xtick_1">
     <g id="line2d_1">
      <defs>
       <path d="M 0 0 
L 0 6 
" id="mc0cd89e5a1" style="stroke:#262626;stroke-width:1.25;"/>
      </defs>
      <g>
       <use style="fill:#262626;stroke:#262626;stroke-width:1.25;" x="59.251805" xlink:href="#mc0cd89e5a1" y="130.54"/>
      </g>
     </g>
     <g id="text_1">
      <!-- −10 -->
      <g style="fill:#262626;" transform="translate(47.644227 148.398281)scale(0.11 -0.11)">
       <defs>
        <path d="M 10.59375 35.5 
L 73.1875 35.5 
L 73.1875 27.203125 
L 10.59375 27.203125 
z
" id="DejaVuSans-8722"/>
        <path d="M 12.40625 8.296875 
L 28.515625 8.296875 
L 28.515625 63.921875 
L 10.984375 60.40625 
L 10.984375 69.390625 
L 28.421875 72.90625 
L 38.28125 72.90625 
L 38.28125 8.296875 
L 54.390625 8.296875 
L 54.390625 0 
L 12.40625 0 
z
" id="DejaVuSans-49"/>
        <path d="M 31.78125 66.40625 
Q 24.171875 66.40625 20.328125 58.90625 
Q 16.5 51.421875 16.5 36.375 
Q 16.5 21.390625 20.328125 13.890625 
Q 24.171875 6.390625 31.78125 6.390625 
Q 39.453125 6.390625 43.28125 13.890625 
Q 47.125 21.390625 47.125 36.375 
Q 47.125 51.421875 43.28125 58.90625 
Q 39.453125 66.40625 31.78125 66.40625 
z
M 31.78125 74.21875 
Q 44.046875 74.21875 50.515625 64.515625 
Q 56.984375 54.828125 56.984375 36.375 
Q 56.984375 17.96875 50.515625 8.265625 
Q 44.046875 -1.421875 31.78125 -1.421875 
Q 19.53125 -1.421875 13.0625 8.265625 
Q 6.59375 17.96875 6.59375 36.375 
Q 6.59375 54.828125 13.0625 64.515625 
Q 19.53125 74.21875 31.78125 74.21875 
z
" id="DejaVuSans-48"/>
       </defs>
       <use xlink:href="#DejaVuSans-8722"/>
       <use x="83.789062" xlink:href="#DejaVuSans-49"/>
       <use x="147.412109" xlink:href="#DejaVuSans-48"/>
      </g>
     </g>
    </g>
    <g id="xtick_2">
     <g id="line2d_2">
      <g>
       <use style="fill:#262626;stroke:#262626;stroke-width:1.25;" x="74.844093" xlink:href="#mc0cd89e5a1" y="130.54"/>
      </g>
     </g>
     <g id="text_2">
      <!-- 0 -->
      <g style="fill:#262626;" transform="translate(71.344718 148.398281)scale(0.11 -0.11)">
       <use xlink:href="#DejaVuSans-48"/>
      </g>
     </g>
    </g>
    <g id="xtick_3">
     <g id="line2d_3">
      <g>
       <use style="fill:#262626;stroke:#262626;stroke-width:1.25;" x="90.436381" xlink:href="#mc0cd89e5a1" y="130.54"/>
      </g>
     </g>
     <g id="text_3">
      <!-- 10 -->
      <g style="fill:#262626;" transform="translate(83.437631 148.398281)scale(0.11 -0.11)">
       <use xlink:href="#DejaVuSans-49"/>
       <use x="63.623047" xlink:href="#DejaVuSans-48"/>
      </g>
     </g>
    </g>
    <g id="text_4">
     <!--   -->
     <g style="fill:#262626;" transform="translate(72.937218 163.804062)scale(0.12 -0.12)">
      <defs>
       <path id="DejaVuSans-32"/>
      </defs>
      <use xlink:href="#DejaVuSans-32"/>
     </g>
    </g>
   </g>
   <g id="matplotlib.axis_2">
    <g id="ytick_1">
     <g id="line2d_4">
      <defs>
       <path d="M 0 0 
L -6 0 
" id="m713cb8a53e" style="stroke:#262626;stroke-width:1.25;"/>
      </defs>
      <g>
       <use style="fill:#262626;stroke:#262626;stroke-width:1.25;" x="56.835" xlink:href="#m713cb8a53e" y="130.54"/>
      </g>
     </g>
     <g id="text_5">
      <!-- 0.0 -->
      <g style="fill:#262626;" transform="translate(29.841563 134.719141)scale(0.11 -0.11)">
       <defs>
        <path d="M 10.6875 12.40625 
L 21 12.40625 
L 21 0 
L 10.6875 0 
z
" id="DejaVuSans-46"/>
       </defs>
       <use xlink:href="#DejaVuSans-48"/>
       <use x="63.623047" xlink:href="#DejaVuSans-46"/>
       <use x="95.410156" xlink:href="#DejaVuSans-48"/>
      </g>
     </g>
    </g>
    <g id="ytick_2">
     <g id="line2d_5">
      <g>
       <use style="fill:#262626;stroke:#262626;stroke-width:1.25;" x="56.835" xlink:href="#m713cb8a53e" y="107.824"/>
      </g>
     </g>
     <g id="text_6">
      <!-- 0.2 -->
      <g style="fill:#262626;" transform="translate(29.841563 112.003141)scale(0.11 -0.11)">
       <defs>
        <path d="M 19.1875 8.296875 
L 53.609375 8.296875 
L 53.609375 0 
L 7.328125 0 
L 7.328125 8.296875 
Q 12.9375 14.109375 22.625 23.890625 
Q 32.328125 33.6875 34.8125 36.53125 
Q 39.546875 41.84375 41.421875 45.53125 
Q 43.3125 49.21875 43.3125 52.78125 
Q 43.3125 58.59375 39.234375 62.25 
Q 35.15625 65.921875 28.609375 65.921875 
Q 23.96875 65.921875 18.8125 64.3125 
Q 13.671875 62.703125 7.8125 59.421875 
L 7.8125 69.390625 
Q 13.765625 71.78125 18.9375 73 
Q 24.125 74.21875 28.421875 74.21875 
Q 39.75 74.21875 46.484375 68.546875 
Q 53.21875 62.890625 53.21875 53.421875 
Q 53.21875 48.921875 51.53125 44.890625 
Q 49.859375 40.875 45.40625 35.40625 
Q 44.1875 33.984375 37.640625 27.21875 
Q 31.109375 20.453125 19.1875 8.296875 
z
" id="DejaVuSans-50"/>
       </defs>
       <use xlink:href="#DejaVuSans-48"/>
       <use x="63.623047" xlink:href="#DejaVuSans-46"/>
       <use x="95.410156" xlink:href="#DejaVuSans-50"/>
      </g>
     </g>
    </g>
    <g id="ytick_3">
     <g id="line2d_6">
      <g>
       <use style="fill:#262626;stroke:#262626;stroke-width:1.25;" x="56.835" xlink:href="#m713cb8a53e" y="85.108"/>
      </g>
     </g>
     <g id="text_7">
      <!-- 0.4 -->
      <g style="fill:#262626;" transform="translate(29.841563 89.287141)scale(0.11 -0.11)">
       <defs>
        <path d="M 37.796875 64.3125 
L 12.890625 25.390625 
L 37.796875 25.390625 
z
M 35.203125 72.90625 
L 47.609375 72.90625 
L 47.609375 25.390625 
L 58.015625 25.390625 
L 58.015625 17.1875 
L 47.609375 17.1875 
L 47.609375 0 
L 37.796875 0 
L 37.796875 17.1875 
L 4.890625 17.1875 
L 4.890625 26.703125 
z
" id="DejaVuSans-52"/>
       </defs>
       <use xlink:href="#DejaVuSans-48"/>
       <use x="63.623047" xlink:href="#DejaVuSans-46"/>
       <use x="95.410156" xlink:href="#DejaVuSans-52"/>
      </g>
     </g>
    </g>
    <g id="ytick_4">
     <g id="line2d_7">
      <g>
       <use style="fill:#262626;stroke:#262626;stroke-width:1.25;" x="56.835" xlink:href="#m713cb8a53e" y="62.392"/>
      </g>
     </g>
     <g id="text_8">
      <!-- 0.6 -->
      <g style="fill:#262626;" transform="translate(29.841563 66.571141)scale(0.11 -0.11)">
       <defs>
        <path d="M 33.015625 40.375 
Q 26.375 40.375 22.484375 35.828125 
Q 18.609375 31.296875 18.609375 23.390625 
Q 18.609375 15.53125 22.484375 10.953125 
Q 26.375 6.390625 33.015625 6.390625 
Q 39.65625 6.390625 43.53125 10.953125 
Q 47.40625 15.53125 47.40625 23.390625 
Q 47.40625 31.296875 43.53125 35.828125 
Q 39.65625 40.375 33.015625 40.375 
z
M 52.59375 71.296875 
L 52.59375 62.3125 
Q 48.875 64.0625 45.09375 64.984375 
Q 41.3125 65.921875 37.59375 65.921875 
Q 27.828125 65.921875 22.671875 59.328125 
Q 17.53125 52.734375 16.796875 39.40625 
Q 19.671875 43.65625 24.015625 45.921875 
Q 28.375 48.1875 33.59375 48.1875 
Q 44.578125 48.1875 50.953125 41.515625 
Q 57.328125 34.859375 57.328125 23.390625 
Q 57.328125 12.15625 50.6875 5.359375 
Q 44.046875 -1.421875 33.015625 -1.421875 
Q 20.359375 -1.421875 13.671875 8.265625 
Q 6.984375 17.96875 6.984375 36.375 
Q 6.984375 53.65625 15.1875 63.9375 
Q 23.390625 74.21875 37.203125 74.21875 
Q 40.921875 74.21875 44.703125 73.484375 
Q 48.484375 72.75 52.59375 71.296875 
z
" id="DejaVuSans-54"/>
       </defs>
       <use xlink:href="#DejaVuSans-48"/>
       <use x="63.623047" xlink:href="#DejaVuSans-46"/>
       <use x="95.410156" xlink:href="#DejaVuSans-54"/>
      </g>
     </g>
    </g>
    <g id="ytick_5">
     <g id="line2d_8">
      <g>
       <use style="fill:#262626;stroke:#262626;stroke-width:1.25;" x="56.835" xlink:href="#m713cb8a53e" y="39.676"/>
      </g>
     </g>
     <g id="text_9">
      <!-- 0.8 -->
      <g style="fill:#262626;" transform="translate(29.841563 43.855141)scale(0.11 -0.11)">
       <defs>
        <path d="M 31.78125 34.625 
Q 24.75 34.625 20.71875 30.859375 
Q 16.703125 27.09375 16.703125 20.515625 
Q 16.703125 13.921875 20.71875 10.15625 
Q 24.75 6.390625 31.78125 6.390625 
Q 38.8125 6.390625 42.859375 10.171875 
Q 46.921875 13.96875 46.921875 20.515625 
Q 46.921875 27.09375 42.890625 30.859375 
Q 38.875 34.625 31.78125 34.625 
z
M 21.921875 38.8125 
Q 15.578125 40.375 12.03125 44.71875 
Q 8.5 49.078125 8.5 55.328125 
Q 8.5 64.0625 14.71875 69.140625 
Q 20.953125 74.21875 31.78125 74.21875 
Q 42.671875 74.21875 48.875 69.140625 
Q 55.078125 64.0625 55.078125 55.328125 
Q 55.078125 49.078125 51.53125 44.71875 
Q 48 40.375 41.703125 38.8125 
Q 48.828125 37.15625 52.796875 32.3125 
Q 56.78125 27.484375 56.78125 20.515625 
Q 56.78125 9.90625 50.3125 4.234375 
Q 43.84375 -1.421875 31.78125 -1.421875 
Q 19.734375 -1.421875 13.25 4.234375 
Q 6.78125 9.90625 6.78125 20.515625 
Q 6.78125 27.484375 10.78125 32.3125 
Q 14.796875 37.15625 21.921875 38.8125 
z
M 18.3125 54.390625 
Q 18.3125 48.734375 21.84375 45.5625 
Q 25.390625 42.390625 31.78125 42.390625 
Q 38.140625 42.390625 41.71875 45.5625 
Q 45.3125 48.734375 45.3125 54.390625 
Q 45.3125 60.0625 41.71875 63.234375 
Q 38.140625 66.40625 31.78125 66.40625 
Q 25.390625 66.40625 21.84375 63.234375 
Q 18.3125 60.0625 18.3125 54.390625 
z
" id="DejaVuSans-56"/>
       </defs>
       <use xlink:href="#DejaVuSans-48"/>
       <use x="63.623047" xlink:href="#DejaVuSans-46"/>
       <use x="95.410156" xlink:href="#DejaVuSans-56"/>
      </g>
     </g>
    </g>
    <g id="ytick_6">
     <g id="line2d_9">
      <g>
       <use style="fill:#262626;stroke:#262626;stroke-width:1.25;" x="56.835" xlink:href="#m713cb8a53e" y="16.96"/>
      </g>
     </g>
     <g id="text_10">
      <!-- 1.0 -->
      <g style="fill:#262626;" transform="translate(29.841563 21.139141)scale(0.11 -0.11)">
       <use xlink:href="#DejaVuSans-49"/>
       <use x="63.623047" xlink:href="#DejaVuSans-46"/>
       <use x="95.410156" xlink:href="#DejaVuSans-48"/>
      </g>
     </g>
    </g>
    <g id="text_11">
     <!-- Density -->
     <g style="fill:#262626;" transform="translate(23.345937 96.560312)rotate(-90)scale(0.12 -0.12)">
      <defs>
       <path d="M 19.671875 64.796875 
L 19.671875 8.109375 
L 31.59375 8.109375 
Q 46.6875 8.109375 53.6875 14.9375 
Q 60.6875 21.78125 60.6875 36.53125 
Q 60.6875 51.171875 53.6875 57.984375 
Q 46.6875 64.796875 31.59375 64.796875 
z
M 9.8125 72.90625 
L 30.078125 72.90625 
Q 51.265625 72.90625 61.171875 64.09375 
Q 71.09375 55.28125 71.09375 36.53125 
Q 71.09375 17.671875 61.125 8.828125 
Q 51.171875 0 30.078125 0 
L 9.8125 0 
z
" id="DejaVuSans-68"/>
       <path d="M 56.203125 29.59375 
L 56.203125 25.203125 
L 14.890625 25.203125 
Q 15.484375 15.921875 20.484375 11.0625 
Q 25.484375 6.203125 34.421875 6.203125 
Q 39.59375 6.203125 44.453125 7.46875 
Q 49.3125 8.734375 54.109375 11.28125 
L 54.109375 2.78125 
Q 49.265625 0.734375 44.1875 -0.34375 
Q 39.109375 -1.421875 33.890625 -1.421875 
Q 20.796875 -1.421875 13.15625 6.1875 
Q 5.515625 13.8125 5.515625 26.8125 
Q 5.515625 40.234375 12.765625 48.109375 
Q 20.015625 56 32.328125 56 
Q 43.359375 56 49.78125 48.890625 
Q 56.203125 41.796875 56.203125 29.59375 
z
M 47.21875 32.234375 
Q 47.125 39.59375 43.09375 43.984375 
Q 39.0625 48.390625 32.421875 48.390625 
Q 24.90625 48.390625 20.390625 44.140625 
Q 15.875 39.890625 15.1875 32.171875 
z
" id="DejaVuSans-101"/>
       <path d="M 54.890625 33.015625 
L 54.890625 0 
L 45.90625 0 
L 45.90625 32.71875 
Q 45.90625 40.484375 42.875 44.328125 
Q 39.84375 48.1875 33.796875 48.1875 
Q 26.515625 48.1875 22.3125 43.546875 
Q 18.109375 38.921875 18.109375 30.90625 
L 18.109375 0 
L 9.078125 0 
L 9.078125 54.6875 
L 18.109375 54.6875 
L 18.109375 46.1875 
Q 21.34375 51.125 25.703125 53.5625 
Q 30.078125 56 35.796875 56 
Q 45.21875 56 50.046875 50.171875 
Q 54.890625 44.34375 54.890625 33.015625 
z
" id="DejaVuSans-110"/>
       <path d="M 44.28125 53.078125 
L 44.28125 44.578125 
Q 40.484375 46.53125 36.375 47.5 
Q 32.28125 48.484375 27.875 48.484375 
Q 21.1875 48.484375 17.84375 46.4375 
Q 14.5 44.390625 14.5 40.28125 
Q 14.5 37.15625 16.890625 35.375 
Q 19.28125 33.59375 26.515625 31.984375 
L 29.59375 31.296875 
Q 39.15625 29.25 43.1875 25.515625 
Q 47.21875 21.78125 47.21875 15.09375 
Q 47.21875 7.46875 41.1875 3.015625 
Q 35.15625 -1.421875 24.609375 -1.421875 
Q 20.21875 -1.421875 15.453125 -0.5625 
Q 10.6875 0.296875 5.421875 2 
L 5.421875 11.28125 
Q 10.40625 8.6875 15.234375 7.390625 
Q 20.0625 6.109375 24.8125 6.109375 
Q 31.15625 6.109375 34.5625 8.28125 
Q 37.984375 10.453125 37.984375 14.40625 
Q 37.984375 18.0625 35.515625 20.015625 
Q 33.0625 21.96875 24.703125 23.78125 
L 21.578125 24.515625 
Q 13.234375 26.265625 9.515625 29.90625 
Q 5.8125 33.546875 5.8125 39.890625 
Q 5.8125 47.609375 11.28125 51.796875 
Q 16.75 56 26.8125 56 
Q 31.78125 56 36.171875 55.265625 
Q 40.578125 54.546875 44.28125 53.078125 
z
" id="DejaVuSans-115"/>
       <path d="M 9.421875 54.6875 
L 18.40625 54.6875 
L 18.40625 0 
L 9.421875 0 
z
M 9.421875 75.984375 
L 18.40625 75.984375 
L 18.40625 64.59375 
L 9.421875 64.59375 
z
" id="DejaVuSans-105"/>
       <path d="M 18.3125 70.21875 
L 18.3125 54.6875 
L 36.8125 54.6875 
L 36.8125 47.703125 
L 18.3125 47.703125 
L 18.3125 18.015625 
Q 18.3125 11.328125 20.140625 9.421875 
Q 21.96875 7.515625 27.59375 7.515625 
L 36.8125 7.515625 
L 36.8125 0 
L 27.59375 0 
Q 17.1875 0 13.234375 3.875 
Q 9.28125 7.765625 9.28125 18.015625 
L 9.28125 47.703125 
L 2.6875 47.703125 
L 2.6875 54.6875 
L 9.28125 54.6875 
L 9.28125 70.21875 
z
" id="DejaVuSans-116"/>
       <path d="M 32.171875 -5.078125 
Q 28.375 -14.84375 24.75 -17.8125 
Q 21.140625 -20.796875 15.09375 -20.796875 
L 7.90625 -20.796875 
L 7.90625 -13.28125 
L 13.1875 -13.28125 
Q 16.890625 -13.28125 18.9375 -11.515625 
Q 21 -9.765625 23.484375 -3.21875 
L 25.09375 0.875 
L 2.984375 54.6875 
L 12.5 54.6875 
L 29.59375 11.921875 
L 46.6875 54.6875 
L 56.203125 54.6875 
z
" id="DejaVuSans-121"/>
      </defs>
      <use xlink:href="#DejaVuSans-68"/>
      <use x="77.001953" xlink:href="#DejaVuSans-101"/>
      <use x="138.525391" xlink:href="#DejaVuSans-110"/>
      <use x="201.904297" xlink:href="#DejaVuSans-115"/>
      <use x="254.003906" xlink:href="#DejaVuSans-105"/>
      <use x="281.787109" xlink:href="#DejaVuSans-116"/>
      <use x="320.996094" xlink:href="#DejaVuSans-121"/>
     </g>
    </g>
   </g>
   <g id="patch_3">
    <path clip-path="url(#p0915445acc)" d="M 58.47219 130.54 
L 60.031419 130.54 
L 60.031419 130.462724 
L 58.47219 130.462724 
z
" style="fill:#002a61;"/>
   </g>
   <g id="patch_4">
    <path clip-path="url(#p0915445acc)" d="M 60.031419 130.54 
L 61.590648 130.54 
L 61.590648 130.478179 
L 60.031419 130.478179 
z
" style="fill:#002a61;"/>
   </g>
   <g id="patch_5">
    <path clip-path="url(#p0915445acc)" d="M 61.590648 130.54 
L 63.149877 130.54 
L 63.149877 130.416359 
L 61.590648 130.416359 
z
" style="fill:#002a61;"/>
   </g>
   <g id="patch_6">
    <path clip-path="url(#p0915445acc)" d="M 63.149877 130.54 
L 64.709106 130.54 
L 64.709106 130.323628 
L 63.149877 130.323628 
z
" style="fill:#002a61;"/>
   </g>
   <g id="patch_7">
    <path clip-path="url(#p0915445acc)" d="M 64.709106 130.54 
L 66.268334 130.54 
L 66.268334 130.362266 
L 64.709106 130.362266 
z
" style="fill:#002a61;"/>
   </g>
   <g id="patch_8">
    <path clip-path="url(#p0915445acc)" d="M 66.268334 130.54 
L 67.827563 130.54 
L 67.827563 130.199986 
L 66.268334 130.199986 
z
" style="fill:#002a61;"/>
   </g>
   <g id="patch_9">
    <path clip-path="url(#p0915445acc)" d="M 67.827563 130.54 
L 69.386792 130.54 
L 69.386792 130.068617 
L 67.827563 130.068617 
z
" style="fill:#002a61;"/>
   </g>
   <g id="patch_10">
    <path clip-path="url(#p0915445acc)" d="M 69.386792 130.54 
L 70.946021 130.54 
L 70.946021 129.682238 
L 69.386792 129.682238 
z
" style="fill:#002a61;"/>
   </g>
   <g id="patch_11">
    <path clip-path="url(#p0915445acc)" d="M 70.946021 130.54 
L 72.50525 130.54 
L 72.50525 128.345367 
L 70.946021 128.345367 
z
" style="fill:#002a61;"/>
   </g>
   <g id="patch_12">
    <path clip-path="url(#p0915445acc)" d="M 72.50525 130.54 
L 74.064478 130.54 
L 74.064478 110.185549 
L 72.50525 110.185549 
z
" style="fill:#002a61;"/>
   </g>
   <g id="patch_13">
    <path clip-path="url(#p0915445acc)" d="M 74.064478 130.54 
L 75.623707 130.54 
L 75.623707 49.184017 
L 74.064478 49.184017 
z
" style="fill:#002a61;"/>
   </g>
   <g id="patch_14">
    <path clip-path="url(#p0915445acc)" d="M 75.623707 130.54 
L 77.182936 130.54 
L 77.182936 125.084327 
L 75.623707 125.084327 
z
" style="fill:#002a61;"/>
   </g>
   <g id="patch_15">
    <path clip-path="url(#p0915445acc)" d="M 77.182936 130.54 
L 78.742165 130.54 
L 78.742165 129.921793 
L 77.182936 129.921793 
z
" style="fill:#002a61;"/>
   </g>
   <g id="patch_16">
    <path clip-path="url(#p0915445acc)" d="M 78.742165 130.54 
L 80.301394 130.54 
L 80.301394 130.277262 
L 78.742165 130.277262 
z
" style="fill:#002a61;"/>
   </g>
   <g id="patch_17">
    <path clip-path="url(#p0915445acc)" d="M 80.301394 130.54 
L 81.860622 130.54 
L 81.860622 130.292717 
L 80.301394 130.292717 
z
" style="fill:#002a61;"/>
   </g>
   <g id="patch_18">
    <path clip-path="url(#p0915445acc)" d="M 81.860622 130.54 
L 83.419851 130.54 
L 83.419851 130.362266 
L 81.860622 130.362266 
z
" style="fill:#002a61;"/>
   </g>
   <g id="patch_19">
    <path clip-path="url(#p0915445acc)" d="M 83.419851 130.54 
L 84.97908 130.54 
L 84.97908 130.354538 
L 83.419851 130.354538 
z
" style="fill:#002a61;"/>
   </g>
   <g id="patch_20">
    <path clip-path="url(#p0915445acc)" d="M 84.97908 130.54 
L 86.538309 130.54 
L 86.538309 130.431814 
L 84.97908 130.431814 
z
" style="fill:#002a61;"/>
   </g>
   <g id="patch_21">
    <path clip-path="url(#p0915445acc)" d="M 86.538309 130.54 
L 88.097538 130.54 
L 88.097538 130.470452 
L 86.538309 130.470452 
z
" style="fill:#002a61;"/>
   </g>
   <g id="patch_22">
    <path clip-path="url(#p0915445acc)" d="M 88.097538 130.54 
L 89.656767 130.54 
L 89.656767 130.462724 
L 88.097538 130.462724 
z
" style="fill:#002a61;"/>
   </g>
   <g id="patch_23">
    <path clip-path="url(#p0915445acc)" d="M 89.656767 130.54 
L 91.215995 130.54 
L 91.215995 130.393176 
L 89.656767 130.393176 
z
" style="fill:#002a61;"/>
   </g>
   <g id="patch_24">
    <path d="M 56.835 130.54 
L 56.835 16.96 
" style="fill:none;stroke:#262626;stroke-linecap:square;stroke-linejoin:miter;stroke-width:1.25;"/>
   </g>
   <g id="patch_25">
    <path d="M 56.835 130.54 
L 92.853186 130.54 
" style="fill:none;stroke:#262626;stroke-linecap:square;stroke-linejoin:miter;stroke-width:1.25;"/>
   </g>
  </g>
  <g id="axes_2">
   <g id="patch_26">
    <path d="M 117.390363 130.54 
L 153.408549 130.54 
L 153.408549 16.96 
L 117.390363 16.96 
z
" style="fill:#ffffff;"/>
   </g>
   <g id="matplotlib.axis_3">
    <g id="xtick_4">
     <g id="line2d_10">
      <g>
       <use style="fill:#262626;stroke:#262626;stroke-width:1.25;" x="119.807168" xlink:href="#mc0cd89e5a1" y="130.54"/>
      </g>
     </g>
     <g id="text_12">
      <!-- −10 -->
      <g style="fill:#262626;" transform="translate(108.199589 148.398281)scale(0.11 -0.11)">
       <use xlink:href="#DejaVuSans-8722"/>
       <use x="83.789062" xlink:href="#DejaVuSans-49"/>
       <use x="147.412109" xlink:href="#DejaVuSans-48"/>
      </g>
     </g>
    </g>
    <g id="xtick_5">
     <g id="line2d_11">
      <g>
       <use style="fill:#262626;stroke:#262626;stroke-width:1.25;" x="135.399456" xlink:href="#mc0cd89e5a1" y="130.54"/>
      </g>
     </g>
     <g id="text_13">
      <!-- 0 -->
      <g style="fill:#262626;" transform="translate(131.900081 148.398281)scale(0.11 -0.11)">
       <use xlink:href="#DejaVuSans-48"/>
      </g>
     </g>
    </g>
    <g id="xtick_6">
     <g id="line2d_12">
      <g>
       <use style="fill:#262626;stroke:#262626;stroke-width:1.25;" x="150.991744" xlink:href="#mc0cd89e5a1" y="130.54"/>
      </g>
     </g>
     <g id="text_14">
      <!-- 10 -->
      <g style="fill:#262626;" transform="translate(143.992994 148.398281)scale(0.11 -0.11)">
       <use xlink:href="#DejaVuSans-49"/>
       <use x="63.623047" xlink:href="#DejaVuSans-48"/>
      </g>
     </g>
    </g>
   </g>
   <g id="matplotlib.axis_4"/>
   <g id="patch_27">
    <path clip-path="url(#pea8d8e45b1)" d="M 119.027553 130.54 
L 120.586782 130.54 
L 120.586782 130.287828 
L 119.027553 130.287828 
z
" style="fill:#0675b6;"/>
   </g>
   <g id="patch_28">
    <path clip-path="url(#pea8d8e45b1)" d="M 120.586782 130.54 
L 122.146011 130.54 
L 122.146011 130.216904 
L 120.586782 130.216904 
z
" style="fill:#0675b6;"/>
   </g>
   <g id="patch_29">
    <path clip-path="url(#pea8d8e45b1)" d="M 122.146011 130.54 
L 123.70524 130.54 
L 123.70524 130.098698 
L 122.146011 130.098698 
z
" style="fill:#0675b6;"/>
   </g>
   <g id="patch_30">
    <path clip-path="url(#pea8d8e45b1)" d="M 123.70524 130.54 
L 125.264468 130.54 
L 125.264468 130.012014 
L 123.70524 130.012014 
z
" style="fill:#0675b6;"/>
   </g>
   <g id="patch_31">
    <path clip-path="url(#pea8d8e45b1)" d="M 125.264468 130.54 
L 126.823697 130.54 
L 126.823697 129.641636 
L 125.264468 129.641636 
z
" style="fill:#0675b6;"/>
   </g>
   <g id="patch_32">
    <path clip-path="url(#pea8d8e45b1)" d="M 126.823697 130.54 
L 128.382926 130.54 
L 128.382926 129.452507 
L 126.823697 129.452507 
z
" style="fill:#0675b6;"/>
   </g>
   <g id="patch_33">
    <path clip-path="url(#pea8d8e45b1)" d="M 128.382926 130.54 
L 129.942155 130.54 
L 129.942155 128.4911 
L 128.382926 128.4911 
z
" style="fill:#0675b6;"/>
   </g>
   <g id="patch_34">
    <path clip-path="url(#pea8d8e45b1)" d="M 129.942155 130.54 
L 131.501384 130.54 
L 131.501384 127.088391 
L 129.942155 127.088391 
z
" style="fill:#0675b6;"/>
   </g>
   <g id="patch_35">
    <path clip-path="url(#pea8d8e45b1)" d="M 131.501384 130.54 
L 133.060612 130.54 
L 133.060612 122.502007 
L 131.501384 122.502007 
z
" style="fill:#0675b6;"/>
   </g>
   <g id="patch_36">
    <path clip-path="url(#pea8d8e45b1)" d="M 133.060612 130.54 
L 134.619841 130.54 
L 134.619841 104.912985 
L 133.060612 104.912985 
z
" style="fill:#0675b6;"/>
   </g>
   <g id="patch_37">
    <path clip-path="url(#pea8d8e45b1)" d="M 134.619841 130.54 
L 136.17907 130.54 
L 136.17907 85.495715 
L 134.619841 85.495715 
z
" style="fill:#0675b6;"/>
   </g>
   <g id="patch_38">
    <path clip-path="url(#pea8d8e45b1)" d="M 136.17907 130.54 
L 137.738299 130.54 
L 137.738299 113.857223 
L 136.17907 113.857223 
z
" style="fill:#0675b6;"/>
   </g>
   <g id="patch_39">
    <path clip-path="url(#pea8d8e45b1)" d="M 137.738299 130.54 
L 139.297528 130.54 
L 139.297528 126.670731 
L 137.738299 126.670731 
z
" style="fill:#0675b6;"/>
   </g>
   <g id="patch_40">
    <path clip-path="url(#pea8d8e45b1)" d="M 139.297528 130.54 
L 140.856757 130.54 
L 140.856757 128.814196 
L 139.297528 128.814196 
z
" style="fill:#0675b6;"/>
   </g>
   <g id="patch_41">
    <path clip-path="url(#pea8d8e45b1)" d="M 140.856757 130.54 
L 142.415985 130.54 
L 142.415985 129.617995 
L 140.856757 129.617995 
z
" style="fill:#0675b6;"/>
   </g>
   <g id="patch_42">
    <path clip-path="url(#pea8d8e45b1)" d="M 142.415985 130.54 
L 143.975214 130.54 
L 143.975214 129.807124 
L 142.415985 129.807124 
z
" style="fill:#0675b6;"/>
   </g>
   <g id="patch_43">
    <path clip-path="url(#pea8d8e45b1)" d="M 143.975214 130.54 
L 145.534443 130.54 
L 145.534443 130.043536 
L 143.975214 130.043536 
z
" style="fill:#0675b6;"/>
   </g>
   <g id="patch_44">
    <path clip-path="url(#pea8d8e45b1)" d="M 145.534443 130.54 
L 147.093672 130.54 
L 147.093672 130.177502 
L 145.534443 130.177502 
z
" style="fill:#0675b6;"/>
   </g>
   <g id="patch_45">
    <path clip-path="url(#pea8d8e45b1)" d="M 147.093672 130.54 
L 148.652901 130.54 
L 148.652901 130.185383 
L 147.093672 130.185383 
z
" style="fill:#0675b6;"/>
   </g>
   <g id="patch_46">
    <path clip-path="url(#pea8d8e45b1)" d="M 148.652901 130.54 
L 150.212129 130.54 
L 150.212129 130.295708 
L 148.652901 130.295708 
z
" style="fill:#0675b6;"/>
   </g>
   <g id="patch_47">
    <path clip-path="url(#pea8d8e45b1)" d="M 150.212129 130.54 
L 151.771358 130.54 
L 151.771358 130.090818 
L 150.212129 130.090818 
z
" style="fill:#0675b6;"/>
   </g>
   <g id="patch_48">
    <path d="M 117.390363 130.54 
L 153.408549 130.54 
" style="fill:none;stroke:#262626;stroke-linecap:square;stroke-linejoin:miter;stroke-width:1.25;"/>
   </g>
  </g>
  <g id="axes_3">
   <g id="patch_49">
    <path d="M 177.945726 130.54 
L 213.963911 130.54 
L 213.963911 16.96 
L 177.945726 16.96 
z
" style="fill:#ffffff;"/>
   </g>
   <g id="matplotlib.axis_5">
    <g id="xtick_7">
     <g id="line2d_13">
      <g>
       <use style="fill:#262626;stroke:#262626;stroke-width:1.25;" x="180.36253" xlink:href="#mc0cd89e5a1" y="130.54"/>
      </g>
     </g>
     <g id="text_15">
      <!-- −10 -->
      <g style="fill:#262626;" transform="translate(168.754952 148.398281)scale(0.11 -0.11)">
       <use xlink:href="#DejaVuSans-8722"/>
       <use x="83.789062" xlink:href="#DejaVuSans-49"/>
       <use x="147.412109" xlink:href="#DejaVuSans-48"/>
      </g>
     </g>
    </g>
    <g id="xtick_8">
     <g id="line2d_14">
      <g>
       <use style="fill:#262626;stroke:#262626;stroke-width:1.25;" x="195.954819" xlink:href="#mc0cd89e5a1" y="130.54"/>
      </g>
     </g>
     <g id="text_16">
      <!-- 0 -->
      <g style="fill:#262626;" transform="translate(192.455444 148.398281)scale(0.11 -0.11)">
       <use xlink:href="#DejaVuSans-48"/>
      </g>
     </g>
    </g>
    <g id="xtick_9">
     <g id="line2d_15">
      <g>
       <use style="fill:#262626;stroke:#262626;stroke-width:1.25;" x="211.547107" xlink:href="#mc0cd89e5a1" y="130.54"/>
      </g>
     </g>
     <g id="text_17">
      <!-- 10 -->
      <g style="fill:#262626;" transform="translate(204.548357 148.398281)scale(0.11 -0.11)">
       <use xlink:href="#DejaVuSans-49"/>
       <use x="63.623047" xlink:href="#DejaVuSans-48"/>
      </g>
     </g>
    </g>
   </g>
   <g id="matplotlib.axis_6"/>
   <g id="patch_50">
    <path clip-path="url(#p9e8b182159)" d="M 179.582916 130.54 
L 181.142145 130.54 
L 181.142145 130.222077 
L 179.582916 130.222077 
z
" style="fill:#7dc2ff;"/>
   </g>
   <g id="patch_51">
    <path clip-path="url(#p9e8b182159)" d="M 181.142145 130.54 
L 182.701374 130.54 
L 182.701374 130.010128 
L 181.142145 130.010128 
z
" style="fill:#7dc2ff;"/>
   </g>
   <g id="patch_52">
    <path clip-path="url(#p9e8b182159)" d="M 182.701374 130.54 
L 184.260602 130.54 
L 184.260602 129.716661 
L 182.701374 129.716661 
z
" style="fill:#7dc2ff;"/>
   </g>
   <g id="patch_53">
    <path clip-path="url(#p9e8b182159)" d="M 184.260602 130.54 
L 185.819831 130.54 
L 185.819831 129.578079 
L 184.260602 129.578079 
z
" style="fill:#7dc2ff;"/>
   </g>
   <g id="patch_54">
    <path clip-path="url(#p9e8b182159)" d="M 185.819831 130.54 
L 187.37906 130.54 
L 187.37906 129.227549 
L 185.819831 129.227549 
z
" style="fill:#7dc2ff;"/>
   </g>
   <g id="patch_55">
    <path clip-path="url(#p9e8b182159)" d="M 187.37906 130.54 
L 188.938289 130.54 
L 188.938289 128.656918 
L 187.37906 128.656918 
z
" style="fill:#7dc2ff;"/>
   </g>
   <g id="patch_56">
    <path clip-path="url(#p9e8b182159)" d="M 188.938289 130.54 
L 190.497518 130.54 
L 190.497518 127.841731 
L 188.938289 127.841731 
z
" style="fill:#7dc2ff;"/>
   </g>
   <g id="patch_57">
    <path clip-path="url(#p9e8b182159)" d="M 190.497518 130.54 
L 192.056747 130.54 
L 192.056747 126.496673 
L 190.497518 126.496673 
z
" style="fill:#7dc2ff;"/>
   </g>
   <g id="patch_58">
    <path clip-path="url(#p9e8b182159)" d="M 192.056747 130.54 
L 193.615975 130.54 
L 193.615975 122.412586 
L 192.056747 122.412586 
z
" style="fill:#7dc2ff;"/>
   </g>
   <g id="patch_59">
    <path clip-path="url(#p9e8b182159)" d="M 193.615975 130.54 
L 195.175204 130.54 
L 195.175204 115.084055 
L 193.615975 115.084055 
z
" style="fill:#7dc2ff;"/>
   </g>
   <g id="patch_60">
    <path clip-path="url(#p9e8b182159)" d="M 195.175204 130.54 
L 196.734433 130.54 
L 196.734433 105.179533 
L 195.175204 105.179533 
z
" style="fill:#7dc2ff;"/>
   </g>
   <g id="patch_61">
    <path clip-path="url(#p9e8b182159)" d="M 196.734433 130.54 
L 198.293662 130.54 
L 198.293662 108.766356 
L 196.734433 108.766356 
z
" style="fill:#7dc2ff;"/>
   </g>
   <g id="patch_62">
    <path clip-path="url(#p9e8b182159)" d="M 198.293662 130.54 
L 199.852891 130.54 
L 199.852891 118.442625 
L 198.293662 118.442625 
z
" style="fill:#7dc2ff;"/>
   </g>
   <g id="patch_63">
    <path clip-path="url(#p9e8b182159)" d="M 199.852891 130.54 
L 201.412119 130.54 
L 201.412119 123.994049 
L 199.852891 123.994049 
z
" style="fill:#7dc2ff;"/>
   </g>
   <g id="patch_64">
    <path clip-path="url(#p9e8b182159)" d="M 201.412119 130.54 
L 202.971348 130.54 
L 202.971348 126.969481 
L 201.412119 126.969481 
z
" style="fill:#7dc2ff;"/>
   </g>
   <g id="patch_65">
    <path clip-path="url(#p9e8b182159)" d="M 202.971348 130.54 
L 204.530577 130.54 
L 204.530577 128.208565 
L 202.971348 128.208565 
z
" style="fill:#7dc2ff;"/>
   </g>
   <g id="patch_66">
    <path clip-path="url(#p9e8b182159)" d="M 204.530577 130.54 
L 206.089806 130.54 
L 206.089806 128.811804 
L 204.530577 128.811804 
z
" style="fill:#7dc2ff;"/>
   </g>
   <g id="patch_67">
    <path clip-path="url(#p9e8b182159)" d="M 206.089806 130.54 
L 207.649035 130.54 
L 207.649035 129.382435 
L 206.089806 129.382435 
z
" style="fill:#7dc2ff;"/>
   </g>
   <g id="patch_68">
    <path clip-path="url(#p9e8b182159)" d="M 207.649035 130.54 
L 209.208263 130.54 
L 209.208263 129.651446 
L 207.649035 129.651446 
z
" style="fill:#7dc2ff;"/>
   </g>
   <g id="patch_69">
    <path clip-path="url(#p9e8b182159)" d="M 209.208263 130.54 
L 210.767492 130.54 
L 210.767492 129.781876 
L 209.208263 129.781876 
z
" style="fill:#7dc2ff;"/>
   </g>
   <g id="patch_70">
    <path clip-path="url(#p9e8b182159)" d="M 210.767492 130.54 
L 212.326721 130.54 
L 212.326721 129.325371 
L 210.767492 129.325371 
z
" style="fill:#7dc2ff;"/>
   </g>
   <g id="patch_71">
    <path d="M 177.945726 130.54 
L 213.963911 130.54 
" style="fill:none;stroke:#262626;stroke-linecap:square;stroke-linejoin:miter;stroke-width:1.25;"/>
   </g>
  </g>
  <g id="text_18">
   <!-- Spike Offset [ms] -->
   <g style="fill:#262626;" transform="translate(74.903438 167.4)scale(0.12 -0.12)">
    <defs>
     <path d="M 53.515625 70.515625 
L 53.515625 60.890625 
Q 47.90625 63.578125 42.921875 64.890625 
Q 37.9375 66.21875 33.296875 66.21875 
Q 25.25 66.21875 20.875 63.09375 
Q 16.5 59.96875 16.5 54.203125 
Q 16.5 49.359375 19.40625 46.890625 
Q 22.3125 44.4375 30.421875 42.921875 
L 36.375 41.703125 
Q 47.40625 39.59375 52.65625 34.296875 
Q 57.90625 29 57.90625 20.125 
Q 57.90625 9.515625 50.796875 4.046875 
Q 43.703125 -1.421875 29.984375 -1.421875 
Q 24.8125 -1.421875 18.96875 -0.25 
Q 13.140625 0.921875 6.890625 3.21875 
L 6.890625 13.375 
Q 12.890625 10.015625 18.65625 8.296875 
Q 24.421875 6.59375 29.984375 6.59375 
Q 38.421875 6.59375 43.015625 9.90625 
Q 47.609375 13.234375 47.609375 19.390625 
Q 47.609375 24.75 44.3125 27.78125 
Q 41.015625 30.8125 33.5 32.328125 
L 27.484375 33.5 
Q 16.453125 35.6875 11.515625 40.375 
Q 6.59375 45.0625 6.59375 53.421875 
Q 6.59375 63.09375 13.40625 68.65625 
Q 20.21875 74.21875 32.171875 74.21875 
Q 37.3125 74.21875 42.625 73.28125 
Q 47.953125 72.359375 53.515625 70.515625 
z
" id="DejaVuSans-83"/>
     <path d="M 18.109375 8.203125 
L 18.109375 -20.796875 
L 9.078125 -20.796875 
L 9.078125 54.6875 
L 18.109375 54.6875 
L 18.109375 46.390625 
Q 20.953125 51.265625 25.265625 53.625 
Q 29.59375 56 35.59375 56 
Q 45.5625 56 51.78125 48.09375 
Q 58.015625 40.1875 58.015625 27.296875 
Q 58.015625 14.40625 51.78125 6.484375 
Q 45.5625 -1.421875 35.59375 -1.421875 
Q 29.59375 -1.421875 25.265625 0.953125 
Q 20.953125 3.328125 18.109375 8.203125 
z
M 48.6875 27.296875 
Q 48.6875 37.203125 44.609375 42.84375 
Q 40.53125 48.484375 33.40625 48.484375 
Q 26.265625 48.484375 22.1875 42.84375 
Q 18.109375 37.203125 18.109375 27.296875 
Q 18.109375 17.390625 22.1875 11.75 
Q 26.265625 6.109375 33.40625 6.109375 
Q 40.53125 6.109375 44.609375 11.75 
Q 48.6875 17.390625 48.6875 27.296875 
z
" id="DejaVuSans-112"/>
     <path d="M 9.078125 75.984375 
L 18.109375 75.984375 
L 18.109375 31.109375 
L 44.921875 54.6875 
L 56.390625 54.6875 
L 27.390625 29.109375 
L 57.625 0 
L 45.90625 0 
L 18.109375 26.703125 
L 18.109375 0 
L 9.078125 0 
z
" id="DejaVuSans-107"/>
     <path d="M 39.40625 66.21875 
Q 28.65625 66.21875 22.328125 58.203125 
Q 16.015625 50.203125 16.015625 36.375 
Q 16.015625 22.609375 22.328125 14.59375 
Q 28.65625 6.59375 39.40625 6.59375 
Q 50.140625 6.59375 56.421875 14.59375 
Q 62.703125 22.609375 62.703125 36.375 
Q 62.703125 50.203125 56.421875 58.203125 
Q 50.140625 66.21875 39.40625 66.21875 
z
M 39.40625 74.21875 
Q 54.734375 74.21875 63.90625 63.9375 
Q 73.09375 53.65625 73.09375 36.375 
Q 73.09375 19.140625 63.90625 8.859375 
Q 54.734375 -1.421875 39.40625 -1.421875 
Q 24.03125 -1.421875 14.8125 8.828125 
Q 5.609375 19.09375 5.609375 36.375 
Q 5.609375 53.65625 14.8125 63.9375 
Q 24.03125 74.21875 39.40625 74.21875 
z
" id="DejaVuSans-79"/>
     <path d="M 37.109375 75.984375 
L 37.109375 68.5 
L 28.515625 68.5 
Q 23.6875 68.5 21.796875 66.546875 
Q 19.921875 64.59375 19.921875 59.515625 
L 19.921875 54.6875 
L 34.71875 54.6875 
L 34.71875 47.703125 
L 19.921875 47.703125 
L 19.921875 0 
L 10.890625 0 
L 10.890625 47.703125 
L 2.296875 47.703125 
L 2.296875 54.6875 
L 10.890625 54.6875 
L 10.890625 58.5 
Q 10.890625 67.625 15.140625 71.796875 
Q 19.390625 75.984375 28.609375 75.984375 
z
" id="DejaVuSans-102"/>
     <path d="M 8.59375 75.984375 
L 29.296875 75.984375 
L 29.296875 69 
L 17.578125 69 
L 17.578125 -6.203125 
L 29.296875 -6.203125 
L 29.296875 -13.1875 
L 8.59375 -13.1875 
z
" id="DejaVuSans-91"/>
     <path d="M 52 44.1875 
Q 55.375 50.25 60.0625 53.125 
Q 64.75 56 71.09375 56 
Q 79.640625 56 84.28125 50.015625 
Q 88.921875 44.046875 88.921875 33.015625 
L 88.921875 0 
L 79.890625 0 
L 79.890625 32.71875 
Q 79.890625 40.578125 77.09375 44.375 
Q 74.3125 48.1875 68.609375 48.1875 
Q 61.625 48.1875 57.5625 43.546875 
Q 53.515625 38.921875 53.515625 30.90625 
L 53.515625 0 
L 44.484375 0 
L 44.484375 32.71875 
Q 44.484375 40.625 41.703125 44.40625 
Q 38.921875 48.1875 33.109375 48.1875 
Q 26.21875 48.1875 22.15625 43.53125 
Q 18.109375 38.875 18.109375 30.90625 
L 18.109375 0 
L 9.078125 0 
L 9.078125 54.6875 
L 18.109375 54.6875 
L 18.109375 46.1875 
Q 21.1875 51.21875 25.484375 53.609375 
Q 29.78125 56 35.6875 56 
Q 41.65625 56 45.828125 52.96875 
Q 50 49.953125 52 44.1875 
z
" id="DejaVuSans-109"/>
     <path d="M 30.421875 75.984375 
L 30.421875 -13.1875 
L 9.71875 -13.1875 
L 9.71875 -6.203125 
L 21.390625 -6.203125 
L 21.390625 69 
L 9.71875 69 
L 9.71875 75.984375 
z
" id="DejaVuSans-93"/>
    </defs>
    <use xlink:href="#DejaVuSans-83"/>
    <use x="63.476562" xlink:href="#DejaVuSans-112"/>
    <use x="126.953125" xlink:href="#DejaVuSans-105"/>
    <use x="154.736328" xlink:href="#DejaVuSans-107"/>
    <use x="209.021484" xlink:href="#DejaVuSans-101"/>
    <use x="270.544922" xlink:href="#DejaVuSans-32"/>
    <use x="302.332031" xlink:href="#DejaVuSans-79"/>
    <use x="381.042969" xlink:href="#DejaVuSans-102"/>
    <use x="416.248047" xlink:href="#DejaVuSans-102"/>
    <use x="451.453125" xlink:href="#DejaVuSans-115"/>
    <use x="503.552734" xlink:href="#DejaVuSans-101"/>
    <use x="565.076172" xlink:href="#DejaVuSans-116"/>
    <use x="604.285156" xlink:href="#DejaVuSans-32"/>
    <use x="636.072266" xlink:href="#DejaVuSans-91"/>
    <use x="675.085938" xlink:href="#DejaVuSans-109"/>
    <use x="772.498047" xlink:href="#DejaVuSans-115"/>
    <use x="824.597656" xlink:href="#DejaVuSans-93"/>
   </g>
  </g>
  <g id="legend_1">
   <g id="patch_72">
    <path d="M 136.128 21.84375 
L 160.128 21.84375 
L 160.128 13.44375 
L 136.128 13.44375 
z
" style="fill:#002a61;"/>
   </g>
   <g id="text_19">
    <!-- $\sigma_{\xi} = $1 ms -->
    <g style="fill:#262626;" transform="translate(169.728 21.84375)scale(0.12 -0.12)">
     <defs>
      <path d="M 34.671875 47.5625 
Q 27.25 47.5625 22.21875 42.1875 
Q 16.890625 36.578125 15.140625 27.296875 
Q 13.1875 17.484375 16.3125 11.8125 
Q 19.390625 6.203125 26.65625 6.203125 
Q 33.84375 6.203125 39.109375 11.859375 
Q 44.4375 17.53125 46.34375 27.296875 
Q 48.046875 36.234375 45.015625 42.1875 
Q 42.1875 47.5625 34.671875 47.5625 
z
M 36.078125 54.734375 
L 65.921875 54.6875 
L 64.15625 45.703125 
L 54.109375 45.703125 
Q 57.90625 38.09375 55.859375 27.296875 
Q 53.21875 13.875 45.0625 6.25 
Q 36.859375 -1.421875 25.140625 -1.421875 
Q 13.375 -1.421875 8.203125 6.25 
Q 3.03125 13.875 5.671875 27.296875 
Q 8.25 40.765625 16.40625 48.390625 
Q 23.1875 54.734375 36.078125 54.734375 
z
" id="DejaVuSans-Oblique-963"/>
      <path d="M 31.5 6.203125 
Q 37.9375 6.15625 41.0625 2.484375 
Q 44.4375 -1.375 43.3125 -7.234375 
Q 42.1875 -12.84375 37.84375 -16.75 
Q 33.109375 -21 25.140625 -21 
Q 25.875 -17.328125 26.5625 -13.625 
Q 29.890625 -13.875 32.375 -11.71875 
Q 34.28125 -10.015625 34.625 -8.203125 
Q 35.109375 -5.609375 33.984375 -3.46875 
Q 32.8125 -1.421875 30.03125 -1.421875 
Q -0.390625 -1.421875 3.765625 19.921875 
Q 6.59375 34.578125 23.6875 38.875 
Q 10.359375 40.625 12.84375 53.328125 
Q 14.703125 62.9375 26.21875 66.9375 
L 16.0625 66.9375 
L 17.828125 75.984375 
L 56.34375 75.984375 
L 54.59375 66.9375 
Q 23.875 66.9375 21.09375 52.734375 
Q 19.28125 43.40625 45.015625 42.96875 
L 43.40625 34.671875 
Q 15.765625 35.75 12.796875 19.921875 
Q 10.296875 6.6875 31.5 6.203125 
z
" id="DejaVuSans-Oblique-958"/>
      <path d="M 10.59375 45.40625 
L 73.1875 45.40625 
L 73.1875 37.203125 
L 10.59375 37.203125 
z
M 10.59375 25.484375 
L 73.1875 25.484375 
L 73.1875 17.1875 
L 10.59375 17.1875 
z
" id="DejaVuSans-61"/>
     </defs>
     <use transform="translate(0 0.09375)" xlink:href="#DejaVuSans-Oblique-963"/>
     <use transform="translate(63.378906 -16.3125)scale(0.7)" xlink:href="#DejaVuSans-Oblique-958"/>
     <use transform="translate(124.628906 0.09375)" xlink:href="#DejaVuSans-61"/>
     <use transform="translate(227.900391 0.09375)" xlink:href="#DejaVuSans-49"/>
     <use transform="translate(291.523438 0.09375)" xlink:href="#DejaVuSans-32"/>
     <use transform="translate(323.310547 0.09375)" xlink:href="#DejaVuSans-109"/>
     <use transform="translate(420.722656 0.09375)" xlink:href="#DejaVuSans-115"/>
    </g>
   </g>
   <g id="patch_73">
    <path d="M 136.128 40.801875 
L 160.128 40.801875 
L 160.128 32.401875 
L 136.128 32.401875 
z
" style="fill:#0675b6;"/>
   </g>
   <g id="text_20">
    <!-- $\sigma_{\xi} = $2 ms -->
    <g style="fill:#262626;" transform="translate(169.728 40.801875)scale(0.12 -0.12)">
     <use transform="translate(0 0.78125)" xlink:href="#DejaVuSans-Oblique-963"/>
     <use transform="translate(63.378906 -15.625)scale(0.7)" xlink:href="#DejaVuSans-Oblique-958"/>
     <use transform="translate(124.628906 0.78125)" xlink:href="#DejaVuSans-61"/>
     <use transform="translate(227.900391 0.78125)" xlink:href="#DejaVuSans-50"/>
     <use transform="translate(291.523438 0.78125)" xlink:href="#DejaVuSans-32"/>
     <use transform="translate(323.310547 0.78125)" xlink:href="#DejaVuSans-109"/>
     <use transform="translate(420.722656 0.78125)" xlink:href="#DejaVuSans-115"/>
    </g>
   </g>
   <g id="patch_74">
    <path d="M 136.128 59.76 
L 160.128 59.76 
L 160.128 51.36 
L 136.128 51.36 
z
" style="fill:#7dc2ff;"/>
   </g>
   <g id="text_21">
    <!-- $\sigma_{\xi} = $3 ms -->
    <g style="fill:#262626;" transform="translate(169.728 59.76)scale(0.12 -0.12)">
     <defs>
      <path d="M 40.578125 39.3125 
Q 47.65625 37.796875 51.625 33 
Q 55.609375 28.21875 55.609375 21.1875 
Q 55.609375 10.40625 48.1875 4.484375 
Q 40.765625 -1.421875 27.09375 -1.421875 
Q 22.515625 -1.421875 17.65625 -0.515625 
Q 12.796875 0.390625 7.625 2.203125 
L 7.625 11.71875 
Q 11.71875 9.328125 16.59375 8.109375 
Q 21.484375 6.890625 26.8125 6.890625 
Q 36.078125 6.890625 40.9375 10.546875 
Q 45.796875 14.203125 45.796875 21.1875 
Q 45.796875 27.640625 41.28125 31.265625 
Q 36.765625 34.90625 28.71875 34.90625 
L 20.21875 34.90625 
L 20.21875 43.015625 
L 29.109375 43.015625 
Q 36.375 43.015625 40.234375 45.921875 
Q 44.09375 48.828125 44.09375 54.296875 
Q 44.09375 59.90625 40.109375 62.90625 
Q 36.140625 65.921875 28.71875 65.921875 
Q 24.65625 65.921875 20.015625 65.03125 
Q 15.375 64.15625 9.8125 62.3125 
L 9.8125 71.09375 
Q 15.4375 72.65625 20.34375 73.4375 
Q 25.25 74.21875 29.59375 74.21875 
Q 40.828125 74.21875 47.359375 69.109375 
Q 53.90625 64.015625 53.90625 55.328125 
Q 53.90625 49.265625 50.4375 45.09375 
Q 46.96875 40.921875 40.578125 39.3125 
z
" id="DejaVuSans-51"/>
     </defs>
     <use transform="translate(0 0.78125)" xlink:href="#DejaVuSans-Oblique-963"/>
     <use transform="translate(63.378906 -15.625)scale(0.7)" xlink:href="#DejaVuSans-Oblique-958"/>
     <use transform="translate(124.628906 0.78125)" xlink:href="#DejaVuSans-61"/>
     <use transform="translate(227.900391 0.78125)" xlink:href="#DejaVuSans-51"/>
     <use transform="translate(291.523438 0.78125)" xlink:href="#DejaVuSans-32"/>
     <use transform="translate(323.310547 0.78125)" xlink:href="#DejaVuSans-109"/>
     <use transform="translate(420.722656 0.78125)" xlink:href="#DejaVuSans-115"/>
    </g>
   </g>
  </g>
 </g>
 <defs>
  <clipPath id="p0915445acc">
   <rect height="113.58" width="36.018186" x="56.835" y="16.96"/>
  </clipPath>
  <clipPath id="pea8d8e45b1">
   <rect height="113.58" width="36.018186" x="117.390363" y="16.96"/>
  </clipPath>
  <clipPath id="p9e8b182159">
   <rect height="113.58" width="36.018186" x="177.945726" y="16.96"/>
  </clipPath>
 </defs>
</svg>
