<?xml version="1.0" encoding="utf-8" standalone="no"?>
<!DOCTYPE svg PUBLIC "-//W3C//DTD SVG 1.1//EN"
  "http://www.w3.org/Graphics/SVG/1.1/DTD/svg11.dtd">
<!-- Created with matplotlib (https://matplotlib.org/) -->
<svg height="180pt" version="1.1" viewBox="0 0 201.6 180" width="201.6pt" xmlns="http://www.w3.org/2000/svg" xmlns:xlink="http://www.w3.org/1999/xlink">
 <metadata>
  <rdf:RDF xmlns:cc="http://creativecommons.org/ns#" xmlns:dc="http://purl.org/dc/elements/1.1/" xmlns:rdf="http://www.w3.org/1999/02/22-rdf-syntax-ns#">
   <cc:Work>
    <dc:type rdf:resource="http://purl.org/dc/dcmitype/StillImage"/>
    <dc:date>2021-06-03T18:43:34.118785</dc:date>
    <dc:format>image/svg+xml</dc:format>
    <dc:creator>
     <cc:Agent>
      <dc:title>Matplotlib v3.3.4, https://matplotlib.org/</dc:title>
     </cc:Agent>
    </dc:creator>
   </cc:Work>
  </rdf:RDF>
 </metadata>
 <defs>
  <style type="text/css">*{stroke-linecap:butt;stroke-linejoin:round;}</style>
 </defs>
 <g id="figure_1">
  <g id="patch_1">
   <path d="M 0 180 
L 201.6 180 
L 201.6 0 
L 0 0 
z
" style="fill:#ffffff;"/>
  </g>
  <g id="axes_1">
   <g id="patch_2">
    <path d="M 21.546789 130.54 
L 60.817093 130.54 
L 60.817093 12.96 
L 21.546789 12.96 
z
" style="fill:#ffffff;"/>
   </g>
   <g id="matplotlib.axis_1">
    <g id="xtick_1">
     <g id="line2d_1">
      <defs>
       <path d="M 0 0 
L 0 6 
" id="mb090e05987" style="stroke:#262626;stroke-width:1.25;"/>
      </defs>
      <g>
       <use style="fill:#262626;stroke:#262626;stroke-width:1.25;" x="24.143173" xlink:href="#mb090e05987" y="130.54"/>
      </g>
     </g>
     <g id="text_1">
      <!-- −10 -->
      <g style="fill:#262626;" transform="translate(12.535595 148.398281)scale(0.11 -0.11)">
       <defs>
        <path d="M 10.59375 35.5 
L 73.1875 35.5 
L 73.1875 27.203125 
L 10.59375 27.203125 
z
" id="DejaVuSans-8722"/>
        <path d="M 12.40625 8.296875 
L 28.515625 8.296875 
L 28.515625 63.921875 
L 10.984375 60.40625 
L 10.984375 69.390625 
L 28.421875 72.90625 
L 38.28125 72.90625 
L 38.28125 8.296875 
L 54.390625 8.296875 
L 54.390625 0 
L 12.40625 0 
z
" id="DejaVuSans-49"/>
        <path d="M 31.78125 66.40625 
Q 24.171875 66.40625 20.328125 58.90625 
Q 16.5 51.421875 16.5 36.375 
Q 16.5 21.390625 20.328125 13.890625 
Q 24.171875 6.390625 31.78125 6.390625 
Q 39.453125 6.390625 43.28125 13.890625 
Q 47.125 21.390625 47.125 36.375 
Q 47.125 51.421875 43.28125 58.90625 
Q 39.453125 66.40625 31.78125 66.40625 
z
M 31.78125 74.21875 
Q 44.046875 74.21875 50.515625 64.515625 
Q 56.984375 54.828125 56.984375 36.375 
Q 56.984375 17.96875 50.515625 8.265625 
Q 44.046875 -1.421875 31.78125 -1.421875 
Q 19.53125 -1.421875 13.0625 8.265625 
Q 6.59375 17.96875 6.59375 36.375 
Q 6.59375 54.828125 13.0625 64.515625 
Q 19.53125 74.21875 31.78125 74.21875 
z
" id="DejaVuSans-48"/>
       </defs>
       <use xlink:href="#DejaVuSans-8722"/>
       <use x="83.789062" xlink:href="#DejaVuSans-49"/>
       <use x="147.412109" xlink:href="#DejaVuSans-48"/>
      </g>
     </g>
    </g>
    <g id="xtick_2">
     <g id="line2d_2">
      <g>
       <use style="fill:#262626;stroke:#262626;stroke-width:1.25;" x="40.370571" xlink:href="#mb090e05987" y="130.54"/>
      </g>
     </g>
     <g id="text_2">
      <!-- 0 -->
      <g style="fill:#262626;" transform="translate(36.871196 148.398281)scale(0.11 -0.11)">
       <use xlink:href="#DejaVuSans-48"/>
      </g>
     </g>
    </g>
    <g id="xtick_3">
     <g id="line2d_3">
      <g>
       <use style="fill:#262626;stroke:#262626;stroke-width:1.25;" x="56.597969" xlink:href="#mb090e05987" y="130.54"/>
      </g>
     </g>
     <g id="text_3">
      <!-- 10 -->
      <g style="fill:#262626;" transform="translate(49.599219 148.398281)scale(0.11 -0.11)">
       <use xlink:href="#DejaVuSans-49"/>
       <use x="63.623047" xlink:href="#DejaVuSans-48"/>
      </g>
     </g>
    </g>
    <g id="text_4">
     <!--   -->
     <g style="fill:#262626;" transform="translate(39.275066 163.804062)scale(0.12 -0.12)">
      <defs>
       <path id="DejaVuSans-32"/>
      </defs>
      <use xlink:href="#DejaVuSans-32"/>
     </g>
    </g>
   </g>
   <g id="matplotlib.axis_2">
    <g id="ytick_1">
     <g id="line2d_4">
      <defs>
       <path d="M 0 0 
L -6 0 
" id="mf588ee63f9" style="stroke:#262626;stroke-width:1.25;"/>
      </defs>
      <g>
       <use style="fill:#262626;stroke:#262626;stroke-width:1.25;" x="21.546789" xlink:href="#mf588ee63f9" y="130.54"/>
      </g>
     </g>
    </g>
    <g id="ytick_2">
     <g id="line2d_5">
      <g>
       <use style="fill:#262626;stroke:#262626;stroke-width:1.25;" x="21.546789" xlink:href="#mf588ee63f9" y="107.024"/>
      </g>
     </g>
    </g>
    <g id="ytick_3">
     <g id="line2d_6">
      <g>
       <use style="fill:#262626;stroke:#262626;stroke-width:1.25;" x="21.546789" xlink:href="#mf588ee63f9" y="83.508"/>
      </g>
     </g>
    </g>
    <g id="ytick_4">
     <g id="line2d_7">
      <g>
       <use style="fill:#262626;stroke:#262626;stroke-width:1.25;" x="21.546789" xlink:href="#mf588ee63f9" y="59.992"/>
      </g>
     </g>
    </g>
    <g id="ytick_5">
     <g id="line2d_8">
      <g>
       <use style="fill:#262626;stroke:#262626;stroke-width:1.25;" x="21.546789" xlink:href="#mf588ee63f9" y="36.476"/>
      </g>
     </g>
    </g>
    <g id="ytick_6">
     <g id="line2d_9">
      <g>
       <use style="fill:#262626;stroke:#262626;stroke-width:1.25;" x="21.546789" xlink:href="#mf588ee63f9" y="12.96"/>
      </g>
     </g>
    </g>
   </g>
   <g id="patch_3">
    <path clip-path="url(#pfcad02a2de)" d="M 23.331803 130.54 
L 24.954543 130.54 
L 24.954543 130.48945 
L 23.331803 130.48945 
z
" style="fill:#004e2b;"/>
   </g>
   <g id="patch_4">
    <path clip-path="url(#pfcad02a2de)" d="M 25.03568 130.54 
L 26.658419 130.54 
L 26.658419 130.48945 
L 25.03568 130.48945 
z
" style="fill:#004e2b;"/>
   </g>
   <g id="patch_5">
    <path clip-path="url(#pfcad02a2de)" d="M 26.739556 130.54 
L 28.362296 130.54 
L 28.362296 130.388349 
L 26.739556 130.388349 
z
" style="fill:#004e2b;"/>
   </g>
   <g id="patch_6">
    <path clip-path="url(#pfcad02a2de)" d="M 28.443433 130.54 
L 30.066173 130.54 
L 30.066173 130.337799 
L 28.443433 130.337799 
z
" style="fill:#004e2b;"/>
   </g>
   <g id="patch_7">
    <path clip-path="url(#pfcad02a2de)" d="M 30.14731 130.54 
L 31.77005 130.54 
L 31.77005 130.388349 
L 30.14731 130.388349 
z
" style="fill:#004e2b;"/>
   </g>
   <g id="patch_8">
    <path clip-path="url(#pfcad02a2de)" d="M 31.851187 130.54 
L 33.473927 130.54 
L 33.473927 130.135598 
L 31.851187 130.135598 
z
" style="fill:#004e2b;"/>
   </g>
   <g id="patch_9">
    <path clip-path="url(#pfcad02a2de)" d="M 33.555064 130.54 
L 35.177804 130.54 
L 35.177804 130.186148 
L 33.555064 130.186148 
z
" style="fill:#004e2b;"/>
   </g>
   <g id="patch_10">
    <path clip-path="url(#pfcad02a2de)" d="M 35.258941 130.54 
L 36.88168 130.54 
L 36.88168 129.630095 
L 35.258941 129.630095 
z
" style="fill:#004e2b;"/>
   </g>
   <g id="patch_11">
    <path clip-path="url(#pfcad02a2de)" d="M 36.962817 130.54 
L 38.585557 130.54 
L 38.585557 126.799278 
L 36.962817 126.799278 
z
" style="fill:#004e2b;"/>
   </g>
   <g id="patch_12">
    <path clip-path="url(#pfcad02a2de)" d="M 38.666694 130.54 
L 40.289434 130.54 
L 40.289434 99.401015 
L 38.666694 99.401015 
z
" style="fill:#004e2b;"/>
   </g>
   <g id="patch_13">
    <path clip-path="url(#pfcad02a2de)" d="M 40.370571 130.54 
L 41.993311 130.54 
L 41.993311 57.343164 
L 40.370571 57.343164 
z
" style="fill:#004e2b;"/>
   </g>
   <g id="patch_14">
    <path clip-path="url(#pfcad02a2de)" d="M 42.074448 130.54 
L 43.697188 130.54 
L 43.697188 124.221212 
L 42.074448 124.221212 
z
" style="fill:#004e2b;"/>
   </g>
   <g id="patch_15">
    <path clip-path="url(#pfcad02a2de)" d="M 43.778325 130.54 
L 45.401064 130.54 
L 45.401064 130.236698 
L 43.778325 130.236698 
z
" style="fill:#004e2b;"/>
   </g>
   <g id="patch_16">
    <path clip-path="url(#pfcad02a2de)" d="M 45.482201 130.54 
L 47.104941 130.54 
L 47.104941 130.236698 
L 45.482201 130.236698 
z
" style="fill:#004e2b;"/>
   </g>
   <g id="patch_17">
    <path clip-path="url(#pfcad02a2de)" d="M 47.186078 130.54 
L 48.808818 130.54 
L 48.808818 130.438899 
L 47.186078 130.438899 
z
" style="fill:#004e2b;"/>
   </g>
   <g id="patch_18">
    <path clip-path="url(#pfcad02a2de)" d="M 48.889955 130.54 
L 50.512695 130.54 
L 50.512695 130.48945 
L 48.889955 130.48945 
z
" style="fill:#004e2b;"/>
   </g>
   <g id="patch_19">
    <path clip-path="url(#pfcad02a2de)" d="M 50.593832 130.54 
L 52.216572 130.54 
L 52.216572 130.48945 
L 50.593832 130.48945 
z
" style="fill:#004e2b;"/>
   </g>
   <g id="patch_20">
    <path clip-path="url(#pfcad02a2de)" d="M 52.297709 130.54 
L 53.920449 130.54 
L 53.920449 130.48945 
L 52.297709 130.48945 
z
" style="fill:#004e2b;"/>
   </g>
   <g id="patch_21">
    <path clip-path="url(#pfcad02a2de)" d="M 54.001586 130.54 
L 55.624325 130.54 
L 55.624325 130.54 
L 54.001586 130.54 
z
" style="fill:#004e2b;"/>
   </g>
   <g id="patch_22">
    <path clip-path="url(#pfcad02a2de)" d="M 55.705462 130.54 
L 57.328202 130.54 
L 57.328202 130.54 
L 55.705462 130.54 
z
" style="fill:#004e2b;"/>
   </g>
   <g id="patch_23">
    <path clip-path="url(#pfcad02a2de)" d="M 57.409339 130.54 
L 59.032079 130.54 
L 59.032079 130.48945 
L 57.409339 130.48945 
z
" style="fill:#004e2b;"/>
   </g>
   <g id="patch_24">
    <path d="M 21.546789 130.54 
L 21.546789 12.96 
" style="fill:none;stroke:#262626;stroke-linecap:square;stroke-linejoin:miter;stroke-width:1.25;"/>
   </g>
   <g id="patch_25">
    <path d="M 21.546789 130.54 
L 60.817093 130.54 
" style="fill:none;stroke:#262626;stroke-linecap:square;stroke-linejoin:miter;stroke-width:1.25;"/>
   </g>
  </g>
  <g id="axes_2">
   <g id="patch_26">
    <path d="M 84.426789 130.54 
L 123.697093 130.54 
L 123.697093 12.96 
L 84.426789 12.96 
z
" style="fill:#ffffff;"/>
   </g>
   <g id="matplotlib.axis_3">
    <g id="xtick_4">
     <g id="line2d_10">
      <g>
       <use style="fill:#262626;stroke:#262626;stroke-width:1.25;" x="87.023173" xlink:href="#mb090e05987" y="130.54"/>
      </g>
     </g>
     <g id="text_5">
      <!-- −10 -->
      <g style="fill:#262626;" transform="translate(75.415595 148.398281)scale(0.11 -0.11)">
       <use xlink:href="#DejaVuSans-8722"/>
       <use x="83.789062" xlink:href="#DejaVuSans-49"/>
       <use x="147.412109" xlink:href="#DejaVuSans-48"/>
      </g>
     </g>
    </g>
    <g id="xtick_5">
     <g id="line2d_11">
      <g>
       <use style="fill:#262626;stroke:#262626;stroke-width:1.25;" x="103.250571" xlink:href="#mb090e05987" y="130.54"/>
      </g>
     </g>
     <g id="text_6">
      <!-- 0 -->
      <g style="fill:#262626;" transform="translate(99.751196 148.398281)scale(0.11 -0.11)">
       <use xlink:href="#DejaVuSans-48"/>
      </g>
     </g>
    </g>
    <g id="xtick_6">
     <g id="line2d_12">
      <g>
       <use style="fill:#262626;stroke:#262626;stroke-width:1.25;" x="119.477969" xlink:href="#mb090e05987" y="130.54"/>
      </g>
     </g>
     <g id="text_7">
      <!-- 10 -->
      <g style="fill:#262626;" transform="translate(112.479219 148.398281)scale(0.11 -0.11)">
       <use xlink:href="#DejaVuSans-49"/>
       <use x="63.623047" xlink:href="#DejaVuSans-48"/>
      </g>
     </g>
    </g>
   </g>
   <g id="matplotlib.axis_4"/>
   <g id="patch_27">
    <path clip-path="url(#pceeee632f2)" d="M 86.211803 130.54 
L 87.834543 130.54 
L 87.834543 130.330223 
L 86.211803 130.330223 
z
" style="fill:#03a075;"/>
   </g>
   <g id="patch_28">
    <path clip-path="url(#pceeee632f2)" d="M 87.91568 130.54 
L 89.538419 130.54 
L 89.538419 130.277779 
L 87.91568 130.277779 
z
" style="fill:#03a075;"/>
   </g>
   <g id="patch_29">
    <path clip-path="url(#pceeee632f2)" d="M 89.619556 130.54 
L 91.242296 130.54 
L 91.242296 130.120446 
L 89.619556 130.120446 
z
" style="fill:#03a075;"/>
   </g>
   <g id="patch_30">
    <path clip-path="url(#pceeee632f2)" d="M 91.323433 130.54 
L 92.946173 130.54 
L 92.946173 130.277779 
L 91.323433 130.277779 
z
" style="fill:#03a075;"/>
   </g>
   <g id="patch_31">
    <path clip-path="url(#pceeee632f2)" d="M 93.02731 130.54 
L 94.65005 130.54 
L 94.65005 130.120446 
L 93.02731 130.120446 
z
" style="fill:#03a075;"/>
   </g>
   <g id="patch_32">
    <path clip-path="url(#pceeee632f2)" d="M 94.731187 130.54 
L 96.353927 130.54 
L 96.353927 129.333782 
L 94.731187 129.333782 
z
" style="fill:#03a075;"/>
   </g>
   <g id="patch_33">
    <path clip-path="url(#pceeee632f2)" d="M 96.435064 130.54 
L 98.057804 130.54 
L 98.057804 128.861784 
L 96.435064 128.861784 
z
" style="fill:#03a075;"/>
   </g>
   <g id="patch_34">
    <path clip-path="url(#pceeee632f2)" d="M 98.138941 130.54 
L 99.76168 130.54 
L 99.76168 127.288457 
L 98.138941 127.288457 
z
" style="fill:#03a075;"/>
   </g>
   <g id="patch_35">
    <path clip-path="url(#pceeee632f2)" d="M 99.842817 130.54 
L 101.465557 130.54 
L 101.465557 119.316931 
L 99.842817 119.316931 
z
" style="fill:#03a075;"/>
   </g>
   <g id="patch_36">
    <path clip-path="url(#pceeee632f2)" d="M 101.546694 130.54 
L 103.169434 130.54 
L 103.169434 102.324996 
L 101.546694 102.324996 
z
" style="fill:#03a075;"/>
   </g>
   <g id="patch_37">
    <path clip-path="url(#pceeee632f2)" d="M 103.250571 130.54 
L 104.873311 130.54 
L 104.873311 86.801499 
L 103.250571 86.801499 
z
" style="fill:#03a075;"/>
   </g>
   <g id="patch_38">
    <path clip-path="url(#pceeee632f2)" d="M 104.954448 130.54 
L 106.577188 130.54 
L 106.577188 111.974737 
L 104.954448 111.974737 
z
" style="fill:#03a075;"/>
   </g>
   <g id="patch_39">
    <path clip-path="url(#pceeee632f2)" d="M 106.658325 130.54 
L 108.281064 130.54 
L 108.281064 125.977351 
L 106.658325 125.977351 
z
" style="fill:#03a075;"/>
   </g>
   <g id="patch_40">
    <path clip-path="url(#pceeee632f2)" d="M 108.362201 130.54 
L 109.984941 130.54 
L 109.984941 128.704451 
L 108.362201 128.704451 
z
" style="fill:#03a075;"/>
   </g>
   <g id="patch_41">
    <path clip-path="url(#pceeee632f2)" d="M 110.066078 130.54 
L 111.688818 130.54 
L 111.688818 130.068002 
L 110.066078 130.068002 
z
" style="fill:#03a075;"/>
   </g>
   <g id="patch_42">
    <path clip-path="url(#pceeee632f2)" d="M 111.769955 130.54 
L 113.392695 130.54 
L 113.392695 130.225335 
L 111.769955 130.225335 
z
" style="fill:#03a075;"/>
   </g>
   <g id="patch_43">
    <path clip-path="url(#pceeee632f2)" d="M 113.473832 130.54 
L 115.096572 130.54 
L 115.096572 130.330223 
L 113.473832 130.330223 
z
" style="fill:#03a075;"/>
   </g>
   <g id="patch_44">
    <path clip-path="url(#pceeee632f2)" d="M 115.177709 130.54 
L 116.800449 130.54 
L 116.800449 130.277779 
L 115.177709 130.277779 
z
" style="fill:#03a075;"/>
   </g>
   <g id="patch_45">
    <path clip-path="url(#pceeee632f2)" d="M 116.881586 130.54 
L 118.504325 130.54 
L 118.504325 130.330223 
L 116.881586 130.330223 
z
" style="fill:#03a075;"/>
   </g>
   <g id="patch_46">
    <path clip-path="url(#pceeee632f2)" d="M 118.585462 130.54 
L 120.208202 130.54 
L 120.208202 130.435112 
L 118.585462 130.435112 
z
" style="fill:#03a075;"/>
   </g>
   <g id="patch_47">
    <path clip-path="url(#pceeee632f2)" d="M 120.289339 130.54 
L 121.912079 130.54 
L 121.912079 130.382667 
L 120.289339 130.382667 
z
" style="fill:#03a075;"/>
   </g>
   <g id="patch_48">
    <path d="M 84.426789 130.54 
L 123.697093 130.54 
" style="fill:none;stroke:#262626;stroke-linecap:square;stroke-linejoin:miter;stroke-width:1.25;"/>
   </g>
  </g>
  <g id="axes_3">
   <g id="patch_49">
    <path d="M 147.306789 130.54 
L 186.577093 130.54 
L 186.577093 12.96 
L 147.306789 12.96 
z
" style="fill:#ffffff;"/>
   </g>
   <g id="matplotlib.axis_5">
    <g id="xtick_7">
     <g id="line2d_13">
      <g>
       <use style="fill:#262626;stroke:#262626;stroke-width:1.25;" x="149.903173" xlink:href="#mb090e05987" y="130.54"/>
      </g>
     </g>
     <g id="text_8">
      <!-- −10 -->
      <g style="fill:#262626;" transform="translate(138.295595 148.398281)scale(0.11 -0.11)">
       <use xlink:href="#DejaVuSans-8722"/>
       <use x="83.789062" xlink:href="#DejaVuSans-49"/>
       <use x="147.412109" xlink:href="#DejaVuSans-48"/>
      </g>
     </g>
    </g>
    <g id="xtick_8">
     <g id="line2d_14">
      <g>
       <use style="fill:#262626;stroke:#262626;stroke-width:1.25;" x="166.130571" xlink:href="#mb090e05987" y="130.54"/>
      </g>
     </g>
     <g id="text_9">
      <!-- 0 -->
      <g style="fill:#262626;" transform="translate(162.631196 148.398281)scale(0.11 -0.11)">
       <use xlink:href="#DejaVuSans-48"/>
      </g>
     </g>
    </g>
    <g id="xtick_9">
     <g id="line2d_15">
      <g>
       <use style="fill:#262626;stroke:#262626;stroke-width:1.25;" x="182.357969" xlink:href="#mb090e05987" y="130.54"/>
      </g>
     </g>
     <g id="text_10">
      <!-- 10 -->
      <g style="fill:#262626;" transform="translate(175.359219 148.398281)scale(0.11 -0.11)">
       <use xlink:href="#DejaVuSans-49"/>
       <use x="63.623047" xlink:href="#DejaVuSans-48"/>
      </g>
     </g>
    </g>
   </g>
   <g id="matplotlib.axis_6"/>
   <g id="patch_50">
    <path clip-path="url(#p588c446667)" d="M 149.091803 130.54 
L 150.714543 130.54 
L 150.714543 130.191615 
L 149.091803 130.191615 
z
" style="fill:#79f5c5;"/>
   </g>
   <g id="patch_51">
    <path clip-path="url(#p588c446667)" d="M 150.79568 130.54 
L 152.418419 130.54 
L 152.418419 130.075486 
L 150.79568 130.075486 
z
" style="fill:#79f5c5;"/>
   </g>
   <g id="patch_52">
    <path clip-path="url(#p588c446667)" d="M 152.499556 130.54 
L 154.122296 130.54 
L 154.122296 129.785165 
L 152.499556 129.785165 
z
" style="fill:#79f5c5;"/>
   </g>
   <g id="patch_53">
    <path clip-path="url(#p588c446667)" d="M 154.203433 130.54 
L 155.826173 130.54 
L 155.826173 129.785165 
L 154.203433 129.785165 
z
" style="fill:#79f5c5;"/>
   </g>
   <g id="patch_54">
    <path clip-path="url(#p588c446667)" d="M 155.90731 130.54 
L 157.53005 130.54 
L 157.53005 129.901294 
L 155.90731 129.901294 
z
" style="fill:#79f5c5;"/>
   </g>
   <g id="patch_55">
    <path clip-path="url(#p588c446667)" d="M 157.611187 130.54 
L 159.233927 130.54 
L 159.233927 128.623881 
L 157.611187 128.623881 
z
" style="fill:#79f5c5;"/>
   </g>
   <g id="patch_56">
    <path clip-path="url(#p588c446667)" d="M 159.315064 130.54 
L 160.937804 130.54 
L 160.937804 127.694854 
L 159.315064 127.694854 
z
" style="fill:#79f5c5;"/>
   </g>
   <g id="patch_57">
    <path clip-path="url(#p588c446667)" d="M 161.018941 130.54 
L 162.64168 130.54 
L 162.64168 124.327131 
L 161.018941 124.327131 
z
" style="fill:#79f5c5;"/>
   </g>
   <g id="patch_58">
    <path clip-path="url(#p588c446667)" d="M 162.722817 130.54 
L 164.345557 130.54 
L 164.345557 117.882005 
L 162.722817 117.882005 
z
" style="fill:#79f5c5;"/>
   </g>
   <g id="patch_59">
    <path clip-path="url(#p588c446667)" d="M 164.426694 130.54 
L 166.049434 130.54 
L 166.049434 111.843328 
L 164.426694 111.843328 
z
" style="fill:#79f5c5;"/>
   </g>
   <g id="patch_60">
    <path clip-path="url(#p588c446667)" d="M 166.130571 130.54 
L 167.753311 130.54 
L 167.753311 104.759496 
L 166.130571 104.759496 
z
" style="fill:#79f5c5;"/>
   </g>
   <g id="patch_61">
    <path clip-path="url(#p588c446667)" d="M 167.834448 130.54 
L 169.457188 130.54 
L 169.457188 108.940119 
L 167.834448 108.940119 
z
" style="fill:#79f5c5;"/>
   </g>
   <g id="patch_62">
    <path clip-path="url(#p588c446667)" d="M 169.538325 130.54 
L 171.161064 130.54 
L 171.161064 119.972316 
L 169.538325 119.972316 
z
" style="fill:#79f5c5;"/>
   </g>
   <g id="patch_63">
    <path clip-path="url(#p588c446667)" d="M 171.242201 130.54 
L 172.864941 130.54 
L 172.864941 124.094874 
L 171.242201 124.094874 
z
" style="fill:#79f5c5;"/>
   </g>
   <g id="patch_64">
    <path clip-path="url(#p588c446667)" d="M 172.946078 130.54 
L 174.568818 130.54 
L 174.568818 127.869047 
L 172.946078 127.869047 
z
" style="fill:#79f5c5;"/>
   </g>
   <g id="patch_65">
    <path clip-path="url(#p588c446667)" d="M 174.649955 130.54 
L 176.272695 130.54 
L 176.272695 128.798074 
L 174.649955 128.798074 
z
" style="fill:#79f5c5;"/>
   </g>
   <g id="patch_66">
    <path clip-path="url(#p588c446667)" d="M 176.353832 130.54 
L 177.976572 130.54 
L 177.976572 129.727101 
L 176.353832 129.727101 
z
" style="fill:#79f5c5;"/>
   </g>
   <g id="patch_67">
    <path clip-path="url(#p588c446667)" d="M 178.057709 130.54 
L 179.680449 130.54 
L 179.680449 129.84323 
L 178.057709 129.84323 
z
" style="fill:#79f5c5;"/>
   </g>
   <g id="patch_68">
    <path clip-path="url(#p588c446667)" d="M 179.761586 130.54 
L 181.384325 130.54 
L 181.384325 129.959358 
L 179.761586 129.959358 
z
" style="fill:#79f5c5;"/>
   </g>
   <g id="patch_69">
    <path clip-path="url(#p588c446667)" d="M 181.465462 130.54 
L 183.088202 130.54 
L 183.088202 130.075486 
L 181.465462 130.075486 
z
" style="fill:#79f5c5;"/>
   </g>
   <g id="patch_70">
    <path clip-path="url(#p588c446667)" d="M 183.169339 130.54 
L 184.792079 130.54 
L 184.792079 129.610973 
L 183.169339 129.610973 
z
" style="fill:#79f5c5;"/>
   </g>
   <g id="patch_71">
    <path d="M 147.306789 130.54 
L 186.577093 130.54 
" style="fill:none;stroke:#262626;stroke-linecap:square;stroke-linejoin:miter;stroke-width:1.25;"/>
   </g>
  </g>
  <g id="text_11">
   <!-- Spike Offset [ms] -->
   <g style="fill:#262626;" transform="translate(59.063438 167.4)scale(0.12 -0.12)">
    <defs>
     <path d="M 53.515625 70.515625 
L 53.515625 60.890625 
Q 47.90625 63.578125 42.921875 64.890625 
Q 37.9375 66.21875 33.296875 66.21875 
Q 25.25 66.21875 20.875 63.09375 
Q 16.5 59.96875 16.5 54.203125 
Q 16.5 49.359375 19.40625 46.890625 
Q 22.3125 44.4375 30.421875 42.921875 
L 36.375 41.703125 
Q 47.40625 39.59375 52.65625 34.296875 
Q 57.90625 29 57.90625 20.125 
Q 57.90625 9.515625 50.796875 4.046875 
Q 43.703125 -1.421875 29.984375 -1.421875 
Q 24.8125 -1.421875 18.96875 -0.25 
Q 13.140625 0.921875 6.890625 3.21875 
L 6.890625 13.375 
Q 12.890625 10.015625 18.65625 8.296875 
Q 24.421875 6.59375 29.984375 6.59375 
Q 38.421875 6.59375 43.015625 9.90625 
Q 47.609375 13.234375 47.609375 19.390625 
Q 47.609375 24.75 44.3125 27.78125 
Q 41.015625 30.8125 33.5 32.328125 
L 27.484375 33.5 
Q 16.453125 35.6875 11.515625 40.375 
Q 6.59375 45.0625 6.59375 53.421875 
Q 6.59375 63.09375 13.40625 68.65625 
Q 20.21875 74.21875 32.171875 74.21875 
Q 37.3125 74.21875 42.625 73.28125 
Q 47.953125 72.359375 53.515625 70.515625 
z
" id="DejaVuSans-83"/>
     <path d="M 18.109375 8.203125 
L 18.109375 -20.796875 
L 9.078125 -20.796875 
L 9.078125 54.6875 
L 18.109375 54.6875 
L 18.109375 46.390625 
Q 20.953125 51.265625 25.265625 53.625 
Q 29.59375 56 35.59375 56 
Q 45.5625 56 51.78125 48.09375 
Q 58.015625 40.1875 58.015625 27.296875 
Q 58.015625 14.40625 51.78125 6.484375 
Q 45.5625 -1.421875 35.59375 -1.421875 
Q 29.59375 -1.421875 25.265625 0.953125 
Q 20.953125 3.328125 18.109375 8.203125 
z
M 48.6875 27.296875 
Q 48.6875 37.203125 44.609375 42.84375 
Q 40.53125 48.484375 33.40625 48.484375 
Q 26.265625 48.484375 22.1875 42.84375 
Q 18.109375 37.203125 18.109375 27.296875 
Q 18.109375 17.390625 22.1875 11.75 
Q 26.265625 6.109375 33.40625 6.109375 
Q 40.53125 6.109375 44.609375 11.75 
Q 48.6875 17.390625 48.6875 27.296875 
z
" id="DejaVuSans-112"/>
     <path d="M 9.421875 54.6875 
L 18.40625 54.6875 
L 18.40625 0 
L 9.421875 0 
z
M 9.421875 75.984375 
L 18.40625 75.984375 
L 18.40625 64.59375 
L 9.421875 64.59375 
z
" id="DejaVuSans-105"/>
     <path d="M 9.078125 75.984375 
L 18.109375 75.984375 
L 18.109375 31.109375 
L 44.921875 54.6875 
L 56.390625 54.6875 
L 27.390625 29.109375 
L 57.625 0 
L 45.90625 0 
L 18.109375 26.703125 
L 18.109375 0 
L 9.078125 0 
z
" id="DejaVuSans-107"/>
     <path d="M 56.203125 29.59375 
L 56.203125 25.203125 
L 14.890625 25.203125 
Q 15.484375 15.921875 20.484375 11.0625 
Q 25.484375 6.203125 34.421875 6.203125 
Q 39.59375 6.203125 44.453125 7.46875 
Q 49.3125 8.734375 54.109375 11.28125 
L 54.109375 2.78125 
Q 49.265625 0.734375 44.1875 -0.34375 
Q 39.109375 -1.421875 33.890625 -1.421875 
Q 20.796875 -1.421875 13.15625 6.1875 
Q 5.515625 13.8125 5.515625 26.8125 
Q 5.515625 40.234375 12.765625 48.109375 
Q 20.015625 56 32.328125 56 
Q 43.359375 56 49.78125 48.890625 
Q 56.203125 41.796875 56.203125 29.59375 
z
M 47.21875 32.234375 
Q 47.125 39.59375 43.09375 43.984375 
Q 39.0625 48.390625 32.421875 48.390625 
Q 24.90625 48.390625 20.390625 44.140625 
Q 15.875 39.890625 15.1875 32.171875 
z
" id="DejaVuSans-101"/>
     <path d="M 39.40625 66.21875 
Q 28.65625 66.21875 22.328125 58.203125 
Q 16.015625 50.203125 16.015625 36.375 
Q 16.015625 22.609375 22.328125 14.59375 
Q 28.65625 6.59375 39.40625 6.59375 
Q 50.140625 6.59375 56.421875 14.59375 
Q 62.703125 22.609375 62.703125 36.375 
Q 62.703125 50.203125 56.421875 58.203125 
Q 50.140625 66.21875 39.40625 66.21875 
z
M 39.40625 74.21875 
Q 54.734375 74.21875 63.90625 63.9375 
Q 73.09375 53.65625 73.09375 36.375 
Q 73.09375 19.140625 63.90625 8.859375 
Q 54.734375 -1.421875 39.40625 -1.421875 
Q 24.03125 -1.421875 14.8125 8.828125 
Q 5.609375 19.09375 5.609375 36.375 
Q 5.609375 53.65625 14.8125 63.9375 
Q 24.03125 74.21875 39.40625 74.21875 
z
" id="DejaVuSans-79"/>
     <path d="M 37.109375 75.984375 
L 37.109375 68.5 
L 28.515625 68.5 
Q 23.6875 68.5 21.796875 66.546875 
Q 19.921875 64.59375 19.921875 59.515625 
L 19.921875 54.6875 
L 34.71875 54.6875 
L 34.71875 47.703125 
L 19.921875 47.703125 
L 19.921875 0 
L 10.890625 0 
L 10.890625 47.703125 
L 2.296875 47.703125 
L 2.296875 54.6875 
L 10.890625 54.6875 
L 10.890625 58.5 
Q 10.890625 67.625 15.140625 71.796875 
Q 19.390625 75.984375 28.609375 75.984375 
z
" id="DejaVuSans-102"/>
     <path d="M 44.28125 53.078125 
L 44.28125 44.578125 
Q 40.484375 46.53125 36.375 47.5 
Q 32.28125 48.484375 27.875 48.484375 
Q 21.1875 48.484375 17.84375 46.4375 
Q 14.5 44.390625 14.5 40.28125 
Q 14.5 37.15625 16.890625 35.375 
Q 19.28125 33.59375 26.515625 31.984375 
L 29.59375 31.296875 
Q 39.15625 29.25 43.1875 25.515625 
Q 47.21875 21.78125 47.21875 15.09375 
Q 47.21875 7.46875 41.1875 3.015625 
Q 35.15625 -1.421875 24.609375 -1.421875 
Q 20.21875 -1.421875 15.453125 -0.5625 
Q 10.6875 0.296875 5.421875 2 
L 5.421875 11.28125 
Q 10.40625 8.6875 15.234375 7.390625 
Q 20.0625 6.109375 24.8125 6.109375 
Q 31.15625 6.109375 34.5625 8.28125 
Q 37.984375 10.453125 37.984375 14.40625 
Q 37.984375 18.0625 35.515625 20.015625 
Q 33.0625 21.96875 24.703125 23.78125 
L 21.578125 24.515625 
Q 13.234375 26.265625 9.515625 29.90625 
Q 5.8125 33.546875 5.8125 39.890625 
Q 5.8125 47.609375 11.28125 51.796875 
Q 16.75 56 26.8125 56 
Q 31.78125 56 36.171875 55.265625 
Q 40.578125 54.546875 44.28125 53.078125 
z
" id="DejaVuSans-115"/>
     <path d="M 18.3125 70.21875 
L 18.3125 54.6875 
L 36.8125 54.6875 
L 36.8125 47.703125 
L 18.3125 47.703125 
L 18.3125 18.015625 
Q 18.3125 11.328125 20.140625 9.421875 
Q 21.96875 7.515625 27.59375 7.515625 
L 36.8125 7.515625 
L 36.8125 0 
L 27.59375 0 
Q 17.1875 0 13.234375 3.875 
Q 9.28125 7.765625 9.28125 18.015625 
L 9.28125 47.703125 
L 2.6875 47.703125 
L 2.6875 54.6875 
L 9.28125 54.6875 
L 9.28125 70.21875 
z
" id="DejaVuSans-116"/>
     <path d="M 8.59375 75.984375 
L 29.296875 75.984375 
L 29.296875 69 
L 17.578125 69 
L 17.578125 -6.203125 
L 29.296875 -6.203125 
L 29.296875 -13.1875 
L 8.59375 -13.1875 
z
" id="DejaVuSans-91"/>
     <path d="M 52 44.1875 
Q 55.375 50.25 60.0625 53.125 
Q 64.75 56 71.09375 56 
Q 79.640625 56 84.28125 50.015625 
Q 88.921875 44.046875 88.921875 33.015625 
L 88.921875 0 
L 79.890625 0 
L 79.890625 32.71875 
Q 79.890625 40.578125 77.09375 44.375 
Q 74.3125 48.1875 68.609375 48.1875 
Q 61.625 48.1875 57.5625 43.546875 
Q 53.515625 38.921875 53.515625 30.90625 
L 53.515625 0 
L 44.484375 0 
L 44.484375 32.71875 
Q 44.484375 40.625 41.703125 44.40625 
Q 38.921875 48.1875 33.109375 48.1875 
Q 26.21875 48.1875 22.15625 43.53125 
Q 18.109375 38.875 18.109375 30.90625 
L 18.109375 0 
L 9.078125 0 
L 9.078125 54.6875 
L 18.109375 54.6875 
L 18.109375 46.1875 
Q 21.1875 51.21875 25.484375 53.609375 
Q 29.78125 56 35.6875 56 
Q 41.65625 56 45.828125 52.96875 
Q 50 49.953125 52 44.1875 
z
" id="DejaVuSans-109"/>
     <path d="M 30.421875 75.984375 
L 30.421875 -13.1875 
L 9.71875 -13.1875 
L 9.71875 -6.203125 
L 21.390625 -6.203125 
L 21.390625 69 
L 9.71875 69 
L 9.71875 75.984375 
z
" id="DejaVuSans-93"/>
    </defs>
    <use xlink:href="#DejaVuSans-83"/>
    <use x="63.476562" xlink:href="#DejaVuSans-112"/>
    <use x="126.953125" xlink:href="#DejaVuSans-105"/>
    <use x="154.736328" xlink:href="#DejaVuSans-107"/>
    <use x="209.021484" xlink:href="#DejaVuSans-101"/>
    <use x="270.544922" xlink:href="#DejaVuSans-32"/>
    <use x="302.332031" xlink:href="#DejaVuSans-79"/>
    <use x="381.042969" xlink:href="#DejaVuSans-102"/>
    <use x="416.248047" xlink:href="#DejaVuSans-102"/>
    <use x="451.453125" xlink:href="#DejaVuSans-115"/>
    <use x="503.552734" xlink:href="#DejaVuSans-101"/>
    <use x="565.076172" xlink:href="#DejaVuSans-116"/>
    <use x="604.285156" xlink:href="#DejaVuSans-32"/>
    <use x="636.072266" xlink:href="#DejaVuSans-91"/>
    <use x="675.085938" xlink:href="#DejaVuSans-109"/>
    <use x="772.498047" xlink:href="#DejaVuSans-115"/>
    <use x="824.597656" xlink:href="#DejaVuSans-93"/>
   </g>
  </g>
  <g id="legend_1">
   <g id="patch_72">
    <path d="M 101.568 21.84375 
L 125.568 21.84375 
L 125.568 13.44375 
L 101.568 13.44375 
z
" style="fill:#004e2b;"/>
   </g>
   <g id="text_12">
    <!-- $\sigma_{\xi} = $2 ms -->
    <g style="fill:#262626;" transform="translate(135.168 21.84375)scale(0.12 -0.12)">
     <defs>
      <path d="M 34.671875 47.5625 
Q 27.25 47.5625 22.21875 42.1875 
Q 16.890625 36.578125 15.140625 27.296875 
Q 13.1875 17.484375 16.3125 11.8125 
Q 19.390625 6.203125 26.65625 6.203125 
Q 33.84375 6.203125 39.109375 11.859375 
Q 44.4375 17.53125 46.34375 27.296875 
Q 48.046875 36.234375 45.015625 42.1875 
Q 42.1875 47.5625 34.671875 47.5625 
z
M 36.078125 54.734375 
L 65.921875 54.6875 
L 64.15625 45.703125 
L 54.109375 45.703125 
Q 57.90625 38.09375 55.859375 27.296875 
Q 53.21875 13.875 45.0625 6.25 
Q 36.859375 -1.421875 25.140625 -1.421875 
Q 13.375 -1.421875 8.203125 6.25 
Q 3.03125 13.875 5.671875 27.296875 
Q 8.25 40.765625 16.40625 48.390625 
Q 23.1875 54.734375 36.078125 54.734375 
z
" id="DejaVuSans-Oblique-963"/>
      <path d="M 31.5 6.203125 
Q 37.9375 6.15625 41.0625 2.484375 
Q 44.4375 -1.375 43.3125 -7.234375 
Q 42.1875 -12.84375 37.84375 -16.75 
Q 33.109375 -21 25.140625 -21 
Q 25.875 -17.328125 26.5625 -13.625 
Q 29.890625 -13.875 32.375 -11.71875 
Q 34.28125 -10.015625 34.625 -8.203125 
Q 35.109375 -5.609375 33.984375 -3.46875 
Q 32.8125 -1.421875 30.03125 -1.421875 
Q -0.390625 -1.421875 3.765625 19.921875 
Q 6.59375 34.578125 23.6875 38.875 
Q 10.359375 40.625 12.84375 53.328125 
Q 14.703125 62.9375 26.21875 66.9375 
L 16.0625 66.9375 
L 17.828125 75.984375 
L 56.34375 75.984375 
L 54.59375 66.9375 
Q 23.875 66.9375 21.09375 52.734375 
Q 19.28125 43.40625 45.015625 42.96875 
L 43.40625 34.671875 
Q 15.765625 35.75 12.796875 19.921875 
Q 10.296875 6.6875 31.5 6.203125 
z
" id="DejaVuSans-Oblique-958"/>
      <path d="M 10.59375 45.40625 
L 73.1875 45.40625 
L 73.1875 37.203125 
L 10.59375 37.203125 
z
M 10.59375 25.484375 
L 73.1875 25.484375 
L 73.1875 17.1875 
L 10.59375 17.1875 
z
" id="DejaVuSans-61"/>
      <path d="M 19.1875 8.296875 
L 53.609375 8.296875 
L 53.609375 0 
L 7.328125 0 
L 7.328125 8.296875 
Q 12.9375 14.109375 22.625 23.890625 
Q 32.328125 33.6875 34.8125 36.53125 
Q 39.546875 41.84375 41.421875 45.53125 
Q 43.3125 49.21875 43.3125 52.78125 
Q 43.3125 58.59375 39.234375 62.25 
Q 35.15625 65.921875 28.609375 65.921875 
Q 23.96875 65.921875 18.8125 64.3125 
Q 13.671875 62.703125 7.8125 59.421875 
L 7.8125 69.390625 
Q 13.765625 71.78125 18.9375 73 
Q 24.125 74.21875 28.421875 74.21875 
Q 39.75 74.21875 46.484375 68.546875 
Q 53.21875 62.890625 53.21875 53.421875 
Q 53.21875 48.921875 51.53125 44.890625 
Q 49.859375 40.875 45.40625 35.40625 
Q 44.1875 33.984375 37.640625 27.21875 
Q 31.109375 20.453125 19.1875 8.296875 
z
" id="DejaVuSans-50"/>
     </defs>
     <use transform="translate(0 0.78125)" xlink:href="#DejaVuSans-Oblique-963"/>
     <use transform="translate(63.378906 -15.625)scale(0.7)" xlink:href="#DejaVuSans-Oblique-958"/>
     <use transform="translate(124.628906 0.78125)" xlink:href="#DejaVuSans-61"/>
     <use transform="translate(227.900391 0.78125)" xlink:href="#DejaVuSans-50"/>
     <use transform="translate(291.523438 0.78125)" xlink:href="#DejaVuSans-32"/>
     <use transform="translate(323.310547 0.78125)" xlink:href="#DejaVuSans-109"/>
     <use transform="translate(420.722656 0.78125)" xlink:href="#DejaVuSans-115"/>
    </g>
   </g>
   <g id="patch_73">
    <path d="M 101.568 40.801875 
L 125.568 40.801875 
L 125.568 32.401875 
L 101.568 32.401875 
z
" style="fill:#03a075;"/>
   </g>
   <g id="text_13">
    <!-- $\sigma_{\xi} = $4 ms -->
    <g style="fill:#262626;" transform="translate(135.168 40.801875)scale(0.12 -0.12)">
     <defs>
      <path d="M 37.796875 64.3125 
L 12.890625 25.390625 
L 37.796875 25.390625 
z
M 35.203125 72.90625 
L 47.609375 72.90625 
L 47.609375 25.390625 
L 58.015625 25.390625 
L 58.015625 17.1875 
L 47.609375 17.1875 
L 47.609375 0 
L 37.796875 0 
L 37.796875 17.1875 
L 4.890625 17.1875 
L 4.890625 26.703125 
z
" id="DejaVuSans-52"/>
     </defs>
     <use transform="translate(0 0.09375)" xlink:href="#DejaVuSans-Oblique-963"/>
     <use transform="translate(63.378906 -16.3125)scale(0.7)" xlink:href="#DejaVuSans-Oblique-958"/>
     <use transform="translate(124.628906 0.09375)" xlink:href="#DejaVuSans-61"/>
     <use transform="translate(227.900391 0.09375)" xlink:href="#DejaVuSans-52"/>
     <use transform="translate(291.523438 0.09375)" xlink:href="#DejaVuSans-32"/>
     <use transform="translate(323.310547 0.09375)" xlink:href="#DejaVuSans-109"/>
     <use transform="translate(420.722656 0.09375)" xlink:href="#DejaVuSans-115"/>
    </g>
   </g>
   <g id="patch_74">
    <path d="M 101.568 59.76 
L 125.568 59.76 
L 125.568 51.36 
L 101.568 51.36 
z
" style="fill:#79f5c5;"/>
   </g>
   <g id="text_14">
    <!-- $\sigma_{\xi} = $6 ms -->
    <g style="fill:#262626;" transform="translate(135.168 59.76)scale(0.12 -0.12)">
     <defs>
      <path d="M 33.015625 40.375 
Q 26.375 40.375 22.484375 35.828125 
Q 18.609375 31.296875 18.609375 23.390625 
Q 18.609375 15.53125 22.484375 10.953125 
Q 26.375 6.390625 33.015625 6.390625 
Q 39.65625 6.390625 43.53125 10.953125 
Q 47.40625 15.53125 47.40625 23.390625 
Q 47.40625 31.296875 43.53125 35.828125 
Q 39.65625 40.375 33.015625 40.375 
z
M 52.59375 71.296875 
L 52.59375 62.3125 
Q 48.875 64.0625 45.09375 64.984375 
Q 41.3125 65.921875 37.59375 65.921875 
Q 27.828125 65.921875 22.671875 59.328125 
Q 17.53125 52.734375 16.796875 39.40625 
Q 19.671875 43.65625 24.015625 45.921875 
Q 28.375 48.1875 33.59375 48.1875 
Q 44.578125 48.1875 50.953125 41.515625 
Q 57.328125 34.859375 57.328125 23.390625 
Q 57.328125 12.15625 50.6875 5.359375 
Q 44.046875 -1.421875 33.015625 -1.421875 
Q 20.359375 -1.421875 13.671875 8.265625 
Q 6.984375 17.96875 6.984375 36.375 
Q 6.984375 53.65625 15.1875 63.9375 
Q 23.390625 74.21875 37.203125 74.21875 
Q 40.921875 74.21875 44.703125 73.484375 
Q 48.484375 72.75 52.59375 71.296875 
z
" id="DejaVuSans-54"/>
     </defs>
     <use transform="translate(0 0.78125)" xlink:href="#DejaVuSans-Oblique-963"/>
     <use transform="translate(63.378906 -15.625)scale(0.7)" xlink:href="#DejaVuSans-Oblique-958"/>
     <use transform="translate(124.628906 0.78125)" xlink:href="#DejaVuSans-61"/>
     <use transform="translate(227.900391 0.78125)" xlink:href="#DejaVuSans-54"/>
     <use transform="translate(291.523438 0.78125)" xlink:href="#DejaVuSans-32"/>
     <use transform="translate(323.310547 0.78125)" xlink:href="#DejaVuSans-109"/>
     <use transform="translate(420.722656 0.78125)" xlink:href="#DejaVuSans-115"/>
    </g>
   </g>
  </g>
 </g>
 <defs>
  <clipPath id="pfcad02a2de">
   <rect height="117.58" width="39.270304" x="21.546789" y="12.96"/>
  </clipPath>
  <clipPath id="pceeee632f2">
   <rect height="117.58" width="39.270304" x="84.426789" y="12.96"/>
  </clipPath>
  <clipPath id="p588c446667">
   <rect height="117.58" width="39.270304" x="147.306789" y="12.96"/>
  </clipPath>
 </defs>
</svg>
