<?xml version="1.0" encoding="utf-8" standalone="no"?>
<!DOCTYPE svg PUBLIC "-//W3C//DTD SVG 1.1//EN"
  "http://www.w3.org/Graphics/SVG/1.1/DTD/svg11.dtd">
<!-- Created with matplotlib (https://matplotlib.org/) -->
<svg height="525.6pt" version="1.1" viewBox="0 0 792 525.6" width="792pt" xmlns="http://www.w3.org/2000/svg" xmlns:xlink="http://www.w3.org/1999/xlink">
 <metadata>
  <rdf:RDF xmlns:cc="http://creativecommons.org/ns#" xmlns:dc="http://purl.org/dc/elements/1.1/" xmlns:rdf="http://www.w3.org/1999/02/22-rdf-syntax-ns#">
   <cc:Work>
    <dc:type rdf:resource="http://purl.org/dc/dcmitype/StillImage"/>
    <dc:date>2021-10-18T12:12:01.888562</dc:date>
    <dc:format>image/svg+xml</dc:format>
    <dc:creator>
     <cc:Agent>
      <dc:title>Matplotlib v3.3.4, https://matplotlib.org/</dc:title>
     </cc:Agent>
    </dc:creator>
   </cc:Work>
  </rdf:RDF>
 </metadata>
 <defs>
  <style type="text/css">*{stroke-linecap:butt;stroke-linejoin:round;}</style>
 </defs>
 <g id="figure_1">
  <g id="patch_1">
   <path d="M 0 525.6 
L 792 525.6 
L 792 0 
L 0 0 
z
" style="fill:#ffffff;"/>
  </g>
  <g id="axes_1">
   <g id="patch_2">
    <path d="M 99.32625 206.452773 
L 665.290244 206.452773 
L 665.290244 50.92 
L 99.32625 50.92 
z
" style="fill:#ffffff;"/>
   </g>
   <g id="matplotlib.axis_1"/>
   <g id="matplotlib.axis_2">
    <g id="ytick_1">
     <g id="line2d_1">
      <defs>
       <path d="M 0 0 
L -12 0 
" id="mb426c4835c" style="stroke:#262626;stroke-width:2.5;"/>
      </defs>
      <g>
       <use style="fill:#262626;stroke:#262626;stroke-width:2.5;" x="99.32625" xlink:href="#mb426c4835c" y="134.668416"/>
      </g>
     </g>
     <g id="text_1">
      <!-- -1 -->
      <g style="fill:#262626;" transform="translate(61.891562 143.026697)scale(0.22 -0.22)">
       <defs>
        <path d="M 4.890625 31.390625 
L 31.203125 31.390625 
L 31.203125 23.390625 
L 4.890625 23.390625 
z
" id="DejaVuSans-45"/>
        <path d="M 12.40625 8.296875 
L 28.515625 8.296875 
L 28.515625 63.921875 
L 10.984375 60.40625 
L 10.984375 69.390625 
L 28.421875 72.90625 
L 38.28125 72.90625 
L 38.28125 8.296875 
L 54.390625 8.296875 
L 54.390625 0 
L 12.40625 0 
z
" id="DejaVuSans-49"/>
       </defs>
       <use xlink:href="#DejaVuSans-45"/>
       <use x="36.083984" xlink:href="#DejaVuSans-49"/>
      </g>
     </g>
    </g>
    <g id="ytick_2">
     <g id="line2d_2">
      <g>
       <use style="fill:#262626;stroke:#262626;stroke-width:2.5;" x="99.32625" xlink:href="#mb426c4835c" y="110.740297"/>
      </g>
     </g>
     <g id="text_2">
      <!-- 0 -->
      <g style="fill:#262626;" transform="translate(69.82875 119.098578)scale(0.22 -0.22)">
       <defs>
        <path d="M 31.78125 66.40625 
Q 24.171875 66.40625 20.328125 58.90625 
Q 16.5 51.421875 16.5 36.375 
Q 16.5 21.390625 20.328125 13.890625 
Q 24.171875 6.390625 31.78125 6.390625 
Q 39.453125 6.390625 43.28125 13.890625 
Q 47.125 21.390625 47.125 36.375 
Q 47.125 51.421875 43.28125 58.90625 
Q 39.453125 66.40625 31.78125 66.40625 
z
M 31.78125 74.21875 
Q 44.046875 74.21875 50.515625 64.515625 
Q 56.984375 54.828125 56.984375 36.375 
Q 56.984375 17.96875 50.515625 8.265625 
Q 44.046875 -1.421875 31.78125 -1.421875 
Q 19.53125 -1.421875 13.0625 8.265625 
Q 6.59375 17.96875 6.59375 36.375 
Q 6.59375 54.828125 13.0625 64.515625 
Q 19.53125 74.21875 31.78125 74.21875 
z
" id="DejaVuSans-48"/>
       </defs>
       <use xlink:href="#DejaVuSans-48"/>
      </g>
     </g>
    </g>
    <g id="ytick_3">
     <g id="line2d_3">
      <g>
       <use style="fill:#262626;stroke:#262626;stroke-width:2.5;" x="99.32625" xlink:href="#mb426c4835c" y="86.812178"/>
      </g>
     </g>
     <g id="text_3">
      <!-- 1 -->
      <g style="fill:#262626;" transform="translate(69.82875 95.17046)scale(0.22 -0.22)">
       <use xlink:href="#DejaVuSans-49"/>
      </g>
     </g>
    </g>
    <g id="text_4">
     <!--      $V(t)$ -->
     <g style="fill:#262626;" transform="translate(52.900312 170.086386)rotate(-90)scale(0.24 -0.24)">
      <defs>
       <path id="DejaVuSans-32"/>
       <path d="M 20.609375 0 
L 7.8125 72.90625 
L 17.484375 72.90625 
L 28.078125 10.203125 
L 63.484375 72.90625 
L 74.21875 72.90625 
L 32.078125 0 
z
" id="DejaVuSans-Oblique-86"/>
       <path d="M 31 75.875 
Q 24.46875 64.65625 21.28125 53.65625 
Q 18.109375 42.671875 18.109375 31.390625 
Q 18.109375 20.125 21.3125 9.0625 
Q 24.515625 -2 31 -13.1875 
L 23.1875 -13.1875 
Q 15.875 -1.703125 12.234375 9.375 
Q 8.59375 20.453125 8.59375 31.390625 
Q 8.59375 42.28125 12.203125 53.3125 
Q 15.828125 64.359375 23.1875 75.875 
z
" id="DejaVuSans-40"/>
       <path d="M 42.28125 54.6875 
L 40.921875 47.703125 
L 23 47.703125 
L 17.1875 18.015625 
Q 16.890625 16.359375 16.75 15.234375 
Q 16.609375 14.109375 16.609375 13.484375 
Q 16.609375 10.359375 18.484375 8.9375 
Q 20.359375 7.515625 24.515625 7.515625 
L 33.59375 7.515625 
L 32.078125 0 
L 23.484375 0 
Q 15.484375 0 11.546875 3.125 
Q 7.625 6.25 7.625 12.59375 
Q 7.625 13.71875 7.765625 15.0625 
Q 7.90625 16.40625 8.203125 18.015625 
L 14.015625 47.703125 
L 6.390625 47.703125 
L 7.8125 54.6875 
L 15.28125 54.6875 
L 18.3125 70.21875 
L 27.296875 70.21875 
L 24.3125 54.6875 
z
" id="DejaVuSans-Oblique-116"/>
       <path d="M 8.015625 75.875 
L 15.828125 75.875 
Q 23.140625 64.359375 26.78125 53.3125 
Q 30.421875 42.28125 30.421875 31.390625 
Q 30.421875 20.453125 26.78125 9.375 
Q 23.140625 -1.703125 15.828125 -13.1875 
L 8.015625 -13.1875 
Q 14.5 -2 17.703125 9.0625 
Q 20.90625 20.125 20.90625 31.390625 
Q 20.90625 42.671875 17.703125 53.65625 
Q 14.5 64.65625 8.015625 75.875 
z
" id="DejaVuSans-41"/>
      </defs>
      <use transform="translate(0 0.125)" xlink:href="#DejaVuSans-32"/>
      <use transform="translate(31.787109 0.125)" xlink:href="#DejaVuSans-32"/>
      <use transform="translate(63.574219 0.125)" xlink:href="#DejaVuSans-32"/>
      <use transform="translate(95.361328 0.125)" xlink:href="#DejaVuSans-32"/>
      <use transform="translate(127.148438 0.125)" xlink:href="#DejaVuSans-32"/>
      <use transform="translate(158.935547 0.125)" xlink:href="#DejaVuSans-Oblique-86"/>
      <use transform="translate(227.34375 0.125)" xlink:href="#DejaVuSans-40"/>
      <use transform="translate(266.357422 0.125)" xlink:href="#DejaVuSans-Oblique-116"/>
      <use transform="translate(305.566406 0.125)" xlink:href="#DejaVuSans-41"/>
     </g>
    </g>
   </g>
   <g id="EventCollection_1">
    <path clip-path="url(#pfa0ff59be5)" d="M 270.473762 62.884059 
L 270.473762 86.812178 
" style="fill:none;stroke:#009e73;stroke-width:3;"/>
   </g>
   <g id="EventCollection_2">
    <path clip-path="url(#pfa0ff59be5)" d="M 251.608295 62.884059 
L 251.608295 86.812178 
" style="fill:none;stroke:#e59c00;stroke-width:3;"/>
    <path clip-path="url(#pfa0ff59be5)" d="M 529.496616 62.884059 
L 529.496616 86.812178 
" style="fill:none;stroke:#e59c00;stroke-width:3;"/>
   </g>
   <g id="LineCollection_1">
    <path clip-path="url(#pfa0ff59be5)" d="M 99.32625 86.812178 
L 665.290244 86.812178 
" style="fill:none;stroke:#808080;stroke-dasharray:11.1,4.8;stroke-dashoffset:0;stroke-width:3;"/>
   </g>
   <g id="line2d_4">
    <path clip-path="url(#pfa0ff59be5)" d="M 99.32625 110.740297 
L 231.305275 110.632957 
L 232.549649 107.446094 
L 233.756314 104.943346 
L 234.962979 102.927876 
L 236.207353 101.27877 
L 237.451727 99.995165 
L 238.733809 98.991394 
L 240.053599 98.238157 
L 241.448806 97.695308 
L 242.957138 97.345231 
L 244.654011 97.183323 
L 246.614842 97.228581 
L 248.952756 97.515818 
L 250.159421 97.628009 
L 251.328379 94.862431 
L 252.459627 92.733322 
L 253.590876 91.060544 
L 254.722125 89.774656 
L 255.853374 88.816102 
L 257.022331 88.115318 
L 258.228996 87.650434 
L 259.511078 87.3946 
L 260.906285 87.343073 
L 262.490033 87.511633 
L 264.33774 87.940114 
L 266.600237 88.705768 
L 269.013568 89.604168 
L 270.144817 87.193922 
L 270.371066 86.812178 
L 270.408775 134.668416 
L 270.484191 134.60867 
L 273.840229 132.09569 
L 277.309392 129.775771 
L 280.929388 127.623248 
L 284.700218 125.639449 
L 288.659589 123.806831 
L 292.845209 122.114004 
L 297.294788 120.554242 
L 302.083741 119.113649 
L 307.249777 117.795775 
L 312.830604 116.604135 
L 318.977056 115.523232 
L 321.76747 115.100656 
L 322.974135 118.049307 
L 324.1808 120.421084 
L 325.387466 122.306806 
L 326.594131 123.783648 
L 327.800797 124.917165 
L 329.04517 125.785352 
L 330.327252 126.41437 
L 331.722459 126.847599 
L 333.230791 127.078362 
L 334.927664 127.10654 
L 336.888495 126.909093 
L 339.264118 126.43663 
L 342.356198 125.581672 
L 347.371401 123.931269 
L 357.062432 120.73897 
L 359.475763 120.022714 
L 360.64472 122.721808 
L 361.813677 124.880106 
L 362.982634 126.581081 
L 364.151591 127.896002 
L 365.320548 128.885691 
L 366.527213 129.621106 
L 367.809295 130.137456 
L 369.166794 130.439821 
L 370.637417 130.538815 
L 372.33429 130.421801 
L 374.295122 130.05553 
L 376.708452 129.368521 
L 379.951366 128.198212 
L 386.24865 125.631996 
L 393.149268 122.915048 
L 397.184055 121.487034 
L 398.353012 124.130609 
L 399.52197 126.235478 
L 400.690927 127.885038 
L 401.859884 129.150483 
L 403.028841 130.092565 
L 404.235506 130.780723 
L 405.47988 131.238514 
L 406.837378 131.498276 
L 408.308002 131.55215 
L 410.004875 131.384595 
L 412.003415 130.952106 
L 414.454454 130.182894 
L 417.810492 128.879137 
L 426.445691 125.175947 
L 432.215059 122.878345 
L 437.343387 121.074372 
L 442.471715 119.506228 
L 447.788584 118.114275 
L 453.444828 116.866105 
L 459.553572 115.749349 
L 466.265648 114.753004 
L 473.73189 113.874463 
L 482.178548 113.109534 
L 487.721667 112.604632 
L 488.96604 109.338113 
L 490.210414 106.688995 
L 491.454788 104.558496 
L 492.699161 102.863057 
L 493.943535 101.532017 
L 495.225617 100.478743 
L 496.545407 99.674344 
L 497.978322 99.064634 
L 499.524362 98.655109 
L 501.221235 98.439274 
L 503.182067 98.421494 
L 505.519981 98.634041 
L 508.461228 99.138109 
L 512.684556 100.109287 
L 525.429959 103.174059 
L 526.598917 100.424957 
L 527.767874 98.216366 
L 528.936831 96.465138 
L 530.105788 95.10027 
L 531.312453 94.032459 
L 532.519119 93.255074 
L 533.8012 92.693609 
L 535.158699 92.343321 
L 536.629322 92.192662 
L 538.288487 92.247311 
L 540.249319 92.543136 
L 542.624941 93.137172 
L 545.792438 94.176048 
L 551.26014 96.245584 
L 559.292006 99.239125 
L 563.100544 100.513542 
L 564.269501 97.850203 
L 565.438458 95.726322 
L 566.607415 94.058472 
L 567.776372 92.775432 
L 568.945329 91.816424 
L 570.151995 91.111468 
L 571.396368 90.637044 
L 572.753867 90.359903 
L 574.22449 90.288063 
L 575.921364 90.435948 
L 577.882195 90.837004 
L 580.333234 91.57809 
L 583.651564 92.833314 
L 590.816139 95.857452 
L 597.113424 98.384607 
L 602.354877 100.246695 
L 607.520913 101.844557 
L 612.837782 103.254494 
L 618.456318 104.512542 
L 624.527353 105.640858 
L 631.164013 106.644649 
L 638.554838 107.533197 
L 646.926079 108.309797 
L 656.579402 108.975199 
L 664.912935 109.401201 
L 664.912935 109.401201 
" style="fill:none;stroke:#009e73;stroke-linecap:round;stroke-width:3;"/>
   </g>
   <g id="line2d_5">
    <path clip-path="url(#pfa0ff59be5)" d="M 99.32625 110.740297 
L 231.267567 110.740297 
L 231.908608 103.338084 
L 232.549649 98.294705 
L 233.19069 94.923415 
L 233.794022 92.838322 
L 234.397355 91.508209 
L 234.962979 90.757489 
L 235.528604 90.355647 
L 236.131937 90.205484 
L 236.810686 90.278926 
L 237.677977 90.619407 
L 238.884642 91.357853 
L 241.147139 93.060173 
L 245.33276 96.183484 
L 248.349423 98.143097 
L 250.121713 99.173112 
L 250.762754 92.122625 
L 251.403795 87.420363 
L 251.51692 86.812178 
L 251.554628 115.525921 
L 251.630045 115.50855 
L 256.343582 114.539181 
L 261.622743 113.685453 
L 267.618361 112.946055 
L 268.97586 112.806301 
L 269.616901 105.341207 
L 270.257942 100.23686 
L 270.898983 96.806458 
L 271.502315 94.667375 
L 272.105648 93.284819 
L 272.671272 92.486301 
L 273.236897 92.037947 
L 273.840229 91.839549 
L 274.518979 91.860378 
L 275.348561 92.119848 
L 276.517518 92.742194 
L 278.553766 94.127171 
L 283.455844 97.496605 
L 286.585632 99.342819 
L 289.790837 100.973186 
L 293.184584 102.447209 
L 296.80458 103.775388 
L 300.726242 104.975356 
L 305.024988 106.054564 
L 309.776233 107.013938 
L 315.093102 107.856615 
L 321.164137 108.58842 
L 321.76747 108.650118 
L 322.408511 116.115948 
L 323.049552 121.221009 
L 323.690593 124.652102 
L 324.293925 126.791817 
L 324.897258 128.174987 
L 325.462882 128.974064 
L 326.028507 129.422963 
L 326.631839 129.621925 
L 327.310589 129.601711 
L 328.140171 129.342967 
L 329.309128 128.721595 
L 331.345376 127.33819 
L 336.247454 123.971962 
L 339.377242 122.127433 
L 342.582447 120.498547 
L 345.976194 119.025861 
L 349.59619 117.698887 
L 353.517852 116.500008 
L 357.816598 115.42178 
L 359.475763 115.06185 
L 360.116804 122.332531 
L 360.757844 127.248382 
L 361.398885 130.496024 
L 362.002218 132.468183 
L 362.567843 133.630007 
L 363.133467 134.30794 
L 363.661383 134.619604 
L 364.227007 134.701526 
L 364.868048 134.567814 
L 365.697631 134.154392 
L 366.866588 133.302492 
L 369.053669 131.378459 
L 373.126165 127.82511 
L 376.029703 125.60661 
L 378.933242 123.667341 
L 381.949905 121.918024 
L 385.15511 120.317553 
L 388.548856 118.871897 
L 392.206561 117.557128 
L 396.165932 116.372416 
L 397.184055 116.102607 
L 397.825096 123.341611 
L 398.466137 128.226749 
L 399.06947 131.291969 
L 399.672803 133.29259 
L 400.238427 134.467513 
L 400.804052 135.149049 
L 401.331968 135.457836 
L 401.897592 135.531839 
L 402.538633 135.384887 
L 403.368215 134.94995 
L 404.537173 134.063162 
L 406.724254 132.069747 
L 410.721333 128.459236 
L 413.587163 126.1867 
L 416.452993 124.196312 
L 419.431948 122.396624 
L 422.561737 120.764018 
L 425.917775 119.266461 
L 429.500062 117.913935 
L 433.384017 116.688804 
L 437.607345 115.592845 
L 442.283174 114.613375 
L 447.524626 113.748438 
L 453.482537 112.997326 
L 460.383154 112.35851 
L 468.603562 111.828969 
L 478.747093 111.407853 
L 487.683958 111.174154 
L 488.324999 103.758736 
L 488.96604 98.702553 
L 489.607081 95.31885 
L 490.210414 93.22242 
L 490.813747 91.881293 
L 491.379371 91.120536 
L 491.944995 90.708926 
L 492.548328 90.548634 
L 493.227077 90.611027 
L 494.094368 90.937907 
L 495.301033 91.658351 
L 497.525823 93.300727 
L 501.824568 96.455133 
L 504.87894 98.4008 
L 507.97102 100.107836 
L 511.251641 101.66301 
L 514.758513 103.07507 
L 518.529342 104.34938 
L 522.601838 105.488794 
L 525.392251 106.149889 
L 526.033292 98.887391 
L 526.674333 93.979474 
L 527.315374 90.739524 
L 527.918707 88.774391 
L 528.484331 87.618971 
L 529.049956 86.94727 
L 529.238497 86.812178 
L 529.276205 115.525921 
L 529.351622 115.50855 
L 534.065159 114.539181 
L 539.34432 113.685453 
L 545.339938 112.946055 
L 552.315972 112.316009 
L 560.649505 111.79461 
L 563.100544 111.67709 
L 563.741585 104.246365 
L 564.382626 99.175341 
L 565.023667 95.777248 
L 565.627 93.667674 
L 566.230332 92.313782 
L 566.795957 91.541389 
L 567.361581 91.118456 
L 567.964914 90.946422 
L 568.643663 90.996008 
L 569.473246 91.28937 
L 570.642203 91.95723 
L 572.716159 93.443872 
L 577.354279 96.784951 
L 580.40865 98.686068 
L 583.538439 100.372571 
L 586.856769 101.905121 
L 590.401348 103.293077 
L 594.209886 104.542424 
L 598.357798 105.665906 
L 602.920501 106.668003 
L 608.011121 107.554343 
L 613.78049 108.328023 
L 620.454858 108.991808 
L 628.335891 109.544573 
L 637.989214 109.989562 
L 650.395242 110.327535 
L 664.912935 110.535326 
L 664.912935 110.535326 
" style="fill:none;stroke:#e59c00;stroke-linecap:round;stroke-width:3;"/>
   </g>
   <g id="line2d_6">
    <path clip-path="url(#pfa0ff59be5)" d="M 99.32625 170.560594 
L 231.229858 170.560594 
L 231.267567 156.203723 
L 231.305275 170.560594 
L 250.084005 170.560594 
L 250.121713 156.203723 
L 250.159421 170.560594 
L 268.938151 170.560594 
L 268.97586 156.203723 
L 269.013568 170.560594 
L 487.64625 170.560594 
L 487.683958 156.203723 
L 487.721667 170.560594 
L 525.354543 170.560594 
L 525.392251 156.203723 
L 525.429959 170.560594 
L 563.062836 170.560594 
L 563.100544 156.203723 
L 563.138252 170.560594 
L 664.912935 170.560594 
L 664.912935 170.560594 
" style="fill:none;stroke:#808080;stroke-linecap:round;stroke-width:3;"/>
   </g>
   <g id="line2d_7">
    <path clip-path="url(#pfa0ff59be5)" d="M 99.32625 170.560594 
L 321.729761 170.560594 
L 321.76747 184.917466 
L 321.805178 170.560594 
L 359.438054 170.560594 
L 359.475763 184.917466 
L 359.513471 170.560594 
L 397.146347 170.560594 
L 397.184055 184.917466 
L 397.221764 170.560594 
L 664.912935 170.560594 
L 664.912935 170.560594 
" style="fill:none;stroke:#808080;stroke-linecap:round;stroke-width:3;"/>
   </g>
   <g id="patch_3">
    <path d="M 99.32625 206.452773 
L 99.32625 50.92 
" style="fill:none;stroke:#262626;stroke-linecap:square;stroke-linejoin:miter;stroke-width:2.5;"/>
   </g>
   <g id="text_5">
    <!-- Threshold -->
    <g style="fill:#262626;" transform="translate(106.872437 79.633743)scale(0.22 -0.22)">
     <defs>
      <path d="M -0.296875 72.90625 
L 61.375 72.90625 
L 61.375 64.59375 
L 35.5 64.59375 
L 35.5 0 
L 25.59375 0 
L 25.59375 64.59375 
L -0.296875 64.59375 
z
" id="DejaVuSans-84"/>
      <path d="M 54.890625 33.015625 
L 54.890625 0 
L 45.90625 0 
L 45.90625 32.71875 
Q 45.90625 40.484375 42.875 44.328125 
Q 39.84375 48.1875 33.796875 48.1875 
Q 26.515625 48.1875 22.3125 43.546875 
Q 18.109375 38.921875 18.109375 30.90625 
L 18.109375 0 
L 9.078125 0 
L 9.078125 75.984375 
L 18.109375 75.984375 
L 18.109375 46.1875 
Q 21.34375 51.125 25.703125 53.5625 
Q 30.078125 56 35.796875 56 
Q 45.21875 56 50.046875 50.171875 
Q 54.890625 44.34375 54.890625 33.015625 
z
" id="DejaVuSans-104"/>
      <path d="M 41.109375 46.296875 
Q 39.59375 47.171875 37.8125 47.578125 
Q 36.03125 48 33.890625 48 
Q 26.265625 48 22.1875 43.046875 
Q 18.109375 38.09375 18.109375 28.8125 
L 18.109375 0 
L 9.078125 0 
L 9.078125 54.6875 
L 18.109375 54.6875 
L 18.109375 46.1875 
Q 20.953125 51.171875 25.484375 53.578125 
Q 30.03125 56 36.53125 56 
Q 37.453125 56 38.578125 55.875 
Q 39.703125 55.765625 41.0625 55.515625 
z
" id="DejaVuSans-114"/>
      <path d="M 56.203125 29.59375 
L 56.203125 25.203125 
L 14.890625 25.203125 
Q 15.484375 15.921875 20.484375 11.0625 
Q 25.484375 6.203125 34.421875 6.203125 
Q 39.59375 6.203125 44.453125 7.46875 
Q 49.3125 8.734375 54.109375 11.28125 
L 54.109375 2.78125 
Q 49.265625 0.734375 44.1875 -0.34375 
Q 39.109375 -1.421875 33.890625 -1.421875 
Q 20.796875 -1.421875 13.15625 6.1875 
Q 5.515625 13.8125 5.515625 26.8125 
Q 5.515625 40.234375 12.765625 48.109375 
Q 20.015625 56 32.328125 56 
Q 43.359375 56 49.78125 48.890625 
Q 56.203125 41.796875 56.203125 29.59375 
z
M 47.21875 32.234375 
Q 47.125 39.59375 43.09375 43.984375 
Q 39.0625 48.390625 32.421875 48.390625 
Q 24.90625 48.390625 20.390625 44.140625 
Q 15.875 39.890625 15.1875 32.171875 
z
" id="DejaVuSans-101"/>
      <path d="M 44.28125 53.078125 
L 44.28125 44.578125 
Q 40.484375 46.53125 36.375 47.5 
Q 32.28125 48.484375 27.875 48.484375 
Q 21.1875 48.484375 17.84375 46.4375 
Q 14.5 44.390625 14.5 40.28125 
Q 14.5 37.15625 16.890625 35.375 
Q 19.28125 33.59375 26.515625 31.984375 
L 29.59375 31.296875 
Q 39.15625 29.25 43.1875 25.515625 
Q 47.21875 21.78125 47.21875 15.09375 
Q 47.21875 7.46875 41.1875 3.015625 
Q 35.15625 -1.421875 24.609375 -1.421875 
Q 20.21875 -1.421875 15.453125 -0.5625 
Q 10.6875 0.296875 5.421875 2 
L 5.421875 11.28125 
Q 10.40625 8.6875 15.234375 7.390625 
Q 20.0625 6.109375 24.8125 6.109375 
Q 31.15625 6.109375 34.5625 8.28125 
Q 37.984375 10.453125 37.984375 14.40625 
Q 37.984375 18.0625 35.515625 20.015625 
Q 33.0625 21.96875 24.703125 23.78125 
L 21.578125 24.515625 
Q 13.234375 26.265625 9.515625 29.90625 
Q 5.8125 33.546875 5.8125 39.890625 
Q 5.8125 47.609375 11.28125 51.796875 
Q 16.75 56 26.8125 56 
Q 31.78125 56 36.171875 55.265625 
Q 40.578125 54.546875 44.28125 53.078125 
z
" id="DejaVuSans-115"/>
      <path d="M 30.609375 48.390625 
Q 23.390625 48.390625 19.1875 42.75 
Q 14.984375 37.109375 14.984375 27.296875 
Q 14.984375 17.484375 19.15625 11.84375 
Q 23.34375 6.203125 30.609375 6.203125 
Q 37.796875 6.203125 41.984375 11.859375 
Q 46.1875 17.53125 46.1875 27.296875 
Q 46.1875 37.015625 41.984375 42.703125 
Q 37.796875 48.390625 30.609375 48.390625 
z
M 30.609375 56 
Q 42.328125 56 49.015625 48.375 
Q 55.71875 40.765625 55.71875 27.296875 
Q 55.71875 13.875 49.015625 6.21875 
Q 42.328125 -1.421875 30.609375 -1.421875 
Q 18.84375 -1.421875 12.171875 6.21875 
Q 5.515625 13.875 5.515625 27.296875 
Q 5.515625 40.765625 12.171875 48.375 
Q 18.84375 56 30.609375 56 
z
" id="DejaVuSans-111"/>
      <path d="M 9.421875 75.984375 
L 18.40625 75.984375 
L 18.40625 0 
L 9.421875 0 
z
" id="DejaVuSans-108"/>
      <path d="M 45.40625 46.390625 
L 45.40625 75.984375 
L 54.390625 75.984375 
L 54.390625 0 
L 45.40625 0 
L 45.40625 8.203125 
Q 42.578125 3.328125 38.25 0.953125 
Q 33.9375 -1.421875 27.875 -1.421875 
Q 17.96875 -1.421875 11.734375 6.484375 
Q 5.515625 14.40625 5.515625 27.296875 
Q 5.515625 40.1875 11.734375 48.09375 
Q 17.96875 56 27.875 56 
Q 33.9375 56 38.25 53.625 
Q 42.578125 51.265625 45.40625 46.390625 
z
M 14.796875 27.296875 
Q 14.796875 17.390625 18.875 11.75 
Q 22.953125 6.109375 30.078125 6.109375 
Q 37.203125 6.109375 41.296875 11.75 
Q 45.40625 17.390625 45.40625 27.296875 
Q 45.40625 37.203125 41.296875 42.84375 
Q 37.203125 48.484375 30.078125 48.484375 
Q 22.953125 48.484375 18.875 42.84375 
Q 14.796875 37.203125 14.796875 27.296875 
z
" id="DejaVuSans-100"/>
     </defs>
     <use xlink:href="#DejaVuSans-84"/>
     <use x="61.083984" xlink:href="#DejaVuSans-104"/>
     <use x="124.462891" xlink:href="#DejaVuSans-114"/>
     <use x="163.326172" xlink:href="#DejaVuSans-101"/>
     <use x="224.849609" xlink:href="#DejaVuSans-115"/>
     <use x="276.949219" xlink:href="#DejaVuSans-104"/>
     <use x="340.328125" xlink:href="#DejaVuSans-111"/>
     <use x="401.509766" xlink:href="#DejaVuSans-108"/>
     <use x="429.292969" xlink:href="#DejaVuSans-100"/>
    </g>
   </g>
   <g id="text_6">
    <!-- Inputs -->
    <g style="fill:#262626;" transform="translate(106.872437 160.989347)scale(0.22 -0.22)">
     <defs>
      <path d="M 9.8125 72.90625 
L 19.671875 72.90625 
L 19.671875 0 
L 9.8125 0 
z
" id="DejaVuSans-73"/>
      <path d="M 54.890625 33.015625 
L 54.890625 0 
L 45.90625 0 
L 45.90625 32.71875 
Q 45.90625 40.484375 42.875 44.328125 
Q 39.84375 48.1875 33.796875 48.1875 
Q 26.515625 48.1875 22.3125 43.546875 
Q 18.109375 38.921875 18.109375 30.90625 
L 18.109375 0 
L 9.078125 0 
L 9.078125 54.6875 
L 18.109375 54.6875 
L 18.109375 46.1875 
Q 21.34375 51.125 25.703125 53.5625 
Q 30.078125 56 35.796875 56 
Q 45.21875 56 50.046875 50.171875 
Q 54.890625 44.34375 54.890625 33.015625 
z
" id="DejaVuSans-110"/>
      <path d="M 18.109375 8.203125 
L 18.109375 -20.796875 
L 9.078125 -20.796875 
L 9.078125 54.6875 
L 18.109375 54.6875 
L 18.109375 46.390625 
Q 20.953125 51.265625 25.265625 53.625 
Q 29.59375 56 35.59375 56 
Q 45.5625 56 51.78125 48.09375 
Q 58.015625 40.1875 58.015625 27.296875 
Q 58.015625 14.40625 51.78125 6.484375 
Q 45.5625 -1.421875 35.59375 -1.421875 
Q 29.59375 -1.421875 25.265625 0.953125 
Q 20.953125 3.328125 18.109375 8.203125 
z
M 48.6875 27.296875 
Q 48.6875 37.203125 44.609375 42.84375 
Q 40.53125 48.484375 33.40625 48.484375 
Q 26.265625 48.484375 22.1875 42.84375 
Q 18.109375 37.203125 18.109375 27.296875 
Q 18.109375 17.390625 22.1875 11.75 
Q 26.265625 6.109375 33.40625 6.109375 
Q 40.53125 6.109375 44.609375 11.75 
Q 48.6875 17.390625 48.6875 27.296875 
z
" id="DejaVuSans-112"/>
      <path d="M 8.5 21.578125 
L 8.5 54.6875 
L 17.484375 54.6875 
L 17.484375 21.921875 
Q 17.484375 14.15625 20.5 10.265625 
Q 23.53125 6.390625 29.59375 6.390625 
Q 36.859375 6.390625 41.078125 11.03125 
Q 45.3125 15.671875 45.3125 23.6875 
L 45.3125 54.6875 
L 54.296875 54.6875 
L 54.296875 0 
L 45.3125 0 
L 45.3125 8.40625 
Q 42.046875 3.421875 37.71875 1 
Q 33.40625 -1.421875 27.6875 -1.421875 
Q 18.265625 -1.421875 13.375 4.4375 
Q 8.5 10.296875 8.5 21.578125 
z
M 31.109375 56 
z
" id="DejaVuSans-117"/>
      <path d="M 18.3125 70.21875 
L 18.3125 54.6875 
L 36.8125 54.6875 
L 36.8125 47.703125 
L 18.3125 47.703125 
L 18.3125 18.015625 
Q 18.3125 11.328125 20.140625 9.421875 
Q 21.96875 7.515625 27.59375 7.515625 
L 36.8125 7.515625 
L 36.8125 0 
L 27.59375 0 
Q 17.1875 0 13.234375 3.875 
Q 9.28125 7.765625 9.28125 18.015625 
L 9.28125 47.703125 
L 2.6875 47.703125 
L 2.6875 54.6875 
L 9.28125 54.6875 
L 9.28125 70.21875 
z
" id="DejaVuSans-116"/>
     </defs>
     <use xlink:href="#DejaVuSans-73"/>
     <use x="29.492188" xlink:href="#DejaVuSans-110"/>
     <use x="92.871094" xlink:href="#DejaVuSans-112"/>
     <use x="156.347656" xlink:href="#DejaVuSans-117"/>
     <use x="219.726562" xlink:href="#DejaVuSans-116"/>
     <use x="258.935547" xlink:href="#DejaVuSans-115"/>
    </g>
   </g>
   <g id="text_7">
    <!-- Integrate-and-fire neuron -->
    <g style="fill:#262626;" transform="translate(230.223247 44.92)scale(0.24 -0.24)">
     <defs>
      <path d="M 45.40625 27.984375 
Q 45.40625 37.75 41.375 43.109375 
Q 37.359375 48.484375 30.078125 48.484375 
Q 22.859375 48.484375 18.828125 43.109375 
Q 14.796875 37.75 14.796875 27.984375 
Q 14.796875 18.265625 18.828125 12.890625 
Q 22.859375 7.515625 30.078125 7.515625 
Q 37.359375 7.515625 41.375 12.890625 
Q 45.40625 18.265625 45.40625 27.984375 
z
M 54.390625 6.78125 
Q 54.390625 -7.171875 48.1875 -13.984375 
Q 42 -20.796875 29.203125 -20.796875 
Q 24.46875 -20.796875 20.265625 -20.09375 
Q 16.0625 -19.390625 12.109375 -17.921875 
L 12.109375 -9.1875 
Q 16.0625 -11.328125 19.921875 -12.34375 
Q 23.78125 -13.375 27.78125 -13.375 
Q 36.625 -13.375 41.015625 -8.765625 
Q 45.40625 -4.15625 45.40625 5.171875 
L 45.40625 9.625 
Q 42.625 4.78125 38.28125 2.390625 
Q 33.9375 0 27.875 0 
Q 17.828125 0 11.671875 7.65625 
Q 5.515625 15.328125 5.515625 27.984375 
Q 5.515625 40.671875 11.671875 48.328125 
Q 17.828125 56 27.875 56 
Q 33.9375 56 38.28125 53.609375 
Q 42.625 51.21875 45.40625 46.390625 
L 45.40625 54.6875 
L 54.390625 54.6875 
z
" id="DejaVuSans-103"/>
      <path d="M 34.28125 27.484375 
Q 23.390625 27.484375 19.1875 25 
Q 14.984375 22.515625 14.984375 16.5 
Q 14.984375 11.71875 18.140625 8.90625 
Q 21.296875 6.109375 26.703125 6.109375 
Q 34.1875 6.109375 38.703125 11.40625 
Q 43.21875 16.703125 43.21875 25.484375 
L 43.21875 27.484375 
z
M 52.203125 31.203125 
L 52.203125 0 
L 43.21875 0 
L 43.21875 8.296875 
Q 40.140625 3.328125 35.546875 0.953125 
Q 30.953125 -1.421875 24.3125 -1.421875 
Q 15.921875 -1.421875 10.953125 3.296875 
Q 6 8.015625 6 15.921875 
Q 6 25.140625 12.171875 29.828125 
Q 18.359375 34.515625 30.609375 34.515625 
L 43.21875 34.515625 
L 43.21875 35.40625 
Q 43.21875 41.609375 39.140625 45 
Q 35.0625 48.390625 27.6875 48.390625 
Q 23 48.390625 18.546875 47.265625 
Q 14.109375 46.140625 10.015625 43.890625 
L 10.015625 52.203125 
Q 14.9375 54.109375 19.578125 55.046875 
Q 24.21875 56 28.609375 56 
Q 40.484375 56 46.34375 49.84375 
Q 52.203125 43.703125 52.203125 31.203125 
z
" id="DejaVuSans-97"/>
      <path d="M 37.109375 75.984375 
L 37.109375 68.5 
L 28.515625 68.5 
Q 23.6875 68.5 21.796875 66.546875 
Q 19.921875 64.59375 19.921875 59.515625 
L 19.921875 54.6875 
L 34.71875 54.6875 
L 34.71875 47.703125 
L 19.921875 47.703125 
L 19.921875 0 
L 10.890625 0 
L 10.890625 47.703125 
L 2.296875 47.703125 
L 2.296875 54.6875 
L 10.890625 54.6875 
L 10.890625 58.5 
Q 10.890625 67.625 15.140625 71.796875 
Q 19.390625 75.984375 28.609375 75.984375 
z
" id="DejaVuSans-102"/>
      <path d="M 9.421875 54.6875 
L 18.40625 54.6875 
L 18.40625 0 
L 9.421875 0 
z
M 9.421875 75.984375 
L 18.40625 75.984375 
L 18.40625 64.59375 
L 9.421875 64.59375 
z
" id="DejaVuSans-105"/>
     </defs>
     <use xlink:href="#DejaVuSans-73"/>
     <use x="29.492188" xlink:href="#DejaVuSans-110"/>
     <use x="92.871094" xlink:href="#DejaVuSans-116"/>
     <use x="132.080078" xlink:href="#DejaVuSans-101"/>
     <use x="193.603516" xlink:href="#DejaVuSans-103"/>
     <use x="257.080078" xlink:href="#DejaVuSans-114"/>
     <use x="298.193359" xlink:href="#DejaVuSans-97"/>
     <use x="359.472656" xlink:href="#DejaVuSans-116"/>
     <use x="398.681641" xlink:href="#DejaVuSans-101"/>
     <use x="460.205078" xlink:href="#DejaVuSans-45"/>
     <use x="496.289062" xlink:href="#DejaVuSans-97"/>
     <use x="557.568359" xlink:href="#DejaVuSans-110"/>
     <use x="620.947266" xlink:href="#DejaVuSans-100"/>
     <use x="684.423828" xlink:href="#DejaVuSans-45"/>
     <use x="720.507812" xlink:href="#DejaVuSans-102"/>
     <use x="755.712891" xlink:href="#DejaVuSans-105"/>
     <use x="783.496094" xlink:href="#DejaVuSans-114"/>
     <use x="822.359375" xlink:href="#DejaVuSans-101"/>
     <use x="883.882812" xlink:href="#DejaVuSans-32"/>
     <use x="915.669922" xlink:href="#DejaVuSans-110"/>
     <use x="979.048828" xlink:href="#DejaVuSans-101"/>
     <use x="1040.572266" xlink:href="#DejaVuSans-117"/>
     <use x="1103.951172" xlink:href="#DejaVuSans-114"/>
     <use x="1142.814453" xlink:href="#DejaVuSans-111"/>
     <use x="1203.996094" xlink:href="#DejaVuSans-110"/>
    </g>
   </g>
   <g id="legend_1">
    <g id="line2d_8">
     <path d="M 683.740244 102.752468 
L 724.740244 102.752468 
" style="fill:none;stroke:#009e73;stroke-linecap:round;stroke-width:3;"/>
    </g>
    <g id="line2d_9"/>
    <g id="text_8">
     <!-- $\tau_s = 20$ ms -->
     <g style="fill:#262626;" transform="translate(741.140244 84.840273)scale(0.205 -0.205)">
      <defs>
       <path d="M 32.859375 9.96875 
Q 34.1875 7.625 39.453125 7.625 
L 43.75 7.625 
L 42.28125 0 
L 36.921875 0 
Q 28.125 0 25 4.6875 
Q 21.921875 9.46875 23.96875 19.828125 
L 29 45.703125 
L 8.453125 45.703125 
L 10.203125 54.6875 
L 60.640625 54.6875 
L 58.890625 45.703125 
L 38.1875 45.703125 
L 33.015625 19.28125 
Q 31.640625 12.203125 32.859375 9.96875 
z
" id="DejaVuSans-Oblique-964"/>
       <path d="M 50 53.078125 
L 48.296875 44.578125 
Q 44.734375 46.53125 40.765625 47.5 
Q 36.8125 48.484375 32.625 48.484375 
Q 25.53125 48.484375 21.453125 46.0625 
Q 17.390625 43.65625 17.390625 39.5 
Q 17.390625 34.671875 26.859375 32.078125 
Q 27.59375 31.890625 27.9375 31.78125 
L 30.8125 30.90625 
Q 39.796875 28.421875 42.796875 25.6875 
Q 45.796875 22.953125 45.796875 18.21875 
Q 45.796875 9.515625 38.890625 4.046875 
Q 31.984375 -1.421875 20.796875 -1.421875 
Q 16.453125 -1.421875 11.671875 -0.578125 
Q 6.890625 0.25 1.125 2 
L 2.875 11.28125 
Q 7.8125 8.734375 12.59375 7.421875 
Q 17.390625 6.109375 21.78125 6.109375 
Q 28.375 6.109375 32.5 8.9375 
Q 36.625 11.765625 36.625 16.109375 
Q 36.625 20.796875 25.78125 23.6875 
L 24.859375 23.921875 
L 21.78125 24.703125 
Q 14.9375 26.515625 11.765625 29.46875 
Q 8.59375 32.421875 8.59375 37.015625 
Q 8.59375 45.75 15.15625 50.875 
Q 21.734375 56 33.015625 56 
Q 37.453125 56 41.671875 55.265625 
Q 45.90625 54.546875 50 53.078125 
z
" id="DejaVuSans-Oblique-115"/>
       <path d="M 10.59375 45.40625 
L 73.1875 45.40625 
L 73.1875 37.203125 
L 10.59375 37.203125 
z
M 10.59375 25.484375 
L 73.1875 25.484375 
L 73.1875 17.1875 
L 10.59375 17.1875 
z
" id="DejaVuSans-61"/>
       <path d="M 19.1875 8.296875 
L 53.609375 8.296875 
L 53.609375 0 
L 7.328125 0 
L 7.328125 8.296875 
Q 12.9375 14.109375 22.625 23.890625 
Q 32.328125 33.6875 34.8125 36.53125 
Q 39.546875 41.84375 41.421875 45.53125 
Q 43.3125 49.21875 43.3125 52.78125 
Q 43.3125 58.59375 39.234375 62.25 
Q 35.15625 65.921875 28.609375 65.921875 
Q 23.96875 65.921875 18.8125 64.3125 
Q 13.671875 62.703125 7.8125 59.421875 
L 7.8125 69.390625 
Q 13.765625 71.78125 18.9375 73 
Q 24.125 74.21875 28.421875 74.21875 
Q 39.75 74.21875 46.484375 68.546875 
Q 53.21875 62.890625 53.21875 53.421875 
Q 53.21875 48.921875 51.53125 44.890625 
Q 49.859375 40.875 45.40625 35.40625 
Q 44.1875 33.984375 37.640625 27.21875 
Q 31.109375 20.453125 19.1875 8.296875 
z
" id="DejaVuSans-50"/>
       <path d="M 52 44.1875 
Q 55.375 50.25 60.0625 53.125 
Q 64.75 56 71.09375 56 
Q 79.640625 56 84.28125 50.015625 
Q 88.921875 44.046875 88.921875 33.015625 
L 88.921875 0 
L 79.890625 0 
L 79.890625 32.71875 
Q 79.890625 40.578125 77.09375 44.375 
Q 74.3125 48.1875 68.609375 48.1875 
Q 61.625 48.1875 57.5625 43.546875 
Q 53.515625 38.921875 53.515625 30.90625 
L 53.515625 0 
L 44.484375 0 
L 44.484375 32.71875 
Q 44.484375 40.625 41.703125 44.40625 
Q 38.921875 48.1875 33.109375 48.1875 
Q 26.21875 48.1875 22.15625 43.53125 
Q 18.109375 38.875 18.109375 30.90625 
L 18.109375 0 
L 9.078125 0 
L 9.078125 54.6875 
L 18.109375 54.6875 
L 18.109375 46.1875 
Q 21.1875 51.21875 25.484375 53.609375 
Q 29.78125 56 35.6875 56 
Q 41.65625 56 45.828125 52.96875 
Q 50 49.953125 52 44.1875 
z
" id="DejaVuSans-109"/>
      </defs>
      <use transform="translate(0 0.78125)" xlink:href="#DejaVuSans-Oblique-964"/>
      <use transform="translate(60.205078 -15.625)scale(0.7)" xlink:href="#DejaVuSans-Oblique-115"/>
      <use transform="translate(118.891602 0.78125)" xlink:href="#DejaVuSans-61"/>
      <use transform="translate(222.163086 0.78125)" xlink:href="#DejaVuSans-50"/>
      <use transform="translate(285.786133 0.78125)" xlink:href="#DejaVuSans-48"/>
      <use transform="translate(349.40918 0.78125)" xlink:href="#DejaVuSans-32"/>
      <use transform="translate(381.196289 0.78125)" xlink:href="#DejaVuSans-109"/>
      <use transform="translate(478.608398 0.78125)" xlink:href="#DejaVuSans-115"/>
     </g>
     <!-- $\tau_m = 80$ ms -->
     <g style="fill:#262626;" transform="translate(741.140244 107.795789)scale(0.205 -0.205)">
      <defs>
       <path d="M 89.796875 33.015625 
L 83.40625 0 
L 74.421875 0 
L 80.71875 32.71875 
Q 81.109375 34.8125 81.296875 36.328125 
Q 81.5 37.84375 81.5 38.921875 
Q 81.5 43.3125 79.046875 45.75 
Q 76.609375 48.1875 72.21875 48.1875 
Q 65.671875 48.1875 60.546875 43.28125 
Q 55.421875 38.375 53.90625 30.515625 
L 47.90625 0 
L 38.921875 0 
L 45.3125 32.71875 
Q 45.703125 34.515625 45.890625 36.046875 
Q 46.09375 37.59375 46.09375 38.8125 
Q 46.09375 43.265625 43.65625 45.71875 
Q 41.21875 48.1875 36.921875 48.1875 
Q 30.28125 48.1875 25.140625 43.28125 
Q 20.015625 38.375 18.5 30.515625 
L 12.5 0 
L 3.515625 0 
L 14.203125 54.6875 
L 23.1875 54.6875 
L 21.484375 46.1875 
Q 25.140625 50.984375 30.046875 53.484375 
Q 34.96875 56 40.578125 56 
Q 46.53125 56 50.359375 52.875 
Q 54.203125 49.75 54.984375 44.1875 
Q 59.078125 49.953125 64.46875 52.96875 
Q 69.875 56 75.875 56 
Q 82.90625 56 86.734375 51.953125 
Q 90.578125 47.90625 90.578125 40.484375 
Q 90.578125 38.875 90.375 36.9375 
Q 90.1875 35.015625 89.796875 33.015625 
z
" id="DejaVuSans-Oblique-109"/>
       <path d="M 31.78125 34.625 
Q 24.75 34.625 20.71875 30.859375 
Q 16.703125 27.09375 16.703125 20.515625 
Q 16.703125 13.921875 20.71875 10.15625 
Q 24.75 6.390625 31.78125 6.390625 
Q 38.8125 6.390625 42.859375 10.171875 
Q 46.921875 13.96875 46.921875 20.515625 
Q 46.921875 27.09375 42.890625 30.859375 
Q 38.875 34.625 31.78125 34.625 
z
M 21.921875 38.8125 
Q 15.578125 40.375 12.03125 44.71875 
Q 8.5 49.078125 8.5 55.328125 
Q 8.5 64.0625 14.71875 69.140625 
Q 20.953125 74.21875 31.78125 74.21875 
Q 42.671875 74.21875 48.875 69.140625 
Q 55.078125 64.0625 55.078125 55.328125 
Q 55.078125 49.078125 51.53125 44.71875 
Q 48 40.375 41.703125 38.8125 
Q 48.828125 37.15625 52.796875 32.3125 
Q 56.78125 27.484375 56.78125 20.515625 
Q 56.78125 9.90625 50.3125 4.234375 
Q 43.84375 -1.421875 31.78125 -1.421875 
Q 19.734375 -1.421875 13.25 4.234375 
Q 6.78125 9.90625 6.78125 20.515625 
Q 6.78125 27.484375 10.78125 32.3125 
Q 14.796875 37.15625 21.921875 38.8125 
z
M 18.3125 54.390625 
Q 18.3125 48.734375 21.84375 45.5625 
Q 25.390625 42.390625 31.78125 42.390625 
Q 38.140625 42.390625 41.71875 45.5625 
Q 45.3125 48.734375 45.3125 54.390625 
Q 45.3125 60.0625 41.71875 63.234375 
Q 38.140625 66.40625 31.78125 66.40625 
Q 25.390625 66.40625 21.84375 63.234375 
Q 18.3125 60.0625 18.3125 54.390625 
z
" id="DejaVuSans-56"/>
      </defs>
      <use transform="translate(0 0.78125)" xlink:href="#DejaVuSans-Oblique-964"/>
      <use transform="translate(60.205078 -15.625)scale(0.7)" xlink:href="#DejaVuSans-Oblique-109"/>
      <use transform="translate(150.610352 0.78125)" xlink:href="#DejaVuSans-61"/>
      <use transform="translate(253.881836 0.78125)" xlink:href="#DejaVuSans-56"/>
      <use transform="translate(317.504883 0.78125)" xlink:href="#DejaVuSans-48"/>
      <use transform="translate(381.12793 0.78125)" xlink:href="#DejaVuSans-32"/>
      <use transform="translate(412.915039 0.78125)" xlink:href="#DejaVuSans-109"/>
      <use transform="translate(510.327148 0.78125)" xlink:href="#DejaVuSans-115"/>
     </g>
     <!-- $V_{reset} = -1$ -->
     <g style="fill:#262626;" transform="translate(741.140244 130.751304)scale(0.205 -0.205)">
      <defs>
       <path d="M 44.578125 46.390625 
Q 43.21875 47.125 41.453125 47.515625 
Q 39.703125 47.90625 37.703125 47.90625 
Q 30.515625 47.90625 25.140625 42.453125 
Q 19.78125 37.015625 18.015625 27.875 
L 12.5 0 
L 3.515625 0 
L 14.203125 54.6875 
L 23.1875 54.6875 
L 21.484375 46.1875 
Q 25.046875 50.921875 30 53.453125 
Q 34.96875 56 40.578125 56 
Q 42.046875 56 43.453125 55.828125 
Q 44.875 55.671875 46.296875 55.28125 
z
" id="DejaVuSans-Oblique-114"/>
       <path d="M 48.09375 32.234375 
Q 48.25 33.015625 48.3125 33.84375 
Q 48.390625 34.671875 48.390625 35.5 
Q 48.390625 41.453125 44.890625 44.921875 
Q 41.40625 48.390625 35.40625 48.390625 
Q 28.71875 48.390625 23.578125 44.15625 
Q 18.453125 39.9375 15.828125 32.171875 
z
M 55.90625 25.203125 
L 14.109375 25.203125 
Q 13.8125 23.34375 13.71875 22.265625 
Q 13.625 21.1875 13.625 20.40625 
Q 13.625 13.625 17.796875 9.90625 
Q 21.96875 6.203125 29.59375 6.203125 
Q 35.453125 6.203125 40.671875 7.515625 
Q 45.90625 8.84375 50.390625 11.375 
L 48.6875 2.484375 
Q 43.84375 0.53125 38.6875 -0.4375 
Q 33.546875 -1.421875 28.21875 -1.421875 
Q 16.84375 -1.421875 10.71875 4.015625 
Q 4.59375 9.46875 4.59375 19.484375 
Q 4.59375 28.03125 7.640625 35.375 
Q 10.6875 42.71875 16.609375 48.484375 
Q 20.40625 52.09375 25.65625 54.046875 
Q 30.90625 56 36.8125 56 
Q 46.09375 56 51.578125 50.4375 
Q 57.078125 44.875 57.078125 35.5 
Q 57.078125 33.25 56.78125 30.6875 
Q 56.5 28.125 55.90625 25.203125 
z
" id="DejaVuSans-Oblique-101"/>
       <path d="M 10.59375 35.5 
L 73.1875 35.5 
L 73.1875 27.203125 
L 10.59375 27.203125 
z
" id="DejaVuSans-8722"/>
      </defs>
      <use transform="translate(0 0.09375)" xlink:href="#DejaVuSans-Oblique-86"/>
      <use transform="translate(68.408203 -16.3125)scale(0.7)" xlink:href="#DejaVuSans-Oblique-114"/>
      <use transform="translate(97.1875 -16.3125)scale(0.7)" xlink:href="#DejaVuSans-Oblique-101"/>
      <use transform="translate(140.253906 -16.3125)scale(0.7)" xlink:href="#DejaVuSans-Oblique-115"/>
      <use transform="translate(176.723633 -16.3125)scale(0.7)" xlink:href="#DejaVuSans-Oblique-101"/>
      <use transform="translate(219.790039 -16.3125)scale(0.7)" xlink:href="#DejaVuSans-Oblique-116"/>
      <use transform="translate(269.453125 0.09375)" xlink:href="#DejaVuSans-61"/>
      <use transform="translate(392.207031 0.09375)" xlink:href="#DejaVuSans-8722"/>
      <use transform="translate(495.478516 0.09375)" xlink:href="#DejaVuSans-49"/>
     </g>
    </g>
    <g id="line2d_10">
     <path d="M 683.740244 186.953656 
L 724.740244 186.953656 
" style="fill:none;stroke:#e59c00;stroke-linecap:round;stroke-width:3;"/>
    </g>
    <g id="line2d_11"/>
    <g id="text_9">
     <!-- $\tau_s = 5$ ms -->
     <g style="fill:#262626;" transform="translate(741.140244 169.041461)scale(0.205 -0.205)">
      <defs>
       <path d="M 10.796875 72.90625 
L 49.515625 72.90625 
L 49.515625 64.59375 
L 19.828125 64.59375 
L 19.828125 46.734375 
Q 21.96875 47.46875 24.109375 47.828125 
Q 26.265625 48.1875 28.421875 48.1875 
Q 40.625 48.1875 47.75 41.5 
Q 54.890625 34.8125 54.890625 23.390625 
Q 54.890625 11.625 47.5625 5.09375 
Q 40.234375 -1.421875 26.90625 -1.421875 
Q 22.3125 -1.421875 17.546875 -0.640625 
Q 12.796875 0.140625 7.71875 1.703125 
L 7.71875 11.625 
Q 12.109375 9.234375 16.796875 8.0625 
Q 21.484375 6.890625 26.703125 6.890625 
Q 35.15625 6.890625 40.078125 11.328125 
Q 45.015625 15.765625 45.015625 23.390625 
Q 45.015625 31 40.078125 35.4375 
Q 35.15625 39.890625 26.703125 39.890625 
Q 22.75 39.890625 18.8125 39.015625 
Q 14.890625 38.140625 10.796875 36.28125 
z
" id="DejaVuSans-53"/>
      </defs>
      <use transform="translate(0 0.09375)" xlink:href="#DejaVuSans-Oblique-964"/>
      <use transform="translate(60.205078 -16.3125)scale(0.7)" xlink:href="#DejaVuSans-Oblique-115"/>
      <use transform="translate(118.891602 0.09375)" xlink:href="#DejaVuSans-61"/>
      <use transform="translate(222.163086 0.09375)" xlink:href="#DejaVuSans-53"/>
      <use transform="translate(285.786133 0.09375)" xlink:href="#DejaVuSans-32"/>
      <use transform="translate(317.573242 0.09375)" xlink:href="#DejaVuSans-109"/>
      <use transform="translate(414.985352 0.09375)" xlink:href="#DejaVuSans-115"/>
     </g>
     <!-- $\tau_m = 55$ ms -->
     <g style="fill:#262626;" transform="translate(741.140244 191.996976)scale(0.205 -0.205)">
      <use transform="translate(0 0.09375)" xlink:href="#DejaVuSans-Oblique-964"/>
      <use transform="translate(60.205078 -16.3125)scale(0.7)" xlink:href="#DejaVuSans-Oblique-109"/>
      <use transform="translate(150.610352 0.09375)" xlink:href="#DejaVuSans-61"/>
      <use transform="translate(253.881836 0.09375)" xlink:href="#DejaVuSans-53"/>
      <use transform="translate(317.504883 0.09375)" xlink:href="#DejaVuSans-53"/>
      <use transform="translate(381.12793 0.09375)" xlink:href="#DejaVuSans-32"/>
      <use transform="translate(412.915039 0.09375)" xlink:href="#DejaVuSans-109"/>
      <use transform="translate(510.327148 0.09375)" xlink:href="#DejaVuSans-115"/>
     </g>
     <!-- $V_{reset} = -0.2$ -->
     <g style="fill:#262626;" transform="translate(741.140244 214.952492)scale(0.205 -0.205)">
      <defs>
       <path d="M 10.6875 12.40625 
L 21 12.40625 
L 21 0 
L 10.6875 0 
z
" id="DejaVuSans-46"/>
      </defs>
      <use transform="translate(0 0.78125)" xlink:href="#DejaVuSans-Oblique-86"/>
      <use transform="translate(68.408203 -15.625)scale(0.7)" xlink:href="#DejaVuSans-Oblique-114"/>
      <use transform="translate(97.1875 -15.625)scale(0.7)" xlink:href="#DejaVuSans-Oblique-101"/>
      <use transform="translate(140.253906 -15.625)scale(0.7)" xlink:href="#DejaVuSans-Oblique-115"/>
      <use transform="translate(176.723633 -15.625)scale(0.7)" xlink:href="#DejaVuSans-Oblique-101"/>
      <use transform="translate(219.790039 -15.625)scale(0.7)" xlink:href="#DejaVuSans-Oblique-116"/>
      <use transform="translate(269.453125 0.78125)" xlink:href="#DejaVuSans-61"/>
      <use transform="translate(392.207031 0.78125)" xlink:href="#DejaVuSans-8722"/>
      <use transform="translate(495.478516 0.78125)" xlink:href="#DejaVuSans-48"/>
      <use transform="translate(559.101562 0.78125)" xlink:href="#DejaVuSans-46"/>
      <use transform="translate(585.388672 0.78125)" xlink:href="#DejaVuSans-50"/>
     </g>
    </g>
   </g>
  </g>
  <g id="axes_2">
   <g id="patch_4">
    <path d="M 99.32625 436.18 
L 665.290244 436.18 
L 665.290244 280.647227 
L 99.32625 280.647227 
z
" style="fill:#ffffff;"/>
   </g>
   <g id="matplotlib.axis_3">
    <g id="xtick_1">
     <g id="line2d_12">
      <defs>
       <path d="M 0 0 
L 0 12 
" id="m33f5422662" style="stroke:#262626;stroke-width:2.5;"/>
      </defs>
      <g>
       <use style="fill:#262626;stroke:#262626;stroke-width:2.5;" x="99.32625" xlink:href="#m33f5422662" y="436.18"/>
      </g>
     </g>
     <g id="text_10">
      <!-- 0 -->
      <g style="fill:#262626;" transform="translate(92.3275 468.396563)scale(0.22 -0.22)">
       <use xlink:href="#DejaVuSans-48"/>
      </g>
     </g>
    </g>
    <g id="xtick_2">
     <g id="line2d_13">
      <g>
       <use style="fill:#262626;stroke:#262626;stroke-width:2.5;" x="174.788116" xlink:href="#m33f5422662" y="436.18"/>
      </g>
     </g>
     <g id="text_11">
      <!-- 200 -->
      <g style="fill:#262626;" transform="translate(153.791866 468.396563)scale(0.22 -0.22)">
       <use xlink:href="#DejaVuSans-50"/>
       <use x="63.623047" xlink:href="#DejaVuSans-48"/>
       <use x="127.246094" xlink:href="#DejaVuSans-48"/>
      </g>
     </g>
    </g>
    <g id="xtick_3">
     <g id="line2d_14">
      <g>
       <use style="fill:#262626;stroke:#262626;stroke-width:2.5;" x="250.249982" xlink:href="#m33f5422662" y="436.18"/>
      </g>
     </g>
     <g id="text_12">
      <!-- 400 -->
      <g style="fill:#262626;" transform="translate(229.253732 468.396563)scale(0.22 -0.22)">
       <defs>
        <path d="M 37.796875 64.3125 
L 12.890625 25.390625 
L 37.796875 25.390625 
z
M 35.203125 72.90625 
L 47.609375 72.90625 
L 47.609375 25.390625 
L 58.015625 25.390625 
L 58.015625 17.1875 
L 47.609375 17.1875 
L 47.609375 0 
L 37.796875 0 
L 37.796875 17.1875 
L 4.890625 17.1875 
L 4.890625 26.703125 
z
" id="DejaVuSans-52"/>
       </defs>
       <use xlink:href="#DejaVuSans-52"/>
       <use x="63.623047" xlink:href="#DejaVuSans-48"/>
       <use x="127.246094" xlink:href="#DejaVuSans-48"/>
      </g>
     </g>
    </g>
    <g id="xtick_4">
     <g id="line2d_15">
      <g>
       <use style="fill:#262626;stroke:#262626;stroke-width:2.5;" x="325.711848" xlink:href="#m33f5422662" y="436.18"/>
      </g>
     </g>
     <g id="text_13">
      <!-- 600 -->
      <g style="fill:#262626;" transform="translate(304.715598 468.396563)scale(0.22 -0.22)">
       <defs>
        <path d="M 33.015625 40.375 
Q 26.375 40.375 22.484375 35.828125 
Q 18.609375 31.296875 18.609375 23.390625 
Q 18.609375 15.53125 22.484375 10.953125 
Q 26.375 6.390625 33.015625 6.390625 
Q 39.65625 6.390625 43.53125 10.953125 
Q 47.40625 15.53125 47.40625 23.390625 
Q 47.40625 31.296875 43.53125 35.828125 
Q 39.65625 40.375 33.015625 40.375 
z
M 52.59375 71.296875 
L 52.59375 62.3125 
Q 48.875 64.0625 45.09375 64.984375 
Q 41.3125 65.921875 37.59375 65.921875 
Q 27.828125 65.921875 22.671875 59.328125 
Q 17.53125 52.734375 16.796875 39.40625 
Q 19.671875 43.65625 24.015625 45.921875 
Q 28.375 48.1875 33.59375 48.1875 
Q 44.578125 48.1875 50.953125 41.515625 
Q 57.328125 34.859375 57.328125 23.390625 
Q 57.328125 12.15625 50.6875 5.359375 
Q 44.046875 -1.421875 33.015625 -1.421875 
Q 20.359375 -1.421875 13.671875 8.265625 
Q 6.984375 17.96875 6.984375 36.375 
Q 6.984375 53.65625 15.1875 63.9375 
Q 23.390625 74.21875 37.203125 74.21875 
Q 40.921875 74.21875 44.703125 73.484375 
Q 48.484375 72.75 52.59375 71.296875 
z
" id="DejaVuSans-54"/>
       </defs>
       <use xlink:href="#DejaVuSans-54"/>
       <use x="63.623047" xlink:href="#DejaVuSans-48"/>
       <use x="127.246094" xlink:href="#DejaVuSans-48"/>
      </g>
     </g>
    </g>
    <g id="xtick_5">
     <g id="line2d_16">
      <g>
       <use style="fill:#262626;stroke:#262626;stroke-width:2.5;" x="401.173714" xlink:href="#m33f5422662" y="436.18"/>
      </g>
     </g>
     <g id="text_14">
      <!-- 800 -->
      <g style="fill:#262626;" transform="translate(380.177464 468.396563)scale(0.22 -0.22)">
       <use xlink:href="#DejaVuSans-56"/>
       <use x="63.623047" xlink:href="#DejaVuSans-48"/>
       <use x="127.246094" xlink:href="#DejaVuSans-48"/>
      </g>
     </g>
    </g>
    <g id="xtick_6">
     <g id="line2d_17">
      <g>
       <use style="fill:#262626;stroke:#262626;stroke-width:2.5;" x="476.635579" xlink:href="#m33f5422662" y="436.18"/>
      </g>
     </g>
     <g id="text_15">
      <!-- 1000 -->
      <g style="fill:#262626;" transform="translate(448.640579 468.396563)scale(0.22 -0.22)">
       <use xlink:href="#DejaVuSans-49"/>
       <use x="63.623047" xlink:href="#DejaVuSans-48"/>
       <use x="127.246094" xlink:href="#DejaVuSans-48"/>
       <use x="190.869141" xlink:href="#DejaVuSans-48"/>
      </g>
     </g>
    </g>
    <g id="xtick_7">
     <g id="line2d_18">
      <g>
       <use style="fill:#262626;stroke:#262626;stroke-width:2.5;" x="552.097445" xlink:href="#m33f5422662" y="436.18"/>
      </g>
     </g>
     <g id="text_16">
      <!-- 1200 -->
      <g style="fill:#262626;" transform="translate(524.102445 468.396563)scale(0.22 -0.22)">
       <use xlink:href="#DejaVuSans-49"/>
       <use x="63.623047" xlink:href="#DejaVuSans-50"/>
       <use x="127.246094" xlink:href="#DejaVuSans-48"/>
       <use x="190.869141" xlink:href="#DejaVuSans-48"/>
      </g>
     </g>
    </g>
    <g id="xtick_8">
     <g id="line2d_19">
      <g>
       <use style="fill:#262626;stroke:#262626;stroke-width:2.5;" x="627.559311" xlink:href="#m33f5422662" y="436.18"/>
      </g>
     </g>
     <g id="text_17">
      <!-- 1400 -->
      <g style="fill:#262626;" transform="translate(599.564311 468.396563)scale(0.22 -0.22)">
       <use xlink:href="#DejaVuSans-49"/>
       <use x="63.623047" xlink:href="#DejaVuSans-52"/>
       <use x="127.246094" xlink:href="#DejaVuSans-48"/>
       <use x="190.869141" xlink:href="#DejaVuSans-48"/>
      </g>
     </g>
    </g>
    <g id="text_18">
     <!-- Time [ms] -->
     <g style="fill:#262626;" transform="translate(321.830122 495.208125)scale(0.24 -0.24)">
      <defs>
       <path d="M 8.59375 75.984375 
L 29.296875 75.984375 
L 29.296875 69 
L 17.578125 69 
L 17.578125 -6.203125 
L 29.296875 -6.203125 
L 29.296875 -13.1875 
L 8.59375 -13.1875 
z
" id="DejaVuSans-91"/>
       <path d="M 30.421875 75.984375 
L 30.421875 -13.1875 
L 9.71875 -13.1875 
L 9.71875 -6.203125 
L 21.390625 -6.203125 
L 21.390625 69 
L 9.71875 69 
L 9.71875 75.984375 
z
" id="DejaVuSans-93"/>
      </defs>
      <use xlink:href="#DejaVuSans-84"/>
      <use x="57.958984" xlink:href="#DejaVuSans-105"/>
      <use x="85.742188" xlink:href="#DejaVuSans-109"/>
      <use x="183.154297" xlink:href="#DejaVuSans-101"/>
      <use x="244.677734" xlink:href="#DejaVuSans-32"/>
      <use x="276.464844" xlink:href="#DejaVuSans-91"/>
      <use x="315.478516" xlink:href="#DejaVuSans-109"/>
      <use x="412.890625" xlink:href="#DejaVuSans-115"/>
      <use x="464.990234" xlink:href="#DejaVuSans-93"/>
     </g>
    </g>
   </g>
   <g id="matplotlib.axis_4">
    <g id="ytick_4">
     <g id="line2d_20">
      <g>
       <use style="fill:#262626;stroke:#262626;stroke-width:2.5;" x="99.32625" xlink:href="#mb426c4835c" y="364.395643"/>
      </g>
     </g>
     <g id="text_19">
      <!-- -1 -->
      <g style="fill:#262626;" transform="translate(61.891562 372.753925)scale(0.22 -0.22)">
       <use xlink:href="#DejaVuSans-45"/>
       <use x="36.083984" xlink:href="#DejaVuSans-49"/>
      </g>
     </g>
    </g>
    <g id="ytick_5">
     <g id="line2d_21">
      <g>
       <use style="fill:#262626;stroke:#262626;stroke-width:2.5;" x="99.32625" xlink:href="#mb426c4835c" y="340.467524"/>
      </g>
     </g>
     <g id="text_20">
      <!-- 0 -->
      <g style="fill:#262626;" transform="translate(69.82875 348.825806)scale(0.22 -0.22)">
       <use xlink:href="#DejaVuSans-48"/>
      </g>
     </g>
    </g>
    <g id="ytick_6">
     <g id="line2d_22">
      <g>
       <use style="fill:#262626;stroke:#262626;stroke-width:2.5;" x="99.32625" xlink:href="#mb426c4835c" y="316.539406"/>
      </g>
     </g>
     <g id="text_21">
      <!-- 1 -->
      <g style="fill:#262626;" transform="translate(69.82875 324.897687)scale(0.22 -0.22)">
       <use xlink:href="#DejaVuSans-49"/>
      </g>
     </g>
    </g>
    <g id="text_22">
     <!--      $\tilde{V}(t)$ -->
     <g style="fill:#262626;" transform="translate(52.900312 399.813614)rotate(-90)scale(0.24 -0.24)">
      <defs>
       <path d="M -25.328125 66.890625 
L -28.109375 69.578125 
Q -29.171875 70.5625 -29.984375 71.015625 
Q -30.796875 71.484375 -31.421875 71.484375 
Q -33.28125 71.484375 -34.15625 69.703125 
Q -35.03125 67.921875 -35.140625 63.921875 
L -41.234375 63.921875 
Q -41.140625 70.515625 -38.640625 74.09375 
Q -36.15625 77.6875 -31.71875 77.6875 
Q -29.859375 77.6875 -28.296875 77 
Q -26.734375 76.3125 -24.9375 74.703125 
L -22.140625 72.015625 
Q -21.078125 71.046875 -20.265625 70.578125 
Q -19.46875 70.125 -18.828125 70.125 
Q -16.96875 70.125 -16.09375 71.90625 
Q -15.21875 73.6875 -15.109375 77.6875 
L -9.015625 77.6875 
Q -9.109375 71.09375 -11.59375 67.5 
Q -14.09375 63.921875 -18.53125 63.921875 
Q -20.390625 63.921875 -21.953125 64.59375 
Q -23.515625 65.28125 -25.328125 66.890625 
z
" id="DejaVuSans-771"/>
      </defs>
      <use transform="translate(0 0.828125)" xlink:href="#DejaVuSans-32"/>
      <use transform="translate(31.787109 0.828125)" xlink:href="#DejaVuSans-32"/>
      <use transform="translate(63.574219 0.828125)" xlink:href="#DejaVuSans-32"/>
      <use transform="translate(95.361328 0.828125)" xlink:href="#DejaVuSans-32"/>
      <use transform="translate(127.148438 0.828125)" xlink:href="#DejaVuSans-32"/>
      <use transform="translate(227.271973 22.3125)" xlink:href="#DejaVuSans-771"/>
      <use transform="translate(158.935547 0.828125)" xlink:href="#DejaVuSans-Oblique-86"/>
      <use transform="translate(227.34375 0.828125)" xlink:href="#DejaVuSans-40"/>
      <use transform="translate(266.357422 0.828125)" xlink:href="#DejaVuSans-Oblique-116"/>
      <use transform="translate(305.566406 0.828125)" xlink:href="#DejaVuSans-41"/>
     </g>
    </g>
   </g>
   <g id="EventCollection_3">
    <path clip-path="url(#pf59fc752f7)" d="M 386.307726 292.611287 
L 386.307726 316.539406 
" style="fill:none;stroke:#55b2e8;stroke-width:3;"/>
    <path clip-path="url(#pf59fc752f7)" d="M 421.699341 292.611287 
L 421.699341 316.539406 
" style="fill:none;stroke:#55b2e8;stroke-width:3;"/>
    <path clip-path="url(#pf59fc752f7)" d="M 493.23719 292.611287 
L 493.23719 316.539406 
" style="fill:none;stroke:#55b2e8;stroke-width:3;"/>
    <path clip-path="url(#pf59fc752f7)" d="M 528.81746 292.611287 
L 528.81746 316.539406 
" style="fill:none;stroke:#55b2e8;stroke-width:3;"/>
    <path clip-path="url(#pf59fc752f7)" d="M 566.472931 292.611287 
L 566.472931 316.539406 
" style="fill:none;stroke:#55b2e8;stroke-width:3;"/>
   </g>
   <g id="EventCollection_4">
    <path clip-path="url(#pf59fc752f7)" d="M 252.627031 292.611287 
L 252.627031 316.539406 
" style="fill:none;stroke:#d65c00;stroke-width:3;"/>
    <path clip-path="url(#pf59fc752f7)" d="M 529.194769 292.611287 
L 529.194769 316.539406 
" style="fill:none;stroke:#d65c00;stroke-width:3;"/>
   </g>
   <g id="LineCollection_2">
    <path clip-path="url(#pf59fc752f7)" d="M 99.32625 316.539406 
L 665.290244 316.539406 
" style="fill:none;stroke:#808080;stroke-dasharray:11.1,4.8;stroke-dashoffset:0;stroke-width:3;"/>
   </g>
   <g id="line2d_23">
    <path clip-path="url(#pf59fc752f7)" d="M 99.32625 340.467524 
L 231.267567 340.467524 
L 233.228398 331.627532 
L 234.661313 326.150755 
L 235.83027 322.506089 
L 236.848394 320.021487 
L 237.715685 318.447214 
L 238.469851 317.49659 
L 239.1486 316.976449 
L 239.751933 316.77907 
L 240.317557 316.816637 
L 240.92089 317.087896 
L 241.561931 317.627893 
L 242.316097 318.577628 
L 243.183387 320.057867 
L 244.201511 322.265224 
L 245.445885 325.532943 
L 247.10505 330.582178 
L 250.121713 340.467524 
L 250.234838 340.289526 
L 252.271086 337.297161 
L 253.779418 335.453285 
L 255.0615 334.216898 
L 256.230457 333.390927 
L 257.286289 332.907066 
L 258.304413 332.680249 
L 259.322537 332.685378 
L 260.340661 332.912502 
L 261.434201 333.385491 
L 262.678575 334.179115 
L 264.11149 335.369359 
L 265.996905 337.248412 
L 268.97586 340.467524 
L 269.013568 340.327094 
L 270.974399 333.459152 
L 272.407314 329.21344 
L 273.576271 326.394496 
L 274.594395 324.478341 
L 275.499394 323.225723 
L 276.291268 322.488248 
L 277.007726 322.11122 
L 277.686475 322.005789 
L 278.327516 322.126064 
L 279.006266 322.47815 
L 279.760431 323.12711 
L 280.627722 324.184927 
L 281.645846 325.80727 
L 282.852511 328.1777 
L 284.398551 331.741314 
L 287.339798 339.231374 
L 289.564588 344.586665 
L 291.072919 347.668135 
L 292.317293 349.736863 
L 293.410833 351.144145 
L 294.391249 352.053706 
L 295.25854 352.571567 
L 296.088122 352.813776 
L 296.879996 352.81767 
L 297.709579 352.591657 
L 298.57687 352.117046 
L 299.557285 351.310543 
L 300.650826 350.112419 
L 301.970616 348.32189 
L 303.705197 345.566328 
L 309.097483 336.730273 
L 310.568107 334.88697 
L 311.81248 333.668266 
L 312.943729 332.864304 
L 313.961853 332.401259 
L 314.942269 332.191584 
L 315.922684 332.209796 
L 316.940808 332.459383 
L 318.034349 332.969813 
L 319.241014 333.790928 
L 320.673929 335.054647 
L 321.76747 336.177684 
L 324.067676 349.007634 
L 325.576007 356.211592 
L 326.782673 360.966773 
L 327.838505 364.265473 
L 328.743504 366.398511 
L 329.535378 367.718128 
L 330.214127 368.437703 
L 330.81746 368.75948 
L 331.345376 368.799016 
L 331.873292 368.61752 
L 332.438917 368.184979 
L 333.079958 367.409135 
L 333.834123 366.130338 
L 334.739122 364.117877 
L 335.794955 361.194531 
L 337.114745 356.841042 
L 338.962451 349.893858 
L 343.072655 334.22392 
L 344.543279 329.587453 
L 345.749944 326.462678 
L 346.805776 324.312548 
L 347.710775 322.937965 
L 348.502649 322.102807 
L 349.219107 321.645914 
L 349.897856 321.473132 
L 350.538897 321.537803 
L 351.217646 321.839975 
L 351.934104 322.408023 
L 352.763686 323.364774 
L 353.706394 324.805452 
L 354.837643 326.961927 
L 356.270558 330.216377 
L 358.382222 335.642587 
L 359.513471 338.819479 
L 361.549719 353.08199 
L 362.982634 361.644765 
L 364.151591 367.393386 
L 365.169715 371.355309 
L 366.037005 373.904383 
L 366.791171 375.481234 
L 367.432212 376.348276 
L 367.960128 376.73675 
L 368.450336 376.837303 
L 368.902836 376.711673 
L 369.393044 376.344526 
L 369.958668 375.631863 
L 370.637417 374.386656 
L 371.429291 372.432111 
L 372.371999 369.470192 
L 373.503247 365.139758 
L 374.973871 358.547841 
L 377.387202 346.505316 
L 380.026782 333.678322 
L 381.572822 327.251223 
L 382.817196 322.984097 
L 383.873028 320.112794 
L 384.778027 318.24731 
L 385.569901 317.084693 
L 386.173234 316.539406 
L 386.814275 316.997154 
L 387.530732 317.810927 
L 388.360315 319.124444 
L 389.303022 321.053038 
L 390.471979 323.992843 
L 391.942603 328.348298 
L 394.318225 336.199638 
L 397.033222 344.961973 
L 397.221764 345.699774 
L 398.956345 358.194703 
L 400.276135 366.182659 
L 401.369676 371.554831 
L 402.312383 375.173584 
L 403.141966 377.537633 
L 403.858423 378.945505 
L 404.461756 379.673026 
L 404.951964 379.957842 
L 405.404463 379.980375 
L 405.856963 379.776499 
L 406.347171 379.306509 
L 406.950503 378.384811 
L 407.629253 376.917634 
L 408.458835 374.550994 
L 409.439251 371.028328 
L 410.645916 365.792256 
L 412.229664 357.826097 
L 417.999033 327.758755 
L 419.281115 322.685779 
L 420.374656 319.197448 
L 421.317363 316.876367 
L 421.543613 316.539406 
L 421.581321 316.559012 
L 422.222362 317.032185 
L 422.938819 317.862226 
L 423.768402 319.193047 
L 424.748817 321.225554 
L 425.917775 324.200407 
L 427.426106 328.705914 
L 429.99027 337.214384 
L 432.479018 345.186094 
L 434.025058 349.414152 
L 435.269431 352.209292 
L 436.325263 354.080448 
L 437.267971 355.329702 
L 438.097553 356.08722 
L 438.851719 356.494913 
L 439.568177 356.636106 
L 440.284634 356.542707 
L 441.001092 356.223072 
L 441.792966 355.620309 
L 442.697965 354.63477 
L 443.753797 353.129454 
L 444.998171 350.946588 
L 446.619627 347.622646 
L 452.502121 335.114484 
L 453.85962 332.960007 
L 455.028577 331.501646 
L 456.046701 330.561988 
L 456.989408 329.979404 
L 457.856699 329.690847 
L 458.723989 329.636871 
L 459.59128 329.810124 
L 460.496279 330.220345 
L 461.514403 330.939444 
L 462.645652 332.020283 
L 464.00315 333.637298 
L 465.813148 336.168399 
L 470.979185 343.602576 
L 472.487516 345.281157 
L 473.769598 346.394537 
L 474.938555 347.126616 
L 476.032096 347.553485 
L 477.087928 347.726182 
L 478.14376 347.66863 
L 479.237301 347.378998 
L 480.406258 346.833278 
L 481.726048 345.963973 
L 483.309796 344.643432 
L 485.610002 342.403534 
L 487.683958 340.319716 
L 489.607081 329.87195 
L 491.039996 323.259782 
L 492.208953 318.856328 
L 493.000828 316.539406 
L 493.227077 316.646687 
L 493.868118 317.181114 
L 494.584576 318.07563 
L 495.414158 319.474848 
L 496.394574 321.578146 
L 497.601239 324.727731 
L 499.184988 329.549921 
L 505.218314 348.649412 
L 506.500396 351.667424 
L 507.593937 353.720535 
L 508.574353 355.112608 
L 509.441643 355.973556 
L 510.233517 356.450789 
L 510.949975 356.62958 
L 511.666433 356.572746 
L 512.38289 356.288152 
L 513.174764 355.721804 
L 514.042055 354.819704 
L 515.060179 353.423837 
L 516.266844 351.371699 
L 517.812884 348.271282 
L 520.603298 342.055466 
L 522.97892 337.007088 
L 524.52496 334.222229 
L 525.429959 332.674006 
L 527.013708 323.604987 
L 528.258081 317.675862 
L 528.597456 316.539406 
L 529.238497 316.997154 
L 529.954955 317.810927 
L 530.784537 319.124444 
L 531.727244 321.053038 
L 532.896201 323.992843 
L 534.366825 328.348298 
L 536.742447 336.199638 
L 539.457444 344.961973 
L 541.003484 349.225959 
L 542.247858 352.057399 
L 543.341399 354.022052 
L 544.284106 355.287606 
L 545.113688 356.059809 
L 545.867854 356.480871 
L 546.584312 356.634582 
L 547.300769 356.553349 
L 548.017227 356.245364 
L 548.809101 355.654696 
L 549.7141 354.68175 
L 550.769932 353.189167 
L 552.014306 351.018223 
L 553.635763 347.704309 
L 559.631381 334.983041 
L 560.98888 332.854274 
L 562.157837 331.421224 
L 563.138252 330.353058 
L 564.608876 322.848445 
L 565.815541 317.791043 
L 566.230332 316.539406 
L 566.871373 316.997154 
L 567.587831 317.810927 
L 568.417413 319.124444 
L 569.360121 321.053038 
L 570.529078 323.992843 
L 571.999701 328.348298 
L 574.375324 336.199638 
L 577.090321 344.961973 
L 578.636361 349.225959 
L 579.880734 352.057399 
L 580.974275 354.022052 
L 581.916982 355.287606 
L 582.746565 356.059809 
L 583.50073 356.480871 
L 584.217188 356.634582 
L 584.933646 356.553349 
L 585.650103 356.245364 
L 586.441977 355.654696 
L 587.346976 354.68175 
L 588.402809 353.189167 
L 589.647182 351.018223 
L 591.268639 347.704309 
L 597.264257 334.983041 
L 598.621756 332.854274 
L 599.790713 331.421224 
L 600.808837 330.505109 
L 601.751544 329.944901 
L 602.618835 329.676915 
L 603.486126 329.643056 
L 604.353416 329.835571 
L 605.258415 330.26458 
L 606.276539 331.002757 
L 607.445496 332.142829 
L 608.840703 333.834529 
L 610.726118 336.503657 
L 615.401946 343.273355 
L 616.947986 345.053254 
L 618.267777 346.250566 
L 619.436734 347.027585 
L 620.530274 347.497922 
L 621.586106 347.712467 
L 622.641938 347.695351 
L 623.735479 347.444854 
L 624.904436 346.936586 
L 626.186518 346.12988 
L 627.732558 344.880386 
L 629.844222 342.86031 
L 634.218384 338.618762 
L 635.915258 337.316482 
L 637.385881 336.45725 
L 638.74338 335.91925 
L 640.025462 335.648827 
L 641.307543 335.60939 
L 642.627334 335.798964 
L 644.022541 336.229176 
L 645.606289 336.957833 
L 647.604828 338.141315 
L 654.505446 342.45754 
L 656.240027 343.155692 
L 657.823776 343.55966 
L 659.369816 343.72575 
L 660.915856 343.669807 
L 662.575021 343.383241 
L 664.460435 342.820141 
L 664.912935 342.654895 
L 664.912935 342.654895 
" style="fill:none;stroke:#55b2e8;stroke-linecap:round;stroke-width:3;"/>
   </g>
   <g id="line2d_24">
    <path clip-path="url(#pf59fc752f7)" d="M 99.32625 340.467524 
L 231.267567 340.467524 
L 232.474232 329.993657 
L 233.341523 324.250597 
L 234.020272 321.051632 
L 234.585897 319.319448 
L 235.038396 318.552027 
L 235.377771 318.331082 
L 235.679437 318.382184 
L 236.018812 318.707014 
L 236.433603 319.466679 
L 236.961519 320.959547 
L 237.640268 323.619621 
L 238.582976 328.34272 
L 242.316097 348.22067 
L 243.107971 350.83321 
L 243.749012 352.2643 
L 244.276928 352.965476 
L 244.729427 353.225705 
L 245.10651 353.209658 
L 245.521301 352.959233 
L 246.011509 352.370938 
L 246.614842 351.259968 
L 247.406716 349.27274 
L 248.537965 345.747117 
L 250.159421 339.987657 
L 251.328379 326.507209 
L 252.195669 318.852451 
L 252.535044 316.539406 
L 252.572752 364.395643 
L 252.648169 364.163332 
L 253.213793 362.015955 
L 253.967959 358.205418 
L 255.0615 351.390557 
L 257.70108 334.508775 
L 258.606079 330.257121 
L 259.322537 327.824296 
L 259.925869 326.475788 
L 260.416077 325.861087 
L 260.830868 325.672562 
L 261.207951 325.755693 
L 261.622743 326.112648 
L 262.11295 326.866141 
L 262.716283 328.229226 
L 263.508157 330.607029 
L 264.714823 335.040271 
L 267.015028 343.551806 
L 267.957736 346.181651 
L 268.711902 347.700955 
L 268.97586 348.097886 
L 270.710441 334.750728 
L 271.690857 328.87275 
L 272.445023 325.580998 
L 273.048355 323.809038 
L 273.538563 322.950018 
L 273.953354 322.626027 
L 274.292729 322.627737 
L 274.632104 322.859715 
L 275.046895 323.438349 
L 275.574811 324.603968 
L 276.25356 326.709343 
L 277.158559 330.317573 
L 279.006266 338.891906 
L 280.363764 344.630474 
L 281.268763 347.589943 
L 282.022929 349.354271 
L 282.626262 350.263146 
L 283.154178 350.685301 
L 283.606677 350.775575 
L 284.059177 350.626347 
L 284.549385 350.212748 
L 285.152717 349.381584 
L 285.906883 347.927089 
L 286.962715 345.351083 
L 290.017087 337.593734 
L 290.922086 336.01184 
L 291.676252 335.112921 
L 292.317293 334.669183 
L 292.920626 334.520069 
L 293.48625 334.606394 
L 294.127291 334.946712 
L 294.881457 335.631714 
L 295.824164 336.819318 
L 297.445621 339.298583 
L 299.142494 341.758973 
L 300.198326 342.907183 
L 301.065617 343.536469 
L 301.857491 343.840321 
L 302.611657 343.89085 
L 303.403531 343.711428 
L 304.30853 343.257545 
L 305.439779 342.416822 
L 309.549983 339.099665 
L 310.605815 338.662624 
L 311.586231 338.494163 
L 312.566646 338.547192 
L 313.660187 338.830989 
L 315.093102 339.453918 
L 318.901639 341.233087 
L 320.22143 341.537873 
L 321.503512 341.605936 
L 321.76747 341.593154 
L 322.936427 351.627192 
L 323.803717 357.251787 
L 324.482467 360.333032 
L 325.048091 361.956299 
L 325.500591 362.632718 
L 325.839965 362.784629 
L 326.141632 362.672429 
L 326.481006 362.279957 
L 326.895797 361.440353 
L 327.461422 359.718385 
L 328.177879 356.7335 
L 329.196003 351.396482 
L 332.3635 334.028956 
L 333.230791 330.783848 
L 333.90954 329.006124 
L 334.475164 328.06958 
L 334.965372 327.66101 
L 335.380163 327.600498 
L 335.794955 327.789798 
L 336.247454 328.262975 
L 336.813079 329.207873 
L 337.529536 330.880783 
L 338.509952 333.794526 
L 341.941406 344.549811 
L 342.770989 346.253414 
L 343.487446 347.252497 
L 344.090779 347.73654 
L 344.618695 347.893598 
L 345.146611 347.812144 
L 345.712236 347.479359 
L 346.353277 346.830207 
L 347.182859 345.641441 
L 348.351816 343.528643 
L 350.953688 338.717776 
L 351.934104 337.406859 
L 352.763686 336.652356 
L 353.480144 336.285584 
L 354.158893 336.181812 
L 354.837643 336.302266 
L 355.591808 336.670627 
L 356.496807 337.377822 
L 357.778889 338.701413 
L 359.475763 340.592248 
L 360.682428 352.209023 
L 361.549719 358.566675 
L 362.228468 362.099557 
L 362.794092 364.005199 
L 363.246592 364.842512 
L 363.585966 365.076608 
L 363.887633 365.009923 
L 364.189299 364.694569 
L 364.60409 363.877004 
L 365.132006 362.248054 
L 365.810756 359.323275 
L 366.715755 354.330651 
L 368.638878 342.036475 
L 369.958668 334.440715 
L 370.863667 330.438647 
L 371.580125 328.175103 
L 372.183457 326.943589 
L 372.673665 326.40438 
L 373.088456 326.265161 
L 373.465539 326.381228 
L 373.88033 326.761291 
L 374.408247 327.596474 
L 375.049287 329.072074 
L 375.916578 331.696779 
L 377.311785 336.759225 
L 379.121783 343.15015 
L 380.102199 345.830246 
L 380.894073 347.386296 
L 381.535114 348.20115 
L 382.100738 348.581253 
L 382.590946 348.658643 
L 383.081154 348.513254 
L 383.646778 348.090156 
L 384.325528 347.265966 
L 385.192818 345.81503 
L 386.512609 343.09782 
L 388.624273 338.785941 
L 389.642397 337.224703 
L 390.471979 336.344009 
L 391.188437 335.895966 
L 391.829478 335.743206 
L 392.470519 335.814723 
L 393.149268 336.113215 
L 393.978851 336.741737 
L 395.034683 337.848857 
L 397.184055 340.481344 
L 398.390721 352.242387 
L 399.258012 358.689895 
L 399.936761 362.280315 
L 400.502385 364.22365 
L 400.954885 365.083848 
L 401.294259 365.330731 
L 401.558217 365.293533 
L 401.859884 365.014257 
L 402.236967 364.327311 
L 402.727174 362.91591 
L 403.368215 360.297418 
L 404.197798 355.889055 
L 405.555296 347.279199 
L 407.403003 335.826223 
L 408.383418 331.118444 
L 409.137584 328.486473 
L 409.740917 327.073201 
L 410.268833 326.356076 
L 410.683624 326.128984 
L 411.060707 326.171003 
L 411.475498 326.477187 
L 411.965706 327.16485 
L 412.569039 328.441224 
L 413.360913 330.701866 
L 414.52987 334.824895 
L 416.980909 343.611259 
L 417.923616 346.123137 
L 418.677782 347.560524 
L 419.318823 348.342139 
L 419.846739 348.676268 
L 420.336947 348.741603 
L 420.827155 348.582618 
L 421.392779 348.1425 
L 422.071529 347.296941 
L 422.938819 345.81894 
L 424.296318 342.982951 
L 426.332566 338.78702 
L 427.35069 337.20452 
L 428.180272 336.309844 
L 428.89673 335.852795 
L 429.537771 335.694639 
L 430.178812 335.76334 
L 430.857561 336.061598 
L 431.649435 336.659195 
L 432.705267 337.765167 
L 436.740055 342.321509 
L 437.682762 342.902131 
L 438.550053 343.177627 
L 439.379635 343.209941 
L 440.246926 343.022302 
L 441.26505 342.56354 
L 442.660257 341.659406 
L 445.67692 339.634276 
L 446.883585 339.128159 
L 447.977126 338.903931 
L 449.070666 338.905211 
L 450.277332 339.134972 
L 451.823372 339.672391 
L 455.669618 341.103563 
L 457.140241 341.350589 
L 458.573156 341.364367 
L 460.194613 341.151162 
L 463.022735 340.502012 
L 465.436066 340.055672 
L 467.32148 339.938297 
L 469.357728 340.04555 
L 473.166266 340.539465 
L 475.881263 340.757965 
L 478.407718 340.731094 
L 483.536046 340.366671 
L 486.854376 340.295286 
L 487.683958 340.311364 
L 488.890624 329.878257 
L 489.757914 324.172684 
L 490.436664 321.005142 
L 491.002288 319.299178 
L 491.454788 318.552083 
L 491.794162 318.345719 
L 492.095829 318.409152 
L 492.435203 318.74701 
L 492.849994 319.521198 
L 493.377911 321.030022 
L 494.05666 323.705983 
L 494.999367 328.441877 
L 498.69478 348.131878 
L 499.486654 350.766461 
L 500.127695 352.217391 
L 500.655611 352.935467 
L 501.108111 353.210134 
L 501.485193 353.205835 
L 501.899985 352.967814 
L 502.390193 352.393195 
L 502.993525 351.29717 
L 503.747691 349.430889 
L 504.841232 346.063447 
L 507.593937 337.329828 
L 508.498936 335.25742 
L 509.253102 334.037071 
L 509.894143 333.393515 
L 510.459767 333.12969 
L 510.987683 333.132864 
L 511.515599 333.36216 
L 512.118932 333.874447 
L 512.873098 334.832352 
L 513.891222 336.533445 
L 517.548926 343.018766 
L 518.416217 343.963398 
L 519.170383 344.480593 
L 519.849132 344.695981 
L 520.527881 344.681535 
L 521.244339 344.437235 
L 522.073921 343.903294 
L 523.129754 342.933995 
L 525.392251 340.450221 
L 526.598917 328.820333 
L 527.466207 322.445077 
L 528.144957 318.895138 
L 528.710581 316.973928 
L 528.936831 316.539406 
L 528.974539 364.395643 
L 529.049956 364.163332 
L 529.61558 362.015955 
L 530.369746 358.205418 
L 531.463286 351.390557 
L 534.102867 334.508775 
L 535.007866 330.257121 
L 535.724323 327.824296 
L 536.327656 326.475788 
L 536.817864 325.861087 
L 537.232655 325.672562 
L 537.609738 325.755693 
L 538.024529 326.112648 
L 538.514737 326.866141 
L 539.11807 328.229226 
L 539.909944 330.607029 
L 541.116609 335.040271 
L 543.416815 343.551806 
L 544.359522 346.181651 
L 545.113688 347.700955 
L 545.754729 348.540054 
L 546.282645 348.911761 
L 546.772853 349.003482 
L 547.263061 348.86243 
L 547.790977 348.469477 
L 548.432018 347.694975 
L 549.261601 346.300779 
L 550.468266 343.767717 
L 552.919305 338.551429 
L 553.899721 337.018943 
L 554.691595 336.158279 
L 555.408052 335.697865 
L 556.049093 335.544319 
L 556.690134 335.624085 
L 557.368884 335.940017 
L 558.160758 336.564185 
L 559.21659 337.711584 
L 563.100544 342.278033 
L 564.382626 332.031462 
L 565.287625 326.463497 
L 566.004083 323.31753 
L 566.569707 321.689947 
L 567.022207 320.940885 
L 567.399289 320.68662 
L 567.700956 320.718215 
L 568.04033 320.993412 
L 568.455122 321.655145 
L 568.983038 322.96988 
L 569.661787 325.326818 
L 570.566786 329.345933 
L 572.527617 339.422952 
L 573.809699 345.334709 
L 574.714698 348.547146 
L 575.431156 350.362211 
L 576.034489 351.348069 
L 576.524696 351.778107 
L 576.939488 351.887158 
L 577.354279 351.771883 
L 577.806778 351.405434 
L 578.372403 350.626328 
L 579.08886 349.202952 
L 580.031568 346.778377 
L 583.840105 336.361819 
L 584.669688 334.995896 
L 585.348437 334.27446 
L 585.95177 333.941886 
L 586.517394 333.888522 
L 587.083018 334.070997 
L 587.724059 334.535478 
L 588.478225 335.378354 
L 589.496349 336.887814 
L 593.22947 342.793606 
L 594.134469 343.653029 
L 594.926343 344.104273 
L 595.642801 344.264416 
L 596.359258 344.198747 
L 597.151133 343.890017 
L 598.056132 343.287961 
L 599.300505 342.17015 
L 602.317169 339.361646 
L 603.410709 338.697981 
L 604.391125 338.361068 
L 605.333832 338.276241 
L 606.314248 338.418967 
L 607.445496 338.823284 
L 609.029245 339.657538 
L 611.78195 341.121419 
L 613.10174 341.55521 
L 614.308406 341.724869 
L 615.552779 341.674908 
L 616.985695 341.386435 
L 619.323609 340.645235 
L 621.661523 339.988658 
L 623.282979 339.76373 
L 624.904436 339.765752 
L 626.827559 340.004684 
L 632.521511 340.865307 
L 634.670884 340.857163 
L 637.536714 340.597946 
L 641.684626 340.24647 
L 644.512748 340.256929 
L 655.07107 340.557638 
L 663.404603 340.397911 
L 664.912935 340.423575 
L 664.912935 340.423575 
" style="fill:none;stroke:#d65c00;stroke-linecap:round;stroke-width:3;"/>
   </g>
   <g id="line2d_25">
    <path clip-path="url(#pf59fc752f7)" d="M 99.32625 400.287822 
L 231.229858 400.287822 
L 231.267567 385.93095 
L 231.305275 400.287822 
L 250.084005 400.287822 
L 250.121713 385.93095 
L 250.159421 400.287822 
L 268.938151 400.287822 
L 268.97586 385.93095 
L 269.013568 400.287822 
L 487.64625 400.287822 
L 487.683958 385.93095 
L 487.721667 400.287822 
L 525.354543 400.287822 
L 525.392251 385.93095 
L 525.429959 400.287822 
L 563.062836 400.287822 
L 563.100544 385.93095 
L 563.138252 400.287822 
L 664.912935 400.287822 
L 664.912935 400.287822 
" style="fill:none;stroke:#808080;stroke-linecap:round;stroke-width:3;"/>
   </g>
   <g id="line2d_26">
    <path clip-path="url(#pf59fc752f7)" d="M 99.32625 400.287822 
L 321.729761 400.287822 
L 321.76747 414.644693 
L 321.805178 400.287822 
L 359.438054 400.287822 
L 359.475763 414.644693 
L 359.513471 400.287822 
L 397.146347 400.287822 
L 397.184055 414.644693 
L 397.221764 400.287822 
L 664.912935 400.287822 
L 664.912935 400.287822 
" style="fill:none;stroke:#808080;stroke-linecap:round;stroke-width:3;"/>
   </g>
   <g id="patch_5">
    <path d="M 99.32625 436.18 
L 99.32625 280.647227 
" style="fill:none;stroke:#262626;stroke-linecap:square;stroke-linejoin:miter;stroke-width:2.5;"/>
   </g>
   <g id="patch_6">
    <path d="M 99.32625 436.18 
L 665.290244 436.18 
" style="fill:none;stroke:#262626;stroke-linecap:square;stroke-linejoin:miter;stroke-width:2.5;"/>
   </g>
   <g id="text_23">
    <!-- Threshold -->
    <g style="fill:#262626;" transform="translate(106.872437 309.36097)scale(0.22 -0.22)">
     <use xlink:href="#DejaVuSans-84"/>
     <use x="61.083984" xlink:href="#DejaVuSans-104"/>
     <use x="124.462891" xlink:href="#DejaVuSans-114"/>
     <use x="163.326172" xlink:href="#DejaVuSans-101"/>
     <use x="224.849609" xlink:href="#DejaVuSans-115"/>
     <use x="276.949219" xlink:href="#DejaVuSans-104"/>
     <use x="340.328125" xlink:href="#DejaVuSans-111"/>
     <use x="401.509766" xlink:href="#DejaVuSans-108"/>
     <use x="429.292969" xlink:href="#DejaVuSans-100"/>
    </g>
   </g>
   <g id="text_24">
    <!-- Inputs -->
    <g style="fill:#262626;" transform="translate(106.872437 390.716574)scale(0.22 -0.22)">
     <use xlink:href="#DejaVuSans-73"/>
     <use x="29.492188" xlink:href="#DejaVuSans-110"/>
     <use x="92.871094" xlink:href="#DejaVuSans-112"/>
     <use x="156.347656" xlink:href="#DejaVuSans-117"/>
     <use x="219.726562" xlink:href="#DejaVuSans-116"/>
     <use x="258.935547" xlink:href="#DejaVuSans-115"/>
    </g>
   </g>
   <g id="text_25">
    <!-- Resonate-and-fire neuron -->
    <g style="fill:#262626;" transform="translate(229.626997 274.647227)scale(0.24 -0.24)">
     <defs>
      <path d="M 44.390625 34.1875 
Q 47.5625 33.109375 50.5625 29.59375 
Q 53.5625 26.078125 56.59375 19.921875 
L 66.609375 0 
L 56 0 
L 46.6875 18.703125 
Q 43.0625 26.03125 39.671875 28.421875 
Q 36.28125 30.8125 30.421875 30.8125 
L 19.671875 30.8125 
L 19.671875 0 
L 9.8125 0 
L 9.8125 72.90625 
L 32.078125 72.90625 
Q 44.578125 72.90625 50.734375 67.671875 
Q 56.890625 62.453125 56.890625 51.90625 
Q 56.890625 45.015625 53.6875 40.46875 
Q 50.484375 35.9375 44.390625 34.1875 
z
M 19.671875 64.796875 
L 19.671875 38.921875 
L 32.078125 38.921875 
Q 39.203125 38.921875 42.84375 42.21875 
Q 46.484375 45.515625 46.484375 51.90625 
Q 46.484375 58.296875 42.84375 61.546875 
Q 39.203125 64.796875 32.078125 64.796875 
z
" id="DejaVuSans-82"/>
     </defs>
     <use xlink:href="#DejaVuSans-82"/>
     <use x="64.982422" xlink:href="#DejaVuSans-101"/>
     <use x="126.505859" xlink:href="#DejaVuSans-115"/>
     <use x="178.605469" xlink:href="#DejaVuSans-111"/>
     <use x="239.787109" xlink:href="#DejaVuSans-110"/>
     <use x="303.166016" xlink:href="#DejaVuSans-97"/>
     <use x="364.445312" xlink:href="#DejaVuSans-116"/>
     <use x="403.654297" xlink:href="#DejaVuSans-101"/>
     <use x="465.177734" xlink:href="#DejaVuSans-45"/>
     <use x="501.261719" xlink:href="#DejaVuSans-97"/>
     <use x="562.541016" xlink:href="#DejaVuSans-110"/>
     <use x="625.919922" xlink:href="#DejaVuSans-100"/>
     <use x="689.396484" xlink:href="#DejaVuSans-45"/>
     <use x="725.480469" xlink:href="#DejaVuSans-102"/>
     <use x="760.685547" xlink:href="#DejaVuSans-105"/>
     <use x="788.46875" xlink:href="#DejaVuSans-114"/>
     <use x="827.332031" xlink:href="#DejaVuSans-101"/>
     <use x="888.855469" xlink:href="#DejaVuSans-32"/>
     <use x="920.642578" xlink:href="#DejaVuSans-110"/>
     <use x="984.021484" xlink:href="#DejaVuSans-101"/>
     <use x="1045.544922" xlink:href="#DejaVuSans-117"/>
     <use x="1108.923828" xlink:href="#DejaVuSans-114"/>
     <use x="1147.787109" xlink:href="#DejaVuSans-111"/>
     <use x="1208.96875" xlink:href="#DejaVuSans-110"/>
    </g>
   </g>
   <g id="legend_2">
    <g id="line2d_27">
     <path d="M 683.740244 315.782125 
L 724.740244 315.782125 
" style="fill:none;stroke:#55b2e8;stroke-linecap:round;stroke-width:3;"/>
    </g>
    <g id="line2d_28"/>
    <g id="text_26">
     <!-- $-b = 8$ 1/ms -->
     <g style="fill:#262626;" transform="translate(741.140244 281.17236)scale(0.205 -0.205)">
      <defs>
       <path d="M 49.515625 33.40625 
Q 49.515625 40.484375 46.265625 44.484375 
Q 43.015625 48.484375 37.3125 48.484375 
Q 33.15625 48.484375 29.515625 46.453125 
Q 25.875 44.4375 23.1875 40.578125 
Q 20.359375 36.53125 18.71875 31.171875 
Q 17.09375 25.828125 17.09375 20.515625 
Q 17.09375 13.765625 20.28125 9.9375 
Q 23.484375 6.109375 29.109375 6.109375 
Q 33.34375 6.109375 36.953125 8.078125 
Q 40.578125 10.0625 43.3125 13.921875 
Q 46.09375 17.921875 47.796875 23.234375 
Q 49.515625 28.5625 49.515625 33.40625 
z
M 21.578125 46.390625 
Q 24.90625 50.875 29.90625 53.4375 
Q 34.90625 56 40.375 56 
Q 48.78125 56 53.734375 50.328125 
Q 58.6875 44.671875 58.6875 35.015625 
Q 58.6875 27.09375 55.78125 19.671875 
Q 52.875 12.25 47.515625 6.5 
Q 44 2.6875 39.40625 0.625 
Q 34.8125 -1.421875 29.78125 -1.421875 
Q 24.46875 -1.421875 20.5625 1.015625 
Q 16.65625 3.46875 14.203125 8.296875 
L 12.59375 0 
L 3.609375 0 
L 18.40625 75.984375 
L 27.390625 75.984375 
z
" id="DejaVuSans-Oblique-98"/>
       <path d="M 25.390625 72.90625 
L 33.6875 72.90625 
L 8.296875 -9.28125 
L 0 -9.28125 
z
" id="DejaVuSans-47"/>
      </defs>
      <use transform="translate(0 0.015625)" xlink:href="#DejaVuSans-8722"/>
      <use transform="translate(83.789062 0.015625)" xlink:href="#DejaVuSans-Oblique-98"/>
      <use transform="translate(166.748047 0.015625)" xlink:href="#DejaVuSans-61"/>
      <use transform="translate(270.019531 0.015625)" xlink:href="#DejaVuSans-56"/>
      <use transform="translate(333.642578 0.015625)" xlink:href="#DejaVuSans-32"/>
      <use transform="translate(365.429688 0.015625)" xlink:href="#DejaVuSans-49"/>
      <use transform="translate(429.052734 0.015625)" xlink:href="#DejaVuSans-47"/>
      <use transform="translate(462.744141 0.015625)" xlink:href="#DejaVuSans-109"/>
      <use transform="translate(560.15625 0.015625)" xlink:href="#DejaVuSans-115"/>
     </g>
     <!-- $\omega = 10$ Hz -->
     <g style="fill:#262626;" transform="translate(741.140244 304.127875)scale(0.205 -0.205)">
      <defs>
       <path d="M 21.390625 -1.421875 
Q 1.125 -1.421875 6.78125 27.59375 
Q 8.984375 39.0625 19.625 54.6875 
L 29.296875 54.6875 
Q 19.234375 39.0625 17 27.34375 
Q 12.796875 6.203125 23.734375 6.203125 
Q 33.84375 6.203125 38.71875 32.46875 
L 47.015625 32.46875 
Q 41.703125 6.0625 51.8125 6.203125 
Q 62.703125 6.296875 66.796875 27.34375 
Q 69.046875 39.0625 65.140625 54.6875 
L 74.8125 54.6875 
Q 79.296875 39.0625 77.09375 27.59375 
Q 71.53125 -1.46875 51.21875 -1.421875 
Q 37.9375 -1.375 39.109375 13.1875 
Q 34.28125 -1.421875 21.390625 -1.421875 
z
" id="DejaVuSans-Oblique-969"/>
       <path d="M 9.8125 72.90625 
L 19.671875 72.90625 
L 19.671875 43.015625 
L 55.515625 43.015625 
L 55.515625 72.90625 
L 65.375 72.90625 
L 65.375 0 
L 55.515625 0 
L 55.515625 34.71875 
L 19.671875 34.71875 
L 19.671875 0 
L 9.8125 0 
z
" id="DejaVuSans-72"/>
       <path d="M 5.515625 54.6875 
L 48.1875 54.6875 
L 48.1875 46.484375 
L 14.40625 7.171875 
L 48.1875 7.171875 
L 48.1875 0 
L 4.296875 0 
L 4.296875 8.203125 
L 38.09375 47.515625 
L 5.515625 47.515625 
z
" id="DejaVuSans-122"/>
      </defs>
      <use transform="translate(0 0.78125)" xlink:href="#DejaVuSans-Oblique-969"/>
      <use transform="translate(103.222656 0.78125)" xlink:href="#DejaVuSans-61"/>
      <use transform="translate(206.494141 0.78125)" xlink:href="#DejaVuSans-49"/>
      <use transform="translate(270.117188 0.78125)" xlink:href="#DejaVuSans-48"/>
      <use transform="translate(333.740234 0.78125)" xlink:href="#DejaVuSans-32"/>
      <use transform="translate(365.527344 0.78125)" xlink:href="#DejaVuSans-72"/>
      <use transform="translate(440.722656 0.78125)" xlink:href="#DejaVuSans-122"/>
     </g>
     <!-- $\tilde{V}_{reset} = 1$ -->
     <g style="fill:#262626;" transform="translate(741.140244 332.303203)scale(0.205 -0.205)">
      <use transform="translate(68.336426 22.3125)" xlink:href="#DejaVuSans-771"/>
      <use transform="translate(0 0.828125)" xlink:href="#DejaVuSans-Oblique-86"/>
      <use transform="translate(69.365234 -15.578125)scale(0.7)" xlink:href="#DejaVuSans-Oblique-114"/>
      <use transform="translate(98.144531 -15.578125)scale(0.7)" xlink:href="#DejaVuSans-Oblique-101"/>
      <use transform="translate(141.210938 -15.578125)scale(0.7)" xlink:href="#DejaVuSans-Oblique-115"/>
      <use transform="translate(177.680664 -15.578125)scale(0.7)" xlink:href="#DejaVuSans-Oblique-101"/>
      <use transform="translate(220.74707 -15.578125)scale(0.7)" xlink:href="#DejaVuSans-Oblique-116"/>
      <use transform="translate(270.410156 0.828125)" xlink:href="#DejaVuSans-61"/>
      <use transform="translate(373.681641 0.828125)" xlink:href="#DejaVuSans-49"/>
     </g>
     <!-- $\tilde{I}_{reset} = 0.2$ -->
     <g style="fill:#262626;" transform="translate(741.140244 360.478532)scale(0.205 -0.205)">
      <defs>
       <path d="M 16.890625 72.90625 
L 26.8125 72.90625 
L 12.59375 0 
L 2.6875 0 
z
" id="DejaVuSans-Oblique-73"/>
      </defs>
      <use transform="translate(43.607422 22.3125)" xlink:href="#DejaVuSans-771"/>
      <use transform="translate(0 0.828125)" xlink:href="#DejaVuSans-Oblique-73"/>
      <use transform="translate(30.449219 -15.578125)scale(0.7)" xlink:href="#DejaVuSans-Oblique-114"/>
      <use transform="translate(59.228516 -15.578125)scale(0.7)" xlink:href="#DejaVuSans-Oblique-101"/>
      <use transform="translate(102.294922 -15.578125)scale(0.7)" xlink:href="#DejaVuSans-Oblique-115"/>
      <use transform="translate(138.764648 -15.578125)scale(0.7)" xlink:href="#DejaVuSans-Oblique-101"/>
      <use transform="translate(181.831055 -15.578125)scale(0.7)" xlink:href="#DejaVuSans-Oblique-116"/>
      <use transform="translate(231.494141 0.828125)" xlink:href="#DejaVuSans-61"/>
      <use transform="translate(334.765625 0.828125)" xlink:href="#DejaVuSans-48"/>
      <use transform="translate(398.388672 0.828125)" xlink:href="#DejaVuSans-46"/>
      <use transform="translate(424.675781 0.828125)" xlink:href="#DejaVuSans-50"/>
     </g>
    </g>
    <g id="line2d_29">
     <path d="M 683.740244 433.378453 
L 724.740244 433.378453 
" style="fill:none;stroke:#d65c00;stroke-linecap:round;stroke-width:3;"/>
    </g>
    <g id="line2d_30"/>
    <g id="text_27">
     <!-- $-b = 22$ 1/ms -->
     <g style="fill:#262626;" transform="translate(741.140244 398.768688)scale(0.205 -0.205)">
      <use transform="translate(0 0.015625)" xlink:href="#DejaVuSans-8722"/>
      <use transform="translate(83.789062 0.015625)" xlink:href="#DejaVuSans-Oblique-98"/>
      <use transform="translate(166.748047 0.015625)" xlink:href="#DejaVuSans-61"/>
      <use transform="translate(270.019531 0.015625)" xlink:href="#DejaVuSans-50"/>
      <use transform="translate(333.642578 0.015625)" xlink:href="#DejaVuSans-50"/>
      <use transform="translate(397.265625 0.015625)" xlink:href="#DejaVuSans-32"/>
      <use transform="translate(429.052734 0.015625)" xlink:href="#DejaVuSans-49"/>
      <use transform="translate(492.675781 0.015625)" xlink:href="#DejaVuSans-47"/>
      <use transform="translate(526.367188 0.015625)" xlink:href="#DejaVuSans-109"/>
      <use transform="translate(623.779297 0.015625)" xlink:href="#DejaVuSans-115"/>
     </g>
     <!-- $\omega = 20$ Hz -->
     <g style="fill:#262626;" transform="translate(741.140244 421.724203)scale(0.205 -0.205)">
      <use transform="translate(0 0.78125)" xlink:href="#DejaVuSans-Oblique-969"/>
      <use transform="translate(103.222656 0.78125)" xlink:href="#DejaVuSans-61"/>
      <use transform="translate(206.494141 0.78125)" xlink:href="#DejaVuSans-50"/>
      <use transform="translate(270.117188 0.78125)" xlink:href="#DejaVuSans-48"/>
      <use transform="translate(333.740234 0.78125)" xlink:href="#DejaVuSans-32"/>
      <use transform="translate(365.527344 0.78125)" xlink:href="#DejaVuSans-72"/>
      <use transform="translate(440.722656 0.78125)" xlink:href="#DejaVuSans-122"/>
     </g>
     <!-- $\tilde{V}_{reset} = -1$ -->
     <g style="fill:#262626;" transform="translate(741.140244 449.899532)scale(0.205 -0.205)">
      <use transform="translate(68.336426 22.3125)" xlink:href="#DejaVuSans-771"/>
      <use transform="translate(0 0.828125)" xlink:href="#DejaVuSans-Oblique-86"/>
      <use transform="translate(69.365234 -15.578125)scale(0.7)" xlink:href="#DejaVuSans-Oblique-114"/>
      <use transform="translate(98.144531 -15.578125)scale(0.7)" xlink:href="#DejaVuSans-Oblique-101"/>
      <use transform="translate(141.210938 -15.578125)scale(0.7)" xlink:href="#DejaVuSans-Oblique-115"/>
      <use transform="translate(177.680664 -15.578125)scale(0.7)" xlink:href="#DejaVuSans-Oblique-101"/>
      <use transform="translate(220.74707 -15.578125)scale(0.7)" xlink:href="#DejaVuSans-Oblique-116"/>
      <use transform="translate(270.410156 0.828125)" xlink:href="#DejaVuSans-61"/>
      <use transform="translate(393.164062 0.828125)" xlink:href="#DejaVuSans-8722"/>
      <use transform="translate(496.435547 0.828125)" xlink:href="#DejaVuSans-49"/>
     </g>
     <!-- $\tilde{I}_{reset} = 0$ -->
     <g style="fill:#262626;" transform="translate(741.140244 478.07486)scale(0.205 -0.205)">
      <use transform="translate(43.607422 22.3125)" xlink:href="#DejaVuSans-771"/>
      <use transform="translate(0 0.828125)" xlink:href="#DejaVuSans-Oblique-73"/>
      <use transform="translate(30.449219 -15.578125)scale(0.7)" xlink:href="#DejaVuSans-Oblique-114"/>
      <use transform="translate(59.228516 -15.578125)scale(0.7)" xlink:href="#DejaVuSans-Oblique-101"/>
      <use transform="translate(102.294922 -15.578125)scale(0.7)" xlink:href="#DejaVuSans-Oblique-115"/>
      <use transform="translate(138.764648 -15.578125)scale(0.7)" xlink:href="#DejaVuSans-Oblique-101"/>
      <use transform="translate(181.831055 -15.578125)scale(0.7)" xlink:href="#DejaVuSans-Oblique-116"/>
      <use transform="translate(231.494141 0.828125)" xlink:href="#DejaVuSans-61"/>
      <use transform="translate(334.765625 0.828125)" xlink:href="#DejaVuSans-48"/>
     </g>
    </g>
   </g>
  </g>
 </g>
 <defs>
  <clipPath id="pfa0ff59be5">
   <rect height="155.532773" width="565.963994" x="99.32625" y="50.92"/>
  </clipPath>
  <clipPath id="pf59fc752f7">
   <rect height="155.532773" width="565.963994" x="99.32625" y="280.647227"/>
  </clipPath>
 </defs>
</svg>
