<?xml version="1.0" encoding="utf-8" standalone="no"?>
<!DOCTYPE svg PUBLIC "-//W3C//DTD SVG 1.1//EN"
  "http://www.w3.org/Graphics/SVG/1.1/DTD/svg11.dtd">
<!-- Created with matplotlib (https://matplotlib.org/) -->
<svg height="432pt" version="1.1" viewBox="0 0 216 432" width="216pt" xmlns="http://www.w3.org/2000/svg" xmlns:xlink="http://www.w3.org/1999/xlink">
 <metadata>
  <rdf:RDF xmlns:cc="http://creativecommons.org/ns#" xmlns:dc="http://purl.org/dc/elements/1.1/" xmlns:rdf="http://www.w3.org/1999/02/22-rdf-syntax-ns#">
   <cc:Work>
    <dc:type rdf:resource="http://purl.org/dc/dcmitype/StillImage"/>
    <dc:date>2021-05-27T19:36:56.831555</dc:date>
    <dc:format>image/svg+xml</dc:format>
    <dc:creator>
     <cc:Agent>
      <dc:title>Matplotlib v3.3.4, https://matplotlib.org/</dc:title>
     </cc:Agent>
    </dc:creator>
   </cc:Work>
  </rdf:RDF>
 </metadata>
 <defs>
  <style type="text/css">*{stroke-linecap:butt;stroke-linejoin:round;}</style>
 </defs>
 <g id="figure_1">
  <g id="patch_1">
   <path d="M 0 432 
L 216 432 
L 216 0 
L 0 0 
z
" style="fill:#ffffff;"/>
  </g>
  <g id="axes_1">
   <g id="patch_2">
    <path d="M 63.835 191.27 
L 203.04 191.27 
L 203.04 12.96 
L 63.835 12.96 
z
" style="fill:#ffffff;"/>
   </g>
   <g id="matplotlib.axis_1"/>
   <g id="matplotlib.axis_2">
    <g id="ytick_1">
     <g id="line2d_1">
      <defs>
       <path d="M 0 0 
L -6 0 
" id="mae536a9e37" style="stroke:#262626;stroke-width:1.25;"/>
      </defs>
      <g>
       <use style="fill:#262626;stroke:#262626;stroke-width:1.25;" x="63.835" xlink:href="#mae536a9e37" y="183.165"/>
      </g>
     </g>
     <g id="text_1">
      <!-- 0.00 -->
      <g style="fill:#262626;" transform="translate(29.842812 187.344141)scale(0.11 -0.11)">
       <defs>
        <path d="M 31.78125 66.40625 
Q 24.171875 66.40625 20.328125 58.90625 
Q 16.5 51.421875 16.5 36.375 
Q 16.5 21.390625 20.328125 13.890625 
Q 24.171875 6.390625 31.78125 6.390625 
Q 39.453125 6.390625 43.28125 13.890625 
Q 47.125 21.390625 47.125 36.375 
Q 47.125 51.421875 43.28125 58.90625 
Q 39.453125 66.40625 31.78125 66.40625 
z
M 31.78125 74.21875 
Q 44.046875 74.21875 50.515625 64.515625 
Q 56.984375 54.828125 56.984375 36.375 
Q 56.984375 17.96875 50.515625 8.265625 
Q 44.046875 -1.421875 31.78125 -1.421875 
Q 19.53125 -1.421875 13.0625 8.265625 
Q 6.59375 17.96875 6.59375 36.375 
Q 6.59375 54.828125 13.0625 64.515625 
Q 19.53125 74.21875 31.78125 74.21875 
z
" id="DejaVuSans-48"/>
        <path d="M 10.6875 12.40625 
L 21 12.40625 
L 21 0 
L 10.6875 0 
z
" id="DejaVuSans-46"/>
       </defs>
       <use xlink:href="#DejaVuSans-48"/>
       <use x="63.623047" xlink:href="#DejaVuSans-46"/>
       <use x="95.410156" xlink:href="#DejaVuSans-48"/>
       <use x="159.033203" xlink:href="#DejaVuSans-48"/>
      </g>
     </g>
    </g>
    <g id="ytick_2">
     <g id="line2d_2">
      <g>
       <use style="fill:#262626;stroke:#262626;stroke-width:1.25;" x="63.835" xlink:href="#mae536a9e37" y="150.743891"/>
      </g>
     </g>
     <g id="text_2">
      <!-- 0.02 -->
      <g style="fill:#262626;" transform="translate(29.842812 154.923032)scale(0.11 -0.11)">
       <defs>
        <path d="M 19.1875 8.296875 
L 53.609375 8.296875 
L 53.609375 0 
L 7.328125 0 
L 7.328125 8.296875 
Q 12.9375 14.109375 22.625 23.890625 
Q 32.328125 33.6875 34.8125 36.53125 
Q 39.546875 41.84375 41.421875 45.53125 
Q 43.3125 49.21875 43.3125 52.78125 
Q 43.3125 58.59375 39.234375 62.25 
Q 35.15625 65.921875 28.609375 65.921875 
Q 23.96875 65.921875 18.8125 64.3125 
Q 13.671875 62.703125 7.8125 59.421875 
L 7.8125 69.390625 
Q 13.765625 71.78125 18.9375 73 
Q 24.125 74.21875 28.421875 74.21875 
Q 39.75 74.21875 46.484375 68.546875 
Q 53.21875 62.890625 53.21875 53.421875 
Q 53.21875 48.921875 51.53125 44.890625 
Q 49.859375 40.875 45.40625 35.40625 
Q 44.1875 33.984375 37.640625 27.21875 
Q 31.109375 20.453125 19.1875 8.296875 
z
" id="DejaVuSans-50"/>
       </defs>
       <use xlink:href="#DejaVuSans-48"/>
       <use x="63.623047" xlink:href="#DejaVuSans-46"/>
       <use x="95.410156" xlink:href="#DejaVuSans-48"/>
       <use x="159.033203" xlink:href="#DejaVuSans-50"/>
      </g>
     </g>
    </g>
    <g id="ytick_3">
     <g id="line2d_3">
      <g>
       <use style="fill:#262626;stroke:#262626;stroke-width:1.25;" x="63.835" xlink:href="#mae536a9e37" y="118.322782"/>
      </g>
     </g>
     <g id="text_3">
      <!-- 0.04 -->
      <g style="fill:#262626;" transform="translate(29.842812 122.501923)scale(0.11 -0.11)">
       <defs>
        <path d="M 37.796875 64.3125 
L 12.890625 25.390625 
L 37.796875 25.390625 
z
M 35.203125 72.90625 
L 47.609375 72.90625 
L 47.609375 25.390625 
L 58.015625 25.390625 
L 58.015625 17.1875 
L 47.609375 17.1875 
L 47.609375 0 
L 37.796875 0 
L 37.796875 17.1875 
L 4.890625 17.1875 
L 4.890625 26.703125 
z
" id="DejaVuSans-52"/>
       </defs>
       <use xlink:href="#DejaVuSans-48"/>
       <use x="63.623047" xlink:href="#DejaVuSans-46"/>
       <use x="95.410156" xlink:href="#DejaVuSans-48"/>
       <use x="159.033203" xlink:href="#DejaVuSans-52"/>
      </g>
     </g>
    </g>
    <g id="ytick_4">
     <g id="line2d_4">
      <g>
       <use style="fill:#262626;stroke:#262626;stroke-width:1.25;" x="63.835" xlink:href="#mae536a9e37" y="85.901674"/>
      </g>
     </g>
     <g id="text_4">
      <!-- 0.06 -->
      <g style="fill:#262626;" transform="translate(29.842812 90.080814)scale(0.11 -0.11)">
       <defs>
        <path d="M 33.015625 40.375 
Q 26.375 40.375 22.484375 35.828125 
Q 18.609375 31.296875 18.609375 23.390625 
Q 18.609375 15.53125 22.484375 10.953125 
Q 26.375 6.390625 33.015625 6.390625 
Q 39.65625 6.390625 43.53125 10.953125 
Q 47.40625 15.53125 47.40625 23.390625 
Q 47.40625 31.296875 43.53125 35.828125 
Q 39.65625 40.375 33.015625 40.375 
z
M 52.59375 71.296875 
L 52.59375 62.3125 
Q 48.875 64.0625 45.09375 64.984375 
Q 41.3125 65.921875 37.59375 65.921875 
Q 27.828125 65.921875 22.671875 59.328125 
Q 17.53125 52.734375 16.796875 39.40625 
Q 19.671875 43.65625 24.015625 45.921875 
Q 28.375 48.1875 33.59375 48.1875 
Q 44.578125 48.1875 50.953125 41.515625 
Q 57.328125 34.859375 57.328125 23.390625 
Q 57.328125 12.15625 50.6875 5.359375 
Q 44.046875 -1.421875 33.015625 -1.421875 
Q 20.359375 -1.421875 13.671875 8.265625 
Q 6.984375 17.96875 6.984375 36.375 
Q 6.984375 53.65625 15.1875 63.9375 
Q 23.390625 74.21875 37.203125 74.21875 
Q 40.921875 74.21875 44.703125 73.484375 
Q 48.484375 72.75 52.59375 71.296875 
z
" id="DejaVuSans-54"/>
       </defs>
       <use xlink:href="#DejaVuSans-48"/>
       <use x="63.623047" xlink:href="#DejaVuSans-46"/>
       <use x="95.410156" xlink:href="#DejaVuSans-48"/>
       <use x="159.033203" xlink:href="#DejaVuSans-54"/>
      </g>
     </g>
    </g>
    <g id="ytick_5">
     <g id="line2d_5">
      <g>
       <use style="fill:#262626;stroke:#262626;stroke-width:1.25;" x="63.835" xlink:href="#mae536a9e37" y="53.480565"/>
      </g>
     </g>
     <g id="text_5">
      <!-- 0.08 -->
      <g style="fill:#262626;" transform="translate(29.842812 57.659705)scale(0.11 -0.11)">
       <defs>
        <path d="M 31.78125 34.625 
Q 24.75 34.625 20.71875 30.859375 
Q 16.703125 27.09375 16.703125 20.515625 
Q 16.703125 13.921875 20.71875 10.15625 
Q 24.75 6.390625 31.78125 6.390625 
Q 38.8125 6.390625 42.859375 10.171875 
Q 46.921875 13.96875 46.921875 20.515625 
Q 46.921875 27.09375 42.890625 30.859375 
Q 38.875 34.625 31.78125 34.625 
z
M 21.921875 38.8125 
Q 15.578125 40.375 12.03125 44.71875 
Q 8.5 49.078125 8.5 55.328125 
Q 8.5 64.0625 14.71875 69.140625 
Q 20.953125 74.21875 31.78125 74.21875 
Q 42.671875 74.21875 48.875 69.140625 
Q 55.078125 64.0625 55.078125 55.328125 
Q 55.078125 49.078125 51.53125 44.71875 
Q 48 40.375 41.703125 38.8125 
Q 48.828125 37.15625 52.796875 32.3125 
Q 56.78125 27.484375 56.78125 20.515625 
Q 56.78125 9.90625 50.3125 4.234375 
Q 43.84375 -1.421875 31.78125 -1.421875 
Q 19.734375 -1.421875 13.25 4.234375 
Q 6.78125 9.90625 6.78125 20.515625 
Q 6.78125 27.484375 10.78125 32.3125 
Q 14.796875 37.15625 21.921875 38.8125 
z
M 18.3125 54.390625 
Q 18.3125 48.734375 21.84375 45.5625 
Q 25.390625 42.390625 31.78125 42.390625 
Q 38.140625 42.390625 41.71875 45.5625 
Q 45.3125 48.734375 45.3125 54.390625 
Q 45.3125 60.0625 41.71875 63.234375 
Q 38.140625 66.40625 31.78125 66.40625 
Q 25.390625 66.40625 21.84375 63.234375 
Q 18.3125 60.0625 18.3125 54.390625 
z
" id="DejaVuSans-56"/>
       </defs>
       <use xlink:href="#DejaVuSans-48"/>
       <use x="63.623047" xlink:href="#DejaVuSans-46"/>
       <use x="95.410156" xlink:href="#DejaVuSans-48"/>
       <use x="159.033203" xlink:href="#DejaVuSans-56"/>
      </g>
     </g>
    </g>
    <g id="ytick_6">
     <g id="line2d_6">
      <g>
       <use style="fill:#262626;stroke:#262626;stroke-width:1.25;" x="63.835" xlink:href="#mae536a9e37" y="21.059456"/>
      </g>
     </g>
     <g id="text_6">
      <!-- 0.10 -->
      <g style="fill:#262626;" transform="translate(29.842812 25.238597)scale(0.11 -0.11)">
       <defs>
        <path d="M 12.40625 8.296875 
L 28.515625 8.296875 
L 28.515625 63.921875 
L 10.984375 60.40625 
L 10.984375 69.390625 
L 28.421875 72.90625 
L 38.28125 72.90625 
L 38.28125 8.296875 
L 54.390625 8.296875 
L 54.390625 0 
L 12.40625 0 
z
" id="DejaVuSans-49"/>
       </defs>
       <use xlink:href="#DejaVuSans-48"/>
       <use x="63.623047" xlink:href="#DejaVuSans-46"/>
       <use x="95.410156" xlink:href="#DejaVuSans-49"/>
       <use x="159.033203" xlink:href="#DejaVuSans-48"/>
      </g>
     </g>
    </g>
    <g id="text_7">
     <!-- V(t) -->
     <g style="fill:#262626;" transform="translate(23.139219 114.181641)rotate(-90)scale(0.13 -0.13)">
      <defs>
       <path d="M 28.609375 0 
L 0.78125 72.90625 
L 11.078125 72.90625 
L 34.1875 11.53125 
L 57.328125 72.90625 
L 67.578125 72.90625 
L 39.796875 0 
z
" id="DejaVuSans-86"/>
       <path d="M 31 75.875 
Q 24.46875 64.65625 21.28125 53.65625 
Q 18.109375 42.671875 18.109375 31.390625 
Q 18.109375 20.125 21.3125 9.0625 
Q 24.515625 -2 31 -13.1875 
L 23.1875 -13.1875 
Q 15.875 -1.703125 12.234375 9.375 
Q 8.59375 20.453125 8.59375 31.390625 
Q 8.59375 42.28125 12.203125 53.3125 
Q 15.828125 64.359375 23.1875 75.875 
z
" id="DejaVuSans-40"/>
       <path d="M 18.3125 70.21875 
L 18.3125 54.6875 
L 36.8125 54.6875 
L 36.8125 47.703125 
L 18.3125 47.703125 
L 18.3125 18.015625 
Q 18.3125 11.328125 20.140625 9.421875 
Q 21.96875 7.515625 27.59375 7.515625 
L 36.8125 7.515625 
L 36.8125 0 
L 27.59375 0 
Q 17.1875 0 13.234375 3.875 
Q 9.28125 7.765625 9.28125 18.015625 
L 9.28125 47.703125 
L 2.6875 47.703125 
L 2.6875 54.6875 
L 9.28125 54.6875 
L 9.28125 70.21875 
z
" id="DejaVuSans-116"/>
       <path d="M 8.015625 75.875 
L 15.828125 75.875 
Q 23.140625 64.359375 26.78125 53.3125 
Q 30.421875 42.28125 30.421875 31.390625 
Q 30.421875 20.453125 26.78125 9.375 
Q 23.140625 -1.703125 15.828125 -13.1875 
L 8.015625 -13.1875 
Q 14.5 -2 17.703125 9.0625 
Q 20.90625 20.125 20.90625 31.390625 
Q 20.90625 42.671875 17.703125 53.65625 
Q 14.5 64.65625 8.015625 75.875 
z
" id="DejaVuSans-41"/>
      </defs>
      <use xlink:href="#DejaVuSans-86"/>
      <use x="68.408203" xlink:href="#DejaVuSans-40"/>
      <use x="107.421875" xlink:href="#DejaVuSans-116"/>
      <use x="146.630859" xlink:href="#DejaVuSans-41"/>
     </g>
    </g>
   </g>
   <g id="line2d_7">
    <path clip-path="url(#pad0f833f29)" d="M 70.1625 183.165 
L 75.244829 183.165 
L 76.261295 127.331529 
L 77.277761 86.932206 
L 78.294227 58.663673 
L 79.310693 39.869482 
L 79.818926 33.34155 
L 80.327159 28.418258 
L 80.835392 24.898941 
L 81.343624 22.604371 
L 81.851857 21.3746 
L 82.36009 21.067017 
L 82.868323 21.554596 
L 83.376556 22.724315 
L 83.884789 24.475728 
L 84.901255 29.377154 
L 85.917721 35.661067 
L 87.44242 46.687526 
L 94.049448 97.240217 
L 96.08238 110.436524 
L 98.115311 122.025125 
L 100.148243 132.038854 
L 101.672942 138.581428 
L 103.197641 144.36271 
L 104.722339 149.449858 
L 106.247038 153.910748 
L 107.771737 157.811274 
L 109.296436 161.213677 
L 110.821135 164.175631 
L 112.345833 166.74981 
L 113.870532 168.983799 
L 115.903464 171.506255 
L 117.936396 173.587344 
L 119.969327 175.301839 
L 122.002259 176.712683 
L 124.035191 177.872566 
L 126.576355 179.035683 
L 129.11752 179.944496 
L 132.166918 180.77609 
L 135.724548 181.479718 
L 139.790412 182.034349 
L 144.872741 182.478753 
L 151.479769 182.806566 
L 160.627962 183.019224 
L 176.891416 183.135563 
L 196.7125 183.160812 
L 196.7125 183.160812 
" style="fill:none;stroke:#7dc2ff;stroke-linecap:round;stroke-width:2.5;"/>
   </g>
   <g id="line2d_8">
    <path clip-path="url(#pad0f833f29)" d="M 70.1625 183.165 
L 75.244829 183.165 
L 76.261295 137.704439 
L 77.277761 102.701617 
L 78.294227 76.152737 
L 79.310693 56.422502 
L 80.327159 42.17706 
L 81.343624 32.329117 
L 82.36009 25.993012 
L 82.868323 23.911071 
L 83.376556 22.447944 
L 83.884789 21.534355 
L 84.393022 21.107878 
L 84.901255 21.112279 
L 85.409488 21.496917 
L 85.917721 22.21621 
L 86.425954 23.229145 
L 87.44242 25.992134 
L 88.458886 29.533457 
L 89.983584 35.870842 
L 92.016516 45.46038 
L 99.64001 82.648302 
L 102.181175 93.680095 
L 104.722339 103.722222 
L 107.263504 112.770331 
L 109.804669 120.868053 
L 112.345833 128.08268 
L 114.886998 134.49106 
L 117.428163 140.171603 
L 119.969327 145.19993 
L 122.510492 149.646671 
L 125.051657 153.576522 
L 127.592821 157.04801 
L 130.133986 160.113652 
L 132.675151 162.820326 
L 135.216315 165.209716 
L 137.75748 167.318807 
L 140.806878 169.525568 
L 143.856275 171.425165 
L 146.905673 173.060284 
L 149.95507 174.46771 
L 153.512701 175.86395 
L 157.070331 177.036058 
L 161.136195 178.147034 
L 165.710291 179.158067 
L 170.79262 180.044394 
L 176.383183 180.794674 
L 182.990211 181.452374 
L 190.613705 181.987931 
L 196.7125 182.293006 
L 196.7125 182.293006 
" style="fill:none;stroke:#0675b6;stroke-linecap:round;stroke-width:2.5;"/>
   </g>
   <g id="line2d_9">
    <path clip-path="url(#pad0f833f29)" d="M 70.1625 183.165 
L 75.244829 183.165 
L 76.261295 144.122589 
L 77.277761 113.121327 
L 78.294227 88.679801 
L 79.310693 69.58572 
L 80.327159 54.847116 
L 81.343624 43.652396 
L 82.36009 35.337626 
L 83.376556 29.359757 
L 84.393022 25.274695 
L 84.901255 23.82576 
L 85.409488 22.719354 
L 85.917721 21.92034 
L 86.425954 21.396955 
L 86.934187 21.120491 
L 87.44242 21.065 
L 87.950653 21.207037 
L 88.458886 21.525416 
L 89.475351 22.616492 
L 90.491817 24.206277 
L 91.508283 26.187175 
L 93.032982 29.704626 
L 95.065914 35.073841 
L 98.115311 43.861831 
L 105.230572 64.583763 
L 108.788203 74.231994 
L 112.345833 83.216183 
L 115.903464 91.519323 
L 118.952861 98.109624 
L 122.002259 104.238034 
L 125.051657 109.931474 
L 128.101054 115.217834 
L 131.658685 120.90734 
L 135.216315 126.121776 
L 138.773946 130.900136 
L 142.331576 135.278556 
L 145.889207 139.290342 
L 149.446837 142.966115 
L 153.004468 146.333975 
L 156.562098 149.419696 
L 160.627962 152.630973 
L 164.693825 155.536665 
L 168.759689 158.165846 
L 172.825552 160.544829 
L 177.399649 162.951674 
L 181.973745 165.102426 
L 187.056074 167.224834 
L 192.138404 169.097853 
L 196.7125 170.594635 
L 196.7125 170.594635 
" style="fill:none;stroke:#002a61;stroke-linecap:round;stroke-width:2.5;"/>
   </g>
   <g id="patch_3">
    <path d="M 63.835 191.27 
L 63.835 12.96 
" style="fill:none;stroke:#262626;stroke-linecap:square;stroke-linejoin:miter;stroke-width:1.25;"/>
   </g>
   <g id="legend_1">
    <g id="patch_4">
     <path d="M 132.19625 98.28625 
L 194.29 98.28625 
Q 196.79 98.28625 196.79 95.78625 
L 196.79 21.71 
Q 196.79 19.21 194.29 19.21 
L 132.19625 19.21 
Q 129.69625 19.21 129.69625 21.71 
L 129.69625 95.78625 
Q 129.69625 98.28625 132.19625 98.28625 
z
" style="fill:#ffffff;opacity:0.8;stroke:#ffffff;stroke-linejoin:miter;"/>
    </g>
    <g id="text_8">
     <!-- $\tau_m$ -->
     <g style="fill:#262626;" transform="translate(153.673125 35.227734)scale(0.145 -0.145)">
      <defs>
       <path d="M 32.859375 9.96875 
Q 34.1875 7.625 39.453125 7.625 
L 43.75 7.625 
L 42.28125 0 
L 36.921875 0 
Q 28.125 0 25 4.6875 
Q 21.921875 9.46875 23.96875 19.828125 
L 29 45.703125 
L 8.453125 45.703125 
L 10.203125 54.6875 
L 60.640625 54.6875 
L 58.890625 45.703125 
L 38.1875 45.703125 
L 33.015625 19.28125 
Q 31.640625 12.203125 32.859375 9.96875 
z
" id="DejaVuSans-Oblique-964"/>
       <path d="M 89.796875 33.015625 
L 83.40625 0 
L 74.421875 0 
L 80.71875 32.71875 
Q 81.109375 34.8125 81.296875 36.328125 
Q 81.5 37.84375 81.5 38.921875 
Q 81.5 43.3125 79.046875 45.75 
Q 76.609375 48.1875 72.21875 48.1875 
Q 65.671875 48.1875 60.546875 43.28125 
Q 55.421875 38.375 53.90625 30.515625 
L 47.90625 0 
L 38.921875 0 
L 45.3125 32.71875 
Q 45.703125 34.515625 45.890625 36.046875 
Q 46.09375 37.59375 46.09375 38.8125 
Q 46.09375 43.265625 43.65625 45.71875 
Q 41.21875 48.1875 36.921875 48.1875 
Q 30.28125 48.1875 25.140625 43.28125 
Q 20.015625 38.375 18.5 30.515625 
L 12.5 0 
L 3.515625 0 
L 14.203125 54.6875 
L 23.1875 54.6875 
L 21.484375 46.1875 
Q 25.140625 50.984375 30.046875 53.484375 
Q 34.96875 56 40.578125 56 
Q 46.53125 56 50.359375 52.875 
Q 54.203125 49.75 54.984375 44.1875 
Q 59.078125 49.953125 64.46875 52.96875 
Q 69.875 56 75.875 56 
Q 82.90625 56 86.734375 51.953125 
Q 90.578125 47.90625 90.578125 40.484375 
Q 90.578125 38.875 90.375 36.9375 
Q 90.1875 35.015625 89.796875 33.015625 
z
" id="DejaVuSans-Oblique-109"/>
      </defs>
      <use transform="translate(0 0.3125)" xlink:href="#DejaVuSans-Oblique-964"/>
      <use transform="translate(60.205078 -16.09375)scale(0.7)" xlink:href="#DejaVuSans-Oblique-109"/>
     </g>
    </g>
    <g id="line2d_10">
     <path d="M 134.69625 49.616328 
L 147.19625 49.616328 
" style="fill:none;stroke:#7dc2ff;stroke-linecap:round;stroke-width:2.5;"/>
    </g>
    <g id="line2d_11"/>
    <g id="text_9">
     <!-- 20ms -->
     <g style="fill:#262626;" transform="translate(157.19625 53.991328)scale(0.125 -0.125)">
      <defs>
       <path d="M 52 44.1875 
Q 55.375 50.25 60.0625 53.125 
Q 64.75 56 71.09375 56 
Q 79.640625 56 84.28125 50.015625 
Q 88.921875 44.046875 88.921875 33.015625 
L 88.921875 0 
L 79.890625 0 
L 79.890625 32.71875 
Q 79.890625 40.578125 77.09375 44.375 
Q 74.3125 48.1875 68.609375 48.1875 
Q 61.625 48.1875 57.5625 43.546875 
Q 53.515625 38.921875 53.515625 30.90625 
L 53.515625 0 
L 44.484375 0 
L 44.484375 32.71875 
Q 44.484375 40.625 41.703125 44.40625 
Q 38.921875 48.1875 33.109375 48.1875 
Q 26.21875 48.1875 22.15625 43.53125 
Q 18.109375 38.875 18.109375 30.90625 
L 18.109375 0 
L 9.078125 0 
L 9.078125 54.6875 
L 18.109375 54.6875 
L 18.109375 46.1875 
Q 21.1875 51.21875 25.484375 53.609375 
Q 29.78125 56 35.6875 56 
Q 41.65625 56 45.828125 52.96875 
Q 50 49.953125 52 44.1875 
z
" id="DejaVuSans-109"/>
       <path d="M 44.28125 53.078125 
L 44.28125 44.578125 
Q 40.484375 46.53125 36.375 47.5 
Q 32.28125 48.484375 27.875 48.484375 
Q 21.1875 48.484375 17.84375 46.4375 
Q 14.5 44.390625 14.5 40.28125 
Q 14.5 37.15625 16.890625 35.375 
Q 19.28125 33.59375 26.515625 31.984375 
L 29.59375 31.296875 
Q 39.15625 29.25 43.1875 25.515625 
Q 47.21875 21.78125 47.21875 15.09375 
Q 47.21875 7.46875 41.1875 3.015625 
Q 35.15625 -1.421875 24.609375 -1.421875 
Q 20.21875 -1.421875 15.453125 -0.5625 
Q 10.6875 0.296875 5.421875 2 
L 5.421875 11.28125 
Q 10.40625 8.6875 15.234375 7.390625 
Q 20.0625 6.109375 24.8125 6.109375 
Q 31.15625 6.109375 34.5625 8.28125 
Q 37.984375 10.453125 37.984375 14.40625 
Q 37.984375 18.0625 35.515625 20.015625 
Q 33.0625 21.96875 24.703125 23.78125 
L 21.578125 24.515625 
Q 13.234375 26.265625 9.515625 29.90625 
Q 5.8125 33.546875 5.8125 39.890625 
Q 5.8125 47.609375 11.28125 51.796875 
Q 16.75 56 26.8125 56 
Q 31.78125 56 36.171875 55.265625 
Q 40.578125 54.546875 44.28125 53.078125 
z
" id="DejaVuSans-115"/>
      </defs>
      <use xlink:href="#DejaVuSans-50"/>
      <use x="63.623047" xlink:href="#DejaVuSans-48"/>
      <use x="127.246094" xlink:href="#DejaVuSans-109"/>
      <use x="224.658203" xlink:href="#DejaVuSans-115"/>
     </g>
    </g>
    <g id="line2d_12">
     <path d="M 134.69625 67.963984 
L 147.19625 67.963984 
" style="fill:none;stroke:#0675b6;stroke-linecap:round;stroke-width:2.5;"/>
    </g>
    <g id="line2d_13"/>
    <g id="text_10">
     <!-- 40ms -->
     <g style="fill:#262626;" transform="translate(157.19625 72.338984)scale(0.125 -0.125)">
      <use xlink:href="#DejaVuSans-52"/>
      <use x="63.623047" xlink:href="#DejaVuSans-48"/>
      <use x="127.246094" xlink:href="#DejaVuSans-109"/>
      <use x="224.658203" xlink:href="#DejaVuSans-115"/>
     </g>
    </g>
    <g id="line2d_14">
     <path d="M 134.69625 86.311641 
L 147.19625 86.311641 
" style="fill:none;stroke:#002a61;stroke-linecap:round;stroke-width:2.5;"/>
    </g>
    <g id="line2d_15"/>
    <g id="text_11">
     <!-- 80ms -->
     <g style="fill:#262626;" transform="translate(157.19625 90.686641)scale(0.125 -0.125)">
      <use xlink:href="#DejaVuSans-56"/>
      <use x="63.623047" xlink:href="#DejaVuSans-48"/>
      <use x="127.246094" xlink:href="#DejaVuSans-109"/>
      <use x="224.658203" xlink:href="#DejaVuSans-115"/>
     </g>
    </g>
   </g>
  </g>
  <g id="axes_2">
   <g id="patch_5">
    <path d="M 63.835 382.54 
L 203.04 382.54 
L 203.04 204.23 
L 63.835 204.23 
z
" style="fill:#ffffff;"/>
   </g>
   <g id="matplotlib.axis_3">
    <g id="xtick_1">
     <g id="line2d_16">
      <defs>
       <path d="M 0 0 
L 0 6 
" id="md289d74ae2" style="stroke:#262626;stroke-width:1.25;"/>
      </defs>
      <g>
       <use style="fill:#262626;stroke:#262626;stroke-width:1.25;" x="75.2245" xlink:href="#md289d74ae2" y="382.54"/>
      </g>
     </g>
     <g id="text_12">
      <!-- 0 -->
      <g style="fill:#262626;" transform="translate(71.725125 400.398281)scale(0.11 -0.11)">
       <use xlink:href="#DejaVuSans-48"/>
      </g>
     </g>
    </g>
    <g id="xtick_2">
     <g id="line2d_17">
      <g>
       <use style="fill:#262626;stroke:#262626;stroke-width:1.25;" x="125.8445" xlink:href="#md289d74ae2" y="382.54"/>
      </g>
     </g>
     <g id="text_13">
      <!-- 100 -->
      <g style="fill:#262626;" transform="translate(115.346375 400.398281)scale(0.11 -0.11)">
       <use xlink:href="#DejaVuSans-49"/>
       <use x="63.623047" xlink:href="#DejaVuSans-48"/>
       <use x="127.246094" xlink:href="#DejaVuSans-48"/>
      </g>
     </g>
    </g>
    <g id="xtick_3">
     <g id="line2d_18">
      <g>
       <use style="fill:#262626;stroke:#262626;stroke-width:1.25;" x="176.4645" xlink:href="#md289d74ae2" y="382.54"/>
      </g>
     </g>
     <g id="text_14">
      <!-- 200 -->
      <g style="fill:#262626;" transform="translate(165.966375 400.398281)scale(0.11 -0.11)">
       <use xlink:href="#DejaVuSans-50"/>
       <use x="63.623047" xlink:href="#DejaVuSans-48"/>
       <use x="127.246094" xlink:href="#DejaVuSans-48"/>
      </g>
     </g>
    </g>
    <g id="text_15">
     <!-- Time [ms] -->
     <g style="fill:#262626;" transform="translate(100.678516 416.563906)scale(0.13 -0.13)">
      <defs>
       <path d="M -0.296875 72.90625 
L 61.375 72.90625 
L 61.375 64.59375 
L 35.5 64.59375 
L 35.5 0 
L 25.59375 0 
L 25.59375 64.59375 
L -0.296875 64.59375 
z
" id="DejaVuSans-84"/>
       <path d="M 9.421875 54.6875 
L 18.40625 54.6875 
L 18.40625 0 
L 9.421875 0 
z
M 9.421875 75.984375 
L 18.40625 75.984375 
L 18.40625 64.59375 
L 9.421875 64.59375 
z
" id="DejaVuSans-105"/>
       <path d="M 56.203125 29.59375 
L 56.203125 25.203125 
L 14.890625 25.203125 
Q 15.484375 15.921875 20.484375 11.0625 
Q 25.484375 6.203125 34.421875 6.203125 
Q 39.59375 6.203125 44.453125 7.46875 
Q 49.3125 8.734375 54.109375 11.28125 
L 54.109375 2.78125 
Q 49.265625 0.734375 44.1875 -0.34375 
Q 39.109375 -1.421875 33.890625 -1.421875 
Q 20.796875 -1.421875 13.15625 6.1875 
Q 5.515625 13.8125 5.515625 26.8125 
Q 5.515625 40.234375 12.765625 48.109375 
Q 20.015625 56 32.328125 56 
Q 43.359375 56 49.78125 48.890625 
Q 56.203125 41.796875 56.203125 29.59375 
z
M 47.21875 32.234375 
Q 47.125 39.59375 43.09375 43.984375 
Q 39.0625 48.390625 32.421875 48.390625 
Q 24.90625 48.390625 20.390625 44.140625 
Q 15.875 39.890625 15.1875 32.171875 
z
" id="DejaVuSans-101"/>
       <path id="DejaVuSans-32"/>
       <path d="M 8.59375 75.984375 
L 29.296875 75.984375 
L 29.296875 69 
L 17.578125 69 
L 17.578125 -6.203125 
L 29.296875 -6.203125 
L 29.296875 -13.1875 
L 8.59375 -13.1875 
z
" id="DejaVuSans-91"/>
       <path d="M 30.421875 75.984375 
L 30.421875 -13.1875 
L 9.71875 -13.1875 
L 9.71875 -6.203125 
L 21.390625 -6.203125 
L 21.390625 69 
L 9.71875 69 
L 9.71875 75.984375 
z
" id="DejaVuSans-93"/>
      </defs>
      <use xlink:href="#DejaVuSans-84"/>
      <use x="57.958984" xlink:href="#DejaVuSans-105"/>
      <use x="85.742188" xlink:href="#DejaVuSans-109"/>
      <use x="183.154297" xlink:href="#DejaVuSans-101"/>
      <use x="244.677734" xlink:href="#DejaVuSans-32"/>
      <use x="276.464844" xlink:href="#DejaVuSans-91"/>
      <use x="315.478516" xlink:href="#DejaVuSans-109"/>
      <use x="412.890625" xlink:href="#DejaVuSans-115"/>
      <use x="464.990234" xlink:href="#DejaVuSans-93"/>
     </g>
    </g>
   </g>
   <g id="matplotlib.axis_4">
    <g id="ytick_7">
     <g id="line2d_19">
      <g>
       <use style="fill:#262626;stroke:#262626;stroke-width:1.25;" x="63.835" xlink:href="#mae536a9e37" y="374.435"/>
      </g>
     </g>
     <g id="text_16">
      <!-- 0.00 -->
      <g style="fill:#262626;" transform="translate(29.842812 378.614141)scale(0.11 -0.11)">
       <use xlink:href="#DejaVuSans-48"/>
       <use x="63.623047" xlink:href="#DejaVuSans-46"/>
       <use x="95.410156" xlink:href="#DejaVuSans-48"/>
       <use x="159.033203" xlink:href="#DejaVuSans-48"/>
      </g>
     </g>
    </g>
    <g id="ytick_8">
     <g id="line2d_20">
      <g>
       <use style="fill:#262626;stroke:#262626;stroke-width:1.25;" x="63.835" xlink:href="#mae536a9e37" y="342.013891"/>
      </g>
     </g>
     <g id="text_17">
      <!-- 0.02 -->
      <g style="fill:#262626;" transform="translate(29.842812 346.193032)scale(0.11 -0.11)">
       <use xlink:href="#DejaVuSans-48"/>
       <use x="63.623047" xlink:href="#DejaVuSans-46"/>
       <use x="95.410156" xlink:href="#DejaVuSans-48"/>
       <use x="159.033203" xlink:href="#DejaVuSans-50"/>
      </g>
     </g>
    </g>
    <g id="ytick_9">
     <g id="line2d_21">
      <g>
       <use style="fill:#262626;stroke:#262626;stroke-width:1.25;" x="63.835" xlink:href="#mae536a9e37" y="309.592782"/>
      </g>
     </g>
     <g id="text_18">
      <!-- 0.04 -->
      <g style="fill:#262626;" transform="translate(29.842812 313.771923)scale(0.11 -0.11)">
       <use xlink:href="#DejaVuSans-48"/>
       <use x="63.623047" xlink:href="#DejaVuSans-46"/>
       <use x="95.410156" xlink:href="#DejaVuSans-48"/>
       <use x="159.033203" xlink:href="#DejaVuSans-52"/>
      </g>
     </g>
    </g>
    <g id="ytick_10">
     <g id="line2d_22">
      <g>
       <use style="fill:#262626;stroke:#262626;stroke-width:1.25;" x="63.835" xlink:href="#mae536a9e37" y="277.171674"/>
      </g>
     </g>
     <g id="text_19">
      <!-- 0.06 -->
      <g style="fill:#262626;" transform="translate(29.842812 281.350814)scale(0.11 -0.11)">
       <use xlink:href="#DejaVuSans-48"/>
       <use x="63.623047" xlink:href="#DejaVuSans-46"/>
       <use x="95.410156" xlink:href="#DejaVuSans-48"/>
       <use x="159.033203" xlink:href="#DejaVuSans-54"/>
      </g>
     </g>
    </g>
    <g id="ytick_11">
     <g id="line2d_23">
      <g>
       <use style="fill:#262626;stroke:#262626;stroke-width:1.25;" x="63.835" xlink:href="#mae536a9e37" y="244.750565"/>
      </g>
     </g>
     <g id="text_20">
      <!-- 0.08 -->
      <g style="fill:#262626;" transform="translate(29.842812 248.929705)scale(0.11 -0.11)">
       <use xlink:href="#DejaVuSans-48"/>
       <use x="63.623047" xlink:href="#DejaVuSans-46"/>
       <use x="95.410156" xlink:href="#DejaVuSans-48"/>
       <use x="159.033203" xlink:href="#DejaVuSans-56"/>
      </g>
     </g>
    </g>
    <g id="ytick_12">
     <g id="line2d_24">
      <g>
       <use style="fill:#262626;stroke:#262626;stroke-width:1.25;" x="63.835" xlink:href="#mae536a9e37" y="212.329456"/>
      </g>
     </g>
     <g id="text_21">
      <!-- 0.10 -->
      <g style="fill:#262626;" transform="translate(29.842812 216.508597)scale(0.11 -0.11)">
       <use xlink:href="#DejaVuSans-48"/>
       <use x="63.623047" xlink:href="#DejaVuSans-46"/>
       <use x="95.410156" xlink:href="#DejaVuSans-49"/>
       <use x="159.033203" xlink:href="#DejaVuSans-48"/>
      </g>
     </g>
    </g>
    <g id="text_22">
     <!-- V(t) -->
     <g style="fill:#262626;" transform="translate(23.139219 305.451641)rotate(-90)scale(0.13 -0.13)">
      <use xlink:href="#DejaVuSans-86"/>
      <use x="68.408203" xlink:href="#DejaVuSans-40"/>
      <use x="107.421875" xlink:href="#DejaVuSans-116"/>
      <use x="146.630859" xlink:href="#DejaVuSans-41"/>
     </g>
    </g>
   </g>
   <g id="line2d_25">
    <path clip-path="url(#p8ec365b938)" d="M 70.1625 374.435 
L 75.244829 374.435 
L 76.261295 304.391327 
L 76.769528 279.949801 
L 77.277761 260.85572 
L 77.785994 246.117116 
L 78.294227 234.922396 
L 78.80246 226.607626 
L 79.310693 220.629757 
L 79.818926 216.544695 
L 80.327159 213.989354 
L 80.835392 212.666955 
L 81.343624 212.335 
L 81.851857 212.795416 
L 82.36009 213.886492 
L 82.868323 215.476277 
L 83.884789 219.741516 
L 85.409488 227.765848 
L 93.032982 270.719434 
L 95.574147 282.789323 
L 97.607078 291.472461 
L 99.64001 299.35027 
L 101.672942 306.487834 
L 103.705873 312.950406 
L 105.738805 318.799885 
L 107.771737 324.093569 
L 109.804669 328.883876 
L 111.8376 333.218497 
L 114.378765 338.061493 
L 116.91993 342.335466 
L 119.461094 346.107251 
L 122.002259 349.435846 
L 124.543424 352.373322 
L 127.084588 354.965637 
L 129.625753 357.253348 
L 132.166918 359.272245 
L 135.216315 361.384296 
L 138.265713 363.202155 
L 141.31511 364.7668 
L 144.872741 366.318962 
L 148.430371 367.621935 
L 152.496235 368.856934 
L 156.562098 369.868066 
L 161.136195 370.788229 
L 166.218524 371.594892 
L 172.317319 372.330996 
L 179.43258 372.952334 
L 188.07254 373.465677 
L 196.7125 373.801286 
L 196.7125 373.801286 
" style="fill:none;stroke:#7dc2ff;stroke-linecap:round;stroke-width:2.5;"/>
   </g>
   <g id="line2d_26">
    <path clip-path="url(#p8ec365b938)" d="M 70.1625 374.435 
L 75.244829 374.435 
L 76.261295 328.974439 
L 77.277761 293.971617 
L 78.294227 267.422737 
L 79.310693 247.692502 
L 80.327159 233.44706 
L 81.343624 223.599117 
L 82.36009 217.263012 
L 82.868323 215.181071 
L 83.376556 213.717944 
L 83.884789 212.804355 
L 84.393022 212.377878 
L 84.901255 212.382279 
L 85.409488 212.766917 
L 85.917721 213.48621 
L 86.425954 214.499145 
L 87.44242 217.262134 
L 88.458886 220.803457 
L 89.983584 227.140842 
L 92.016516 236.73038 
L 99.64001 273.918302 
L 102.181175 284.950095 
L 104.722339 294.992222 
L 107.263504 304.040331 
L 109.804669 312.138053 
L 112.345833 319.35268 
L 114.886998 325.76106 
L 117.428163 331.441603 
L 119.969327 336.46993 
L 122.510492 340.916671 
L 125.051657 344.846522 
L 127.592821 348.31801 
L 130.133986 351.383652 
L 132.675151 354.090326 
L 135.216315 356.479716 
L 137.75748 358.588807 
L 140.806878 360.795568 
L 143.856275 362.695165 
L 146.905673 364.330284 
L 149.95507 365.73771 
L 153.512701 367.13395 
L 157.070331 368.306058 
L 161.136195 369.417034 
L 165.710291 370.428067 
L 170.79262 371.314394 
L 176.383183 372.064674 
L 182.990211 372.722374 
L 190.613705 373.257931 
L 196.7125 373.563006 
L 196.7125 373.563006 
" style="fill:none;stroke:#0675b6;stroke-linecap:round;stroke-width:2.5;"/>
   </g>
   <g id="line2d_27">
    <path clip-path="url(#p8ec365b938)" d="M 70.1625 374.435 
L 75.244829 374.435 
L 76.769528 330.967689 
L 77.785994 307.196137 
L 78.80246 287.047836 
L 79.818926 270.111609 
L 80.835392 256.018643 
L 81.851857 244.4383 
L 82.868323 235.074338 
L 83.884789 227.661494 
L 84.901255 221.962394 
L 85.917721 217.76478 
L 86.934187 214.878988 
L 87.44242 213.874371 
L 87.950653 213.135684 
L 88.458886 212.6446 
L 88.967118 212.38382 
L 89.475351 212.337017 
L 89.983584 212.488786 
L 90.491817 212.824596 
L 91.00005 213.330745 
L 92.016516 214.803132 
L 93.032982 216.811301 
L 94.049448 219.2713 
L 95.574147 223.648211 
L 97.607078 230.441233 
L 100.148243 239.910668 
L 106.247038 264.033258 
L 110.312902 279.488217 
L 113.362299 290.245667 
L 116.411697 300.144319 
L 118.952861 307.702244 
L 121.494026 314.631215 
L 124.035191 320.947818 
L 126.576355 326.679369 
L 129.11752 331.859847 
L 131.658685 336.52693 
L 134.199849 340.719858 
L 136.741014 344.477922 
L 139.282179 347.839431 
L 141.823343 350.841022 
L 144.364508 353.517228 
L 146.905673 355.900242 
L 149.446837 358.01981 
L 152.496235 360.253799 
L 155.545633 362.190223 
L 158.59503 363.867001 
L 162.152661 365.539618 
L 165.710291 366.950796 
L 169.776155 368.294327 
L 173.842018 369.398644 
L 178.416114 370.406995 
L 183.498444 371.293621 
L 189.089006 372.04609 
L 195.696034 372.707169 
L 196.7125 372.791222 
L 196.7125 372.791222 
" style="fill:none;stroke:#002a61;stroke-linecap:round;stroke-width:2.5;"/>
   </g>
   <g id="patch_6">
    <path d="M 63.835 382.54 
L 63.835 204.23 
" style="fill:none;stroke:#262626;stroke-linecap:square;stroke-linejoin:miter;stroke-width:1.25;"/>
   </g>
   <g id="patch_7">
    <path d="M 63.835 382.54 
L 203.04 382.54 
" style="fill:none;stroke:#262626;stroke-linecap:square;stroke-linejoin:miter;stroke-width:1.25;"/>
   </g>
   <g id="legend_2">
    <g id="patch_8">
     <path d="M 132.19625 289.55625 
L 194.29 289.55625 
Q 196.79 289.55625 196.79 287.05625 
L 196.79 212.98 
Q 196.79 210.48 194.29 210.48 
L 132.19625 210.48 
Q 129.69625 210.48 129.69625 212.98 
L 129.69625 287.05625 
Q 129.69625 289.55625 132.19625 289.55625 
z
" style="fill:#ffffff;opacity:0.8;stroke:#ffffff;stroke-linejoin:miter;"/>
    </g>
    <g id="text_23">
     <!-- $\tau_s$ -->
     <g style="fill:#262626;" transform="translate(155.993125 226.497734)scale(0.145 -0.145)">
      <defs>
       <path d="M 50 53.078125 
L 48.296875 44.578125 
Q 44.734375 46.53125 40.765625 47.5 
Q 36.8125 48.484375 32.625 48.484375 
Q 25.53125 48.484375 21.453125 46.0625 
Q 17.390625 43.65625 17.390625 39.5 
Q 17.390625 34.671875 26.859375 32.078125 
Q 27.59375 31.890625 27.9375 31.78125 
L 30.8125 30.90625 
Q 39.796875 28.421875 42.796875 25.6875 
Q 45.796875 22.953125 45.796875 18.21875 
Q 45.796875 9.515625 38.890625 4.046875 
Q 31.984375 -1.421875 20.796875 -1.421875 
Q 16.453125 -1.421875 11.671875 -0.578125 
Q 6.890625 0.25 1.125 2 
L 2.875 11.28125 
Q 7.8125 8.734375 12.59375 7.421875 
Q 17.390625 6.109375 21.78125 6.109375 
Q 28.375 6.109375 32.5 8.9375 
Q 36.625 11.765625 36.625 16.109375 
Q 36.625 20.796875 25.78125 23.6875 
L 24.859375 23.921875 
L 21.78125 24.703125 
Q 14.9375 26.515625 11.765625 29.46875 
Q 8.59375 32.421875 8.59375 37.015625 
Q 8.59375 45.75 15.15625 50.875 
Q 21.734375 56 33.015625 56 
Q 37.453125 56 41.671875 55.265625 
Q 45.90625 54.546875 50 53.078125 
z
" id="DejaVuSans-Oblique-115"/>
      </defs>
      <use transform="translate(0 0.3125)" xlink:href="#DejaVuSans-Oblique-964"/>
      <use transform="translate(60.205078 -16.09375)scale(0.7)" xlink:href="#DejaVuSans-Oblique-115"/>
     </g>
    </g>
    <g id="line2d_28">
     <path d="M 134.69625 240.886328 
L 147.19625 240.886328 
" style="fill:none;stroke:#7dc2ff;stroke-linecap:round;stroke-width:2.5;"/>
    </g>
    <g id="line2d_29"/>
    <g id="text_24">
     <!-- 5ms -->
     <g style="fill:#262626;" transform="translate(157.19625 245.261328)scale(0.125 -0.125)">
      <defs>
       <path d="M 10.796875 72.90625 
L 49.515625 72.90625 
L 49.515625 64.59375 
L 19.828125 64.59375 
L 19.828125 46.734375 
Q 21.96875 47.46875 24.109375 47.828125 
Q 26.265625 48.1875 28.421875 48.1875 
Q 40.625 48.1875 47.75 41.5 
Q 54.890625 34.8125 54.890625 23.390625 
Q 54.890625 11.625 47.5625 5.09375 
Q 40.234375 -1.421875 26.90625 -1.421875 
Q 22.3125 -1.421875 17.546875 -0.640625 
Q 12.796875 0.140625 7.71875 1.703125 
L 7.71875 11.625 
Q 12.109375 9.234375 16.796875 8.0625 
Q 21.484375 6.890625 26.703125 6.890625 
Q 35.15625 6.890625 40.078125 11.328125 
Q 45.015625 15.765625 45.015625 23.390625 
Q 45.015625 31 40.078125 35.4375 
Q 35.15625 39.890625 26.703125 39.890625 
Q 22.75 39.890625 18.8125 39.015625 
Q 14.890625 38.140625 10.796875 36.28125 
z
" id="DejaVuSans-53"/>
      </defs>
      <use xlink:href="#DejaVuSans-53"/>
      <use x="63.623047" xlink:href="#DejaVuSans-109"/>
      <use x="161.035156" xlink:href="#DejaVuSans-115"/>
     </g>
    </g>
    <g id="line2d_30">
     <path d="M 134.69625 259.233984 
L 147.19625 259.233984 
" style="fill:none;stroke:#0675b6;stroke-linecap:round;stroke-width:2.5;"/>
    </g>
    <g id="line2d_31"/>
    <g id="text_25">
     <!-- 10ms -->
     <g style="fill:#262626;" transform="translate(157.19625 263.608984)scale(0.125 -0.125)">
      <use xlink:href="#DejaVuSans-49"/>
      <use x="63.623047" xlink:href="#DejaVuSans-48"/>
      <use x="127.246094" xlink:href="#DejaVuSans-109"/>
      <use x="224.658203" xlink:href="#DejaVuSans-115"/>
     </g>
    </g>
    <g id="line2d_32">
     <path d="M 134.69625 277.581641 
L 147.19625 277.581641 
" style="fill:none;stroke:#002a61;stroke-linecap:round;stroke-width:2.5;"/>
    </g>
    <g id="line2d_33"/>
    <g id="text_26">
     <!-- 20ms -->
     <g style="fill:#262626;" transform="translate(157.19625 281.956641)scale(0.125 -0.125)">
      <use xlink:href="#DejaVuSans-50"/>
      <use x="63.623047" xlink:href="#DejaVuSans-48"/>
      <use x="127.246094" xlink:href="#DejaVuSans-109"/>
      <use x="224.658203" xlink:href="#DejaVuSans-115"/>
     </g>
    </g>
   </g>
  </g>
 </g>
 <defs>
  <clipPath id="pad0f833f29">
   <rect height="178.31" width="139.205" x="63.835" y="12.96"/>
  </clipPath>
  <clipPath id="p8ec365b938">
   <rect height="178.31" width="139.205" x="63.835" y="204.23"/>
  </clipPath>
 </defs>
</svg>
