<?xml version="1.0" encoding="utf-8" standalone="no"?>
<!DOCTYPE svg PUBLIC "-//W3C//DTD SVG 1.1//EN"
  "http://www.w3.org/Graphics/SVG/1.1/DTD/svg11.dtd">
<!-- Created with matplotlib (https://matplotlib.org/) -->
<svg height="432pt" version="1.1" viewBox="0 0 226.8 432" width="226.8pt" xmlns="http://www.w3.org/2000/svg" xmlns:xlink="http://www.w3.org/1999/xlink">
 <metadata>
  <rdf:RDF xmlns:cc="http://creativecommons.org/ns#" xmlns:dc="http://purl.org/dc/elements/1.1/" xmlns:rdf="http://www.w3.org/1999/02/22-rdf-syntax-ns#">
   <cc:Work>
    <dc:type rdf:resource="http://purl.org/dc/dcmitype/StillImage"/>
    <dc:date>2021-05-27T19:36:59.679450</dc:date>
    <dc:format>image/svg+xml</dc:format>
    <dc:creator>
     <cc:Agent>
      <dc:title>Matplotlib v3.3.4, https://matplotlib.org/</dc:title>
     </cc:Agent>
    </dc:creator>
   </cc:Work>
  </rdf:RDF>
 </metadata>
 <defs>
  <style type="text/css">*{stroke-linecap:butt;stroke-linejoin:round;}</style>
 </defs>
 <g id="figure_1">
  <g id="patch_1">
   <path d="M 0 432 
L 226.8 432 
L 226.8 0 
L 0 0 
z
" style="fill:#ffffff;"/>
  </g>
  <g id="axes_1">
   <g id="patch_2">
    <path d="M 77.444375 191.27 
L 213.84 191.27 
L 213.84 12.96 
L 77.444375 12.96 
z
" style="fill:#ffffff;"/>
   </g>
   <g id="matplotlib.axis_1"/>
   <g id="matplotlib.axis_2">
    <g id="ytick_1">
     <g id="line2d_1">
      <defs>
       <path d="M 0 0 
L -6 0 
" id="m807e8c0869" style="stroke:#262626;stroke-width:1.25;"/>
      </defs>
      <g>
       <use style="fill:#262626;stroke:#262626;stroke-width:1.25;" x="77.444375" xlink:href="#m807e8c0869" y="27.037105"/>
      </g>
     </g>
     <g id="text_1">
      <!-- 0.10 -->
      <g style="fill:#262626;" transform="translate(43.452188 31.216246)scale(0.11 -0.11)">
       <defs>
        <path d="M 31.78125 66.40625 
Q 24.171875 66.40625 20.328125 58.90625 
Q 16.5 51.421875 16.5 36.375 
Q 16.5 21.390625 20.328125 13.890625 
Q 24.171875 6.390625 31.78125 6.390625 
Q 39.453125 6.390625 43.28125 13.890625 
Q 47.125 21.390625 47.125 36.375 
Q 47.125 51.421875 43.28125 58.90625 
Q 39.453125 66.40625 31.78125 66.40625 
z
M 31.78125 74.21875 
Q 44.046875 74.21875 50.515625 64.515625 
Q 56.984375 54.828125 56.984375 36.375 
Q 56.984375 17.96875 50.515625 8.265625 
Q 44.046875 -1.421875 31.78125 -1.421875 
Q 19.53125 -1.421875 13.0625 8.265625 
Q 6.59375 17.96875 6.59375 36.375 
Q 6.59375 54.828125 13.0625 64.515625 
Q 19.53125 74.21875 31.78125 74.21875 
z
" id="DejaVuSans-48"/>
        <path d="M 10.6875 12.40625 
L 21 12.40625 
L 21 0 
L 10.6875 0 
z
" id="DejaVuSans-46"/>
        <path d="M 12.40625 8.296875 
L 28.515625 8.296875 
L 28.515625 63.921875 
L 10.984375 60.40625 
L 10.984375 69.390625 
L 28.421875 72.90625 
L 38.28125 72.90625 
L 38.28125 8.296875 
L 54.390625 8.296875 
L 54.390625 0 
L 12.40625 0 
z
" id="DejaVuSans-49"/>
       </defs>
       <use xlink:href="#DejaVuSans-48"/>
       <use x="63.623047" xlink:href="#DejaVuSans-46"/>
       <use x="95.410156" xlink:href="#DejaVuSans-49"/>
       <use x="159.033203" xlink:href="#DejaVuSans-48"/>
      </g>
     </g>
    </g>
    <g id="ytick_2">
     <g id="line2d_2">
      <g>
       <use style="fill:#262626;stroke:#262626;stroke-width:1.25;" x="77.444375" xlink:href="#m807e8c0869" y="73.960789"/>
      </g>
     </g>
     <g id="text_2">
      <!-- 0.05 -->
      <g style="fill:#262626;" transform="translate(43.452188 78.13993)scale(0.11 -0.11)">
       <defs>
        <path d="M 10.796875 72.90625 
L 49.515625 72.90625 
L 49.515625 64.59375 
L 19.828125 64.59375 
L 19.828125 46.734375 
Q 21.96875 47.46875 24.109375 47.828125 
Q 26.265625 48.1875 28.421875 48.1875 
Q 40.625 48.1875 47.75 41.5 
Q 54.890625 34.8125 54.890625 23.390625 
Q 54.890625 11.625 47.5625 5.09375 
Q 40.234375 -1.421875 26.90625 -1.421875 
Q 22.3125 -1.421875 17.546875 -0.640625 
Q 12.796875 0.140625 7.71875 1.703125 
L 7.71875 11.625 
Q 12.109375 9.234375 16.796875 8.0625 
Q 21.484375 6.890625 26.703125 6.890625 
Q 35.15625 6.890625 40.078125 11.328125 
Q 45.015625 15.765625 45.015625 23.390625 
Q 45.015625 31 40.078125 35.4375 
Q 35.15625 39.890625 26.703125 39.890625 
Q 22.75 39.890625 18.8125 39.015625 
Q 14.890625 38.140625 10.796875 36.28125 
z
" id="DejaVuSans-53"/>
       </defs>
       <use xlink:href="#DejaVuSans-48"/>
       <use x="63.623047" xlink:href="#DejaVuSans-46"/>
       <use x="95.410156" xlink:href="#DejaVuSans-48"/>
       <use x="159.033203" xlink:href="#DejaVuSans-53"/>
      </g>
     </g>
    </g>
    <g id="ytick_3">
     <g id="line2d_3">
      <g>
       <use style="fill:#262626;stroke:#262626;stroke-width:1.25;" x="77.444375" xlink:href="#m807e8c0869" y="120.884474"/>
      </g>
     </g>
     <g id="text_3">
      <!-- 0.00 -->
      <g style="fill:#262626;" transform="translate(43.452188 125.063614)scale(0.11 -0.11)">
       <use xlink:href="#DejaVuSans-48"/>
       <use x="63.623047" xlink:href="#DejaVuSans-46"/>
       <use x="95.410156" xlink:href="#DejaVuSans-48"/>
       <use x="159.033203" xlink:href="#DejaVuSans-48"/>
      </g>
     </g>
    </g>
    <g id="ytick_4">
     <g id="line2d_4">
      <g>
       <use style="fill:#262626;stroke:#262626;stroke-width:1.25;" x="77.444375" xlink:href="#m807e8c0869" y="167.808158"/>
      </g>
     </g>
     <g id="text_4">
      <!-- −0.05 -->
      <g style="fill:#262626;" transform="translate(34.234531 171.987299)scale(0.11 -0.11)">
       <defs>
        <path d="M 10.59375 35.5 
L 73.1875 35.5 
L 73.1875 27.203125 
L 10.59375 27.203125 
z
" id="DejaVuSans-8722"/>
       </defs>
       <use xlink:href="#DejaVuSans-8722"/>
       <use x="83.789062" xlink:href="#DejaVuSans-48"/>
       <use x="147.412109" xlink:href="#DejaVuSans-46"/>
       <use x="179.199219" xlink:href="#DejaVuSans-48"/>
       <use x="242.822266" xlink:href="#DejaVuSans-53"/>
      </g>
     </g>
    </g>
    <g id="text_5">
     <!-- $\tilde{V}$(t) -->
     <g style="fill:#262626;" transform="translate(27.530938 114.205)rotate(-90)scale(0.13 -0.13)">
      <defs>
       <path d="M -25.328125 66.890625 
L -28.109375 69.578125 
Q -29.171875 70.5625 -29.984375 71.015625 
Q -30.796875 71.484375 -31.421875 71.484375 
Q -33.28125 71.484375 -34.15625 69.703125 
Q -35.03125 67.921875 -35.140625 63.921875 
L -41.234375 63.921875 
Q -41.140625 70.515625 -38.640625 74.09375 
Q -36.15625 77.6875 -31.71875 77.6875 
Q -29.859375 77.6875 -28.296875 77 
Q -26.734375 76.3125 -24.9375 74.703125 
L -22.140625 72.015625 
Q -21.078125 71.046875 -20.265625 70.578125 
Q -19.46875 70.125 -18.828125 70.125 
Q -16.96875 70.125 -16.09375 71.90625 
Q -15.21875 73.6875 -15.109375 77.6875 
L -9.015625 77.6875 
Q -9.109375 71.09375 -11.59375 67.5 
Q -14.09375 63.921875 -18.53125 63.921875 
Q -20.390625 63.921875 -21.953125 64.59375 
Q -23.515625 65.28125 -25.328125 66.890625 
z
" id="DejaVuSans-771"/>
       <path d="M 20.609375 0 
L 7.8125 72.90625 
L 17.484375 72.90625 
L 28.078125 10.203125 
L 63.484375 72.90625 
L 74.21875 72.90625 
L 32.078125 0 
z
" id="DejaVuSans-Oblique-86"/>
       <path d="M 31 75.875 
Q 24.46875 64.65625 21.28125 53.65625 
Q 18.109375 42.671875 18.109375 31.390625 
Q 18.109375 20.125 21.3125 9.0625 
Q 24.515625 -2 31 -13.1875 
L 23.1875 -13.1875 
Q 15.875 -1.703125 12.234375 9.375 
Q 8.59375 20.453125 8.59375 31.390625 
Q 8.59375 42.28125 12.203125 53.3125 
Q 15.828125 64.359375 23.1875 75.875 
z
" id="DejaVuSans-40"/>
       <path d="M 18.3125 70.21875 
L 18.3125 54.6875 
L 36.8125 54.6875 
L 36.8125 47.703125 
L 18.3125 47.703125 
L 18.3125 18.015625 
Q 18.3125 11.328125 20.140625 9.421875 
Q 21.96875 7.515625 27.59375 7.515625 
L 36.8125 7.515625 
L 36.8125 0 
L 27.59375 0 
Q 17.1875 0 13.234375 3.875 
Q 9.28125 7.765625 9.28125 18.015625 
L 9.28125 47.703125 
L 2.6875 47.703125 
L 2.6875 54.6875 
L 9.28125 54.6875 
L 9.28125 70.21875 
z
" id="DejaVuSans-116"/>
       <path d="M 8.015625 75.875 
L 15.828125 75.875 
Q 23.140625 64.359375 26.78125 53.3125 
Q 30.421875 42.28125 30.421875 31.390625 
Q 30.421875 20.453125 26.78125 9.375 
Q 23.140625 -1.703125 15.828125 -13.1875 
L 8.015625 -13.1875 
Q 14.5 -2 17.703125 9.0625 
Q 20.90625 20.125 20.90625 31.390625 
Q 20.90625 42.671875 17.703125 53.65625 
Q 14.5 64.65625 8.015625 75.875 
z
" id="DejaVuSans-41"/>
      </defs>
      <use transform="translate(68.336426 22.3125)" xlink:href="#DejaVuSans-771"/>
      <use transform="translate(0 0.828125)" xlink:href="#DejaVuSans-Oblique-86"/>
      <use transform="translate(68.408203 0.828125)" xlink:href="#DejaVuSans-40"/>
      <use transform="translate(107.421875 0.828125)" xlink:href="#DejaVuSans-116"/>
      <use transform="translate(146.630859 0.828125)" xlink:href="#DejaVuSans-41"/>
     </g>
    </g>
   </g>
   <g id="line2d_5">
    <path clip-path="url(#pc666c322f3)" d="M 83.644176 120.884474 
L 85.393062 120.884474 
L 87.141948 99.876911 
L 88.715946 83.327826 
L 90.289943 69.031343 
L 91.689052 58.200581 
L 93.088161 49.10222 
L 94.312381 42.522538 
L 95.536601 37.18657 
L 96.585933 33.563842 
L 97.635265 30.780589 
L 98.509708 29.074002 
L 99.209262 28.092404 
L 99.908817 27.437835 
L 100.608371 27.096951 
L 101.307925 27.056083 
L 102.00748 27.301294 
L 102.707034 27.818435 
L 103.406589 28.593194 
L 104.281032 29.901945 
L 105.330363 31.934211 
L 106.554584 34.880124 
L 107.953693 38.910822 
L 109.52769 44.157123 
L 111.451465 51.374105 
L 114.074794 62.185125 
L 123.518779 102.052254 
L 125.967219 110.962414 
L 128.065882 117.783418 
L 129.989657 123.304336 
L 131.738543 127.685354 
L 133.487429 131.446897 
L 135.061427 134.303576 
L 136.460536 136.429408 
L 137.859644 138.176891 
L 139.258753 139.56 
L 140.482974 140.484622 
L 141.707194 141.156261 
L 142.931414 141.589183 
L 144.155634 141.798679 
L 145.379855 141.800843 
L 146.778963 141.570862 
L 148.178072 141.117396 
L 149.75207 140.372258 
L 151.500956 139.295522 
L 153.599619 137.725033 
L 156.222948 135.452813 
L 160.245386 131.616476 
L 165.841822 126.311218 
L 168.989817 123.644395 
L 171.613146 121.696316 
L 174.061586 120.13804 
L 176.510027 118.846778 
L 178.783579 117.890267 
L 181.057131 117.162521 
L 183.505571 116.621876 
L 185.954012 116.313499 
L 188.577341 116.212179 
L 191.375558 116.326477 
L 194.698442 116.698825 
L 198.72088 117.389595 
L 205.716424 118.869179 
L 207.640199 119.279129 
L 207.640199 119.279129 
" style="fill:none;stroke:#79f5c5;stroke-linecap:round;stroke-width:2.5;"/>
   </g>
   <g id="line2d_6">
    <path clip-path="url(#pc666c322f3)" d="M 83.644176 120.884474 
L 85.393062 120.884474 
L 87.141948 89.79438 
L 88.541057 68.799285 
L 89.765277 53.726731 
L 90.814609 43.441533 
L 91.689052 36.784501 
L 92.563495 31.875711 
L 93.26305 29.193276 
L 93.787715 27.892692 
L 94.312381 27.18666 
L 94.662158 27.038073 
L 95.011936 27.140598 
L 95.361713 27.48801 
L 95.886379 28.453456 
L 96.411044 29.93002 
L 97.110599 32.647273 
L 97.985042 37.149276 
L 99.034374 43.98033 
L 100.258594 53.580215 
L 101.832591 67.818209 
L 104.805698 97.379984 
L 107.254138 120.884474 
L 109.003024 135.570394 
L 110.402133 145.487775 
L 111.626353 152.607545 
L 112.675685 157.465929 
L 113.550128 160.610488 
L 114.424571 162.929236 
L 115.124125 164.196328 
L 115.648791 164.810681 
L 116.173457 165.144187 
L 116.698123 165.204809 
L 117.222789 165.001839 
L 117.747455 164.545795 
L 118.447009 163.56433 
L 119.146563 162.184101 
L 120.021006 159.948659 
L 121.070338 156.610168 
L 122.294558 151.9726 
L 124.043444 144.360742 
L 130.339434 115.913577 
L 131.738543 110.919225 
L 132.962763 107.252563 
L 134.012095 104.682787 
L 135.061427 102.666507 
L 135.93587 101.415425 
L 136.810313 100.55217 
L 137.509867 100.135203 
L 138.209422 99.954002 
L 138.908976 99.999408 
L 139.608531 100.260326 
L 140.482974 100.869862 
L 141.357417 101.767696 
L 142.406748 103.181391 
L 143.630969 105.220131 
L 145.204966 108.306258 
L 147.653406 113.677888 
L 150.97629 120.884474 
L 152.725176 124.161345 
L 154.124285 126.374212 
L 155.348505 127.962848 
L 156.572725 129.201983 
L 157.622057 129.977544 
L 158.671389 130.488774 
L 159.72072 130.742205 
L 160.770052 130.74988 
L 161.819384 130.528695 
L 163.043604 130.009624 
L 164.267824 129.246818 
L 165.841822 127.97829 
L 167.765596 126.122737 
L 174.236475 119.626441 
L 175.985361 118.291305 
L 177.559358 117.356474 
L 178.958467 116.756695 
L 180.357576 116.379398 
L 181.756685 116.219534 
L 183.330682 116.282604 
L 184.90468 116.574058 
L 186.653566 117.119013 
L 188.927118 118.077894 
L 197.671548 122.052663 
L 199.770212 122.631631 
L 201.868875 122.977759 
L 203.967538 123.091529 
L 206.24109 122.977401 
L 207.640199 122.803993 
L 207.640199 122.803993 
" style="fill:none;stroke:#03a075;stroke-linecap:round;stroke-width:2.5;"/>
   </g>
   <g id="line2d_7">
    <path clip-path="url(#pc666c322f3)" d="M 83.644176 120.884474 
L 85.393062 120.884474 
L 86.792171 78.955802 
L 87.841503 54.015178 
L 88.541057 41.553328 
L 89.240612 32.840578 
L 89.765277 28.876006 
L 90.115055 27.467957 
L 90.289943 27.131919 
L 90.464832 27.038654 
L 90.63972 27.185505 
L 90.989498 28.186036 
L 91.339275 30.100929 
L 91.863941 34.595708 
L 92.563495 43.34173 
L 93.437938 57.981654 
L 94.662158 83.298917 
L 97.810153 151.303853 
L 98.859485 168.047706 
L 99.559039 176.300878 
L 100.258594 181.956318 
L 100.78326 184.426366 
L 101.133037 185.225077 
L 101.307925 185.372402 
L 101.482814 185.353733 
L 101.657703 185.1711 
L 102.00748 184.324004 
L 102.357257 182.855002 
L 102.881923 179.551663 
L 103.581477 173.289972 
L 104.45592 162.981935 
L 105.680141 145.38036 
L 108.653247 101.078771 
L 109.702579 89.297655 
L 110.402133 83.411094 
L 111.101688 79.295482 
L 111.626353 77.422751 
L 111.976131 76.757636 
L 112.325908 76.554848 
L 112.675685 76.805475 
L 113.025462 77.49623 
L 113.550128 79.318413 
L 114.074794 82.015967 
L 114.774348 86.81334 
L 115.648791 94.372019 
L 117.0479 108.707186 
L 119.321452 132.148032 
L 120.370784 140.78346 
L 121.245227 146.198635 
L 121.944781 149.183554 
L 122.469447 150.590899 
L 122.819224 151.128055 
L 123.169001 151.346414 
L 123.518779 151.251326 
L 123.868556 150.851186 
L 124.393222 149.704433 
L 124.917888 147.946613 
L 125.617442 144.75986 
L 126.491885 139.669585 
L 127.890994 129.898808 
L 130.339434 112.596413 
L 131.388766 106.781758 
L 132.263209 103.183302 
L 132.962763 101.239225 
L 133.487429 100.35461 
L 133.837206 100.040431 
L 134.186984 99.944641 
L 134.536761 100.063029 
L 134.886538 100.389319 
L 135.411204 101.250057 
L 136.110758 103.033627 
L 136.985201 106.132691 
L 138.034533 110.793432 
L 141.882082 129.035432 
L 142.756525 131.92051 
L 143.45608 133.620701 
L 144.155634 134.733076 
L 144.6803 135.17053 
L 145.204966 135.26951 
L 145.729632 135.039746 
L 146.254298 134.498058 
L 146.953852 133.331662 
L 147.828295 131.261878 
L 148.877627 128.106537 
L 153.074953 114.630978 
L 153.949396 112.815447 
L 154.648951 111.795959 
L 155.348505 111.186853 
L 155.873171 111.003027 
L 156.397837 111.04912 
L 156.922503 111.315958 
L 157.622057 111.990594 
L 158.321612 112.988449 
L 159.196055 114.605755 
L 160.595163 117.749162 
L 163.218493 123.749932 
L 164.267824 125.59762 
L 165.142267 126.72532 
L 165.841822 127.321399 
L 166.541376 127.632729 
L 167.240931 127.660234 
L 167.940485 127.416119 
L 168.640039 126.922853 
L 169.514482 126.004385 
L 170.563814 124.562467 
L 172.662477 121.167336 
L 174.236475 118.796968 
L 175.285806 117.555247 
L 176.16025 116.808388 
L 177.034693 116.357129 
L 177.734247 116.216809 
L 178.433801 116.26929 
L 179.308244 116.588409 
L 180.182687 117.154656 
L 181.406908 118.266618 
L 183.505571 120.592139 
L 185.254457 122.398965 
L 186.478677 123.346946 
L 187.528009 123.867175 
L 188.402452 124.072124 
L 189.276895 124.067981 
L 190.151338 123.867179 
L 191.20067 123.400921 
L 192.599779 122.495934 
L 196.971994 119.398058 
L 198.196214 118.904966 
L 199.245546 118.701189 
L 200.294877 118.704415 
L 201.519098 118.949325 
L 202.918206 119.483502 
L 205.191758 120.65333 
L 207.46531 121.743578 
L 207.640199 121.810964 
L 207.640199 121.810964 
" style="fill:none;stroke:#004e2b;stroke-linecap:round;stroke-width:2.5;"/>
   </g>
   <g id="patch_3">
    <path d="M 77.444375 191.27 
L 77.444375 12.96 
" style="fill:none;stroke:#262626;stroke-linecap:square;stroke-linejoin:miter;stroke-width:1.25;"/>
   </g>
   <g id="legend_1">
    <g id="patch_4">
     <path d="M 153.675937 98.28625 
L 205.09 98.28625 
Q 207.59 98.28625 207.59 95.78625 
L 207.59 21.71 
Q 207.59 19.21 205.09 19.21 
L 153.675937 19.21 
Q 151.175937 19.21 151.175937 21.71 
L 151.175937 95.78625 
Q 151.175937 98.28625 153.675937 98.28625 
z
" style="fill:#ffffff;opacity:0.8;stroke:#ffffff;stroke-linejoin:miter;"/>
    </g>
    <g id="text_6">
     <!-- $\omega$ -->
     <g style="fill:#262626;" transform="translate(173.292969 35.227734)scale(0.145 -0.145)">
      <defs>
       <path d="M 21.390625 -1.421875 
Q 1.125 -1.421875 6.78125 27.59375 
Q 8.984375 39.0625 19.625 54.6875 
L 29.296875 54.6875 
Q 19.234375 39.0625 17 27.34375 
Q 12.796875 6.203125 23.734375 6.203125 
Q 33.84375 6.203125 38.71875 32.46875 
L 47.015625 32.46875 
Q 41.703125 6.0625 51.8125 6.203125 
Q 62.703125 6.296875 66.796875 27.34375 
Q 69.046875 39.0625 65.140625 54.6875 
L 74.8125 54.6875 
Q 79.296875 39.0625 77.09375 27.59375 
Q 71.53125 -1.46875 51.21875 -1.421875 
Q 37.9375 -1.375 39.109375 13.1875 
Q 34.28125 -1.421875 21.390625 -1.421875 
z
" id="DejaVuSans-Oblique-969"/>
      </defs>
      <use transform="translate(0 0.3125)" xlink:href="#DejaVuSans-Oblique-969"/>
     </g>
    </g>
    <g id="line2d_8">
     <path d="M 156.175937 49.616328 
L 168.675937 49.616328 
" style="fill:none;stroke:#79f5c5;stroke-linecap:round;stroke-width:2.5;"/>
    </g>
    <g id="line2d_9"/>
    <g id="text_7">
     <!-- 2Hz -->
     <g style="fill:#262626;" transform="translate(178.675937 53.991328)scale(0.125 -0.125)">
      <defs>
       <path d="M 19.1875 8.296875 
L 53.609375 8.296875 
L 53.609375 0 
L 7.328125 0 
L 7.328125 8.296875 
Q 12.9375 14.109375 22.625 23.890625 
Q 32.328125 33.6875 34.8125 36.53125 
Q 39.546875 41.84375 41.421875 45.53125 
Q 43.3125 49.21875 43.3125 52.78125 
Q 43.3125 58.59375 39.234375 62.25 
Q 35.15625 65.921875 28.609375 65.921875 
Q 23.96875 65.921875 18.8125 64.3125 
Q 13.671875 62.703125 7.8125 59.421875 
L 7.8125 69.390625 
Q 13.765625 71.78125 18.9375 73 
Q 24.125 74.21875 28.421875 74.21875 
Q 39.75 74.21875 46.484375 68.546875 
Q 53.21875 62.890625 53.21875 53.421875 
Q 53.21875 48.921875 51.53125 44.890625 
Q 49.859375 40.875 45.40625 35.40625 
Q 44.1875 33.984375 37.640625 27.21875 
Q 31.109375 20.453125 19.1875 8.296875 
z
" id="DejaVuSans-50"/>
       <path d="M 9.8125 72.90625 
L 19.671875 72.90625 
L 19.671875 43.015625 
L 55.515625 43.015625 
L 55.515625 72.90625 
L 65.375 72.90625 
L 65.375 0 
L 55.515625 0 
L 55.515625 34.71875 
L 19.671875 34.71875 
L 19.671875 0 
L 9.8125 0 
z
" id="DejaVuSans-72"/>
       <path d="M 5.515625 54.6875 
L 48.1875 54.6875 
L 48.1875 46.484375 
L 14.40625 7.171875 
L 48.1875 7.171875 
L 48.1875 0 
L 4.296875 0 
L 4.296875 8.203125 
L 38.09375 47.515625 
L 5.515625 47.515625 
z
" id="DejaVuSans-122"/>
      </defs>
      <use xlink:href="#DejaVuSans-50"/>
      <use x="63.623047" xlink:href="#DejaVuSans-72"/>
      <use x="138.818359" xlink:href="#DejaVuSans-122"/>
     </g>
    </g>
    <g id="line2d_10">
     <path d="M 156.175937 67.963984 
L 168.675937 67.963984 
" style="fill:none;stroke:#03a075;stroke-linecap:round;stroke-width:2.5;"/>
    </g>
    <g id="line2d_11"/>
    <g id="text_8">
     <!-- 4Hz -->
     <g style="fill:#262626;" transform="translate(178.675937 72.338984)scale(0.125 -0.125)">
      <defs>
       <path d="M 37.796875 64.3125 
L 12.890625 25.390625 
L 37.796875 25.390625 
z
M 35.203125 72.90625 
L 47.609375 72.90625 
L 47.609375 25.390625 
L 58.015625 25.390625 
L 58.015625 17.1875 
L 47.609375 17.1875 
L 47.609375 0 
L 37.796875 0 
L 37.796875 17.1875 
L 4.890625 17.1875 
L 4.890625 26.703125 
z
" id="DejaVuSans-52"/>
      </defs>
      <use xlink:href="#DejaVuSans-52"/>
      <use x="63.623047" xlink:href="#DejaVuSans-72"/>
      <use x="138.818359" xlink:href="#DejaVuSans-122"/>
     </g>
    </g>
    <g id="line2d_12">
     <path d="M 156.175937 86.311641 
L 168.675937 86.311641 
" style="fill:none;stroke:#004e2b;stroke-linecap:round;stroke-width:2.5;"/>
    </g>
    <g id="line2d_13"/>
    <g id="text_9">
     <!-- 8Hz -->
     <g style="fill:#262626;" transform="translate(178.675937 90.686641)scale(0.125 -0.125)">
      <defs>
       <path d="M 31.78125 34.625 
Q 24.75 34.625 20.71875 30.859375 
Q 16.703125 27.09375 16.703125 20.515625 
Q 16.703125 13.921875 20.71875 10.15625 
Q 24.75 6.390625 31.78125 6.390625 
Q 38.8125 6.390625 42.859375 10.171875 
Q 46.921875 13.96875 46.921875 20.515625 
Q 46.921875 27.09375 42.890625 30.859375 
Q 38.875 34.625 31.78125 34.625 
z
M 21.921875 38.8125 
Q 15.578125 40.375 12.03125 44.71875 
Q 8.5 49.078125 8.5 55.328125 
Q 8.5 64.0625 14.71875 69.140625 
Q 20.953125 74.21875 31.78125 74.21875 
Q 42.671875 74.21875 48.875 69.140625 
Q 55.078125 64.0625 55.078125 55.328125 
Q 55.078125 49.078125 51.53125 44.71875 
Q 48 40.375 41.703125 38.8125 
Q 48.828125 37.15625 52.796875 32.3125 
Q 56.78125 27.484375 56.78125 20.515625 
Q 56.78125 9.90625 50.3125 4.234375 
Q 43.84375 -1.421875 31.78125 -1.421875 
Q 19.734375 -1.421875 13.25 4.234375 
Q 6.78125 9.90625 6.78125 20.515625 
Q 6.78125 27.484375 10.78125 32.3125 
Q 14.796875 37.15625 21.921875 38.8125 
z
M 18.3125 54.390625 
Q 18.3125 48.734375 21.84375 45.5625 
Q 25.390625 42.390625 31.78125 42.390625 
Q 38.140625 42.390625 41.71875 45.5625 
Q 45.3125 48.734375 45.3125 54.390625 
Q 45.3125 60.0625 41.71875 63.234375 
Q 38.140625 66.40625 31.78125 66.40625 
Q 25.390625 66.40625 21.84375 63.234375 
Q 18.3125 60.0625 18.3125 54.390625 
z
" id="DejaVuSans-56"/>
      </defs>
      <use xlink:href="#DejaVuSans-56"/>
      <use x="63.623047" xlink:href="#DejaVuSans-72"/>
      <use x="138.818359" xlink:href="#DejaVuSans-122"/>
     </g>
    </g>
   </g>
  </g>
  <g id="axes_2">
   <g id="patch_5">
    <path d="M 77.444375 382.54 
L 213.84 382.54 
L 213.84 204.23 
L 77.444375 204.23 
z
" style="fill:#ffffff;"/>
   </g>
   <g id="matplotlib.axis_3">
    <g id="xtick_1">
     <g id="line2d_14">
      <defs>
       <path d="M 0 0 
L 0 6 
" id="m4bc99c07f1" style="stroke:#262626;stroke-width:1.25;"/>
      </defs>
      <g>
       <use style="fill:#262626;stroke:#262626;stroke-width:1.25;" x="85.393062" xlink:href="#m4bc99c07f1" y="382.54"/>
      </g>
     </g>
     <g id="text_10">
      <!-- 0 -->
      <g style="fill:#262626;" transform="translate(81.893687 400.398281)scale(0.11 -0.11)">
       <use xlink:href="#DejaVuSans-48"/>
      </g>
     </g>
    </g>
    <g id="xtick_2">
     <g id="line2d_15">
      <g>
       <use style="fill:#262626;stroke:#262626;stroke-width:1.25;" x="129.115214" xlink:href="#m4bc99c07f1" y="382.54"/>
      </g>
     </g>
     <g id="text_11">
      <!-- 250 -->
      <g style="fill:#262626;" transform="translate(118.617089 400.398281)scale(0.11 -0.11)">
       <use xlink:href="#DejaVuSans-50"/>
       <use x="63.623047" xlink:href="#DejaVuSans-53"/>
       <use x="127.246094" xlink:href="#DejaVuSans-48"/>
      </g>
     </g>
    </g>
    <g id="xtick_3">
     <g id="line2d_16">
      <g>
       <use style="fill:#262626;stroke:#262626;stroke-width:1.25;" x="172.837366" xlink:href="#m4bc99c07f1" y="382.54"/>
      </g>
     </g>
     <g id="text_12">
      <!-- 500 -->
      <g style="fill:#262626;" transform="translate(162.339241 400.398281)scale(0.11 -0.11)">
       <use xlink:href="#DejaVuSans-53"/>
       <use x="63.623047" xlink:href="#DejaVuSans-48"/>
       <use x="127.246094" xlink:href="#DejaVuSans-48"/>
      </g>
     </g>
    </g>
    <g id="text_13">
     <!-- Time [ms] -->
     <g style="fill:#262626;" transform="translate(112.883203 416.563906)scale(0.13 -0.13)">
      <defs>
       <path d="M -0.296875 72.90625 
L 61.375 72.90625 
L 61.375 64.59375 
L 35.5 64.59375 
L 35.5 0 
L 25.59375 0 
L 25.59375 64.59375 
L -0.296875 64.59375 
z
" id="DejaVuSans-84"/>
       <path d="M 9.421875 54.6875 
L 18.40625 54.6875 
L 18.40625 0 
L 9.421875 0 
z
M 9.421875 75.984375 
L 18.40625 75.984375 
L 18.40625 64.59375 
L 9.421875 64.59375 
z
" id="DejaVuSans-105"/>
       <path d="M 52 44.1875 
Q 55.375 50.25 60.0625 53.125 
Q 64.75 56 71.09375 56 
Q 79.640625 56 84.28125 50.015625 
Q 88.921875 44.046875 88.921875 33.015625 
L 88.921875 0 
L 79.890625 0 
L 79.890625 32.71875 
Q 79.890625 40.578125 77.09375 44.375 
Q 74.3125 48.1875 68.609375 48.1875 
Q 61.625 48.1875 57.5625 43.546875 
Q 53.515625 38.921875 53.515625 30.90625 
L 53.515625 0 
L 44.484375 0 
L 44.484375 32.71875 
Q 44.484375 40.625 41.703125 44.40625 
Q 38.921875 48.1875 33.109375 48.1875 
Q 26.21875 48.1875 22.15625 43.53125 
Q 18.109375 38.875 18.109375 30.90625 
L 18.109375 0 
L 9.078125 0 
L 9.078125 54.6875 
L 18.109375 54.6875 
L 18.109375 46.1875 
Q 21.1875 51.21875 25.484375 53.609375 
Q 29.78125 56 35.6875 56 
Q 41.65625 56 45.828125 52.96875 
Q 50 49.953125 52 44.1875 
z
" id="DejaVuSans-109"/>
       <path d="M 56.203125 29.59375 
L 56.203125 25.203125 
L 14.890625 25.203125 
Q 15.484375 15.921875 20.484375 11.0625 
Q 25.484375 6.203125 34.421875 6.203125 
Q 39.59375 6.203125 44.453125 7.46875 
Q 49.3125 8.734375 54.109375 11.28125 
L 54.109375 2.78125 
Q 49.265625 0.734375 44.1875 -0.34375 
Q 39.109375 -1.421875 33.890625 -1.421875 
Q 20.796875 -1.421875 13.15625 6.1875 
Q 5.515625 13.8125 5.515625 26.8125 
Q 5.515625 40.234375 12.765625 48.109375 
Q 20.015625 56 32.328125 56 
Q 43.359375 56 49.78125 48.890625 
Q 56.203125 41.796875 56.203125 29.59375 
z
M 47.21875 32.234375 
Q 47.125 39.59375 43.09375 43.984375 
Q 39.0625 48.390625 32.421875 48.390625 
Q 24.90625 48.390625 20.390625 44.140625 
Q 15.875 39.890625 15.1875 32.171875 
z
" id="DejaVuSans-101"/>
       <path id="DejaVuSans-32"/>
       <path d="M 8.59375 75.984375 
L 29.296875 75.984375 
L 29.296875 69 
L 17.578125 69 
L 17.578125 -6.203125 
L 29.296875 -6.203125 
L 29.296875 -13.1875 
L 8.59375 -13.1875 
z
" id="DejaVuSans-91"/>
       <path d="M 44.28125 53.078125 
L 44.28125 44.578125 
Q 40.484375 46.53125 36.375 47.5 
Q 32.28125 48.484375 27.875 48.484375 
Q 21.1875 48.484375 17.84375 46.4375 
Q 14.5 44.390625 14.5 40.28125 
Q 14.5 37.15625 16.890625 35.375 
Q 19.28125 33.59375 26.515625 31.984375 
L 29.59375 31.296875 
Q 39.15625 29.25 43.1875 25.515625 
Q 47.21875 21.78125 47.21875 15.09375 
Q 47.21875 7.46875 41.1875 3.015625 
Q 35.15625 -1.421875 24.609375 -1.421875 
Q 20.21875 -1.421875 15.453125 -0.5625 
Q 10.6875 0.296875 5.421875 2 
L 5.421875 11.28125 
Q 10.40625 8.6875 15.234375 7.390625 
Q 20.0625 6.109375 24.8125 6.109375 
Q 31.15625 6.109375 34.5625 8.28125 
Q 37.984375 10.453125 37.984375 14.40625 
Q 37.984375 18.0625 35.515625 20.015625 
Q 33.0625 21.96875 24.703125 23.78125 
L 21.578125 24.515625 
Q 13.234375 26.265625 9.515625 29.90625 
Q 5.8125 33.546875 5.8125 39.890625 
Q 5.8125 47.609375 11.28125 51.796875 
Q 16.75 56 26.8125 56 
Q 31.78125 56 36.171875 55.265625 
Q 40.578125 54.546875 44.28125 53.078125 
z
" id="DejaVuSans-115"/>
       <path d="M 30.421875 75.984375 
L 30.421875 -13.1875 
L 9.71875 -13.1875 
L 9.71875 -6.203125 
L 21.390625 -6.203125 
L 21.390625 69 
L 9.71875 69 
L 9.71875 75.984375 
z
" id="DejaVuSans-93"/>
      </defs>
      <use xlink:href="#DejaVuSans-84"/>
      <use x="57.958984" xlink:href="#DejaVuSans-105"/>
      <use x="85.742188" xlink:href="#DejaVuSans-109"/>
      <use x="183.154297" xlink:href="#DejaVuSans-101"/>
      <use x="244.677734" xlink:href="#DejaVuSans-32"/>
      <use x="276.464844" xlink:href="#DejaVuSans-91"/>
      <use x="315.478516" xlink:href="#DejaVuSans-109"/>
      <use x="412.890625" xlink:href="#DejaVuSans-115"/>
      <use x="464.990234" xlink:href="#DejaVuSans-93"/>
     </g>
    </g>
   </g>
   <g id="matplotlib.axis_4">
    <g id="ytick_5">
     <g id="line2d_17">
      <g>
       <use style="fill:#262626;stroke:#262626;stroke-width:1.25;" x="77.444375" xlink:href="#m807e8c0869" y="218.307105"/>
      </g>
     </g>
     <g id="text_14">
      <!-- 0.10 -->
      <g style="fill:#262626;" transform="translate(43.452188 222.486246)scale(0.11 -0.11)">
       <use xlink:href="#DejaVuSans-48"/>
       <use x="63.623047" xlink:href="#DejaVuSans-46"/>
       <use x="95.410156" xlink:href="#DejaVuSans-49"/>
       <use x="159.033203" xlink:href="#DejaVuSans-48"/>
      </g>
     </g>
    </g>
    <g id="ytick_6">
     <g id="line2d_18">
      <g>
       <use style="fill:#262626;stroke:#262626;stroke-width:1.25;" x="77.444375" xlink:href="#m807e8c0869" y="265.230789"/>
      </g>
     </g>
     <g id="text_15">
      <!-- 0.05 -->
      <g style="fill:#262626;" transform="translate(43.452188 269.40993)scale(0.11 -0.11)">
       <use xlink:href="#DejaVuSans-48"/>
       <use x="63.623047" xlink:href="#DejaVuSans-46"/>
       <use x="95.410156" xlink:href="#DejaVuSans-48"/>
       <use x="159.033203" xlink:href="#DejaVuSans-53"/>
      </g>
     </g>
    </g>
    <g id="ytick_7">
     <g id="line2d_19">
      <g>
       <use style="fill:#262626;stroke:#262626;stroke-width:1.25;" x="77.444375" xlink:href="#m807e8c0869" y="312.154474"/>
      </g>
     </g>
     <g id="text_16">
      <!-- 0.00 -->
      <g style="fill:#262626;" transform="translate(43.452188 316.333614)scale(0.11 -0.11)">
       <use xlink:href="#DejaVuSans-48"/>
       <use x="63.623047" xlink:href="#DejaVuSans-46"/>
       <use x="95.410156" xlink:href="#DejaVuSans-48"/>
       <use x="159.033203" xlink:href="#DejaVuSans-48"/>
      </g>
     </g>
    </g>
    <g id="ytick_8">
     <g id="line2d_20">
      <g>
       <use style="fill:#262626;stroke:#262626;stroke-width:1.25;" x="77.444375" xlink:href="#m807e8c0869" y="359.078158"/>
      </g>
     </g>
     <g id="text_17">
      <!-- −0.05 -->
      <g style="fill:#262626;" transform="translate(34.234531 363.257299)scale(0.11 -0.11)">
       <use xlink:href="#DejaVuSans-8722"/>
       <use x="83.789062" xlink:href="#DejaVuSans-48"/>
       <use x="147.412109" xlink:href="#DejaVuSans-46"/>
       <use x="179.199219" xlink:href="#DejaVuSans-48"/>
       <use x="242.822266" xlink:href="#DejaVuSans-53"/>
      </g>
     </g>
    </g>
    <g id="text_18">
     <!-- $\tilde{V}$(t) -->
     <g style="fill:#262626;" transform="translate(27.530938 305.475)rotate(-90)scale(0.13 -0.13)">
      <use transform="translate(68.336426 22.3125)" xlink:href="#DejaVuSans-771"/>
      <use transform="translate(0 0.828125)" xlink:href="#DejaVuSans-Oblique-86"/>
      <use transform="translate(68.408203 0.828125)" xlink:href="#DejaVuSans-40"/>
      <use transform="translate(107.421875 0.828125)" xlink:href="#DejaVuSans-116"/>
      <use transform="translate(146.630859 0.828125)" xlink:href="#DejaVuSans-41"/>
     </g>
    </g>
   </g>
   <g id="line2d_21">
    <path clip-path="url(#p1ddaf5e2b5)" d="M 83.644176 312.154474 
L 85.393062 312.154474 
L 86.617282 271.736987 
L 87.491726 248.873343 
L 88.19128 234.951808 
L 88.890834 225.207832 
L 89.4155 220.690856 
L 89.765277 218.993662 
L 90.115055 218.321651 
L 90.289943 218.360045 
L 90.464832 218.64154 
L 90.814609 219.911143 
L 91.164386 222.080158 
L 91.689052 226.892333 
L 92.388607 235.867859 
L 93.26305 250.360212 
L 94.662158 278.130466 
L 96.93571 323.532357 
L 97.985042 340.290938 
L 98.859485 350.940543 
L 99.559039 357.004412 
L 100.083705 360.062155 
L 100.608371 361.844782 
L 100.958148 362.340194 
L 101.133037 362.385729 
L 101.307925 362.299763 
L 101.657703 361.744918 
L 102.00748 360.701538 
L 102.532146 358.286836 
L 103.2317 353.664761 
L 104.106143 346.076934 
L 105.505252 331.340584 
L 107.953693 305.239979 
L 109.003024 296.446215 
L 109.877467 290.922439 
L 110.577022 287.827551 
L 111.101688 286.305212 
L 111.626353 285.463454 
L 111.976131 285.27092 
L 112.325908 285.36257 
L 112.675685 285.726317 
L 113.200351 286.750018 
L 113.725017 288.295845 
L 114.424571 291.054414 
L 115.473903 296.329133 
L 117.397677 307.629518 
L 118.971675 316.289972 
L 120.021006 320.900348 
L 120.89545 323.761522 
L 121.595004 325.337064 
L 122.11967 326.090781 
L 122.644336 326.481475 
L 123.169001 326.52134 
L 123.693667 326.229893 
L 124.218333 325.633104 
L 124.917888 324.41742 
L 125.792331 322.346276 
L 127.016551 318.75789 
L 129.989657 309.712125 
L 131.038989 307.297165 
L 131.913432 305.817293 
L 132.612986 305.017459 
L 133.312541 304.566366 
L 133.837206 304.452207 
L 134.361872 304.521071 
L 135.061427 304.875975 
L 135.760981 305.496535 
L 136.635424 306.576101 
L 137.859644 308.473728 
L 141.007639 313.582152 
L 142.056971 314.845963 
L 142.931414 315.610217 
L 143.805857 316.086976 
L 144.6803 316.273968 
L 145.554743 316.187149 
L 146.429186 315.857969 
L 147.478518 315.20494 
L 148.877627 314.046384 
L 152.025622 311.326997 
L 153.249842 310.575439 
L 154.299174 310.157598 
L 155.348505 309.963541 
L 156.397837 309.985118 
L 157.622057 310.246942 
L 159.196055 310.855451 
L 164.092936 312.975759 
L 165.492044 313.260536 
L 166.891153 313.333778 
L 168.465151 313.189397 
L 170.563814 312.741206 
L 174.936029 311.728089 
L 176.859804 311.538197 
L 178.958467 311.567845 
L 181.581796 311.85234 
L 186.478677 312.427445 
L 189.102006 312.488611 
L 192.42489 312.322575 
L 198.545991 311.980303 
L 202.568429 312.035183 
L 207.640199 312.217771 
L 207.640199 312.217771 
" style="fill:none;stroke:#79f5c5;stroke-linecap:round;stroke-width:2.5;"/>
   </g>
   <g id="line2d_22">
    <path clip-path="url(#p1ddaf5e2b5)" d="M 83.644176 312.154474 
L 85.393062 312.154474 
L 86.442394 273.190049 
L 87.316837 248.242435 
L 88.016391 233.698755 
L 88.715946 224.042633 
L 89.240612 219.922644 
L 89.590389 218.594237 
L 89.765277 218.337068 
L 89.940166 218.341758 
L 90.115055 218.600553 
L 90.464832 219.847194 
L 90.814609 222.006432 
L 91.339275 226.788479 
L 92.038829 235.612968 
L 92.913272 249.607347 
L 94.662158 282.36695 
L 96.411044 313.556394 
L 97.460376 328.517795 
L 98.334819 337.999492 
L 99.034374 343.455027 
L 99.559039 346.290232 
L 100.083705 348.074648 
L 100.433482 348.703484 
L 100.78326 348.905612 
L 101.133037 348.703725 
L 101.482814 348.123504 
L 102.00748 346.606126 
L 102.707034 343.538543 
L 103.581477 338.399626 
L 104.980586 328.416572 
L 107.254138 312.154474 
L 108.30347 306.179086 
L 109.177913 302.353245 
L 109.877467 300.1229 
L 110.577022 298.642085 
L 111.101688 298.010265 
L 111.626353 297.767109 
L 111.976131 297.807515 
L 112.500796 298.147477 
L 113.025462 298.78922 
L 113.725017 300.042807 
L 114.59946 302.101895 
L 116.173457 306.558105 
L 118.097232 311.936233 
L 119.146563 314.320886 
L 120.021006 315.862891 
L 120.89545 316.954569 
L 121.595004 317.498184 
L 122.294558 317.759446 
L 122.994113 317.759483 
L 123.693667 317.527833 
L 124.56811 316.967377 
L 125.617442 316.001567 
L 127.541217 313.843201 
L 129.290103 311.987401 
L 130.514323 310.982792 
L 131.563655 310.384066 
L 132.612986 310.043144 
L 133.662318 309.94821 
L 134.71165 310.067278 
L 136.110758 310.478288 
L 138.38431 311.453938 
L 140.832751 312.431576 
L 142.406748 312.83209 
L 143.980746 313.007914 
L 145.729632 312.964699 
L 148.003184 312.658313 
L 152.900065 311.923971 
L 155.348505 311.816115 
L 158.321612 311.91806 
L 166.01671 312.28629 
L 171.263369 312.194189 
L 178.60869 312.106271 
L 207.115533 312.156213 
L 207.640199 312.156666 
L 207.640199 312.156666 
" style="fill:none;stroke:#03a075;stroke-linecap:round;stroke-width:2.5;"/>
   </g>
   <g id="line2d_23">
    <path clip-path="url(#p1ddaf5e2b5)" d="M 83.644176 312.154474 
L 85.393062 312.154474 
L 86.267505 275.6319 
L 87.141948 248.136955 
L 87.841503 232.781603 
L 88.366169 225.020265 
L 88.890834 220.294554 
L 89.240612 218.720761 
L 89.4155 218.37824 
L 89.590389 218.318114 
L 89.765277 218.529484 
L 90.115055 219.721396 
L 90.464832 221.860571 
L 90.989498 226.632928 
L 91.689052 235.393166 
L 92.738384 252.068519 
L 96.236156 310.974148 
L 97.285488 323.524943 
L 98.159931 331.137633 
L 98.859485 335.328482 
L 99.384151 337.403326 
L 99.908817 338.61823 
L 100.258594 338.983052 
L 100.608371 339.018285 
L 100.958148 338.748875 
L 101.307925 338.20127 
L 101.832591 336.918701 
L 102.532146 334.496844 
L 103.581477 329.799046 
L 107.254138 312.154474 
L 108.30347 308.644544 
L 109.177913 306.5394 
L 109.877467 305.398134 
L 110.577022 304.716832 
L 111.101688 304.484968 
L 111.626353 304.469267 
L 112.151019 304.645674 
L 112.850574 305.134438 
L 113.725017 306.061623 
L 114.949237 307.724949 
L 117.747455 311.651542 
L 118.971675 312.936848 
L 120.021006 313.712706 
L 121.070338 314.178336 
L 122.11967 314.356697 
L 123.169001 314.292525 
L 124.393222 313.988447 
L 126.316996 313.239283 
L 129.115214 312.154474 
L 130.8641 311.723127 
L 132.612986 311.535526 
L 134.536761 311.566222 
L 137.509867 311.875592 
L 141.532305 312.26401 
L 144.6803 312.333665 
L 150.276736 312.173894 
L 156.397837 312.106187 
L 184.729791 312.15499 
L 207.640199 312.154549 
L 207.640199 312.154549 
" style="fill:none;stroke:#004e2b;stroke-linecap:round;stroke-width:2.5;"/>
   </g>
   <g id="patch_6">
    <path d="M 77.444375 382.54 
L 77.444375 204.23 
" style="fill:none;stroke:#262626;stroke-linecap:square;stroke-linejoin:miter;stroke-width:1.25;"/>
   </g>
   <g id="patch_7">
    <path d="M 77.444375 382.54 
L 213.84 382.54 
" style="fill:none;stroke:#262626;stroke-linecap:square;stroke-linejoin:miter;stroke-width:1.25;"/>
   </g>
   <g id="legend_2">
    <g id="patch_8">
     <path d="M 126.859531 289.55625 
L 205.09 289.55625 
Q 207.59 289.55625 207.59 287.05625 
L 207.59 212.98 
Q 207.59 210.48 205.09 210.48 
L 126.859531 210.48 
Q 124.359531 210.48 124.359531 212.98 
L 124.359531 287.05625 
Q 124.359531 289.55625 126.859531 289.55625 
z
" style="fill:#ffffff;opacity:0.8;stroke:#ffffff;stroke-linejoin:miter;"/>
    </g>
    <g id="text_19">
     <!-- $-b$ -->
     <g style="fill:#262626;" transform="translate(155.244766 226.497734)scale(0.145 -0.145)">
      <defs>
       <path d="M 49.515625 33.40625 
Q 49.515625 40.484375 46.265625 44.484375 
Q 43.015625 48.484375 37.3125 48.484375 
Q 33.15625 48.484375 29.515625 46.453125 
Q 25.875 44.4375 23.1875 40.578125 
Q 20.359375 36.53125 18.71875 31.171875 
Q 17.09375 25.828125 17.09375 20.515625 
Q 17.09375 13.765625 20.28125 9.9375 
Q 23.484375 6.109375 29.109375 6.109375 
Q 33.34375 6.109375 36.953125 8.078125 
Q 40.578125 10.0625 43.3125 13.921875 
Q 46.09375 17.921875 47.796875 23.234375 
Q 49.515625 28.5625 49.515625 33.40625 
z
M 21.578125 46.390625 
Q 24.90625 50.875 29.90625 53.4375 
Q 34.90625 56 40.375 56 
Q 48.78125 56 53.734375 50.328125 
Q 58.6875 44.671875 58.6875 35.015625 
Q 58.6875 27.09375 55.78125 19.671875 
Q 52.875 12.25 47.515625 6.5 
Q 44 2.6875 39.40625 0.625 
Q 34.8125 -1.421875 29.78125 -1.421875 
Q 24.46875 -1.421875 20.5625 1.015625 
Q 16.65625 3.46875 14.203125 8.296875 
L 12.59375 0 
L 3.609375 0 
L 18.40625 75.984375 
L 27.390625 75.984375 
z
" id="DejaVuSans-Oblique-98"/>
      </defs>
      <use transform="translate(0 0.015625)" xlink:href="#DejaVuSans-8722"/>
      <use transform="translate(83.789062 0.015625)" xlink:href="#DejaVuSans-Oblique-98"/>
     </g>
    </g>
    <g id="line2d_24">
     <path d="M 129.359531 240.886328 
L 141.859531 240.886328 
" style="fill:none;stroke:#79f5c5;stroke-linecap:round;stroke-width:2.5;"/>
    </g>
    <g id="line2d_25"/>
    <g id="text_20">
     <!-- 10 1/ms -->
     <g style="fill:#262626;" transform="translate(151.859531 245.261328)scale(0.125 -0.125)">
      <defs>
       <path d="M 25.390625 72.90625 
L 33.6875 72.90625 
L 8.296875 -9.28125 
L 0 -9.28125 
z
" id="DejaVuSans-47"/>
      </defs>
      <use xlink:href="#DejaVuSans-49"/>
      <use x="63.623047" xlink:href="#DejaVuSans-48"/>
      <use x="127.246094" xlink:href="#DejaVuSans-32"/>
      <use x="159.033203" xlink:href="#DejaVuSans-49"/>
      <use x="222.65625" xlink:href="#DejaVuSans-47"/>
      <use x="256.347656" xlink:href="#DejaVuSans-109"/>
      <use x="353.759766" xlink:href="#DejaVuSans-115"/>
     </g>
    </g>
    <g id="line2d_26">
     <path d="M 129.359531 259.233984 
L 141.859531 259.233984 
" style="fill:none;stroke:#03a075;stroke-linecap:round;stroke-width:2.5;"/>
    </g>
    <g id="line2d_27"/>
    <g id="text_21">
     <!-- 15 1/ms -->
     <g style="fill:#262626;" transform="translate(151.859531 263.608984)scale(0.125 -0.125)">
      <use xlink:href="#DejaVuSans-49"/>
      <use x="63.623047" xlink:href="#DejaVuSans-53"/>
      <use x="127.246094" xlink:href="#DejaVuSans-32"/>
      <use x="159.033203" xlink:href="#DejaVuSans-49"/>
      <use x="222.65625" xlink:href="#DejaVuSans-47"/>
      <use x="256.347656" xlink:href="#DejaVuSans-109"/>
      <use x="353.759766" xlink:href="#DejaVuSans-115"/>
     </g>
    </g>
    <g id="line2d_28">
     <path d="M 129.359531 277.581641 
L 141.859531 277.581641 
" style="fill:none;stroke:#004e2b;stroke-linecap:round;stroke-width:2.5;"/>
    </g>
    <g id="line2d_29"/>
    <g id="text_22">
     <!-- 20 1/ms -->
     <g style="fill:#262626;" transform="translate(151.859531 281.956641)scale(0.125 -0.125)">
      <use xlink:href="#DejaVuSans-50"/>
      <use x="63.623047" xlink:href="#DejaVuSans-48"/>
      <use x="127.246094" xlink:href="#DejaVuSans-32"/>
      <use x="159.033203" xlink:href="#DejaVuSans-49"/>
      <use x="222.65625" xlink:href="#DejaVuSans-47"/>
      <use x="256.347656" xlink:href="#DejaVuSans-109"/>
      <use x="353.759766" xlink:href="#DejaVuSans-115"/>
     </g>
    </g>
   </g>
  </g>
 </g>
 <defs>
  <clipPath id="pc666c322f3">
   <rect height="178.31" width="136.395625" x="77.444375" y="12.96"/>
  </clipPath>
  <clipPath id="p1ddaf5e2b5">
   <rect height="178.31" width="136.395625" x="77.444375" y="204.23"/>
  </clipPath>
 </defs>
</svg>
