<?xml version="1.0" encoding="utf-8" standalone="no"?>
<!DOCTYPE svg PUBLIC "-//W3C//DTD SVG 1.1//EN"
  "http://www.w3.org/Graphics/SVG/1.1/DTD/svg11.dtd">
<!-- Created with matplotlib (https://matplotlib.org/) -->
<svg height="216pt" version="1.1" viewBox="0 0 237.6 216" width="237.6pt" xmlns="http://www.w3.org/2000/svg" xmlns:xlink="http://www.w3.org/1999/xlink">
 <metadata>
  <rdf:RDF xmlns:cc="http://creativecommons.org/ns#" xmlns:dc="http://purl.org/dc/elements/1.1/" xmlns:rdf="http://www.w3.org/1999/02/22-rdf-syntax-ns#">
   <cc:Work>
    <dc:type rdf:resource="http://purl.org/dc/dcmitype/StillImage"/>
    <dc:date>2021-05-27T19:37:02.172838</dc:date>
    <dc:format>image/svg+xml</dc:format>
    <dc:creator>
     <cc:Agent>
      <dc:title>Matplotlib v3.3.4, https://matplotlib.org/</dc:title>
     </cc:Agent>
    </dc:creator>
   </cc:Work>
  </rdf:RDF>
 </metadata>
 <defs>
  <style type="text/css">*{stroke-linecap:butt;stroke-linejoin:round;}</style>
 </defs>
 <g id="figure_1">
  <g id="patch_1">
   <path d="M 0 216 
L 237.6 216 
L 237.6 0 
L 0 0 
z
" style="fill:#ffffff;"/>
  </g>
  <g id="axes_1">
   <g id="patch_2">
    <path d="M 61.46 166.54 
L 224.64 166.54 
L 224.64 12.96 
L 61.46 12.96 
z
" style="fill:#ffffff;"/>
   </g>
   <g id="matplotlib.axis_1">
    <g id="xtick_1">
     <g id="line2d_1">
      <defs>
       <path d="M 0 0 
L 0 6 
" id="m16a6f65039" style="stroke:#262626;stroke-width:1.25;"/>
      </defs>
      <g>
       <use style="fill:#262626;stroke:#262626;stroke-width:1.25;" x="76.294545" xlink:href="#m16a6f65039" y="166.54"/>
      </g>
     </g>
     <g id="text_1">
      <!-- −0.2 -->
      <g style="fill:#262626;" transform="translate(62.938999 184.398281)scale(0.11 -0.11)">
       <defs>
        <path d="M 10.59375 35.5 
L 73.1875 35.5 
L 73.1875 27.203125 
L 10.59375 27.203125 
z
" id="DejaVuSans-8722"/>
        <path d="M 31.78125 66.40625 
Q 24.171875 66.40625 20.328125 58.90625 
Q 16.5 51.421875 16.5 36.375 
Q 16.5 21.390625 20.328125 13.890625 
Q 24.171875 6.390625 31.78125 6.390625 
Q 39.453125 6.390625 43.28125 13.890625 
Q 47.125 21.390625 47.125 36.375 
Q 47.125 51.421875 43.28125 58.90625 
Q 39.453125 66.40625 31.78125 66.40625 
z
M 31.78125 74.21875 
Q 44.046875 74.21875 50.515625 64.515625 
Q 56.984375 54.828125 56.984375 36.375 
Q 56.984375 17.96875 50.515625 8.265625 
Q 44.046875 -1.421875 31.78125 -1.421875 
Q 19.53125 -1.421875 13.0625 8.265625 
Q 6.59375 17.96875 6.59375 36.375 
Q 6.59375 54.828125 13.0625 64.515625 
Q 19.53125 74.21875 31.78125 74.21875 
z
" id="DejaVuSans-48"/>
        <path d="M 10.6875 12.40625 
L 21 12.40625 
L 21 0 
L 10.6875 0 
z
" id="DejaVuSans-46"/>
        <path d="M 19.1875 8.296875 
L 53.609375 8.296875 
L 53.609375 0 
L 7.328125 0 
L 7.328125 8.296875 
Q 12.9375 14.109375 22.625 23.890625 
Q 32.328125 33.6875 34.8125 36.53125 
Q 39.546875 41.84375 41.421875 45.53125 
Q 43.3125 49.21875 43.3125 52.78125 
Q 43.3125 58.59375 39.234375 62.25 
Q 35.15625 65.921875 28.609375 65.921875 
Q 23.96875 65.921875 18.8125 64.3125 
Q 13.671875 62.703125 7.8125 59.421875 
L 7.8125 69.390625 
Q 13.765625 71.78125 18.9375 73 
Q 24.125 74.21875 28.421875 74.21875 
Q 39.75 74.21875 46.484375 68.546875 
Q 53.21875 62.890625 53.21875 53.421875 
Q 53.21875 48.921875 51.53125 44.890625 
Q 49.859375 40.875 45.40625 35.40625 
Q 44.1875 33.984375 37.640625 27.21875 
Q 31.109375 20.453125 19.1875 8.296875 
z
" id="DejaVuSans-50"/>
       </defs>
       <use xlink:href="#DejaVuSans-8722"/>
       <use x="83.789062" xlink:href="#DejaVuSans-48"/>
       <use x="147.412109" xlink:href="#DejaVuSans-46"/>
       <use x="179.199219" xlink:href="#DejaVuSans-50"/>
      </g>
     </g>
    </g>
    <g id="xtick_2">
     <g id="line2d_2">
      <g>
       <use style="fill:#262626;stroke:#262626;stroke-width:1.25;" x="105.963636" xlink:href="#m16a6f65039" y="166.54"/>
      </g>
     </g>
     <g id="text_2">
      <!-- −0.1 -->
      <g style="fill:#262626;" transform="translate(92.608089 184.398281)scale(0.11 -0.11)">
       <defs>
        <path d="M 12.40625 8.296875 
L 28.515625 8.296875 
L 28.515625 63.921875 
L 10.984375 60.40625 
L 10.984375 69.390625 
L 28.421875 72.90625 
L 38.28125 72.90625 
L 38.28125 8.296875 
L 54.390625 8.296875 
L 54.390625 0 
L 12.40625 0 
z
" id="DejaVuSans-49"/>
       </defs>
       <use xlink:href="#DejaVuSans-8722"/>
       <use x="83.789062" xlink:href="#DejaVuSans-48"/>
       <use x="147.412109" xlink:href="#DejaVuSans-46"/>
       <use x="179.199219" xlink:href="#DejaVuSans-49"/>
      </g>
     </g>
    </g>
    <g id="xtick_3">
     <g id="line2d_3">
      <g>
       <use style="fill:#262626;stroke:#262626;stroke-width:1.25;" x="135.632727" xlink:href="#m16a6f65039" y="166.54"/>
      </g>
     </g>
     <g id="text_3">
      <!-- 0.0 -->
      <g style="fill:#262626;" transform="translate(126.886009 184.398281)scale(0.11 -0.11)">
       <use xlink:href="#DejaVuSans-48"/>
       <use x="63.623047" xlink:href="#DejaVuSans-46"/>
       <use x="95.410156" xlink:href="#DejaVuSans-48"/>
      </g>
     </g>
    </g>
    <g id="xtick_4">
     <g id="line2d_4">
      <g>
       <use style="fill:#262626;stroke:#262626;stroke-width:1.25;" x="165.301818" xlink:href="#m16a6f65039" y="166.54"/>
      </g>
     </g>
     <g id="text_4">
      <!-- 0.1 -->
      <g style="fill:#262626;" transform="translate(156.555099 184.398281)scale(0.11 -0.11)">
       <use xlink:href="#DejaVuSans-48"/>
       <use x="63.623047" xlink:href="#DejaVuSans-46"/>
       <use x="95.410156" xlink:href="#DejaVuSans-49"/>
      </g>
     </g>
    </g>
    <g id="xtick_5">
     <g id="line2d_5">
      <g>
       <use style="fill:#262626;stroke:#262626;stroke-width:1.25;" x="194.970909" xlink:href="#m16a6f65039" y="166.54"/>
      </g>
     </g>
     <g id="text_5">
      <!-- 0.2 -->
      <g style="fill:#262626;" transform="translate(186.22419 184.398281)scale(0.11 -0.11)">
       <use xlink:href="#DejaVuSans-48"/>
       <use x="63.623047" xlink:href="#DejaVuSans-46"/>
       <use x="95.410156" xlink:href="#DejaVuSans-50"/>
      </g>
     </g>
    </g>
    <g id="text_6">
     <!-- Postsynaptic Potential -->
     <g style="fill:#262626;" transform="translate(77.029375 199.804063)scale(0.12 -0.12)">
      <defs>
       <path d="M 19.671875 64.796875 
L 19.671875 37.40625 
L 32.078125 37.40625 
Q 38.96875 37.40625 42.71875 40.96875 
Q 46.484375 44.53125 46.484375 51.125 
Q 46.484375 57.671875 42.71875 61.234375 
Q 38.96875 64.796875 32.078125 64.796875 
z
M 9.8125 72.90625 
L 32.078125 72.90625 
Q 44.34375 72.90625 50.609375 67.359375 
Q 56.890625 61.8125 56.890625 51.125 
Q 56.890625 40.328125 50.609375 34.8125 
Q 44.34375 29.296875 32.078125 29.296875 
L 19.671875 29.296875 
L 19.671875 0 
L 9.8125 0 
z
" id="DejaVuSans-80"/>
       <path d="M 30.609375 48.390625 
Q 23.390625 48.390625 19.1875 42.75 
Q 14.984375 37.109375 14.984375 27.296875 
Q 14.984375 17.484375 19.15625 11.84375 
Q 23.34375 6.203125 30.609375 6.203125 
Q 37.796875 6.203125 41.984375 11.859375 
Q 46.1875 17.53125 46.1875 27.296875 
Q 46.1875 37.015625 41.984375 42.703125 
Q 37.796875 48.390625 30.609375 48.390625 
z
M 30.609375 56 
Q 42.328125 56 49.015625 48.375 
Q 55.71875 40.765625 55.71875 27.296875 
Q 55.71875 13.875 49.015625 6.21875 
Q 42.328125 -1.421875 30.609375 -1.421875 
Q 18.84375 -1.421875 12.171875 6.21875 
Q 5.515625 13.875 5.515625 27.296875 
Q 5.515625 40.765625 12.171875 48.375 
Q 18.84375 56 30.609375 56 
z
" id="DejaVuSans-111"/>
       <path d="M 44.28125 53.078125 
L 44.28125 44.578125 
Q 40.484375 46.53125 36.375 47.5 
Q 32.28125 48.484375 27.875 48.484375 
Q 21.1875 48.484375 17.84375 46.4375 
Q 14.5 44.390625 14.5 40.28125 
Q 14.5 37.15625 16.890625 35.375 
Q 19.28125 33.59375 26.515625 31.984375 
L 29.59375 31.296875 
Q 39.15625 29.25 43.1875 25.515625 
Q 47.21875 21.78125 47.21875 15.09375 
Q 47.21875 7.46875 41.1875 3.015625 
Q 35.15625 -1.421875 24.609375 -1.421875 
Q 20.21875 -1.421875 15.453125 -0.5625 
Q 10.6875 0.296875 5.421875 2 
L 5.421875 11.28125 
Q 10.40625 8.6875 15.234375 7.390625 
Q 20.0625 6.109375 24.8125 6.109375 
Q 31.15625 6.109375 34.5625 8.28125 
Q 37.984375 10.453125 37.984375 14.40625 
Q 37.984375 18.0625 35.515625 20.015625 
Q 33.0625 21.96875 24.703125 23.78125 
L 21.578125 24.515625 
Q 13.234375 26.265625 9.515625 29.90625 
Q 5.8125 33.546875 5.8125 39.890625 
Q 5.8125 47.609375 11.28125 51.796875 
Q 16.75 56 26.8125 56 
Q 31.78125 56 36.171875 55.265625 
Q 40.578125 54.546875 44.28125 53.078125 
z
" id="DejaVuSans-115"/>
       <path d="M 18.3125 70.21875 
L 18.3125 54.6875 
L 36.8125 54.6875 
L 36.8125 47.703125 
L 18.3125 47.703125 
L 18.3125 18.015625 
Q 18.3125 11.328125 20.140625 9.421875 
Q 21.96875 7.515625 27.59375 7.515625 
L 36.8125 7.515625 
L 36.8125 0 
L 27.59375 0 
Q 17.1875 0 13.234375 3.875 
Q 9.28125 7.765625 9.28125 18.015625 
L 9.28125 47.703125 
L 2.6875 47.703125 
L 2.6875 54.6875 
L 9.28125 54.6875 
L 9.28125 70.21875 
z
" id="DejaVuSans-116"/>
       <path d="M 32.171875 -5.078125 
Q 28.375 -14.84375 24.75 -17.8125 
Q 21.140625 -20.796875 15.09375 -20.796875 
L 7.90625 -20.796875 
L 7.90625 -13.28125 
L 13.1875 -13.28125 
Q 16.890625 -13.28125 18.9375 -11.515625 
Q 21 -9.765625 23.484375 -3.21875 
L 25.09375 0.875 
L 2.984375 54.6875 
L 12.5 54.6875 
L 29.59375 11.921875 
L 46.6875 54.6875 
L 56.203125 54.6875 
z
" id="DejaVuSans-121"/>
       <path d="M 54.890625 33.015625 
L 54.890625 0 
L 45.90625 0 
L 45.90625 32.71875 
Q 45.90625 40.484375 42.875 44.328125 
Q 39.84375 48.1875 33.796875 48.1875 
Q 26.515625 48.1875 22.3125 43.546875 
Q 18.109375 38.921875 18.109375 30.90625 
L 18.109375 0 
L 9.078125 0 
L 9.078125 54.6875 
L 18.109375 54.6875 
L 18.109375 46.1875 
Q 21.34375 51.125 25.703125 53.5625 
Q 30.078125 56 35.796875 56 
Q 45.21875 56 50.046875 50.171875 
Q 54.890625 44.34375 54.890625 33.015625 
z
" id="DejaVuSans-110"/>
       <path d="M 34.28125 27.484375 
Q 23.390625 27.484375 19.1875 25 
Q 14.984375 22.515625 14.984375 16.5 
Q 14.984375 11.71875 18.140625 8.90625 
Q 21.296875 6.109375 26.703125 6.109375 
Q 34.1875 6.109375 38.703125 11.40625 
Q 43.21875 16.703125 43.21875 25.484375 
L 43.21875 27.484375 
z
M 52.203125 31.203125 
L 52.203125 0 
L 43.21875 0 
L 43.21875 8.296875 
Q 40.140625 3.328125 35.546875 0.953125 
Q 30.953125 -1.421875 24.3125 -1.421875 
Q 15.921875 -1.421875 10.953125 3.296875 
Q 6 8.015625 6 15.921875 
Q 6 25.140625 12.171875 29.828125 
Q 18.359375 34.515625 30.609375 34.515625 
L 43.21875 34.515625 
L 43.21875 35.40625 
Q 43.21875 41.609375 39.140625 45 
Q 35.0625 48.390625 27.6875 48.390625 
Q 23 48.390625 18.546875 47.265625 
Q 14.109375 46.140625 10.015625 43.890625 
L 10.015625 52.203125 
Q 14.9375 54.109375 19.578125 55.046875 
Q 24.21875 56 28.609375 56 
Q 40.484375 56 46.34375 49.84375 
Q 52.203125 43.703125 52.203125 31.203125 
z
" id="DejaVuSans-97"/>
       <path d="M 18.109375 8.203125 
L 18.109375 -20.796875 
L 9.078125 -20.796875 
L 9.078125 54.6875 
L 18.109375 54.6875 
L 18.109375 46.390625 
Q 20.953125 51.265625 25.265625 53.625 
Q 29.59375 56 35.59375 56 
Q 45.5625 56 51.78125 48.09375 
Q 58.015625 40.1875 58.015625 27.296875 
Q 58.015625 14.40625 51.78125 6.484375 
Q 45.5625 -1.421875 35.59375 -1.421875 
Q 29.59375 -1.421875 25.265625 0.953125 
Q 20.953125 3.328125 18.109375 8.203125 
z
M 48.6875 27.296875 
Q 48.6875 37.203125 44.609375 42.84375 
Q 40.53125 48.484375 33.40625 48.484375 
Q 26.265625 48.484375 22.1875 42.84375 
Q 18.109375 37.203125 18.109375 27.296875 
Q 18.109375 17.390625 22.1875 11.75 
Q 26.265625 6.109375 33.40625 6.109375 
Q 40.53125 6.109375 44.609375 11.75 
Q 48.6875 17.390625 48.6875 27.296875 
z
" id="DejaVuSans-112"/>
       <path d="M 9.421875 54.6875 
L 18.40625 54.6875 
L 18.40625 0 
L 9.421875 0 
z
M 9.421875 75.984375 
L 18.40625 75.984375 
L 18.40625 64.59375 
L 9.421875 64.59375 
z
" id="DejaVuSans-105"/>
       <path d="M 48.78125 52.59375 
L 48.78125 44.1875 
Q 44.96875 46.296875 41.140625 47.34375 
Q 37.3125 48.390625 33.40625 48.390625 
Q 24.65625 48.390625 19.8125 42.84375 
Q 14.984375 37.3125 14.984375 27.296875 
Q 14.984375 17.28125 19.8125 11.734375 
Q 24.65625 6.203125 33.40625 6.203125 
Q 37.3125 6.203125 41.140625 7.25 
Q 44.96875 8.296875 48.78125 10.40625 
L 48.78125 2.09375 
Q 45.015625 0.34375 40.984375 -0.53125 
Q 36.96875 -1.421875 32.421875 -1.421875 
Q 20.0625 -1.421875 12.78125 6.34375 
Q 5.515625 14.109375 5.515625 27.296875 
Q 5.515625 40.671875 12.859375 48.328125 
Q 20.21875 56 33.015625 56 
Q 37.15625 56 41.109375 55.140625 
Q 45.0625 54.296875 48.78125 52.59375 
z
" id="DejaVuSans-99"/>
       <path id="DejaVuSans-32"/>
       <path d="M 56.203125 29.59375 
L 56.203125 25.203125 
L 14.890625 25.203125 
Q 15.484375 15.921875 20.484375 11.0625 
Q 25.484375 6.203125 34.421875 6.203125 
Q 39.59375 6.203125 44.453125 7.46875 
Q 49.3125 8.734375 54.109375 11.28125 
L 54.109375 2.78125 
Q 49.265625 0.734375 44.1875 -0.34375 
Q 39.109375 -1.421875 33.890625 -1.421875 
Q 20.796875 -1.421875 13.15625 6.1875 
Q 5.515625 13.8125 5.515625 26.8125 
Q 5.515625 40.234375 12.765625 48.109375 
Q 20.015625 56 32.328125 56 
Q 43.359375 56 49.78125 48.890625 
Q 56.203125 41.796875 56.203125 29.59375 
z
M 47.21875 32.234375 
Q 47.125 39.59375 43.09375 43.984375 
Q 39.0625 48.390625 32.421875 48.390625 
Q 24.90625 48.390625 20.390625 44.140625 
Q 15.875 39.890625 15.1875 32.171875 
z
" id="DejaVuSans-101"/>
       <path d="M 9.421875 75.984375 
L 18.40625 75.984375 
L 18.40625 0 
L 9.421875 0 
z
" id="DejaVuSans-108"/>
      </defs>
      <use xlink:href="#DejaVuSans-80"/>
      <use x="56.677734" xlink:href="#DejaVuSans-111"/>
      <use x="117.859375" xlink:href="#DejaVuSans-115"/>
      <use x="169.958984" xlink:href="#DejaVuSans-116"/>
      <use x="209.167969" xlink:href="#DejaVuSans-115"/>
      <use x="261.267578" xlink:href="#DejaVuSans-121"/>
      <use x="320.447266" xlink:href="#DejaVuSans-110"/>
      <use x="383.826172" xlink:href="#DejaVuSans-97"/>
      <use x="445.105469" xlink:href="#DejaVuSans-112"/>
      <use x="508.582031" xlink:href="#DejaVuSans-116"/>
      <use x="547.791016" xlink:href="#DejaVuSans-105"/>
      <use x="575.574219" xlink:href="#DejaVuSans-99"/>
      <use x="630.554688" xlink:href="#DejaVuSans-32"/>
      <use x="662.341797" xlink:href="#DejaVuSans-80"/>
      <use x="719.019531" xlink:href="#DejaVuSans-111"/>
      <use x="780.201172" xlink:href="#DejaVuSans-116"/>
      <use x="819.410156" xlink:href="#DejaVuSans-101"/>
      <use x="880.933594" xlink:href="#DejaVuSans-110"/>
      <use x="944.3125" xlink:href="#DejaVuSans-116"/>
      <use x="983.521484" xlink:href="#DejaVuSans-105"/>
      <use x="1011.304688" xlink:href="#DejaVuSans-97"/>
      <use x="1072.583984" xlink:href="#DejaVuSans-108"/>
     </g>
    </g>
   </g>
   <g id="matplotlib.axis_2">
    <g id="ytick_1">
     <g id="line2d_6">
      <defs>
       <path d="M 0 0 
L -6 0 
" id="m957e781951" style="stroke:#262626;stroke-width:1.25;"/>
      </defs>
      <g>
       <use style="fill:#262626;stroke:#262626;stroke-width:1.25;" x="61.46" xlink:href="#m957e781951" y="148.819231"/>
      </g>
     </g>
     <g id="text_7">
      <!-- 0 -->
      <g style="fill:#262626;" transform="translate(44.96125 152.998371)scale(0.11 -0.11)">
       <use xlink:href="#DejaVuSans-48"/>
      </g>
     </g>
    </g>
    <g id="ytick_2">
     <g id="line2d_7">
      <g>
       <use style="fill:#262626;stroke:#262626;stroke-width:1.25;" x="61.46" xlink:href="#m957e781951" y="119.284615"/>
      </g>
     </g>
     <g id="text_8">
      <!-- 5 -->
      <g style="fill:#262626;" transform="translate(44.96125 123.463756)scale(0.11 -0.11)">
       <defs>
        <path d="M 10.796875 72.90625 
L 49.515625 72.90625 
L 49.515625 64.59375 
L 19.828125 64.59375 
L 19.828125 46.734375 
Q 21.96875 47.46875 24.109375 47.828125 
Q 26.265625 48.1875 28.421875 48.1875 
Q 40.625 48.1875 47.75 41.5 
Q 54.890625 34.8125 54.890625 23.390625 
Q 54.890625 11.625 47.5625 5.09375 
Q 40.234375 -1.421875 26.90625 -1.421875 
Q 22.3125 -1.421875 17.546875 -0.640625 
Q 12.796875 0.140625 7.71875 1.703125 
L 7.71875 11.625 
Q 12.109375 9.234375 16.796875 8.0625 
Q 21.484375 6.890625 26.703125 6.890625 
Q 35.15625 6.890625 40.078125 11.328125 
Q 45.015625 15.765625 45.015625 23.390625 
Q 45.015625 31 40.078125 35.4375 
Q 35.15625 39.890625 26.703125 39.890625 
Q 22.75 39.890625 18.8125 39.015625 
Q 14.890625 38.140625 10.796875 36.28125 
z
" id="DejaVuSans-53"/>
       </defs>
       <use xlink:href="#DejaVuSans-53"/>
      </g>
     </g>
    </g>
    <g id="ytick_3">
     <g id="line2d_8">
      <g>
       <use style="fill:#262626;stroke:#262626;stroke-width:1.25;" x="61.46" xlink:href="#m957e781951" y="89.75"/>
      </g>
     </g>
     <g id="text_9">
      <!-- 10 -->
      <g style="fill:#262626;" transform="translate(37.9625 93.929141)scale(0.11 -0.11)">
       <use xlink:href="#DejaVuSans-49"/>
       <use x="63.623047" xlink:href="#DejaVuSans-48"/>
      </g>
     </g>
    </g>
    <g id="ytick_4">
     <g id="line2d_9">
      <g>
       <use style="fill:#262626;stroke:#262626;stroke-width:1.25;" x="61.46" xlink:href="#m957e781951" y="60.215385"/>
      </g>
     </g>
     <g id="text_10">
      <!-- 15 -->
      <g style="fill:#262626;" transform="translate(37.9625 64.394525)scale(0.11 -0.11)">
       <use xlink:href="#DejaVuSans-49"/>
       <use x="63.623047" xlink:href="#DejaVuSans-53"/>
      </g>
     </g>
    </g>
    <g id="ytick_5">
     <g id="line2d_10">
      <g>
       <use style="fill:#262626;stroke:#262626;stroke-width:1.25;" x="61.46" xlink:href="#m957e781951" y="30.680769"/>
      </g>
     </g>
     <g id="text_11">
      <!-- 20 -->
      <g style="fill:#262626;" transform="translate(37.9625 34.85991)scale(0.11 -0.11)">
       <use xlink:href="#DejaVuSans-50"/>
       <use x="63.623047" xlink:href="#DejaVuSans-48"/>
      </g>
     </g>
    </g>
    <g id="text_12">
     <!-- Probability Density -->
     <g style="fill:#262626;" transform="translate(23.466875 146.181875)rotate(-90)scale(0.12 -0.12)">
      <defs>
       <path d="M 41.109375 46.296875 
Q 39.59375 47.171875 37.8125 47.578125 
Q 36.03125 48 33.890625 48 
Q 26.265625 48 22.1875 43.046875 
Q 18.109375 38.09375 18.109375 28.8125 
L 18.109375 0 
L 9.078125 0 
L 9.078125 54.6875 
L 18.109375 54.6875 
L 18.109375 46.1875 
Q 20.953125 51.171875 25.484375 53.578125 
Q 30.03125 56 36.53125 56 
Q 37.453125 56 38.578125 55.875 
Q 39.703125 55.765625 41.0625 55.515625 
z
" id="DejaVuSans-114"/>
       <path d="M 48.6875 27.296875 
Q 48.6875 37.203125 44.609375 42.84375 
Q 40.53125 48.484375 33.40625 48.484375 
Q 26.265625 48.484375 22.1875 42.84375 
Q 18.109375 37.203125 18.109375 27.296875 
Q 18.109375 17.390625 22.1875 11.75 
Q 26.265625 6.109375 33.40625 6.109375 
Q 40.53125 6.109375 44.609375 11.75 
Q 48.6875 17.390625 48.6875 27.296875 
z
M 18.109375 46.390625 
Q 20.953125 51.265625 25.265625 53.625 
Q 29.59375 56 35.59375 56 
Q 45.5625 56 51.78125 48.09375 
Q 58.015625 40.1875 58.015625 27.296875 
Q 58.015625 14.40625 51.78125 6.484375 
Q 45.5625 -1.421875 35.59375 -1.421875 
Q 29.59375 -1.421875 25.265625 0.953125 
Q 20.953125 3.328125 18.109375 8.203125 
L 18.109375 0 
L 9.078125 0 
L 9.078125 75.984375 
L 18.109375 75.984375 
z
" id="DejaVuSans-98"/>
       <path d="M 19.671875 64.796875 
L 19.671875 8.109375 
L 31.59375 8.109375 
Q 46.6875 8.109375 53.6875 14.9375 
Q 60.6875 21.78125 60.6875 36.53125 
Q 60.6875 51.171875 53.6875 57.984375 
Q 46.6875 64.796875 31.59375 64.796875 
z
M 9.8125 72.90625 
L 30.078125 72.90625 
Q 51.265625 72.90625 61.171875 64.09375 
Q 71.09375 55.28125 71.09375 36.53125 
Q 71.09375 17.671875 61.125 8.828125 
Q 51.171875 0 30.078125 0 
L 9.8125 0 
z
" id="DejaVuSans-68"/>
      </defs>
      <use xlink:href="#DejaVuSans-80"/>
      <use x="58.552734" xlink:href="#DejaVuSans-114"/>
      <use x="97.416016" xlink:href="#DejaVuSans-111"/>
      <use x="158.597656" xlink:href="#DejaVuSans-98"/>
      <use x="222.074219" xlink:href="#DejaVuSans-97"/>
      <use x="283.353516" xlink:href="#DejaVuSans-98"/>
      <use x="346.830078" xlink:href="#DejaVuSans-105"/>
      <use x="374.613281" xlink:href="#DejaVuSans-108"/>
      <use x="402.396484" xlink:href="#DejaVuSans-105"/>
      <use x="430.179688" xlink:href="#DejaVuSans-116"/>
      <use x="469.388672" xlink:href="#DejaVuSans-121"/>
      <use x="528.568359" xlink:href="#DejaVuSans-32"/>
      <use x="560.355469" xlink:href="#DejaVuSans-68"/>
      <use x="637.357422" xlink:href="#DejaVuSans-101"/>
      <use x="698.880859" xlink:href="#DejaVuSans-110"/>
      <use x="762.259766" xlink:href="#DejaVuSans-115"/>
      <use x="814.359375" xlink:href="#DejaVuSans-105"/>
      <use x="842.142578" xlink:href="#DejaVuSans-116"/>
      <use x="881.351562" xlink:href="#DejaVuSans-121"/>
     </g>
    </g>
   </g>
   <g id="PathCollection_1">
    <defs>
     <path d="M -3 3 
L 3 -3 
M -3 -3 
L 3 3 
" id="m3931237922" style="stroke:#d65c00;stroke-opacity:0.5;stroke-width:1.5;"/>
    </defs>
    <g clip-path="url(#p17e6c7c1b4)">
     <use style="fill:#d65c00;fill-opacity:0.5;stroke:#d65c00;stroke-opacity:0.5;stroke-width:1.5;" x="179.204504" xlink:href="#m3931237922" y="160.633077"/>
     <use style="fill:#d65c00;fill-opacity:0.5;stroke:#d65c00;stroke-opacity:0.5;stroke-width:1.5;" x="144.672693" xlink:href="#m3931237922" y="160.633077"/>
     <use style="fill:#d65c00;fill-opacity:0.5;stroke:#d65c00;stroke-opacity:0.5;stroke-width:1.5;" x="145.220075" xlink:href="#m3931237922" y="160.633077"/>
     <use style="fill:#d65c00;fill-opacity:0.5;stroke:#d65c00;stroke-opacity:0.5;stroke-width:1.5;" x="142.168322" xlink:href="#m3931237922" y="160.633077"/>
     <use style="fill:#d65c00;fill-opacity:0.5;stroke:#d65c00;stroke-opacity:0.5;stroke-width:1.5;" x="161.182117" xlink:href="#m3931237922" y="160.633077"/>
     <use style="fill:#d65c00;fill-opacity:0.5;stroke:#d65c00;stroke-opacity:0.5;stroke-width:1.5;" x="138.386999" xlink:href="#m3931237922" y="160.633077"/>
     <use style="fill:#d65c00;fill-opacity:0.5;stroke:#d65c00;stroke-opacity:0.5;stroke-width:1.5;" x="183.057239" xlink:href="#m3931237922" y="160.633077"/>
     <use style="fill:#d65c00;fill-opacity:0.5;stroke:#d65c00;stroke-opacity:0.5;stroke-width:1.5;" x="143.77069" xlink:href="#m3931237922" y="160.633077"/>
     <use style="fill:#d65c00;fill-opacity:0.5;stroke:#d65c00;stroke-opacity:0.5;stroke-width:1.5;" x="153.030237" xlink:href="#m3931237922" y="160.633077"/>
     <use style="fill:#d65c00;fill-opacity:0.5;stroke:#d65c00;stroke-opacity:0.5;stroke-width:1.5;" x="147.29709" xlink:href="#m3931237922" y="160.633077"/>
     <use style="fill:#d65c00;fill-opacity:0.5;stroke:#d65c00;stroke-opacity:0.5;stroke-width:1.5;" x="174.505749" xlink:href="#m3931237922" y="160.633077"/>
     <use style="fill:#d65c00;fill-opacity:0.5;stroke:#d65c00;stroke-opacity:0.5;stroke-width:1.5;" x="138.896681" xlink:href="#m3931237922" y="160.633077"/>
     <use style="fill:#d65c00;fill-opacity:0.5;stroke:#d65c00;stroke-opacity:0.5;stroke-width:1.5;" x="146.712942" xlink:href="#m3931237922" y="160.633077"/>
     <use style="fill:#d65c00;fill-opacity:0.5;stroke:#d65c00;stroke-opacity:0.5;stroke-width:1.5;" x="146.242853" xlink:href="#m3931237922" y="160.633077"/>
     <use style="fill:#d65c00;fill-opacity:0.5;stroke:#d65c00;stroke-opacity:0.5;stroke-width:1.5;" x="166.489763" xlink:href="#m3931237922" y="160.633077"/>
     <use style="fill:#d65c00;fill-opacity:0.5;stroke:#d65c00;stroke-opacity:0.5;stroke-width:1.5;" x="142.045729" xlink:href="#m3931237922" y="160.633077"/>
     <use style="fill:#d65c00;fill-opacity:0.5;stroke:#d65c00;stroke-opacity:0.5;stroke-width:1.5;" x="147.945723" xlink:href="#m3931237922" y="160.633077"/>
     <use style="fill:#d65c00;fill-opacity:0.5;stroke:#d65c00;stroke-opacity:0.5;stroke-width:1.5;" x="143.129656" xlink:href="#m3931237922" y="160.633077"/>
     <use style="fill:#d65c00;fill-opacity:0.5;stroke:#d65c00;stroke-opacity:0.5;stroke-width:1.5;" x="149.952237" xlink:href="#m3931237922" y="160.633077"/>
     <use style="fill:#d65c00;fill-opacity:0.5;stroke:#d65c00;stroke-opacity:0.5;stroke-width:1.5;" x="156.576745" xlink:href="#m3931237922" y="160.633077"/>
     <use style="fill:#d65c00;fill-opacity:0.5;stroke:#d65c00;stroke-opacity:0.5;stroke-width:1.5;" x="142.042446" xlink:href="#m3931237922" y="160.633077"/>
     <use style="fill:#d65c00;fill-opacity:0.5;stroke:#d65c00;stroke-opacity:0.5;stroke-width:1.5;" x="166.728423" xlink:href="#m3931237922" y="160.633077"/>
     <use style="fill:#d65c00;fill-opacity:0.5;stroke:#d65c00;stroke-opacity:0.5;stroke-width:1.5;" x="161.840674" xlink:href="#m3931237922" y="160.633077"/>
     <use style="fill:#d65c00;fill-opacity:0.5;stroke:#d65c00;stroke-opacity:0.5;stroke-width:1.5;" x="155.426347" xlink:href="#m3931237922" y="160.633077"/>
     <use style="fill:#d65c00;fill-opacity:0.5;stroke:#d65c00;stroke-opacity:0.5;stroke-width:1.5;" x="161.827134" xlink:href="#m3931237922" y="160.633077"/>
     <use style="fill:#d65c00;fill-opacity:0.5;stroke:#d65c00;stroke-opacity:0.5;stroke-width:1.5;" x="144.226471" xlink:href="#m3931237922" y="160.633077"/>
     <use style="fill:#d65c00;fill-opacity:0.5;stroke:#d65c00;stroke-opacity:0.5;stroke-width:1.5;" x="148.382299" xlink:href="#m3931237922" y="160.633077"/>
     <use style="fill:#d65c00;fill-opacity:0.5;stroke:#d65c00;stroke-opacity:0.5;stroke-width:1.5;" x="142.83043" xlink:href="#m3931237922" y="160.633077"/>
     <use style="fill:#d65c00;fill-opacity:0.5;stroke:#d65c00;stroke-opacity:0.5;stroke-width:1.5;" x="147.146154" xlink:href="#m3931237922" y="160.633077"/>
     <use style="fill:#d65c00;fill-opacity:0.5;stroke:#d65c00;stroke-opacity:0.5;stroke-width:1.5;" x="155.818049" xlink:href="#m3931237922" y="160.633077"/>
     <use style="fill:#d65c00;fill-opacity:0.5;stroke:#d65c00;stroke-opacity:0.5;stroke-width:1.5;" x="144.178655" xlink:href="#m3931237922" y="160.633077"/>
     <use style="fill:#d65c00;fill-opacity:0.5;stroke:#d65c00;stroke-opacity:0.5;stroke-width:1.5;" x="146.148506" xlink:href="#m3931237922" y="160.633077"/>
     <use style="fill:#d65c00;fill-opacity:0.5;stroke:#d65c00;stroke-opacity:0.5;stroke-width:1.5;" x="144.205674" xlink:href="#m3931237922" y="160.633077"/>
     <use style="fill:#d65c00;fill-opacity:0.5;stroke:#d65c00;stroke-opacity:0.5;stroke-width:1.5;" x="143.303824" xlink:href="#m3931237922" y="160.633077"/>
     <use style="fill:#d65c00;fill-opacity:0.5;stroke:#d65c00;stroke-opacity:0.5;stroke-width:1.5;" x="144.302248" xlink:href="#m3931237922" y="160.633077"/>
     <use style="fill:#d65c00;fill-opacity:0.5;stroke:#d65c00;stroke-opacity:0.5;stroke-width:1.5;" x="149.410057" xlink:href="#m3931237922" y="160.633077"/>
     <use style="fill:#d65c00;fill-opacity:0.5;stroke:#d65c00;stroke-opacity:0.5;stroke-width:1.5;" x="141.967638" xlink:href="#m3931237922" y="160.633077"/>
     <use style="fill:#d65c00;fill-opacity:0.5;stroke:#d65c00;stroke-opacity:0.5;stroke-width:1.5;" x="152.024958" xlink:href="#m3931237922" y="160.633077"/>
     <use style="fill:#d65c00;fill-opacity:0.5;stroke:#d65c00;stroke-opacity:0.5;stroke-width:1.5;" x="180.304778" xlink:href="#m3931237922" y="160.633077"/>
     <use style="fill:#d65c00;fill-opacity:0.5;stroke:#d65c00;stroke-opacity:0.5;stroke-width:1.5;" x="159.058719" xlink:href="#m3931237922" y="160.633077"/>
     <use style="fill:#d65c00;fill-opacity:0.5;stroke:#d65c00;stroke-opacity:0.5;stroke-width:1.5;" x="147.778792" xlink:href="#m3931237922" y="160.633077"/>
     <use style="fill:#d65c00;fill-opacity:0.5;stroke:#d65c00;stroke-opacity:0.5;stroke-width:1.5;" x="143.078313" xlink:href="#m3931237922" y="160.633077"/>
     <use style="fill:#d65c00;fill-opacity:0.5;stroke:#d65c00;stroke-opacity:0.5;stroke-width:1.5;" x="143.8515" xlink:href="#m3931237922" y="160.633077"/>
     <use style="fill:#d65c00;fill-opacity:0.5;stroke:#d65c00;stroke-opacity:0.5;stroke-width:1.5;" x="181.342586" xlink:href="#m3931237922" y="160.633077"/>
     <use style="fill:#d65c00;fill-opacity:0.5;stroke:#d65c00;stroke-opacity:0.5;stroke-width:1.5;" x="150.039055" xlink:href="#m3931237922" y="160.633077"/>
     <use style="fill:#d65c00;fill-opacity:0.5;stroke:#d65c00;stroke-opacity:0.5;stroke-width:1.5;" x="144.513632" xlink:href="#m3931237922" y="160.633077"/>
     <use style="fill:#d65c00;fill-opacity:0.5;stroke:#d65c00;stroke-opacity:0.5;stroke-width:1.5;" x="151.531021" xlink:href="#m3931237922" y="160.633077"/>
     <use style="fill:#d65c00;fill-opacity:0.5;stroke:#d65c00;stroke-opacity:0.5;stroke-width:1.5;" x="196.526996" xlink:href="#m3931237922" y="160.633077"/>
     <use style="fill:#d65c00;fill-opacity:0.5;stroke:#d65c00;stroke-opacity:0.5;stroke-width:1.5;" x="150.759186" xlink:href="#m3931237922" y="160.633077"/>
     <use style="fill:#d65c00;fill-opacity:0.5;stroke:#d65c00;stroke-opacity:0.5;stroke-width:1.5;" x="157.089486" xlink:href="#m3931237922" y="160.633077"/>
     <use style="fill:#d65c00;fill-opacity:0.5;stroke:#d65c00;stroke-opacity:0.5;stroke-width:1.5;" x="152.800875" xlink:href="#m3931237922" y="160.633077"/>
     <use style="fill:#d65c00;fill-opacity:0.5;stroke:#d65c00;stroke-opacity:0.5;stroke-width:1.5;" x="146.482871" xlink:href="#m3931237922" y="160.633077"/>
     <use style="fill:#d65c00;fill-opacity:0.5;stroke:#d65c00;stroke-opacity:0.5;stroke-width:1.5;" x="141.856311" xlink:href="#m3931237922" y="160.633077"/>
     <use style="fill:#d65c00;fill-opacity:0.5;stroke:#d65c00;stroke-opacity:0.5;stroke-width:1.5;" x="146.50508" xlink:href="#m3931237922" y="160.633077"/>
     <use style="fill:#d65c00;fill-opacity:0.5;stroke:#d65c00;stroke-opacity:0.5;stroke-width:1.5;" x="147.633932" xlink:href="#m3931237922" y="160.633077"/>
     <use style="fill:#d65c00;fill-opacity:0.5;stroke:#d65c00;stroke-opacity:0.5;stroke-width:1.5;" x="156.632915" xlink:href="#m3931237922" y="160.633077"/>
     <use style="fill:#d65c00;fill-opacity:0.5;stroke:#d65c00;stroke-opacity:0.5;stroke-width:1.5;" x="160.711658" xlink:href="#m3931237922" y="160.633077"/>
     <use style="fill:#d65c00;fill-opacity:0.5;stroke:#d65c00;stroke-opacity:0.5;stroke-width:1.5;" x="162.39035" xlink:href="#m3931237922" y="160.633077"/>
     <use style="fill:#d65c00;fill-opacity:0.5;stroke:#d65c00;stroke-opacity:0.5;stroke-width:1.5;" x="152.625683" xlink:href="#m3931237922" y="160.633077"/>
     <use style="fill:#d65c00;fill-opacity:0.5;stroke:#d65c00;stroke-opacity:0.5;stroke-width:1.5;" x="161.539203" xlink:href="#m3931237922" y="160.633077"/>
     <use style="fill:#d65c00;fill-opacity:0.5;stroke:#d65c00;stroke-opacity:0.5;stroke-width:1.5;" x="143.809757" xlink:href="#m3931237922" y="160.633077"/>
     <use style="fill:#d65c00;fill-opacity:0.5;stroke:#d65c00;stroke-opacity:0.5;stroke-width:1.5;" x="169.185934" xlink:href="#m3931237922" y="160.633077"/>
     <use style="fill:#d65c00;fill-opacity:0.5;stroke:#d65c00;stroke-opacity:0.5;stroke-width:1.5;" x="155.572162" xlink:href="#m3931237922" y="160.633077"/>
     <use style="fill:#d65c00;fill-opacity:0.5;stroke:#d65c00;stroke-opacity:0.5;stroke-width:1.5;" x="146.904138" xlink:href="#m3931237922" y="160.633077"/>
     <use style="fill:#d65c00;fill-opacity:0.5;stroke:#d65c00;stroke-opacity:0.5;stroke-width:1.5;" x="155.232727" xlink:href="#m3931237922" y="160.633077"/>
     <use style="fill:#d65c00;fill-opacity:0.5;stroke:#d65c00;stroke-opacity:0.5;stroke-width:1.5;" x="148.813761" xlink:href="#m3931237922" y="160.633077"/>
     <use style="fill:#d65c00;fill-opacity:0.5;stroke:#d65c00;stroke-opacity:0.5;stroke-width:1.5;" x="166.443351" xlink:href="#m3931237922" y="160.633077"/>
     <use style="fill:#d65c00;fill-opacity:0.5;stroke:#d65c00;stroke-opacity:0.5;stroke-width:1.5;" x="176.116039" xlink:href="#m3931237922" y="160.633077"/>
     <use style="fill:#d65c00;fill-opacity:0.5;stroke:#d65c00;stroke-opacity:0.5;stroke-width:1.5;" x="200.293115" xlink:href="#m3931237922" y="160.633077"/>
     <use style="fill:#d65c00;fill-opacity:0.5;stroke:#d65c00;stroke-opacity:0.5;stroke-width:1.5;" x="140.838204" xlink:href="#m3931237922" y="160.633077"/>
     <use style="fill:#d65c00;fill-opacity:0.5;stroke:#d65c00;stroke-opacity:0.5;stroke-width:1.5;" x="140.666752" xlink:href="#m3931237922" y="160.633077"/>
     <use style="fill:#d65c00;fill-opacity:0.5;stroke:#d65c00;stroke-opacity:0.5;stroke-width:1.5;" x="145.38127" xlink:href="#m3931237922" y="160.633077"/>
     <use style="fill:#d65c00;fill-opacity:0.5;stroke:#d65c00;stroke-opacity:0.5;stroke-width:1.5;" x="151.189461" xlink:href="#m3931237922" y="160.633077"/>
     <use style="fill:#d65c00;fill-opacity:0.5;stroke:#d65c00;stroke-opacity:0.5;stroke-width:1.5;" x="161.376232" xlink:href="#m3931237922" y="160.633077"/>
     <use style="fill:#d65c00;fill-opacity:0.5;stroke:#d65c00;stroke-opacity:0.5;stroke-width:1.5;" x="152.988632" xlink:href="#m3931237922" y="160.633077"/>
     <use style="fill:#d65c00;fill-opacity:0.5;stroke:#d65c00;stroke-opacity:0.5;stroke-width:1.5;" x="138.984951" xlink:href="#m3931237922" y="160.633077"/>
     <use style="fill:#d65c00;fill-opacity:0.5;stroke:#d65c00;stroke-opacity:0.5;stroke-width:1.5;" x="146.840018" xlink:href="#m3931237922" y="160.633077"/>
     <use style="fill:#d65c00;fill-opacity:0.5;stroke:#d65c00;stroke-opacity:0.5;stroke-width:1.5;" x="160.518222" xlink:href="#m3931237922" y="160.633077"/>
     <use style="fill:#d65c00;fill-opacity:0.5;stroke:#d65c00;stroke-opacity:0.5;stroke-width:1.5;" x="151.975216" xlink:href="#m3931237922" y="160.633077"/>
     <use style="fill:#d65c00;fill-opacity:0.5;stroke:#d65c00;stroke-opacity:0.5;stroke-width:1.5;" x="159.390029" xlink:href="#m3931237922" y="160.633077"/>
    </g>
   </g>
   <g id="PathCollection_2">
    <defs>
     <path d="M -3 3 
L 3 -3 
M -3 -3 
L 3 3 
" id="m3cfe6a9977" style="stroke:#55b2e8;stroke-opacity:0.5;stroke-width:1.5;"/>
    </defs>
    <g clip-path="url(#p17e6c7c1b4)">
     <use style="fill:#55b2e8;fill-opacity:0.5;stroke:#55b2e8;stroke-opacity:0.5;stroke-width:1.5;" x="125.725775" xlink:href="#m3cfe6a9977" y="160.633077"/>
     <use style="fill:#55b2e8;fill-opacity:0.5;stroke:#55b2e8;stroke-opacity:0.5;stroke-width:1.5;" x="125.574328" xlink:href="#m3cfe6a9977" y="160.633077"/>
     <use style="fill:#55b2e8;fill-opacity:0.5;stroke:#55b2e8;stroke-opacity:0.5;stroke-width:1.5;" x="122.42466" xlink:href="#m3cfe6a9977" y="160.633077"/>
     <use style="fill:#55b2e8;fill-opacity:0.5;stroke:#55b2e8;stroke-opacity:0.5;stroke-width:1.5;" x="120.176394" xlink:href="#m3cfe6a9977" y="160.633077"/>
     <use style="fill:#55b2e8;fill-opacity:0.5;stroke:#55b2e8;stroke-opacity:0.5;stroke-width:1.5;" x="122.315162" xlink:href="#m3cfe6a9977" y="160.633077"/>
     <use style="fill:#55b2e8;fill-opacity:0.5;stroke:#55b2e8;stroke-opacity:0.5;stroke-width:1.5;" x="123.03754" xlink:href="#m3cfe6a9977" y="160.633077"/>
     <use style="fill:#55b2e8;fill-opacity:0.5;stroke:#55b2e8;stroke-opacity:0.5;stroke-width:1.5;" x="128.40516" xlink:href="#m3cfe6a9977" y="160.633077"/>
     <use style="fill:#55b2e8;fill-opacity:0.5;stroke:#55b2e8;stroke-opacity:0.5;stroke-width:1.5;" x="120.52557" xlink:href="#m3cfe6a9977" y="160.633077"/>
     <use style="fill:#55b2e8;fill-opacity:0.5;stroke:#55b2e8;stroke-opacity:0.5;stroke-width:1.5;" x="123.012599" xlink:href="#m3cfe6a9977" y="160.633077"/>
     <use style="fill:#55b2e8;fill-opacity:0.5;stroke:#55b2e8;stroke-opacity:0.5;stroke-width:1.5;" x="109.995923" xlink:href="#m3cfe6a9977" y="160.633077"/>
     <use style="fill:#55b2e8;fill-opacity:0.5;stroke:#55b2e8;stroke-opacity:0.5;stroke-width:1.5;" x="108.712845" xlink:href="#m3cfe6a9977" y="160.633077"/>
     <use style="fill:#55b2e8;fill-opacity:0.5;stroke:#55b2e8;stroke-opacity:0.5;stroke-width:1.5;" x="122.437706" xlink:href="#m3cfe6a9977" y="160.633077"/>
     <use style="fill:#55b2e8;fill-opacity:0.5;stroke:#55b2e8;stroke-opacity:0.5;stroke-width:1.5;" x="126.736252" xlink:href="#m3cfe6a9977" y="160.633077"/>
     <use style="fill:#55b2e8;fill-opacity:0.5;stroke:#55b2e8;stroke-opacity:0.5;stroke-width:1.5;" x="128.240998" xlink:href="#m3cfe6a9977" y="160.633077"/>
     <use style="fill:#55b2e8;fill-opacity:0.5;stroke:#55b2e8;stroke-opacity:0.5;stroke-width:1.5;" x="120.029563" xlink:href="#m3cfe6a9977" y="160.633077"/>
     <use style="fill:#55b2e8;fill-opacity:0.5;stroke:#55b2e8;stroke-opacity:0.5;stroke-width:1.5;" x="123.401316" xlink:href="#m3cfe6a9977" y="160.633077"/>
     <use style="fill:#55b2e8;fill-opacity:0.5;stroke:#55b2e8;stroke-opacity:0.5;stroke-width:1.5;" x="126.537387" xlink:href="#m3cfe6a9977" y="160.633077"/>
     <use style="fill:#55b2e8;fill-opacity:0.5;stroke:#55b2e8;stroke-opacity:0.5;stroke-width:1.5;" x="123.688188" xlink:href="#m3cfe6a9977" y="160.633077"/>
     <use style="fill:#55b2e8;fill-opacity:0.5;stroke:#55b2e8;stroke-opacity:0.5;stroke-width:1.5;" x="128.14298" xlink:href="#m3cfe6a9977" y="160.633077"/>
     <use style="fill:#55b2e8;fill-opacity:0.5;stroke:#55b2e8;stroke-opacity:0.5;stroke-width:1.5;" x="116.706118" xlink:href="#m3cfe6a9977" y="160.633077"/>
    </g>
   </g>
   <g id="line2d_11">
    <path clip-path="url(#p17e6c7c1b4)" d="M 135.662396 148.819231 
L 136.267555 148.716063 
L 136.48114 148.386252 
L 136.718458 147.536529 
L 137.015104 145.520928 
L 137.406677 141.091679 
L 137.952507 132.039117 
L 139.032299 109.425328 
L 140.242617 85.871635 
L 141.085093 73.595482 
L 141.80891 66.060437 
L 142.449666 61.528646 
L 143.007361 59.016289 
L 143.481995 57.785028 
L 143.873569 57.31372 
L 144.182081 57.247366 
L 144.490593 57.420081 
L 144.870301 57.923201 
L 145.368667 59.001129 
L 146.021289 60.993417 
L 146.911228 64.490619 
L 148.228338 70.67066 
L 153.983278 98.712068 
L 155.786888 105.918176 
L 157.507437 111.902045 
L 159.192389 116.97371 
L 160.853609 121.285843 
L 162.514829 124.995531 
L 164.19978 128.223117 
L 165.908463 131.022568 
L 167.652744 133.460488 
L 169.456354 135.603335 
L 171.33116 137.488026 
L 173.300892 139.15398 
L 175.389282 140.629354 
L 177.631929 141.940659 
L 180.076296 143.109536 
L 182.769845 144.147265 
L 185.783772 145.065582 
L 189.213005 145.87275 
L 193.188066 146.574292 
L 197.910677 147.175387 
L 203.701215 147.679697 
L 211.069911 148.087918 
L 221.013499 148.402608 
L 224.644451 148.476836 
L 224.644451 148.476836 
" style="fill:none;stroke:#d65c00;stroke-linecap:round;stroke-width:2.5;"/>
   </g>
   <g id="line2d_12">
    <path clip-path="url(#p17e6c7c1b4)" d="M 135.603058 148.819231 
L 135.223351 148.719009 
L 135.069095 148.312928 
L 134.879241 146.977153 
L 134.630058 143.259137 
L 134.285948 134.186524 
L 133.728253 112.4059 
L 132.209423 50.82158 
L 131.556801 33.772089 
L 130.999106 24.359017 
L 130.512606 19.511189 
L 130.121033 17.520281 
L 129.836252 16.977214 
L 129.646398 16.98384 
L 129.444679 17.279 
L 129.148032 18.190211 
L 128.720862 20.341168 
L 128.115703 24.682611 
L 127.213898 32.95809 
L 125.172971 54.400505 
L 123.238836 73.52132 
L 121.720007 86.395457 
L 120.296104 96.627998 
L 118.919665 104.956316 
L 117.566957 111.824987 
L 116.214249 117.57581 
L 114.861542 122.382894 
L 113.496968 126.432653 
L 112.120529 129.841678 
L 110.708492 132.755793 
L 109.272724 135.220487 
L 107.789492 137.33421 
L 106.24693 139.152204 
L 104.621308 140.728003 
L 102.888893 142.098528 
L 101.014088 143.296283 
L 98.961295 144.340959 
L 96.671185 145.252989 
L 94.072562 146.044314 
L 91.046769 146.727557 
L 87.439549 147.307262 
L 82.989852 147.788603 
L 77.258644 148.174104 
L 69.391581 148.466064 
L 57.442664 148.66666 
L 35.431501 148.780035 
L 16.956364 148.804791 
L 16.956364 148.804791 
" style="fill:none;stroke:#55b2e8;stroke-linecap:round;stroke-width:2.5;"/>
   </g>
   <g id="patch_3">
    <path d="M 61.46 166.54 
L 61.46 12.96 
" style="fill:none;stroke:#262626;stroke-linecap:square;stroke-linejoin:miter;stroke-width:1.25;"/>
   </g>
   <g id="patch_4">
    <path d="M 61.46 166.54 
L 224.64 166.54 
" style="fill:none;stroke:#262626;stroke-linecap:square;stroke-linejoin:miter;stroke-width:1.25;"/>
   </g>
   <g id="legend_1">
    <g id="PathCollection_3">
     <g>
      <use style="fill:#d65c00;fill-opacity:0.5;stroke:#d65c00;stroke-opacity:0.5;stroke-width:1.5;" x="143.838125" xlink:href="#m3931237922" y="23.930781"/>
     </g>
    </g>
    <g id="text_13">
     <!-- Excitatory -->
     <g style="fill:#262626;" transform="translate(163.638125 26.818281)scale(0.11 -0.11)">
      <defs>
       <path d="M 9.8125 72.90625 
L 55.90625 72.90625 
L 55.90625 64.59375 
L 19.671875 64.59375 
L 19.671875 43.015625 
L 54.390625 43.015625 
L 54.390625 34.71875 
L 19.671875 34.71875 
L 19.671875 8.296875 
L 56.78125 8.296875 
L 56.78125 0 
L 9.8125 0 
z
" id="DejaVuSans-69"/>
       <path d="M 54.890625 54.6875 
L 35.109375 28.078125 
L 55.90625 0 
L 45.3125 0 
L 29.390625 21.484375 
L 13.484375 0 
L 2.875 0 
L 24.125 28.609375 
L 4.6875 54.6875 
L 15.28125 54.6875 
L 29.78125 35.203125 
L 44.28125 54.6875 
z
" id="DejaVuSans-120"/>
      </defs>
      <use xlink:href="#DejaVuSans-69"/>
      <use x="63.183594" xlink:href="#DejaVuSans-120"/>
      <use x="120.613281" xlink:href="#DejaVuSans-99"/>
      <use x="175.59375" xlink:href="#DejaVuSans-105"/>
      <use x="203.376953" xlink:href="#DejaVuSans-116"/>
      <use x="242.585938" xlink:href="#DejaVuSans-97"/>
      <use x="303.865234" xlink:href="#DejaVuSans-116"/>
      <use x="343.074219" xlink:href="#DejaVuSans-111"/>
      <use x="404.255859" xlink:href="#DejaVuSans-114"/>
      <use x="445.369141" xlink:href="#DejaVuSans-121"/>
     </g>
    </g>
    <g id="PathCollection_4">
     <g>
      <use style="fill:#55b2e8;fill-opacity:0.5;stroke:#55b2e8;stroke-opacity:0.5;stroke-width:1.5;" x="143.838125" xlink:href="#m3cfe6a9977" y="40.076719"/>
     </g>
    </g>
    <g id="text_14">
     <!-- Inhibitory -->
     <g style="fill:#262626;" transform="translate(163.638125 42.964219)scale(0.11 -0.11)">
      <defs>
       <path d="M 9.8125 72.90625 
L 19.671875 72.90625 
L 19.671875 0 
L 9.8125 0 
z
" id="DejaVuSans-73"/>
       <path d="M 54.890625 33.015625 
L 54.890625 0 
L 45.90625 0 
L 45.90625 32.71875 
Q 45.90625 40.484375 42.875 44.328125 
Q 39.84375 48.1875 33.796875 48.1875 
Q 26.515625 48.1875 22.3125 43.546875 
Q 18.109375 38.921875 18.109375 30.90625 
L 18.109375 0 
L 9.078125 0 
L 9.078125 75.984375 
L 18.109375 75.984375 
L 18.109375 46.1875 
Q 21.34375 51.125 25.703125 53.5625 
Q 30.078125 56 35.796875 56 
Q 45.21875 56 50.046875 50.171875 
Q 54.890625 44.34375 54.890625 33.015625 
z
" id="DejaVuSans-104"/>
      </defs>
      <use xlink:href="#DejaVuSans-73"/>
      <use x="29.492188" xlink:href="#DejaVuSans-110"/>
      <use x="92.871094" xlink:href="#DejaVuSans-104"/>
      <use x="156.25" xlink:href="#DejaVuSans-105"/>
      <use x="184.033203" xlink:href="#DejaVuSans-98"/>
      <use x="247.509766" xlink:href="#DejaVuSans-105"/>
      <use x="275.292969" xlink:href="#DejaVuSans-116"/>
      <use x="314.501953" xlink:href="#DejaVuSans-111"/>
      <use x="375.683594" xlink:href="#DejaVuSans-114"/>
      <use x="416.796875" xlink:href="#DejaVuSans-121"/>
     </g>
    </g>
   </g>
  </g>
 </g>
 <defs>
  <clipPath id="p17e6c7c1b4">
   <rect height="153.58" width="163.18" x="61.46" y="12.96"/>
  </clipPath>
 </defs>
</svg>
