<?xml version="1.0" encoding="utf-8" standalone="no"?>
<!DOCTYPE svg PUBLIC "-//W3C//DTD SVG 1.1//EN"
  "http://www.w3.org/Graphics/SVG/1.1/DTD/svg11.dtd">
<!-- Created with matplotlib (https://matplotlib.org/) -->
<svg height="216pt" version="1.1" viewBox="0 0 237.6 216" width="237.6pt" xmlns="http://www.w3.org/2000/svg" xmlns:xlink="http://www.w3.org/1999/xlink">
 <metadata>
  <rdf:RDF xmlns:cc="http://creativecommons.org/ns#" xmlns:dc="http://purl.org/dc/elements/1.1/" xmlns:rdf="http://www.w3.org/1999/02/22-rdf-syntax-ns#">
   <cc:Work>
    <dc:type rdf:resource="http://purl.org/dc/dcmitype/StillImage"/>
    <dc:date>2021-05-27T19:37:03.967775</dc:date>
    <dc:format>image/svg+xml</dc:format>
    <dc:creator>
     <cc:Agent>
      <dc:title>Matplotlib v3.3.4, https://matplotlib.org/</dc:title>
     </cc:Agent>
    </dc:creator>
   </cc:Work>
  </rdf:RDF>
 </metadata>
 <defs>
  <style type="text/css">*{stroke-linecap:butt;stroke-linejoin:round;}</style>
 </defs>
 <g id="figure_1">
  <g id="patch_1">
   <path d="M 0 216 
L 237.6 216 
L 237.6 0 
L 0 0 
z
" style="fill:#ffffff;"/>
  </g>
  <g id="axes_1">
   <g id="patch_2">
    <path d="M 63.444375 166.54 
L 224.64 166.54 
L 224.64 12.96 
L 63.444375 12.96 
z
" style="fill:#ffffff;"/>
   </g>
   <g id="matplotlib.axis_1">
    <g id="xtick_1">
     <g id="line2d_1">
      <defs>
       <path d="M 0 0 
L 0 6 
" id="mf709dfd666" style="stroke:#262626;stroke-width:1.25;"/>
      </defs>
      <g>
       <use style="fill:#262626;stroke:#262626;stroke-width:1.25;" x="70.771449" xlink:href="#mf709dfd666" y="166.54"/>
      </g>
     </g>
     <g id="text_1">
      <!-- 0 -->
      <g style="fill:#262626;" transform="translate(67.272074 184.398281)scale(0.11 -0.11)">
       <defs>
        <path d="M 31.78125 66.40625 
Q 24.171875 66.40625 20.328125 58.90625 
Q 16.5 51.421875 16.5 36.375 
Q 16.5 21.390625 20.328125 13.890625 
Q 24.171875 6.390625 31.78125 6.390625 
Q 39.453125 6.390625 43.28125 13.890625 
Q 47.125 21.390625 47.125 36.375 
Q 47.125 51.421875 43.28125 58.90625 
Q 39.453125 66.40625 31.78125 66.40625 
z
M 31.78125 74.21875 
Q 44.046875 74.21875 50.515625 64.515625 
Q 56.984375 54.828125 56.984375 36.375 
Q 56.984375 17.96875 50.515625 8.265625 
Q 44.046875 -1.421875 31.78125 -1.421875 
Q 19.53125 -1.421875 13.0625 8.265625 
Q 6.59375 17.96875 6.59375 36.375 
Q 6.59375 54.828125 13.0625 64.515625 
Q 19.53125 74.21875 31.78125 74.21875 
z
" id="DejaVuSans-48"/>
       </defs>
       <use xlink:href="#DejaVuSans-48"/>
      </g>
     </g>
    </g>
    <g id="xtick_2">
     <g id="line2d_2">
      <g>
       <use style="fill:#262626;stroke:#262626;stroke-width:1.25;" x="118.195875" xlink:href="#mf709dfd666" y="166.54"/>
      </g>
     </g>
     <g id="text_2">
      <!-- 100 -->
      <g style="fill:#262626;" transform="translate(107.69775 184.398281)scale(0.11 -0.11)">
       <defs>
        <path d="M 12.40625 8.296875 
L 28.515625 8.296875 
L 28.515625 63.921875 
L 10.984375 60.40625 
L 10.984375 69.390625 
L 28.421875 72.90625 
L 38.28125 72.90625 
L 38.28125 8.296875 
L 54.390625 8.296875 
L 54.390625 0 
L 12.40625 0 
z
" id="DejaVuSans-49"/>
       </defs>
       <use xlink:href="#DejaVuSans-49"/>
       <use x="63.623047" xlink:href="#DejaVuSans-48"/>
       <use x="127.246094" xlink:href="#DejaVuSans-48"/>
      </g>
     </g>
    </g>
    <g id="xtick_3">
     <g id="line2d_3">
      <g>
       <use style="fill:#262626;stroke:#262626;stroke-width:1.25;" x="165.620301" xlink:href="#mf709dfd666" y="166.54"/>
      </g>
     </g>
     <g id="text_3">
      <!-- 200 -->
      <g style="fill:#262626;" transform="translate(155.122176 184.398281)scale(0.11 -0.11)">
       <defs>
        <path d="M 19.1875 8.296875 
L 53.609375 8.296875 
L 53.609375 0 
L 7.328125 0 
L 7.328125 8.296875 
Q 12.9375 14.109375 22.625 23.890625 
Q 32.328125 33.6875 34.8125 36.53125 
Q 39.546875 41.84375 41.421875 45.53125 
Q 43.3125 49.21875 43.3125 52.78125 
Q 43.3125 58.59375 39.234375 62.25 
Q 35.15625 65.921875 28.609375 65.921875 
Q 23.96875 65.921875 18.8125 64.3125 
Q 13.671875 62.703125 7.8125 59.421875 
L 7.8125 69.390625 
Q 13.765625 71.78125 18.9375 73 
Q 24.125 74.21875 28.421875 74.21875 
Q 39.75 74.21875 46.484375 68.546875 
Q 53.21875 62.890625 53.21875 53.421875 
Q 53.21875 48.921875 51.53125 44.890625 
Q 49.859375 40.875 45.40625 35.40625 
Q 44.1875 33.984375 37.640625 27.21875 
Q 31.109375 20.453125 19.1875 8.296875 
z
" id="DejaVuSans-50"/>
       </defs>
       <use xlink:href="#DejaVuSans-50"/>
       <use x="63.623047" xlink:href="#DejaVuSans-48"/>
       <use x="127.246094" xlink:href="#DejaVuSans-48"/>
      </g>
     </g>
    </g>
    <g id="xtick_4">
     <g id="line2d_4">
      <g>
       <use style="fill:#262626;stroke:#262626;stroke-width:1.25;" x="213.044728" xlink:href="#mf709dfd666" y="166.54"/>
      </g>
     </g>
     <g id="text_4">
      <!-- 300 -->
      <g style="fill:#262626;" transform="translate(202.546603 184.398281)scale(0.11 -0.11)">
       <defs>
        <path d="M 40.578125 39.3125 
Q 47.65625 37.796875 51.625 33 
Q 55.609375 28.21875 55.609375 21.1875 
Q 55.609375 10.40625 48.1875 4.484375 
Q 40.765625 -1.421875 27.09375 -1.421875 
Q 22.515625 -1.421875 17.65625 -0.515625 
Q 12.796875 0.390625 7.625 2.203125 
L 7.625 11.71875 
Q 11.71875 9.328125 16.59375 8.109375 
Q 21.484375 6.890625 26.8125 6.890625 
Q 36.078125 6.890625 40.9375 10.546875 
Q 45.796875 14.203125 45.796875 21.1875 
Q 45.796875 27.640625 41.28125 31.265625 
Q 36.765625 34.90625 28.71875 34.90625 
L 20.21875 34.90625 
L 20.21875 43.015625 
L 29.109375 43.015625 
Q 36.375 43.015625 40.234375 45.921875 
Q 44.09375 48.828125 44.09375 54.296875 
Q 44.09375 59.90625 40.109375 62.90625 
Q 36.140625 65.921875 28.71875 65.921875 
Q 24.65625 65.921875 20.015625 65.03125 
Q 15.375 64.15625 9.8125 62.3125 
L 9.8125 71.09375 
Q 15.4375 72.65625 20.34375 73.4375 
Q 25.25 74.21875 29.59375 74.21875 
Q 40.828125 74.21875 47.359375 69.109375 
Q 53.90625 64.015625 53.90625 55.328125 
Q 53.90625 49.265625 50.4375 45.09375 
Q 46.96875 40.921875 40.578125 39.3125 
z
" id="DejaVuSans-51"/>
       </defs>
       <use xlink:href="#DejaVuSans-51"/>
       <use x="63.623047" xlink:href="#DejaVuSans-48"/>
       <use x="127.246094" xlink:href="#DejaVuSans-48"/>
      </g>
     </g>
    </g>
    <g id="text_5">
     <!-- Time [ms] -->
     <g style="fill:#262626;" transform="translate(113.803125 199.804063)scale(0.12 -0.12)">
      <defs>
       <path d="M -0.296875 72.90625 
L 61.375 72.90625 
L 61.375 64.59375 
L 35.5 64.59375 
L 35.5 0 
L 25.59375 0 
L 25.59375 64.59375 
L -0.296875 64.59375 
z
" id="DejaVuSans-84"/>
       <path d="M 9.421875 54.6875 
L 18.40625 54.6875 
L 18.40625 0 
L 9.421875 0 
z
M 9.421875 75.984375 
L 18.40625 75.984375 
L 18.40625 64.59375 
L 9.421875 64.59375 
z
" id="DejaVuSans-105"/>
       <path d="M 52 44.1875 
Q 55.375 50.25 60.0625 53.125 
Q 64.75 56 71.09375 56 
Q 79.640625 56 84.28125 50.015625 
Q 88.921875 44.046875 88.921875 33.015625 
L 88.921875 0 
L 79.890625 0 
L 79.890625 32.71875 
Q 79.890625 40.578125 77.09375 44.375 
Q 74.3125 48.1875 68.609375 48.1875 
Q 61.625 48.1875 57.5625 43.546875 
Q 53.515625 38.921875 53.515625 30.90625 
L 53.515625 0 
L 44.484375 0 
L 44.484375 32.71875 
Q 44.484375 40.625 41.703125 44.40625 
Q 38.921875 48.1875 33.109375 48.1875 
Q 26.21875 48.1875 22.15625 43.53125 
Q 18.109375 38.875 18.109375 30.90625 
L 18.109375 0 
L 9.078125 0 
L 9.078125 54.6875 
L 18.109375 54.6875 
L 18.109375 46.1875 
Q 21.1875 51.21875 25.484375 53.609375 
Q 29.78125 56 35.6875 56 
Q 41.65625 56 45.828125 52.96875 
Q 50 49.953125 52 44.1875 
z
" id="DejaVuSans-109"/>
       <path d="M 56.203125 29.59375 
L 56.203125 25.203125 
L 14.890625 25.203125 
Q 15.484375 15.921875 20.484375 11.0625 
Q 25.484375 6.203125 34.421875 6.203125 
Q 39.59375 6.203125 44.453125 7.46875 
Q 49.3125 8.734375 54.109375 11.28125 
L 54.109375 2.78125 
Q 49.265625 0.734375 44.1875 -0.34375 
Q 39.109375 -1.421875 33.890625 -1.421875 
Q 20.796875 -1.421875 13.15625 6.1875 
Q 5.515625 13.8125 5.515625 26.8125 
Q 5.515625 40.234375 12.765625 48.109375 
Q 20.015625 56 32.328125 56 
Q 43.359375 56 49.78125 48.890625 
Q 56.203125 41.796875 56.203125 29.59375 
z
M 47.21875 32.234375 
Q 47.125 39.59375 43.09375 43.984375 
Q 39.0625 48.390625 32.421875 48.390625 
Q 24.90625 48.390625 20.390625 44.140625 
Q 15.875 39.890625 15.1875 32.171875 
z
" id="DejaVuSans-101"/>
       <path id="DejaVuSans-32"/>
       <path d="M 8.59375 75.984375 
L 29.296875 75.984375 
L 29.296875 69 
L 17.578125 69 
L 17.578125 -6.203125 
L 29.296875 -6.203125 
L 29.296875 -13.1875 
L 8.59375 -13.1875 
z
" id="DejaVuSans-91"/>
       <path d="M 44.28125 53.078125 
L 44.28125 44.578125 
Q 40.484375 46.53125 36.375 47.5 
Q 32.28125 48.484375 27.875 48.484375 
Q 21.1875 48.484375 17.84375 46.4375 
Q 14.5 44.390625 14.5 40.28125 
Q 14.5 37.15625 16.890625 35.375 
Q 19.28125 33.59375 26.515625 31.984375 
L 29.59375 31.296875 
Q 39.15625 29.25 43.1875 25.515625 
Q 47.21875 21.78125 47.21875 15.09375 
Q 47.21875 7.46875 41.1875 3.015625 
Q 35.15625 -1.421875 24.609375 -1.421875 
Q 20.21875 -1.421875 15.453125 -0.5625 
Q 10.6875 0.296875 5.421875 2 
L 5.421875 11.28125 
Q 10.40625 8.6875 15.234375 7.390625 
Q 20.0625 6.109375 24.8125 6.109375 
Q 31.15625 6.109375 34.5625 8.28125 
Q 37.984375 10.453125 37.984375 14.40625 
Q 37.984375 18.0625 35.515625 20.015625 
Q 33.0625 21.96875 24.703125 23.78125 
L 21.578125 24.515625 
Q 13.234375 26.265625 9.515625 29.90625 
Q 5.8125 33.546875 5.8125 39.890625 
Q 5.8125 47.609375 11.28125 51.796875 
Q 16.75 56 26.8125 56 
Q 31.78125 56 36.171875 55.265625 
Q 40.578125 54.546875 44.28125 53.078125 
z
" id="DejaVuSans-115"/>
       <path d="M 30.421875 75.984375 
L 30.421875 -13.1875 
L 9.71875 -13.1875 
L 9.71875 -6.203125 
L 21.390625 -6.203125 
L 21.390625 69 
L 9.71875 69 
L 9.71875 75.984375 
z
" id="DejaVuSans-93"/>
      </defs>
      <use xlink:href="#DejaVuSans-84"/>
      <use x="57.958984" xlink:href="#DejaVuSans-105"/>
      <use x="85.742188" xlink:href="#DejaVuSans-109"/>
      <use x="183.154297" xlink:href="#DejaVuSans-101"/>
      <use x="244.677734" xlink:href="#DejaVuSans-32"/>
      <use x="276.464844" xlink:href="#DejaVuSans-91"/>
      <use x="315.478516" xlink:href="#DejaVuSans-109"/>
      <use x="412.890625" xlink:href="#DejaVuSans-115"/>
      <use x="464.990234" xlink:href="#DejaVuSans-93"/>
     </g>
    </g>
   </g>
   <g id="matplotlib.axis_2">
    <g id="ytick_1">
     <g id="line2d_5">
      <defs>
       <path d="M 0 0 
L -6 0 
" id="me7307e74a3" style="stroke:#262626;stroke-width:1.25;"/>
      </defs>
      <g>
       <use style="fill:#262626;stroke:#262626;stroke-width:1.25;" x="63.444375" xlink:href="#me7307e74a3" y="159.560449"/>
      </g>
     </g>
     <g id="text_6">
      <!-- −0.1 -->
      <g style="fill:#262626;" transform="translate(27.233281 163.73959)scale(0.11 -0.11)">
       <defs>
        <path d="M 10.59375 35.5 
L 73.1875 35.5 
L 73.1875 27.203125 
L 10.59375 27.203125 
z
" id="DejaVuSans-8722"/>
        <path d="M 10.6875 12.40625 
L 21 12.40625 
L 21 0 
L 10.6875 0 
z
" id="DejaVuSans-46"/>
       </defs>
       <use xlink:href="#DejaVuSans-8722"/>
       <use x="83.789062" xlink:href="#DejaVuSans-48"/>
       <use x="147.412109" xlink:href="#DejaVuSans-46"/>
       <use x="179.199219" xlink:href="#DejaVuSans-49"/>
      </g>
     </g>
    </g>
    <g id="ytick_2">
     <g id="line2d_6">
      <g>
       <use style="fill:#262626;stroke:#262626;stroke-width:1.25;" x="63.444375" xlink:href="#me7307e74a3" y="89.749165"/>
      </g>
     </g>
     <g id="text_7">
      <!-- 0.0 -->
      <g style="fill:#262626;" transform="translate(36.450938 93.928306)scale(0.11 -0.11)">
       <use xlink:href="#DejaVuSans-48"/>
       <use x="63.623047" xlink:href="#DejaVuSans-46"/>
       <use x="95.410156" xlink:href="#DejaVuSans-48"/>
      </g>
     </g>
    </g>
    <g id="ytick_3">
     <g id="line2d_7">
      <g>
       <use style="fill:#262626;stroke:#262626;stroke-width:1.25;" x="63.444375" xlink:href="#me7307e74a3" y="19.937881"/>
      </g>
     </g>
     <g id="text_8">
      <!-- 0.1 -->
      <g style="fill:#262626;" transform="translate(36.450938 24.117021)scale(0.11 -0.11)">
       <use xlink:href="#DejaVuSans-48"/>
       <use x="63.623047" xlink:href="#DejaVuSans-46"/>
       <use x="95.410156" xlink:href="#DejaVuSans-49"/>
      </g>
     </g>
    </g>
    <g id="text_9">
     <!-- $V$(t) / $\tilde{V}$(t) -->
     <g style="fill:#262626;" transform="translate(27.737656 117.89)rotate(-90)scale(0.12 -0.12)">
      <defs>
       <path d="M 20.609375 0 
L 7.8125 72.90625 
L 17.484375 72.90625 
L 28.078125 10.203125 
L 63.484375 72.90625 
L 74.21875 72.90625 
L 32.078125 0 
z
" id="DejaVuSans-Oblique-86"/>
       <path d="M 31 75.875 
Q 24.46875 64.65625 21.28125 53.65625 
Q 18.109375 42.671875 18.109375 31.390625 
Q 18.109375 20.125 21.3125 9.0625 
Q 24.515625 -2 31 -13.1875 
L 23.1875 -13.1875 
Q 15.875 -1.703125 12.234375 9.375 
Q 8.59375 20.453125 8.59375 31.390625 
Q 8.59375 42.28125 12.203125 53.3125 
Q 15.828125 64.359375 23.1875 75.875 
z
" id="DejaVuSans-40"/>
       <path d="M 18.3125 70.21875 
L 18.3125 54.6875 
L 36.8125 54.6875 
L 36.8125 47.703125 
L 18.3125 47.703125 
L 18.3125 18.015625 
Q 18.3125 11.328125 20.140625 9.421875 
Q 21.96875 7.515625 27.59375 7.515625 
L 36.8125 7.515625 
L 36.8125 0 
L 27.59375 0 
Q 17.1875 0 13.234375 3.875 
Q 9.28125 7.765625 9.28125 18.015625 
L 9.28125 47.703125 
L 2.6875 47.703125 
L 2.6875 54.6875 
L 9.28125 54.6875 
L 9.28125 70.21875 
z
" id="DejaVuSans-116"/>
       <path d="M 8.015625 75.875 
L 15.828125 75.875 
Q 23.140625 64.359375 26.78125 53.3125 
Q 30.421875 42.28125 30.421875 31.390625 
Q 30.421875 20.453125 26.78125 9.375 
Q 23.140625 -1.703125 15.828125 -13.1875 
L 8.015625 -13.1875 
Q 14.5 -2 17.703125 9.0625 
Q 20.90625 20.125 20.90625 31.390625 
Q 20.90625 42.671875 17.703125 53.65625 
Q 14.5 64.65625 8.015625 75.875 
z
" id="DejaVuSans-41"/>
       <path d="M 25.390625 72.90625 
L 33.6875 72.90625 
L 8.296875 -9.28125 
L 0 -9.28125 
z
" id="DejaVuSans-47"/>
       <path d="M -25.328125 66.890625 
L -28.109375 69.578125 
Q -29.171875 70.5625 -29.984375 71.015625 
Q -30.796875 71.484375 -31.421875 71.484375 
Q -33.28125 71.484375 -34.15625 69.703125 
Q -35.03125 67.921875 -35.140625 63.921875 
L -41.234375 63.921875 
Q -41.140625 70.515625 -38.640625 74.09375 
Q -36.15625 77.6875 -31.71875 77.6875 
Q -29.859375 77.6875 -28.296875 77 
Q -26.734375 76.3125 -24.9375 74.703125 
L -22.140625 72.015625 
Q -21.078125 71.046875 -20.265625 70.578125 
Q -19.46875 70.125 -18.828125 70.125 
Q -16.96875 70.125 -16.09375 71.90625 
Q -15.21875 73.6875 -15.109375 77.6875 
L -9.015625 77.6875 
Q -9.109375 71.09375 -11.59375 67.5 
Q -14.09375 63.921875 -18.53125 63.921875 
Q -20.390625 63.921875 -21.953125 64.59375 
Q -23.515625 65.28125 -25.328125 66.890625 
z
" id="DejaVuSans-771"/>
      </defs>
      <use transform="translate(0 0.828125)" xlink:href="#DejaVuSans-Oblique-86"/>
      <use transform="translate(68.408203 0.828125)" xlink:href="#DejaVuSans-40"/>
      <use transform="translate(107.421875 0.828125)" xlink:href="#DejaVuSans-116"/>
      <use transform="translate(146.630859 0.828125)" xlink:href="#DejaVuSans-41"/>
      <use transform="translate(185.644531 0.828125)" xlink:href="#DejaVuSans-32"/>
      <use transform="translate(217.431641 0.828125)" xlink:href="#DejaVuSans-47"/>
      <use transform="translate(251.123047 0.828125)" xlink:href="#DejaVuSans-32"/>
      <use transform="translate(351.246582 22.3125)" xlink:href="#DejaVuSans-771"/>
      <use transform="translate(282.910156 0.828125)" xlink:href="#DejaVuSans-Oblique-86"/>
      <use transform="translate(351.318359 0.828125)" xlink:href="#DejaVuSans-40"/>
      <use transform="translate(390.332031 0.828125)" xlink:href="#DejaVuSans-116"/>
      <use transform="translate(429.541016 0.828125)" xlink:href="#DejaVuSans-41"/>
     </g>
    </g>
   </g>
   <g id="line2d_8">
    <path clip-path="url(#pebaaecd71e)" d="M 70.771449 89.749165 
L 75.513891 89.749165 
L 76.46238 55.097345 
L 76.936624 43.663983 
L 77.410869 35.167093 
L 77.885113 29.032246 
L 78.359357 24.791197 
L 78.833601 22.062533 
L 79.307846 20.535838 
L 79.78209 19.958734 
L 80.256334 20.126275 
L 80.730578 20.872264 
L 81.204823 22.062155 
L 82.153311 25.359884 
L 83.576044 31.526354 
L 86.895754 46.461319 
L 88.792731 53.858878 
L 90.689708 60.162846 
L 92.112441 64.207411 
L 93.535173 67.72315 
L 94.957906 70.768134 
L 96.380639 73.399383 
L 97.803372 75.669831 
L 99.700349 78.217466 
L 101.597326 80.305779 
L 103.494303 82.016663 
L 105.39128 83.417918 
L 107.288257 84.565395 
L 109.659478 85.711949 
L 112.0307 86.604944 
L 114.876165 87.419855 
L 118.195875 88.107724 
L 121.989829 88.648873 
L 126.732272 89.081804 
L 132.897447 89.400772 
L 141.908088 89.614427 
L 157.558149 89.723289 
L 208.776529 89.749048 
L 217.312926 89.749118 
L 217.312926 89.749118 
" style="fill:none;stroke:#7dc2ff;stroke-linecap:round;stroke-width:2.5;"/>
   </g>
   <g id="line2d_9">
    <path clip-path="url(#pebaaecd71e)" d="M 70.771449 89.749165 
L 75.513891 89.749165 
L 76.46238 72.248161 
L 77.410869 58.287414 
L 78.359357 47.281805 
L 79.307846 38.738067 
L 80.256334 32.240592 
L 81.204823 27.439413 
L 82.153311 24.040036 
L 83.1018 21.794839 
L 83.576044 21.038678 
L 84.050288 20.495796 
L 84.524532 20.145366 
L 84.998777 19.96832 
L 85.473021 19.947208 
L 85.947265 20.06606 
L 86.895754 20.666489 
L 87.844242 21.667187 
L 88.792731 22.98269 
L 90.215464 25.393855 
L 92.112441 29.142023 
L 95.906395 37.367831 
L 99.700349 45.445718 
L 102.545814 51.01107 
L 105.39128 56.039563 
L 107.762501 59.804808 
L 110.133723 63.194324 
L 112.504944 66.229532 
L 114.876165 68.937082 
L 117.247387 71.345596 
L 119.618608 73.4837 
L 122.464074 75.731057 
L 125.309539 77.672573 
L 128.155005 79.348016 
L 131.474715 81.013329 
L 134.794424 82.413284 
L 138.588378 83.741527 
L 142.382333 84.829743 
L 146.650531 85.820497 
L 151.392974 86.689301 
L 156.60966 87.42488 
L 162.774836 88.069764 
L 170.362744 88.623414 
L 179.373385 89.049073 
L 191.229492 89.374432 
L 208.302285 89.59681 
L 217.312926 89.654418 
L 217.312926 89.654418 
" style="fill:none;stroke:#0675b6;stroke-linecap:round;stroke-width:2.5;"/>
   </g>
   <g id="line2d_10">
    <path clip-path="url(#pebaaecd71e)" d="M 70.771449 89.749165 
L 75.513891 89.749165 
L 76.936624 74.888603 
L 78.359357 62.466656 
L 79.78209 52.180636 
L 81.204823 43.761531 
L 82.627555 36.970458 
L 84.050288 31.595488 
L 84.998777 28.705231 
L 85.947265 26.310191 
L 86.895754 24.364069 
L 87.844242 22.82422 
L 88.792731 21.651387 
L 89.741219 20.809449 
L 90.689708 20.265196 
L 91.638196 19.988112 
L 92.586685 19.950174 
L 93.535173 20.125669 
L 94.483662 20.49102 
L 95.906395 21.348283 
L 97.329128 22.519219 
L 99.226105 24.470786 
L 101.123082 26.763825 
L 103.494303 29.966048 
L 107.288257 35.526781 
L 115.824654 48.194222 
L 119.618608 53.380356 
L 122.938318 57.570055 
L 126.258028 61.406577 
L 129.577737 64.883785 
L 132.897447 68.009045 
L 136.217157 70.79854 
L 139.536867 73.273842 
L 142.856577 75.459453 
L 146.176287 77.381051 
L 149.495997 79.064282 
L 153.289951 80.727861 
L 157.083905 82.147286 
L 161.352103 83.491972 
L 165.620301 84.608803 
L 170.362744 85.625848 
L 175.579431 86.520726 
L 181.744606 87.337442 
L 188.384026 87.992108 
L 196.446179 88.556707 
L 206.405308 89.013226 
L 217.312926 89.31704 
L 217.312926 89.31704 
" style="fill:none;stroke:#002a61;stroke-linecap:round;stroke-width:2.5;"/>
   </g>
   <g id="line2d_11">
    <path clip-path="url(#pebaaecd71e)" d="M 70.771449 89.749165 
L 75.513891 89.749165 
L 78.359357 99.369398 
L 81.204823 108.256562 
L 84.050288 116.401758 
L 86.895754 123.801701 
L 89.266975 129.400293 
L 91.638196 134.486355 
L 94.009418 139.065812 
L 96.380639 143.146627 
L 98.75186 146.738646 
L 101.123082 149.85344 
L 103.020059 152.010454 
L 104.917036 153.877816 
L 106.814013 155.463445 
L 108.71099 156.775743 
L 110.607967 157.823545 
L 112.504944 158.616073 
L 114.401921 159.162892 
L 116.298898 159.473861 
L 118.195875 159.559091 
L 120.092852 159.428904 
L 121.989829 159.093789 
L 123.886806 158.564367 
L 126.258028 157.645664 
L 128.629249 156.46112 
L 131.00047 155.031788 
L 133.845936 153.022994 
L 136.691401 150.727816 
L 140.011111 147.735264 
L 143.805065 143.966963 
L 148.073264 139.377622 
L 153.289951 133.414502 
L 162.300592 122.68888 
L 170.836988 112.642978 
L 176.52792 106.287494 
L 181.270362 101.310112 
L 185.538561 97.129998 
L 189.806759 93.268065 
L 193.600713 90.122616 
L 197.394667 87.260673 
L 201.188621 84.690119 
L 204.982575 82.414666 
L 208.302285 80.665718 
L 211.621995 79.140399 
L 214.941705 77.834581 
L 217.312926 77.033093 
L 217.312926 77.033093 
" style="fill:none;stroke:#79f5c5;stroke-linecap:round;stroke-width:2.5;"/>
   </g>
   <g id="line2d_12">
    <path clip-path="url(#pebaaecd71e)" d="M 70.771449 89.749165 
L 75.513891 89.749165 
L 77.410869 103.455252 
L 79.307846 115.537581 
L 81.204823 126.017002 
L 82.627555 132.847335 
L 84.050288 138.819627 
L 85.473021 143.960367 
L 86.895754 148.299846 
L 88.318487 151.871636 
L 89.741219 154.712085 
L 90.689708 156.21842 
L 91.638196 157.428771 
L 92.586685 158.355363 
L 93.535173 159.010666 
L 94.483662 159.407346 
L 95.432151 159.558211 
L 96.380639 159.476162 
L 97.329128 159.174149 
L 98.277616 158.665122 
L 99.226105 157.961996 
L 100.648837 156.571411 
L 102.07157 154.815741 
L 103.494303 152.736935 
L 105.39128 149.533012 
L 107.762501 144.963914 
L 110.607967 138.878263 
L 114.876165 129.070356 
L 121.515585 113.783705 
L 124.835295 106.709673 
L 127.68076 101.147651 
L 130.051982 96.928925 
L 132.423203 93.12295 
L 134.794424 89.749165 
L 137.165646 86.816137 
L 139.062623 84.786647 
L 140.9596 83.034294 
L 142.856577 81.551643 
L 144.753554 80.328671 
L 146.650531 79.353168 
L 148.547508 78.611121 
L 150.444485 78.087079 
L 152.341462 77.764502 
L 154.712683 77.618172 
L 157.083905 77.724783 
L 159.455126 78.049237 
L 162.300592 78.677321 
L 165.620301 79.666282 
L 169.8885 81.211808 
L 178.424897 84.643539 
L 184.115828 86.801871 
L 188.85827 88.360483 
L 193.126469 89.523802 
L 197.394667 90.441266 
L 201.662865 91.113575 
L 205.931064 91.555719 
L 210.673506 91.80795 
L 215.890193 91.845618 
L 217.312926 91.820339 
L 217.312926 91.820339 
" style="fill:none;stroke:#03a075;stroke-linecap:round;stroke-width:2.5;"/>
   </g>
   <g id="line2d_13">
    <path clip-path="url(#pebaaecd71e)" d="M 70.771449 89.749165 
L 75.513891 89.749165 
L 77.885113 111.389357 
L 79.78209 126.440613 
L 81.204823 136.097212 
L 82.627555 144.189378 
L 83.576044 148.662728 
L 84.524532 152.374859 
L 85.473021 155.31469 
L 86.42151 157.479437 
L 87.369998 158.874348 
L 87.844242 159.28687 
L 88.318487 159.512367 
L 88.792731 159.553591 
L 89.266975 159.413725 
L 89.741219 159.096359 
L 90.215464 158.60548 
L 91.163952 157.120998 
L 92.112441 154.999384 
L 93.060929 152.284885 
L 94.483662 147.209188 
L 95.906395 141.090132 
L 97.803372 131.645757 
L 100.174593 118.457112 
L 106.339769 83.393658 
L 108.236746 74.049945 
L 109.659478 67.867297 
L 111.082211 62.508598 
L 112.504944 58.052722 
L 113.453433 55.611461 
L 114.401921 53.605958 
L 115.35041 52.041333 
L 116.298898 50.918013 
L 117.247387 50.23189 
L 118.195875 49.97453 
L 119.144364 50.133405 
L 120.092852 50.692172 
L 121.041341 51.630971 
L 121.989829 52.926753 
L 122.938318 54.553634 
L 124.361051 57.552142 
L 125.783783 61.127165 
L 127.68076 66.596658 
L 130.051982 74.172429 
L 135.742913 92.661999 
L 137.63989 98.065468 
L 139.536867 102.759949 
L 140.9596 105.73025 
L 142.382333 108.180016 
L 143.805065 110.080751 
L 144.753554 111.035175 
L 145.702042 111.737965 
L 146.650531 112.190826 
L 147.599019 112.397961 
L 148.547508 112.365936 
L 149.495997 112.103538 
L 150.444485 111.621597 
L 151.392974 110.93281 
L 152.815706 109.54362 
L 154.238439 107.776114 
L 156.135416 104.935598 
L 158.506638 100.824353 
L 166.56879 86.122913 
L 168.465767 83.286005 
L 170.362744 80.905448 
L 171.785477 79.458837 
L 173.20821 78.322906 
L 174.630942 77.507224 
L 176.053675 77.013557 
L 177.476408 76.836232 
L 178.899141 76.962663 
L 180.321874 77.373999 
L 181.744606 78.045885 
L 183.167339 78.949304 
L 185.064316 80.456962 
L 187.435538 82.707967 
L 191.229492 86.741338 
L 195.023446 90.694824 
L 197.394667 92.853671 
L 199.291644 94.312604 
L 201.188621 95.487121 
L 203.085598 96.349865 
L 204.508331 96.783998 
L 205.931064 97.034906 
L 207.353797 97.106497 
L 209.250774 96.937001 
L 211.147751 96.490935 
L 213.044728 95.805407 
L 215.415949 94.679478 
L 217.312926 93.623578 
L 217.312926 93.623578 
" style="fill:none;stroke:#004e2b;stroke-linecap:round;stroke-width:2.5;"/>
   </g>
   <g id="patch_3">
    <path d="M 63.444375 166.54 
L 63.444375 12.96 
" style="fill:none;stroke:#262626;stroke-linecap:square;stroke-linejoin:miter;stroke-width:1.25;"/>
   </g>
   <g id="patch_4">
    <path d="M 63.444375 166.54 
L 224.64 166.54 
" style="fill:none;stroke:#262626;stroke-linecap:square;stroke-linejoin:miter;stroke-width:1.25;"/>
   </g>
   <g id="legend_1">
    <g id="patch_5">
     <path d="M 168.511094 156.809609 
L 215.89 156.809609 
Q 218.39 156.809609 218.39 154.309609 
L 218.39 25.190391 
Q 218.39 22.690391 215.89 22.690391 
L 168.511094 22.690391 
Q 166.011094 22.690391 166.011094 25.190391 
L 166.011094 154.309609 
Q 166.011094 156.809609 168.511094 156.809609 
z
" style="fill:#ffffff;opacity:0.9;stroke:#ffffff;stroke-linejoin:miter;"/>
    </g>
    <g id="text_10">
     <!-- $\kappa$ -->
     <g style="fill:#262626;" transform="translate(187.923047 38.708125)scale(0.145 -0.145)">
      <defs>
       <path d="M 14.65625 54.6875 
L 23.921875 54.6875 
L 19.484375 31.984375 
L 47.515625 54.6875 
L 58.453125 54.6875 
L 32.90625 34.078125 
L 51.171875 0 
L 40.1875 0 
L 25.4375 28.21875 
L 17.53125 21.921875 
L 13.28125 0 
L 4 0 
z
" id="DejaVuSans-Oblique-954"/>
      </defs>
      <use transform="translate(0 0.3125)" xlink:href="#DejaVuSans-Oblique-954"/>
     </g>
    </g>
    <g id="line2d_14">
     <path d="M 171.011094 53.096719 
L 183.511094 53.096719 
" style="fill:none;stroke:#7dc2ff;stroke-linecap:round;stroke-width:2.5;"/>
    </g>
    <g id="line2d_15"/>
    <g id="text_11">
     <!-- 2.1 -->
     <g style="fill:#262626;" transform="translate(193.511094 57.471719)scale(0.125 -0.125)">
      <use xlink:href="#DejaVuSans-50"/>
      <use x="63.623047" xlink:href="#DejaVuSans-46"/>
      <use x="95.410156" xlink:href="#DejaVuSans-49"/>
     </g>
    </g>
    <g id="line2d_16">
     <path d="M 171.011094 71.444375 
L 183.511094 71.444375 
" style="fill:none;stroke:#0675b6;stroke-linecap:round;stroke-width:2.5;"/>
    </g>
    <g id="line2d_17"/>
    <g id="text_12">
     <!-- 2.4 -->
     <g style="fill:#262626;" transform="translate(193.511094 75.819375)scale(0.125 -0.125)">
      <defs>
       <path d="M 37.796875 64.3125 
L 12.890625 25.390625 
L 37.796875 25.390625 
z
M 35.203125 72.90625 
L 47.609375 72.90625 
L 47.609375 25.390625 
L 58.015625 25.390625 
L 58.015625 17.1875 
L 47.609375 17.1875 
L 47.609375 0 
L 37.796875 0 
L 37.796875 17.1875 
L 4.890625 17.1875 
L 4.890625 26.703125 
z
" id="DejaVuSans-52"/>
      </defs>
      <use xlink:href="#DejaVuSans-50"/>
      <use x="63.623047" xlink:href="#DejaVuSans-46"/>
      <use x="95.410156" xlink:href="#DejaVuSans-52"/>
     </g>
    </g>
    <g id="line2d_18">
     <path d="M 171.011094 89.792031 
L 183.511094 89.792031 
" style="fill:none;stroke:#002a61;stroke-linecap:round;stroke-width:2.5;"/>
    </g>
    <g id="line2d_19"/>
    <g id="text_13">
     <!-- 8.1 -->
     <g style="fill:#262626;" transform="translate(193.511094 94.167031)scale(0.125 -0.125)">
      <defs>
       <path d="M 31.78125 34.625 
Q 24.75 34.625 20.71875 30.859375 
Q 16.703125 27.09375 16.703125 20.515625 
Q 16.703125 13.921875 20.71875 10.15625 
Q 24.75 6.390625 31.78125 6.390625 
Q 38.8125 6.390625 42.859375 10.171875 
Q 46.921875 13.96875 46.921875 20.515625 
Q 46.921875 27.09375 42.890625 30.859375 
Q 38.875 34.625 31.78125 34.625 
z
M 21.921875 38.8125 
Q 15.578125 40.375 12.03125 44.71875 
Q 8.5 49.078125 8.5 55.328125 
Q 8.5 64.0625 14.71875 69.140625 
Q 20.953125 74.21875 31.78125 74.21875 
Q 42.671875 74.21875 48.875 69.140625 
Q 55.078125 64.0625 55.078125 55.328125 
Q 55.078125 49.078125 51.53125 44.71875 
Q 48 40.375 41.703125 38.8125 
Q 48.828125 37.15625 52.796875 32.3125 
Q 56.78125 27.484375 56.78125 20.515625 
Q 56.78125 9.90625 50.3125 4.234375 
Q 43.84375 -1.421875 31.78125 -1.421875 
Q 19.734375 -1.421875 13.25 4.234375 
Q 6.78125 9.90625 6.78125 20.515625 
Q 6.78125 27.484375 10.78125 32.3125 
Q 14.796875 37.15625 21.921875 38.8125 
z
M 18.3125 54.390625 
Q 18.3125 48.734375 21.84375 45.5625 
Q 25.390625 42.390625 31.78125 42.390625 
Q 38.140625 42.390625 41.71875 45.5625 
Q 45.3125 48.734375 45.3125 54.390625 
Q 45.3125 60.0625 41.71875 63.234375 
Q 38.140625 66.40625 31.78125 66.40625 
Q 25.390625 66.40625 21.84375 63.234375 
Q 18.3125 60.0625 18.3125 54.390625 
z
" id="DejaVuSans-56"/>
      </defs>
      <use xlink:href="#DejaVuSans-56"/>
      <use x="63.623047" xlink:href="#DejaVuSans-46"/>
      <use x="95.410156" xlink:href="#DejaVuSans-49"/>
     </g>
    </g>
    <g id="line2d_20">
     <path d="M 171.011094 108.139688 
L 183.511094 108.139688 
" style="fill:none;stroke:#79f5c5;stroke-linecap:round;stroke-width:2.5;"/>
    </g>
    <g id="line2d_21"/>
    <g id="text_14">
     <!-- 1.9 -->
     <g style="fill:#262626;" transform="translate(193.511094 112.514688)scale(0.125 -0.125)">
      <defs>
       <path d="M 10.984375 1.515625 
L 10.984375 10.5 
Q 14.703125 8.734375 18.5 7.8125 
Q 22.3125 6.890625 25.984375 6.890625 
Q 35.75 6.890625 40.890625 13.453125 
Q 46.046875 20.015625 46.78125 33.40625 
Q 43.953125 29.203125 39.59375 26.953125 
Q 35.25 24.703125 29.984375 24.703125 
Q 19.046875 24.703125 12.671875 31.3125 
Q 6.296875 37.9375 6.296875 49.421875 
Q 6.296875 60.640625 12.9375 67.421875 
Q 19.578125 74.21875 30.609375 74.21875 
Q 43.265625 74.21875 49.921875 64.515625 
Q 56.59375 54.828125 56.59375 36.375 
Q 56.59375 19.140625 48.40625 8.859375 
Q 40.234375 -1.421875 26.421875 -1.421875 
Q 22.703125 -1.421875 18.890625 -0.6875 
Q 15.09375 0.046875 10.984375 1.515625 
z
M 30.609375 32.421875 
Q 37.25 32.421875 41.125 36.953125 
Q 45.015625 41.5 45.015625 49.421875 
Q 45.015625 57.28125 41.125 61.84375 
Q 37.25 66.40625 30.609375 66.40625 
Q 23.96875 66.40625 20.09375 61.84375 
Q 16.21875 57.28125 16.21875 49.421875 
Q 16.21875 41.5 20.09375 36.953125 
Q 23.96875 32.421875 30.609375 32.421875 
z
" id="DejaVuSans-57"/>
      </defs>
      <use xlink:href="#DejaVuSans-49"/>
      <use x="63.623047" xlink:href="#DejaVuSans-46"/>
      <use x="95.410156" xlink:href="#DejaVuSans-57"/>
     </g>
    </g>
    <g id="line2d_22">
     <path d="M 171.011094 126.487344 
L 183.511094 126.487344 
" style="fill:none;stroke:#03a075;stroke-linecap:round;stroke-width:2.5;"/>
    </g>
    <g id="line2d_23"/>
    <g id="text_15">
     <!-- 2.1 -->
     <g style="fill:#262626;" transform="translate(193.511094 130.862344)scale(0.125 -0.125)">
      <use xlink:href="#DejaVuSans-50"/>
      <use x="63.623047" xlink:href="#DejaVuSans-46"/>
      <use x="95.410156" xlink:href="#DejaVuSans-49"/>
     </g>
    </g>
    <g id="line2d_24">
     <path d="M 171.011094 144.835 
L 183.511094 144.835 
" style="fill:none;stroke:#004e2b;stroke-linecap:round;stroke-width:2.5;"/>
    </g>
    <g id="line2d_25"/>
    <g id="text_16">
     <!-- 1.3 -->
     <g style="fill:#262626;" transform="translate(193.511094 149.21)scale(0.125 -0.125)">
      <use xlink:href="#DejaVuSans-49"/>
      <use x="63.623047" xlink:href="#DejaVuSans-46"/>
      <use x="95.410156" xlink:href="#DejaVuSans-51"/>
     </g>
    </g>
   </g>
  </g>
 </g>
 <defs>
  <clipPath id="pebaaecd71e">
   <rect height="153.58" width="161.195625" x="63.444375" y="12.96"/>
  </clipPath>
 </defs>
</svg>
