<?xml version="1.0" encoding="utf-8" standalone="no"?>
<!DOCTYPE svg PUBLIC "-//W3C//DTD SVG 1.1//EN"
  "http://www.w3.org/Graphics/SVG/1.1/DTD/svg11.dtd">
<!-- Created with matplotlib (https://matplotlib.org/) -->
<svg height="180pt" version="1.1" viewBox="0 0 288 180" width="288pt" xmlns="http://www.w3.org/2000/svg" xmlns:xlink="http://www.w3.org/1999/xlink">
 <metadata>
  <rdf:RDF xmlns:cc="http://creativecommons.org/ns#" xmlns:dc="http://purl.org/dc/elements/1.1/" xmlns:rdf="http://www.w3.org/1999/02/22-rdf-syntax-ns#">
   <cc:Work>
    <dc:type rdf:resource="http://purl.org/dc/dcmitype/StillImage"/>
    <dc:date>2021-08-09T18:23:37.248659</dc:date>
    <dc:format>image/svg+xml</dc:format>
    <dc:creator>
     <cc:Agent>
      <dc:title>Matplotlib v3.3.4, https://matplotlib.org/</dc:title>
     </cc:Agent>
    </dc:creator>
   </cc:Work>
  </rdf:RDF>
 </metadata>
 <defs>
  <style type="text/css">*{stroke-linecap:butt;stroke-linejoin:round;}</style>
 </defs>
 <g id="figure_1">
  <g id="patch_1">
   <path d="M 0 180 
L 288 180 
L 288 0 
L 0 0 
z
" style="fill:#ffffff;"/>
  </g>
  <g id="axes_1">
   <g id="patch_2">
    <path d="M 56.835 130.54 
L 120.93 130.54 
L 120.93 16.96 
L 56.835 16.96 
z
" style="fill:#ffffff;"/>
   </g>
   <g id="matplotlib.axis_1">
    <g id="xtick_1">
     <g id="line2d_1">
      <defs>
       <path d="M 0 0 
L 0 6 
" id="mcc80f6d3c1" style="stroke:#262626;stroke-width:1.25;"/>
      </defs>
      <g>
       <use style="fill:#262626;stroke:#262626;stroke-width:1.25;" x="70.086312" xlink:href="#mcc80f6d3c1" y="130.54"/>
      </g>
     </g>
     <g id="text_1">
      <!-- −10 -->
      <g style="fill:#262626;" transform="translate(58.478734 148.398281)scale(0.11 -0.11)">
       <defs>
        <path d="M 10.59375 35.5 
L 73.1875 35.5 
L 73.1875 27.203125 
L 10.59375 27.203125 
z
" id="DejaVuSans-8722"/>
        <path d="M 12.40625 8.296875 
L 28.515625 8.296875 
L 28.515625 63.921875 
L 10.984375 60.40625 
L 10.984375 69.390625 
L 28.421875 72.90625 
L 38.28125 72.90625 
L 38.28125 8.296875 
L 54.390625 8.296875 
L 54.390625 0 
L 12.40625 0 
z
" id="DejaVuSans-49"/>
        <path d="M 31.78125 66.40625 
Q 24.171875 66.40625 20.328125 58.90625 
Q 16.5 51.421875 16.5 36.375 
Q 16.5 21.390625 20.328125 13.890625 
Q 24.171875 6.390625 31.78125 6.390625 
Q 39.453125 6.390625 43.28125 13.890625 
Q 47.125 21.390625 47.125 36.375 
Q 47.125 51.421875 43.28125 58.90625 
Q 39.453125 66.40625 31.78125 66.40625 
z
M 31.78125 74.21875 
Q 44.046875 74.21875 50.515625 64.515625 
Q 56.984375 54.828125 56.984375 36.375 
Q 56.984375 17.96875 50.515625 8.265625 
Q 44.046875 -1.421875 31.78125 -1.421875 
Q 19.53125 -1.421875 13.0625 8.265625 
Q 6.59375 17.96875 6.59375 36.375 
Q 6.59375 54.828125 13.0625 64.515625 
Q 19.53125 74.21875 31.78125 74.21875 
z
" id="DejaVuSans-48"/>
       </defs>
       <use xlink:href="#DejaVuSans-8722"/>
       <use x="83.789062" xlink:href="#DejaVuSans-49"/>
       <use x="147.412109" xlink:href="#DejaVuSans-48"/>
      </g>
     </g>
    </g>
    <g id="xtick_2">
     <g id="line2d_2">
      <g>
       <use style="fill:#262626;stroke:#262626;stroke-width:1.25;" x="88.8825" xlink:href="#mcc80f6d3c1" y="130.54"/>
      </g>
     </g>
     <g id="text_2">
      <!-- 0 -->
      <g style="fill:#262626;" transform="translate(85.383125 148.398281)scale(0.11 -0.11)">
       <use xlink:href="#DejaVuSans-48"/>
      </g>
     </g>
    </g>
    <g id="xtick_3">
     <g id="line2d_3">
      <g>
       <use style="fill:#262626;stroke:#262626;stroke-width:1.25;" x="107.678688" xlink:href="#mcc80f6d3c1" y="130.54"/>
      </g>
     </g>
     <g id="text_3">
      <!-- 10 -->
      <g style="fill:#262626;" transform="translate(100.679938 148.398281)scale(0.11 -0.11)">
       <use xlink:href="#DejaVuSans-49"/>
       <use x="63.623047" xlink:href="#DejaVuSans-48"/>
      </g>
     </g>
    </g>
    <g id="text_4">
     <!--   -->
     <g style="fill:#262626;" transform="translate(86.975625 163.804062)scale(0.12 -0.12)">
      <defs>
       <path id="DejaVuSans-32"/>
      </defs>
      <use xlink:href="#DejaVuSans-32"/>
     </g>
    </g>
   </g>
   <g id="matplotlib.axis_2">
    <g id="ytick_1">
     <g id="line2d_4">
      <defs>
       <path d="M 0 0 
L -6 0 
" id="m129bb788f1" style="stroke:#262626;stroke-width:1.25;"/>
      </defs>
      <g>
       <use style="fill:#262626;stroke:#262626;stroke-width:1.25;" x="56.835" xlink:href="#m129bb788f1" y="130.54"/>
      </g>
     </g>
     <g id="text_5">
      <!-- 0.0 -->
      <g style="fill:#262626;" transform="translate(29.841562 134.719141)scale(0.11 -0.11)">
       <defs>
        <path d="M 10.6875 12.40625 
L 21 12.40625 
L 21 0 
L 10.6875 0 
z
" id="DejaVuSans-46"/>
       </defs>
       <use xlink:href="#DejaVuSans-48"/>
       <use x="63.623047" xlink:href="#DejaVuSans-46"/>
       <use x="95.410156" xlink:href="#DejaVuSans-48"/>
      </g>
     </g>
    </g>
    <g id="ytick_2">
     <g id="line2d_5">
      <g>
       <use style="fill:#262626;stroke:#262626;stroke-width:1.25;" x="56.835" xlink:href="#m129bb788f1" y="107.824"/>
      </g>
     </g>
     <g id="text_6">
      <!-- 0.2 -->
      <g style="fill:#262626;" transform="translate(29.841562 112.003141)scale(0.11 -0.11)">
       <defs>
        <path d="M 19.1875 8.296875 
L 53.609375 8.296875 
L 53.609375 0 
L 7.328125 0 
L 7.328125 8.296875 
Q 12.9375 14.109375 22.625 23.890625 
Q 32.328125 33.6875 34.8125 36.53125 
Q 39.546875 41.84375 41.421875 45.53125 
Q 43.3125 49.21875 43.3125 52.78125 
Q 43.3125 58.59375 39.234375 62.25 
Q 35.15625 65.921875 28.609375 65.921875 
Q 23.96875 65.921875 18.8125 64.3125 
Q 13.671875 62.703125 7.8125 59.421875 
L 7.8125 69.390625 
Q 13.765625 71.78125 18.9375 73 
Q 24.125 74.21875 28.421875 74.21875 
Q 39.75 74.21875 46.484375 68.546875 
Q 53.21875 62.890625 53.21875 53.421875 
Q 53.21875 48.921875 51.53125 44.890625 
Q 49.859375 40.875 45.40625 35.40625 
Q 44.1875 33.984375 37.640625 27.21875 
Q 31.109375 20.453125 19.1875 8.296875 
z
" id="DejaVuSans-50"/>
       </defs>
       <use xlink:href="#DejaVuSans-48"/>
       <use x="63.623047" xlink:href="#DejaVuSans-46"/>
       <use x="95.410156" xlink:href="#DejaVuSans-50"/>
      </g>
     </g>
    </g>
    <g id="ytick_3">
     <g id="line2d_6">
      <g>
       <use style="fill:#262626;stroke:#262626;stroke-width:1.25;" x="56.835" xlink:href="#m129bb788f1" y="85.108"/>
      </g>
     </g>
     <g id="text_7">
      <!-- 0.4 -->
      <g style="fill:#262626;" transform="translate(29.841562 89.287141)scale(0.11 -0.11)">
       <defs>
        <path d="M 37.796875 64.3125 
L 12.890625 25.390625 
L 37.796875 25.390625 
z
M 35.203125 72.90625 
L 47.609375 72.90625 
L 47.609375 25.390625 
L 58.015625 25.390625 
L 58.015625 17.1875 
L 47.609375 17.1875 
L 47.609375 0 
L 37.796875 0 
L 37.796875 17.1875 
L 4.890625 17.1875 
L 4.890625 26.703125 
z
" id="DejaVuSans-52"/>
       </defs>
       <use xlink:href="#DejaVuSans-48"/>
       <use x="63.623047" xlink:href="#DejaVuSans-46"/>
       <use x="95.410156" xlink:href="#DejaVuSans-52"/>
      </g>
     </g>
    </g>
    <g id="ytick_4">
     <g id="line2d_7">
      <g>
       <use style="fill:#262626;stroke:#262626;stroke-width:1.25;" x="56.835" xlink:href="#m129bb788f1" y="62.392"/>
      </g>
     </g>
     <g id="text_8">
      <!-- 0.6 -->
      <g style="fill:#262626;" transform="translate(29.841562 66.571141)scale(0.11 -0.11)">
       <defs>
        <path d="M 33.015625 40.375 
Q 26.375 40.375 22.484375 35.828125 
Q 18.609375 31.296875 18.609375 23.390625 
Q 18.609375 15.53125 22.484375 10.953125 
Q 26.375 6.390625 33.015625 6.390625 
Q 39.65625 6.390625 43.53125 10.953125 
Q 47.40625 15.53125 47.40625 23.390625 
Q 47.40625 31.296875 43.53125 35.828125 
Q 39.65625 40.375 33.015625 40.375 
z
M 52.59375 71.296875 
L 52.59375 62.3125 
Q 48.875 64.0625 45.09375 64.984375 
Q 41.3125 65.921875 37.59375 65.921875 
Q 27.828125 65.921875 22.671875 59.328125 
Q 17.53125 52.734375 16.796875 39.40625 
Q 19.671875 43.65625 24.015625 45.921875 
Q 28.375 48.1875 33.59375 48.1875 
Q 44.578125 48.1875 50.953125 41.515625 
Q 57.328125 34.859375 57.328125 23.390625 
Q 57.328125 12.15625 50.6875 5.359375 
Q 44.046875 -1.421875 33.015625 -1.421875 
Q 20.359375 -1.421875 13.671875 8.265625 
Q 6.984375 17.96875 6.984375 36.375 
Q 6.984375 53.65625 15.1875 63.9375 
Q 23.390625 74.21875 37.203125 74.21875 
Q 40.921875 74.21875 44.703125 73.484375 
Q 48.484375 72.75 52.59375 71.296875 
z
" id="DejaVuSans-54"/>
       </defs>
       <use xlink:href="#DejaVuSans-48"/>
       <use x="63.623047" xlink:href="#DejaVuSans-46"/>
       <use x="95.410156" xlink:href="#DejaVuSans-54"/>
      </g>
     </g>
    </g>
    <g id="ytick_5">
     <g id="line2d_8">
      <g>
       <use style="fill:#262626;stroke:#262626;stroke-width:1.25;" x="56.835" xlink:href="#m129bb788f1" y="39.676"/>
      </g>
     </g>
     <g id="text_9">
      <!-- 0.8 -->
      <g style="fill:#262626;" transform="translate(29.841562 43.855141)scale(0.11 -0.11)">
       <defs>
        <path d="M 31.78125 34.625 
Q 24.75 34.625 20.71875 30.859375 
Q 16.703125 27.09375 16.703125 20.515625 
Q 16.703125 13.921875 20.71875 10.15625 
Q 24.75 6.390625 31.78125 6.390625 
Q 38.8125 6.390625 42.859375 10.171875 
Q 46.921875 13.96875 46.921875 20.515625 
Q 46.921875 27.09375 42.890625 30.859375 
Q 38.875 34.625 31.78125 34.625 
z
M 21.921875 38.8125 
Q 15.578125 40.375 12.03125 44.71875 
Q 8.5 49.078125 8.5 55.328125 
Q 8.5 64.0625 14.71875 69.140625 
Q 20.953125 74.21875 31.78125 74.21875 
Q 42.671875 74.21875 48.875 69.140625 
Q 55.078125 64.0625 55.078125 55.328125 
Q 55.078125 49.078125 51.53125 44.71875 
Q 48 40.375 41.703125 38.8125 
Q 48.828125 37.15625 52.796875 32.3125 
Q 56.78125 27.484375 56.78125 20.515625 
Q 56.78125 9.90625 50.3125 4.234375 
Q 43.84375 -1.421875 31.78125 -1.421875 
Q 19.734375 -1.421875 13.25 4.234375 
Q 6.78125 9.90625 6.78125 20.515625 
Q 6.78125 27.484375 10.78125 32.3125 
Q 14.796875 37.15625 21.921875 38.8125 
z
M 18.3125 54.390625 
Q 18.3125 48.734375 21.84375 45.5625 
Q 25.390625 42.390625 31.78125 42.390625 
Q 38.140625 42.390625 41.71875 45.5625 
Q 45.3125 48.734375 45.3125 54.390625 
Q 45.3125 60.0625 41.71875 63.234375 
Q 38.140625 66.40625 31.78125 66.40625 
Q 25.390625 66.40625 21.84375 63.234375 
Q 18.3125 60.0625 18.3125 54.390625 
z
" id="DejaVuSans-56"/>
       </defs>
       <use xlink:href="#DejaVuSans-48"/>
       <use x="63.623047" xlink:href="#DejaVuSans-46"/>
       <use x="95.410156" xlink:href="#DejaVuSans-56"/>
      </g>
     </g>
    </g>
    <g id="ytick_6">
     <g id="line2d_9">
      <g>
       <use style="fill:#262626;stroke:#262626;stroke-width:1.25;" x="56.835" xlink:href="#m129bb788f1" y="16.96"/>
      </g>
     </g>
     <g id="text_10">
      <!-- 1.0 -->
      <g style="fill:#262626;" transform="translate(29.841562 21.139141)scale(0.11 -0.11)">
       <use xlink:href="#DejaVuSans-49"/>
       <use x="63.623047" xlink:href="#DejaVuSans-46"/>
       <use x="95.410156" xlink:href="#DejaVuSans-48"/>
      </g>
     </g>
    </g>
    <g id="text_11">
     <!-- Density -->
     <g style="fill:#262626;" transform="translate(23.345937 96.560312)rotate(-90)scale(0.12 -0.12)">
      <defs>
       <path d="M 19.671875 64.796875 
L 19.671875 8.109375 
L 31.59375 8.109375 
Q 46.6875 8.109375 53.6875 14.9375 
Q 60.6875 21.78125 60.6875 36.53125 
Q 60.6875 51.171875 53.6875 57.984375 
Q 46.6875 64.796875 31.59375 64.796875 
z
M 9.8125 72.90625 
L 30.078125 72.90625 
Q 51.265625 72.90625 61.171875 64.09375 
Q 71.09375 55.28125 71.09375 36.53125 
Q 71.09375 17.671875 61.125 8.828125 
Q 51.171875 0 30.078125 0 
L 9.8125 0 
z
" id="DejaVuSans-68"/>
       <path d="M 56.203125 29.59375 
L 56.203125 25.203125 
L 14.890625 25.203125 
Q 15.484375 15.921875 20.484375 11.0625 
Q 25.484375 6.203125 34.421875 6.203125 
Q 39.59375 6.203125 44.453125 7.46875 
Q 49.3125 8.734375 54.109375 11.28125 
L 54.109375 2.78125 
Q 49.265625 0.734375 44.1875 -0.34375 
Q 39.109375 -1.421875 33.890625 -1.421875 
Q 20.796875 -1.421875 13.15625 6.1875 
Q 5.515625 13.8125 5.515625 26.8125 
Q 5.515625 40.234375 12.765625 48.109375 
Q 20.015625 56 32.328125 56 
Q 43.359375 56 49.78125 48.890625 
Q 56.203125 41.796875 56.203125 29.59375 
z
M 47.21875 32.234375 
Q 47.125 39.59375 43.09375 43.984375 
Q 39.0625 48.390625 32.421875 48.390625 
Q 24.90625 48.390625 20.390625 44.140625 
Q 15.875 39.890625 15.1875 32.171875 
z
" id="DejaVuSans-101"/>
       <path d="M 54.890625 33.015625 
L 54.890625 0 
L 45.90625 0 
L 45.90625 32.71875 
Q 45.90625 40.484375 42.875 44.328125 
Q 39.84375 48.1875 33.796875 48.1875 
Q 26.515625 48.1875 22.3125 43.546875 
Q 18.109375 38.921875 18.109375 30.90625 
L 18.109375 0 
L 9.078125 0 
L 9.078125 54.6875 
L 18.109375 54.6875 
L 18.109375 46.1875 
Q 21.34375 51.125 25.703125 53.5625 
Q 30.078125 56 35.796875 56 
Q 45.21875 56 50.046875 50.171875 
Q 54.890625 44.34375 54.890625 33.015625 
z
" id="DejaVuSans-110"/>
       <path d="M 44.28125 53.078125 
L 44.28125 44.578125 
Q 40.484375 46.53125 36.375 47.5 
Q 32.28125 48.484375 27.875 48.484375 
Q 21.1875 48.484375 17.84375 46.4375 
Q 14.5 44.390625 14.5 40.28125 
Q 14.5 37.15625 16.890625 35.375 
Q 19.28125 33.59375 26.515625 31.984375 
L 29.59375 31.296875 
Q 39.15625 29.25 43.1875 25.515625 
Q 47.21875 21.78125 47.21875 15.09375 
Q 47.21875 7.46875 41.1875 3.015625 
Q 35.15625 -1.421875 24.609375 -1.421875 
Q 20.21875 -1.421875 15.453125 -0.5625 
Q 10.6875 0.296875 5.421875 2 
L 5.421875 11.28125 
Q 10.40625 8.6875 15.234375 7.390625 
Q 20.0625 6.109375 24.8125 6.109375 
Q 31.15625 6.109375 34.5625 8.28125 
Q 37.984375 10.453125 37.984375 14.40625 
Q 37.984375 18.0625 35.515625 20.015625 
Q 33.0625 21.96875 24.703125 23.78125 
L 21.578125 24.515625 
Q 13.234375 26.265625 9.515625 29.90625 
Q 5.8125 33.546875 5.8125 39.890625 
Q 5.8125 47.609375 11.28125 51.796875 
Q 16.75 56 26.8125 56 
Q 31.78125 56 36.171875 55.265625 
Q 40.578125 54.546875 44.28125 53.078125 
z
" id="DejaVuSans-115"/>
       <path d="M 9.421875 54.6875 
L 18.40625 54.6875 
L 18.40625 0 
L 9.421875 0 
z
M 9.421875 75.984375 
L 18.40625 75.984375 
L 18.40625 64.59375 
L 9.421875 64.59375 
z
" id="DejaVuSans-105"/>
       <path d="M 18.3125 70.21875 
L 18.3125 54.6875 
L 36.8125 54.6875 
L 36.8125 47.703125 
L 18.3125 47.703125 
L 18.3125 18.015625 
Q 18.3125 11.328125 20.140625 9.421875 
Q 21.96875 7.515625 27.59375 7.515625 
L 36.8125 7.515625 
L 36.8125 0 
L 27.59375 0 
Q 17.1875 0 13.234375 3.875 
Q 9.28125 7.765625 9.28125 18.015625 
L 9.28125 47.703125 
L 2.6875 47.703125 
L 2.6875 54.6875 
L 9.28125 54.6875 
L 9.28125 70.21875 
z
" id="DejaVuSans-116"/>
       <path d="M 32.171875 -5.078125 
Q 28.375 -14.84375 24.75 -17.8125 
Q 21.140625 -20.796875 15.09375 -20.796875 
L 7.90625 -20.796875 
L 7.90625 -13.28125 
L 13.1875 -13.28125 
Q 16.890625 -13.28125 18.9375 -11.515625 
Q 21 -9.765625 23.484375 -3.21875 
L 25.09375 0.875 
L 2.984375 54.6875 
L 12.5 54.6875 
L 29.59375 11.921875 
L 46.6875 54.6875 
L 56.203125 54.6875 
z
" id="DejaVuSans-121"/>
      </defs>
      <use xlink:href="#DejaVuSans-68"/>
      <use x="77.001953" xlink:href="#DejaVuSans-101"/>
      <use x="138.525391" xlink:href="#DejaVuSans-110"/>
      <use x="201.904297" xlink:href="#DejaVuSans-115"/>
      <use x="254.003906" xlink:href="#DejaVuSans-105"/>
      <use x="281.787109" xlink:href="#DejaVuSans-116"/>
      <use x="320.996094" xlink:href="#DejaVuSans-121"/>
     </g>
    </g>
   </g>
   <g id="patch_3">
    <path clip-path="url(#p72cc1f0fba)" d="M 59.748409 130.54 
L 61.628028 130.54 
L 61.628028 128.264753 
L 59.748409 128.264753 
z
" style="fill:#002a61;"/>
   </g>
   <g id="patch_4">
    <path clip-path="url(#p72cc1f0fba)" d="M 61.628028 130.54 
L 63.507647 130.54 
L 63.507647 128.344152 
L 61.628028 128.344152 
z
" style="fill:#002a61;"/>
   </g>
   <g id="patch_5">
    <path clip-path="url(#p72cc1f0fba)" d="M 63.507647 130.54 
L 65.387265 130.54 
L 65.387265 128.210902 
L 63.507647 128.210902 
z
" style="fill:#002a61;"/>
   </g>
   <g id="patch_6">
    <path clip-path="url(#p72cc1f0fba)" d="M 65.387265 130.54 
L 67.266884 130.54 
L 67.266884 128.127179 
L 65.387265 128.127179 
z
" style="fill:#002a61;"/>
   </g>
   <g id="patch_7">
    <path clip-path="url(#p72cc1f0fba)" d="M 67.266884 130.54 
L 69.146503 130.54 
L 69.146503 127.941254 
L 67.266884 127.941254 
z
" style="fill:#002a61;"/>
   </g>
   <g id="patch_8">
    <path clip-path="url(#p72cc1f0fba)" d="M 69.146503 130.54 
L 71.026122 130.54 
L 71.026122 127.595856 
L 69.146503 127.595856 
z
" style="fill:#002a61;"/>
   </g>
   <g id="patch_9">
    <path clip-path="url(#p72cc1f0fba)" d="M 71.026122 130.54 
L 72.90574 130.54 
L 72.90574 127.312701 
L 71.026122 127.312701 
z
" style="fill:#002a61;"/>
   </g>
   <g id="patch_10">
    <path clip-path="url(#p72cc1f0fba)" d="M 72.90574 130.54 
L 74.785359 130.54 
L 74.785359 127.582886 
L 72.90574 127.582886 
z
" style="fill:#002a61;"/>
   </g>
   <g id="patch_11">
    <path clip-path="url(#p72cc1f0fba)" d="M 74.785359 130.54 
L 76.664978 130.54 
L 76.664978 127.254216 
L 74.785359 127.254216 
z
" style="fill:#002a61;"/>
   </g>
   <g id="patch_12">
    <path clip-path="url(#p72cc1f0fba)" d="M 76.664978 130.54 
L 78.544597 130.54 
L 78.544597 126.951403 
L 76.664978 126.951403 
z
" style="fill:#002a61;"/>
   </g>
   <g id="patch_13">
    <path clip-path="url(#p72cc1f0fba)" d="M 78.544597 130.54 
L 80.424216 130.54 
L 80.424216 126.48472 
L 78.544597 126.48472 
z
" style="fill:#002a61;"/>
   </g>
   <g id="patch_14">
    <path clip-path="url(#p72cc1f0fba)" d="M 80.424216 130.54 
L 82.303834 130.54 
L 82.303834 126.1346 
L 80.424216 126.1346 
z
" style="fill:#002a61;"/>
   </g>
   <g id="patch_15">
    <path clip-path="url(#p72cc1f0fba)" d="M 82.303834 130.54 
L 84.183453 130.54 
L 84.183453 125.818924 
L 82.303834 125.818924 
z
" style="fill:#002a61;"/>
   </g>
   <g id="patch_16">
    <path clip-path="url(#p72cc1f0fba)" d="M 84.183453 130.54 
L 86.063072 130.54 
L 86.063072 125.305096 
L 84.183453 125.305096 
z
" style="fill:#002a61;"/>
   </g>
   <g id="patch_17">
    <path clip-path="url(#p72cc1f0fba)" d="M 86.063072 130.54 
L 87.942691 130.54 
L 87.942691 124.263394 
L 86.063072 124.263394 
z
" style="fill:#002a61;"/>
   </g>
   <g id="patch_18">
    <path clip-path="url(#p72cc1f0fba)" d="M 87.942691 130.54 
L 89.822309 130.54 
L 89.822309 124.027168 
L 87.942691 124.027168 
z
" style="fill:#002a61;"/>
   </g>
   <g id="patch_19">
    <path clip-path="url(#p72cc1f0fba)" d="M 89.822309 130.54 
L 91.701928 130.54 
L 91.701928 124.245902 
L 89.822309 124.245902 
z
" style="fill:#002a61;"/>
   </g>
   <g id="patch_20">
    <path clip-path="url(#p72cc1f0fba)" d="M 91.701928 130.54 
L 93.581547 130.54 
L 93.581547 125.094674 
L 91.701928 125.094674 
z
" style="fill:#002a61;"/>
   </g>
   <g id="patch_21">
    <path clip-path="url(#p72cc1f0fba)" d="M 93.581547 130.54 
L 95.461166 130.54 
L 95.461166 125.778502 
L 93.581547 125.778502 
z
" style="fill:#002a61;"/>
   </g>
   <g id="patch_22">
    <path clip-path="url(#p72cc1f0fba)" d="M 95.461166 130.54 
L 97.340784 130.54 
L 97.340784 126.208387 
L 95.461166 126.208387 
z
" style="fill:#002a61;"/>
   </g>
   <g id="patch_23">
    <path clip-path="url(#p72cc1f0fba)" d="M 97.340784 130.54 
L 99.220403 130.54 
L 99.220403 126.745593 
L 97.340784 126.745593 
z
" style="fill:#002a61;"/>
   </g>
   <g id="patch_24">
    <path clip-path="url(#p72cc1f0fba)" d="M 99.220403 130.54 
L 101.100022 130.54 
L 101.100022 126.680641 
L 99.220403 126.680641 
z
" style="fill:#002a61;"/>
   </g>
   <g id="patch_25">
    <path clip-path="url(#p72cc1f0fba)" d="M 101.100022 130.54 
L 102.979641 130.54 
L 102.979641 127.154467 
L 101.100022 127.154467 
z
" style="fill:#002a61;"/>
   </g>
   <g id="patch_26">
    <path clip-path="url(#p72cc1f0fba)" d="M 102.979641 130.54 
L 104.85926 130.54 
L 104.85926 127.4421 
L 102.979641 127.4421 
z
" style="fill:#002a61;"/>
   </g>
   <g id="patch_27">
    <path clip-path="url(#p72cc1f0fba)" d="M 104.85926 130.54 
L 106.738878 130.54 
L 106.738878 127.67346 
L 104.85926 127.67346 
z
" style="fill:#002a61;"/>
   </g>
   <g id="patch_28">
    <path clip-path="url(#p72cc1f0fba)" d="M 106.738878 130.54 
L 108.618497 130.54 
L 108.618497 127.840864 
L 106.738878 127.840864 
z
" style="fill:#002a61;"/>
   </g>
   <g id="patch_29">
    <path clip-path="url(#p72cc1f0fba)" d="M 108.618497 130.54 
L 110.498116 130.54 
L 110.498116 127.790273 
L 108.618497 127.790273 
z
" style="fill:#002a61;"/>
   </g>
   <g id="patch_30">
    <path clip-path="url(#p72cc1f0fba)" d="M 110.498116 130.54 
L 112.377735 130.54 
L 112.377735 128.095607 
L 110.498116 128.095607 
z
" style="fill:#002a61;"/>
   </g>
   <g id="patch_31">
    <path clip-path="url(#p72cc1f0fba)" d="M 112.377735 130.54 
L 114.257353 130.54 
L 114.257353 128.042759 
L 112.377735 128.042759 
z
" style="fill:#002a61;"/>
   </g>
   <g id="patch_32">
    <path clip-path="url(#p72cc1f0fba)" d="M 114.257353 130.54 
L 116.136972 130.54 
L 116.136972 128.451899 
L 114.257353 128.451899 
z
" style="fill:#002a61;"/>
   </g>
   <g id="patch_33">
    <path clip-path="url(#p72cc1f0fba)" d="M 116.136972 130.54 
L 118.016591 130.54 
L 118.016591 126.295667 
L 116.136972 126.295667 
z
" style="fill:#002a61;"/>
   </g>
   <g id="patch_34">
    <path d="M 56.835 130.54 
L 56.835 16.96 
" style="fill:none;stroke:#262626;stroke-linecap:square;stroke-linejoin:miter;stroke-width:1.25;"/>
   </g>
   <g id="patch_35">
    <path d="M 56.835 130.54 
L 120.93 130.54 
" style="fill:none;stroke:#262626;stroke-linecap:square;stroke-linejoin:miter;stroke-width:1.25;"/>
   </g>
  </g>
  <g id="axes_2">
   <g id="patch_36">
    <path d="M 133.89 130.54 
L 197.985 130.54 
L 197.985 16.96 
L 133.89 16.96 
z
" style="fill:#ffffff;"/>
   </g>
   <g id="matplotlib.axis_3">
    <g id="xtick_4">
     <g id="line2d_10">
      <g>
       <use style="fill:#262626;stroke:#262626;stroke-width:1.25;" x="147.141312" xlink:href="#mcc80f6d3c1" y="130.54"/>
      </g>
     </g>
     <g id="text_12">
      <!-- −10 -->
      <g style="fill:#262626;" transform="translate(135.533734 148.398281)scale(0.11 -0.11)">
       <use xlink:href="#DejaVuSans-8722"/>
       <use x="83.789062" xlink:href="#DejaVuSans-49"/>
       <use x="147.412109" xlink:href="#DejaVuSans-48"/>
      </g>
     </g>
    </g>
    <g id="xtick_5">
     <g id="line2d_11">
      <g>
       <use style="fill:#262626;stroke:#262626;stroke-width:1.25;" x="165.9375" xlink:href="#mcc80f6d3c1" y="130.54"/>
      </g>
     </g>
     <g id="text_13">
      <!-- 0 -->
      <g style="fill:#262626;" transform="translate(162.438125 148.398281)scale(0.11 -0.11)">
       <use xlink:href="#DejaVuSans-48"/>
      </g>
     </g>
    </g>
    <g id="xtick_6">
     <g id="line2d_12">
      <g>
       <use style="fill:#262626;stroke:#262626;stroke-width:1.25;" x="184.733688" xlink:href="#mcc80f6d3c1" y="130.54"/>
      </g>
     </g>
     <g id="text_14">
      <!-- 10 -->
      <g style="fill:#262626;" transform="translate(177.734938 148.398281)scale(0.11 -0.11)">
       <use xlink:href="#DejaVuSans-49"/>
       <use x="63.623047" xlink:href="#DejaVuSans-48"/>
      </g>
     </g>
    </g>
   </g>
   <g id="matplotlib.axis_4"/>
   <g id="patch_37">
    <path clip-path="url(#paa1fb3683b)" d="M 136.803409 130.54 
L 138.683028 130.54 
L 138.683028 129.68087 
L 136.803409 129.68087 
z
" style="fill:#0675b6;"/>
   </g>
   <g id="patch_38">
    <path clip-path="url(#paa1fb3683b)" d="M 138.683028 130.54 
L 140.562647 130.54 
L 140.562647 129.527875 
L 138.683028 129.527875 
z
" style="fill:#0675b6;"/>
   </g>
   <g id="patch_39">
    <path clip-path="url(#paa1fb3683b)" d="M 140.562647 130.54 
L 142.442265 130.54 
L 142.442265 129.427822 
L 140.562647 129.427822 
z
" style="fill:#0675b6;"/>
   </g>
   <g id="patch_40">
    <path clip-path="url(#paa1fb3683b)" d="M 142.442265 130.54 
L 144.321884 130.54 
L 144.321884 129.340453 
L 142.442265 129.340453 
z
" style="fill:#0675b6;"/>
   </g>
   <g id="patch_41">
    <path clip-path="url(#paa1fb3683b)" d="M 144.321884 130.54 
L 146.201503 130.54 
L 146.201503 129.154505 
L 144.321884 129.154505 
z
" style="fill:#0675b6;"/>
   </g>
   <g id="patch_42">
    <path clip-path="url(#paa1fb3683b)" d="M 146.201503 130.54 
L 148.081122 130.54 
L 148.081122 128.98518 
L 146.201503 128.98518 
z
" style="fill:#0675b6;"/>
   </g>
   <g id="patch_43">
    <path clip-path="url(#paa1fb3683b)" d="M 148.081122 130.54 
L 149.96074 130.54 
L 149.96074 128.665116 
L 148.081122 128.665116 
z
" style="fill:#0675b6;"/>
   </g>
   <g id="patch_44">
    <path clip-path="url(#paa1fb3683b)" d="M 149.96074 130.54 
L 151.840359 130.54 
L 151.840359 128.420234 
L 149.96074 128.420234 
z
" style="fill:#0675b6;"/>
   </g>
   <g id="patch_45">
    <path clip-path="url(#paa1fb3683b)" d="M 151.840359 130.54 
L 153.719978 130.54 
L 153.719978 128.000515 
L 151.840359 128.000515 
z
" style="fill:#0675b6;"/>
   </g>
   <g id="patch_46">
    <path clip-path="url(#paa1fb3683b)" d="M 153.719978 130.54 
L 155.599597 130.54 
L 155.599597 127.553125 
L 153.719978 127.553125 
z
" style="fill:#0675b6;"/>
   </g>
   <g id="patch_47">
    <path clip-path="url(#paa1fb3683b)" d="M 155.599597 130.54 
L 157.479216 130.54 
L 157.479216 126.890185 
L 155.599597 126.890185 
z
" style="fill:#0675b6;"/>
   </g>
   <g id="patch_48">
    <path clip-path="url(#paa1fb3683b)" d="M 157.479216 130.54 
L 159.358834 130.54 
L 159.358834 126.046962 
L 157.479216 126.046962 
z
" style="fill:#0675b6;"/>
   </g>
   <g id="patch_49">
    <path clip-path="url(#paa1fb3683b)" d="M 159.358834 130.54 
L 161.238453 130.54 
L 161.238453 124.685639 
L 159.358834 124.685639 
z
" style="fill:#0675b6;"/>
   </g>
   <g id="patch_50">
    <path clip-path="url(#paa1fb3683b)" d="M 161.238453 130.54 
L 163.118072 130.54 
L 163.118072 122.973599 
L 161.238453 122.973599 
z
" style="fill:#0675b6;"/>
   </g>
   <g id="patch_51">
    <path clip-path="url(#paa1fb3683b)" d="M 163.118072 130.54 
L 164.997691 130.54 
L 164.997691 120.4457 
L 163.118072 120.4457 
z
" style="fill:#0675b6;"/>
   </g>
   <g id="patch_52">
    <path clip-path="url(#paa1fb3683b)" d="M 164.997691 130.54 
L 166.877309 130.54 
L 166.877309 118.605323 
L 164.997691 118.605323 
z
" style="fill:#0675b6;"/>
   </g>
   <g id="patch_53">
    <path clip-path="url(#paa1fb3683b)" d="M 166.877309 130.54 
L 168.756928 130.54 
L 168.756928 119.59144 
L 166.877309 119.59144 
z
" style="fill:#0675b6;"/>
   </g>
   <g id="patch_54">
    <path clip-path="url(#paa1fb3683b)" d="M 168.756928 130.54 
L 170.636547 130.54 
L 170.636547 122.03289 
L 168.756928 122.03289 
z
" style="fill:#0675b6;"/>
   </g>
   <g id="patch_55">
    <path clip-path="url(#paa1fb3683b)" d="M 170.636547 130.54 
L 172.516166 130.54 
L 172.516166 124.244038 
L 170.636547 124.244038 
z
" style="fill:#0675b6;"/>
   </g>
   <g id="patch_56">
    <path clip-path="url(#paa1fb3683b)" d="M 172.516166 130.54 
L 174.395784 130.54 
L 174.395784 125.609365 
L 172.516166 125.609365 
z
" style="fill:#0675b6;"/>
   </g>
   <g id="patch_57">
    <path clip-path="url(#paa1fb3683b)" d="M 174.395784 130.54 
L 176.275403 130.54 
L 176.275403 126.50163 
L 174.395784 126.50163 
z
" style="fill:#0675b6;"/>
   </g>
   <g id="patch_58">
    <path clip-path="url(#paa1fb3683b)" d="M 176.275403 130.54 
L 178.155022 130.54 
L 178.155022 127.277559 
L 176.275403 127.277559 
z
" style="fill:#0675b6;"/>
   </g>
   <g id="patch_59">
    <path clip-path="url(#paa1fb3683b)" d="M 178.155022 130.54 
L 180.034641 130.54 
L 180.034641 127.885666 
L 178.155022 127.885666 
z
" style="fill:#0675b6;"/>
   </g>
   <g id="patch_60">
    <path clip-path="url(#paa1fb3683b)" d="M 180.034641 130.54 
L 181.91426 130.54 
L 181.91426 128.361382 
L 180.034641 128.361382 
z
" style="fill:#0675b6;"/>
   </g>
   <g id="patch_61">
    <path clip-path="url(#paa1fb3683b)" d="M 181.91426 130.54 
L 183.793878 130.54 
L 183.793878 128.639095 
L 181.91426 128.639095 
z
" style="fill:#0675b6;"/>
   </g>
   <g id="patch_62">
    <path clip-path="url(#paa1fb3683b)" d="M 183.793878 130.54 
L 185.673497 130.54 
L 185.673497 128.81742 
L 183.793878 128.81742 
z
" style="fill:#0675b6;"/>
   </g>
   <g id="patch_63">
    <path clip-path="url(#paa1fb3683b)" d="M 185.673497 130.54 
L 187.553116 130.54 
L 187.553116 128.989156 
L 185.673497 128.989156 
z
" style="fill:#0675b6;"/>
   </g>
   <g id="patch_64">
    <path clip-path="url(#paa1fb3683b)" d="M 187.553116 130.54 
L 189.432735 130.54 
L 189.432735 129.204328 
L 187.553116 129.204328 
z
" style="fill:#0675b6;"/>
   </g>
   <g id="patch_65">
    <path clip-path="url(#paa1fb3683b)" d="M 189.432735 130.54 
L 191.312353 130.54 
L 191.312353 129.409484 
L 189.432735 129.409484 
z
" style="fill:#0675b6;"/>
   </g>
   <g id="patch_66">
    <path clip-path="url(#paa1fb3683b)" d="M 191.312353 130.54 
L 193.191972 130.54 
L 193.191972 129.417687 
L 191.312353 129.417687 
z
" style="fill:#0675b6;"/>
   </g>
   <g id="patch_67">
    <path clip-path="url(#paa1fb3683b)" d="M 193.191972 130.54 
L 195.071591 130.54 
L 195.071591 128.775757 
L 193.191972 128.775757 
z
" style="fill:#0675b6;"/>
   </g>
   <g id="patch_68">
    <path d="M 133.89 130.54 
L 197.985 130.54 
" style="fill:none;stroke:#262626;stroke-linecap:square;stroke-linejoin:miter;stroke-width:1.25;"/>
   </g>
  </g>
  <g id="axes_3">
   <g id="patch_69">
    <path d="M 210.945 130.54 
L 275.04 130.54 
L 275.04 16.96 
L 210.945 16.96 
z
" style="fill:#ffffff;"/>
   </g>
   <g id="matplotlib.axis_5">
    <g id="xtick_7">
     <g id="line2d_13">
      <g>
       <use style="fill:#262626;stroke:#262626;stroke-width:1.25;" x="224.196312" xlink:href="#mcc80f6d3c1" y="130.54"/>
      </g>
     </g>
     <g id="text_15">
      <!-- −10 -->
      <g style="fill:#262626;" transform="translate(212.588734 148.398281)scale(0.11 -0.11)">
       <use xlink:href="#DejaVuSans-8722"/>
       <use x="83.789062" xlink:href="#DejaVuSans-49"/>
       <use x="147.412109" xlink:href="#DejaVuSans-48"/>
      </g>
     </g>
    </g>
    <g id="xtick_8">
     <g id="line2d_14">
      <g>
       <use style="fill:#262626;stroke:#262626;stroke-width:1.25;" x="242.9925" xlink:href="#mcc80f6d3c1" y="130.54"/>
      </g>
     </g>
     <g id="text_16">
      <!-- 0 -->
      <g style="fill:#262626;" transform="translate(239.493125 148.398281)scale(0.11 -0.11)">
       <use xlink:href="#DejaVuSans-48"/>
      </g>
     </g>
    </g>
    <g id="xtick_9">
     <g id="line2d_15">
      <g>
       <use style="fill:#262626;stroke:#262626;stroke-width:1.25;" x="261.788688" xlink:href="#mcc80f6d3c1" y="130.54"/>
      </g>
     </g>
     <g id="text_17">
      <!-- 10 -->
      <g style="fill:#262626;" transform="translate(254.789938 148.398281)scale(0.11 -0.11)">
       <use xlink:href="#DejaVuSans-49"/>
       <use x="63.623047" xlink:href="#DejaVuSans-48"/>
      </g>
     </g>
    </g>
   </g>
   <g id="matplotlib.axis_6"/>
   <g id="patch_70">
    <path clip-path="url(#pb865f07c37)" d="M 213.858409 130.54 
L 215.738028 130.54 
L 215.738028 130.533025 
L 213.858409 130.533025 
z
" style="fill:#7dc2ff;"/>
   </g>
   <g id="patch_71">
    <path clip-path="url(#pb865f07c37)" d="M 215.738028 130.54 
L 217.617647 130.54 
L 217.617647 130.535704 
L 215.738028 130.535704 
z
" style="fill:#7dc2ff;"/>
   </g>
   <g id="patch_72">
    <path clip-path="url(#pb865f07c37)" d="M 217.617647 130.54 
L 219.497265 130.54 
L 219.497265 130.535282 
L 217.617647 130.535282 
z
" style="fill:#7dc2ff;"/>
   </g>
   <g id="patch_73">
    <path clip-path="url(#pb865f07c37)" d="M 219.497265 130.54 
L 221.376884 130.54 
L 221.376884 130.53388 
L 219.497265 130.53388 
z
" style="fill:#7dc2ff;"/>
   </g>
   <g id="patch_74">
    <path clip-path="url(#pb865f07c37)" d="M 221.376884 130.54 
L 223.256503 130.54 
L 223.256503 130.532523 
L 221.376884 130.532523 
z
" style="fill:#7dc2ff;"/>
   </g>
   <g id="patch_75">
    <path clip-path="url(#pb865f07c37)" d="M 223.256503 130.54 
L 225.136122 130.54 
L 225.136122 130.526939 
L 223.256503 130.526939 
z
" style="fill:#7dc2ff;"/>
   </g>
   <g id="patch_76">
    <path clip-path="url(#pb865f07c37)" d="M 225.136122 130.54 
L 227.01574 130.54 
L 227.01574 130.52631 
L 225.136122 130.52631 
z
" style="fill:#7dc2ff;"/>
   </g>
   <g id="patch_77">
    <path clip-path="url(#pb865f07c37)" d="M 227.01574 130.54 
L 228.895359 130.54 
L 228.895359 130.524323 
L 227.01574 130.524323 
z
" style="fill:#7dc2ff;"/>
   </g>
   <g id="patch_78">
    <path clip-path="url(#pb865f07c37)" d="M 228.895359 130.54 
L 230.774978 130.54 
L 230.774978 130.518362 
L 228.895359 130.518362 
z
" style="fill:#7dc2ff;"/>
   </g>
   <g id="patch_79">
    <path clip-path="url(#pb865f07c37)" d="M 230.774978 130.54 
L 232.654597 130.54 
L 232.654597 130.511987 
L 230.774978 130.511987 
z
" style="fill:#7dc2ff;"/>
   </g>
   <g id="patch_80">
    <path clip-path="url(#pb865f07c37)" d="M 232.654597 130.54 
L 234.534216 130.54 
L 234.534216 130.502098 
L 232.654597 130.502098 
z
" style="fill:#7dc2ff;"/>
   </g>
   <g id="patch_81">
    <path clip-path="url(#pb865f07c37)" d="M 234.534216 130.54 
L 236.413834 130.54 
L 236.413834 130.487777 
L 234.534216 130.487777 
z
" style="fill:#7dc2ff;"/>
   </g>
   <g id="patch_82">
    <path clip-path="url(#pb865f07c37)" d="M 236.413834 130.54 
L 238.293453 130.54 
L 238.293453 130.454964 
L 236.413834 130.454964 
z
" style="fill:#7dc2ff;"/>
   </g>
   <g id="patch_83">
    <path clip-path="url(#pb865f07c37)" d="M 238.293453 130.54 
L 240.173072 130.54 
L 240.173072 130.337672 
L 238.293453 130.337672 
z
" style="fill:#7dc2ff;"/>
   </g>
   <g id="patch_84">
    <path clip-path="url(#pb865f07c37)" d="M 240.173072 130.54 
L 242.052691 130.54 
L 242.052691 127.191518 
L 240.173072 127.191518 
z
" style="fill:#7dc2ff;"/>
   </g>
   <g id="patch_85">
    <path clip-path="url(#pb865f07c37)" d="M 242.052691 130.54 
L 243.932309 130.54 
L 243.932309 23.764603 
L 242.052691 23.764603 
z
" style="fill:#7dc2ff;"/>
   </g>
   <g id="patch_86">
    <path clip-path="url(#pb865f07c37)" d="M 243.932309 130.54 
L 245.811928 130.54 
L 245.811928 128.098776 
L 243.932309 128.098776 
z
" style="fill:#7dc2ff;"/>
   </g>
   <g id="patch_87">
    <path clip-path="url(#pb865f07c37)" d="M 245.811928 130.54 
L 247.691547 130.54 
L 247.691547 130.382066 
L 245.811928 130.382066 
z
" style="fill:#7dc2ff;"/>
   </g>
   <g id="patch_88">
    <path clip-path="url(#pb865f07c37)" d="M 247.691547 130.54 
L 249.571166 130.54 
L 249.571166 130.452007 
L 247.691547 130.452007 
z
" style="fill:#7dc2ff;"/>
   </g>
   <g id="patch_89">
    <path clip-path="url(#pb865f07c37)" d="M 249.571166 130.54 
L 251.450784 130.54 
L 251.450784 130.472746 
L 249.571166 130.472746 
z
" style="fill:#7dc2ff;"/>
   </g>
   <g id="patch_90">
    <path clip-path="url(#pb865f07c37)" d="M 251.450784 130.54 
L 253.330403 130.54 
L 253.330403 130.499699 
L 251.450784 130.499699 
z
" style="fill:#7dc2ff;"/>
   </g>
   <g id="patch_91">
    <path clip-path="url(#pb865f07c37)" d="M 253.330403 130.54 
L 255.210022 130.54 
L 255.210022 130.510796 
L 253.330403 130.510796 
z
" style="fill:#7dc2ff;"/>
   </g>
   <g id="patch_92">
    <path clip-path="url(#pb865f07c37)" d="M 255.210022 130.54 
L 257.089641 130.54 
L 257.089641 130.508212 
L 255.210022 130.508212 
z
" style="fill:#7dc2ff;"/>
   </g>
   <g id="patch_93">
    <path clip-path="url(#pb865f07c37)" d="M 257.089641 130.54 
L 258.96926 130.54 
L 258.96926 130.520629 
L 257.089641 130.520629 
z
" style="fill:#7dc2ff;"/>
   </g>
   <g id="patch_94">
    <path clip-path="url(#pb865f07c37)" d="M 258.96926 130.54 
L 260.848878 130.54 
L 260.848878 130.51982 
L 258.96926 130.51982 
z
" style="fill:#7dc2ff;"/>
   </g>
   <g id="patch_95">
    <path clip-path="url(#pb865f07c37)" d="M 260.848878 130.54 
L 262.728497 130.54 
L 262.728497 130.527828 
L 260.848878 130.527828 
z
" style="fill:#7dc2ff;"/>
   </g>
   <g id="patch_96">
    <path clip-path="url(#pb865f07c37)" d="M 262.728497 130.54 
L 264.608116 130.54 
L 264.608116 130.528645 
L 262.728497 130.528645 
z
" style="fill:#7dc2ff;"/>
   </g>
   <g id="patch_97">
    <path clip-path="url(#pb865f07c37)" d="M 264.608116 130.54 
L 266.487735 130.54 
L 266.487735 130.530517 
L 264.608116 130.530517 
z
" style="fill:#7dc2ff;"/>
   </g>
   <g id="patch_98">
    <path clip-path="url(#pb865f07c37)" d="M 266.487735 130.54 
L 268.367353 130.54 
L 268.367353 130.532585 
L 266.487735 130.532585 
z
" style="fill:#7dc2ff;"/>
   </g>
   <g id="patch_99">
    <path clip-path="url(#pb865f07c37)" d="M 268.367353 130.54 
L 270.246972 130.54 
L 270.246972 130.5316 
L 268.367353 130.5316 
z
" style="fill:#7dc2ff;"/>
   </g>
   <g id="patch_100">
    <path clip-path="url(#pb865f07c37)" d="M 270.246972 130.54 
L 272.126591 130.54 
L 272.126591 130.527108 
L 270.246972 130.527108 
z
" style="fill:#7dc2ff;"/>
   </g>
   <g id="patch_101">
    <path d="M 210.945 130.54 
L 275.04 130.54 
" style="fill:none;stroke:#262626;stroke-linecap:square;stroke-linejoin:miter;stroke-width:1.25;"/>
   </g>
  </g>
  <g id="text_18">
   <!-- Spike Offset [ms] -->
   <g style="fill:#262626;" transform="translate(106.583438 167.4)scale(0.12 -0.12)">
    <defs>
     <path d="M 53.515625 70.515625 
L 53.515625 60.890625 
Q 47.90625 63.578125 42.921875 64.890625 
Q 37.9375 66.21875 33.296875 66.21875 
Q 25.25 66.21875 20.875 63.09375 
Q 16.5 59.96875 16.5 54.203125 
Q 16.5 49.359375 19.40625 46.890625 
Q 22.3125 44.4375 30.421875 42.921875 
L 36.375 41.703125 
Q 47.40625 39.59375 52.65625 34.296875 
Q 57.90625 29 57.90625 20.125 
Q 57.90625 9.515625 50.796875 4.046875 
Q 43.703125 -1.421875 29.984375 -1.421875 
Q 24.8125 -1.421875 18.96875 -0.25 
Q 13.140625 0.921875 6.890625 3.21875 
L 6.890625 13.375 
Q 12.890625 10.015625 18.65625 8.296875 
Q 24.421875 6.59375 29.984375 6.59375 
Q 38.421875 6.59375 43.015625 9.90625 
Q 47.609375 13.234375 47.609375 19.390625 
Q 47.609375 24.75 44.3125 27.78125 
Q 41.015625 30.8125 33.5 32.328125 
L 27.484375 33.5 
Q 16.453125 35.6875 11.515625 40.375 
Q 6.59375 45.0625 6.59375 53.421875 
Q 6.59375 63.09375 13.40625 68.65625 
Q 20.21875 74.21875 32.171875 74.21875 
Q 37.3125 74.21875 42.625 73.28125 
Q 47.953125 72.359375 53.515625 70.515625 
z
" id="DejaVuSans-83"/>
     <path d="M 18.109375 8.203125 
L 18.109375 -20.796875 
L 9.078125 -20.796875 
L 9.078125 54.6875 
L 18.109375 54.6875 
L 18.109375 46.390625 
Q 20.953125 51.265625 25.265625 53.625 
Q 29.59375 56 35.59375 56 
Q 45.5625 56 51.78125 48.09375 
Q 58.015625 40.1875 58.015625 27.296875 
Q 58.015625 14.40625 51.78125 6.484375 
Q 45.5625 -1.421875 35.59375 -1.421875 
Q 29.59375 -1.421875 25.265625 0.953125 
Q 20.953125 3.328125 18.109375 8.203125 
z
M 48.6875 27.296875 
Q 48.6875 37.203125 44.609375 42.84375 
Q 40.53125 48.484375 33.40625 48.484375 
Q 26.265625 48.484375 22.1875 42.84375 
Q 18.109375 37.203125 18.109375 27.296875 
Q 18.109375 17.390625 22.1875 11.75 
Q 26.265625 6.109375 33.40625 6.109375 
Q 40.53125 6.109375 44.609375 11.75 
Q 48.6875 17.390625 48.6875 27.296875 
z
" id="DejaVuSans-112"/>
     <path d="M 9.078125 75.984375 
L 18.109375 75.984375 
L 18.109375 31.109375 
L 44.921875 54.6875 
L 56.390625 54.6875 
L 27.390625 29.109375 
L 57.625 0 
L 45.90625 0 
L 18.109375 26.703125 
L 18.109375 0 
L 9.078125 0 
z
" id="DejaVuSans-107"/>
     <path d="M 39.40625 66.21875 
Q 28.65625 66.21875 22.328125 58.203125 
Q 16.015625 50.203125 16.015625 36.375 
Q 16.015625 22.609375 22.328125 14.59375 
Q 28.65625 6.59375 39.40625 6.59375 
Q 50.140625 6.59375 56.421875 14.59375 
Q 62.703125 22.609375 62.703125 36.375 
Q 62.703125 50.203125 56.421875 58.203125 
Q 50.140625 66.21875 39.40625 66.21875 
z
M 39.40625 74.21875 
Q 54.734375 74.21875 63.90625 63.9375 
Q 73.09375 53.65625 73.09375 36.375 
Q 73.09375 19.140625 63.90625 8.859375 
Q 54.734375 -1.421875 39.40625 -1.421875 
Q 24.03125 -1.421875 14.8125 8.828125 
Q 5.609375 19.09375 5.609375 36.375 
Q 5.609375 53.65625 14.8125 63.9375 
Q 24.03125 74.21875 39.40625 74.21875 
z
" id="DejaVuSans-79"/>
     <path d="M 37.109375 75.984375 
L 37.109375 68.5 
L 28.515625 68.5 
Q 23.6875 68.5 21.796875 66.546875 
Q 19.921875 64.59375 19.921875 59.515625 
L 19.921875 54.6875 
L 34.71875 54.6875 
L 34.71875 47.703125 
L 19.921875 47.703125 
L 19.921875 0 
L 10.890625 0 
L 10.890625 47.703125 
L 2.296875 47.703125 
L 2.296875 54.6875 
L 10.890625 54.6875 
L 10.890625 58.5 
Q 10.890625 67.625 15.140625 71.796875 
Q 19.390625 75.984375 28.609375 75.984375 
z
" id="DejaVuSans-102"/>
     <path d="M 8.59375 75.984375 
L 29.296875 75.984375 
L 29.296875 69 
L 17.578125 69 
L 17.578125 -6.203125 
L 29.296875 -6.203125 
L 29.296875 -13.1875 
L 8.59375 -13.1875 
z
" id="DejaVuSans-91"/>
     <path d="M 52 44.1875 
Q 55.375 50.25 60.0625 53.125 
Q 64.75 56 71.09375 56 
Q 79.640625 56 84.28125 50.015625 
Q 88.921875 44.046875 88.921875 33.015625 
L 88.921875 0 
L 79.890625 0 
L 79.890625 32.71875 
Q 79.890625 40.578125 77.09375 44.375 
Q 74.3125 48.1875 68.609375 48.1875 
Q 61.625 48.1875 57.5625 43.546875 
Q 53.515625 38.921875 53.515625 30.90625 
L 53.515625 0 
L 44.484375 0 
L 44.484375 32.71875 
Q 44.484375 40.625 41.703125 44.40625 
Q 38.921875 48.1875 33.109375 48.1875 
Q 26.21875 48.1875 22.15625 43.53125 
Q 18.109375 38.875 18.109375 30.90625 
L 18.109375 0 
L 9.078125 0 
L 9.078125 54.6875 
L 18.109375 54.6875 
L 18.109375 46.1875 
Q 21.1875 51.21875 25.484375 53.609375 
Q 29.78125 56 35.6875 56 
Q 41.65625 56 45.828125 52.96875 
Q 50 49.953125 52 44.1875 
z
" id="DejaVuSans-109"/>
     <path d="M 30.421875 75.984375 
L 30.421875 -13.1875 
L 9.71875 -13.1875 
L 9.71875 -6.203125 
L 21.390625 -6.203125 
L 21.390625 69 
L 9.71875 69 
L 9.71875 75.984375 
z
" id="DejaVuSans-93"/>
    </defs>
    <use xlink:href="#DejaVuSans-83"/>
    <use x="63.476562" xlink:href="#DejaVuSans-112"/>
    <use x="126.953125" xlink:href="#DejaVuSans-105"/>
    <use x="154.736328" xlink:href="#DejaVuSans-107"/>
    <use x="209.021484" xlink:href="#DejaVuSans-101"/>
    <use x="270.544922" xlink:href="#DejaVuSans-32"/>
    <use x="302.332031" xlink:href="#DejaVuSans-79"/>
    <use x="381.042969" xlink:href="#DejaVuSans-102"/>
    <use x="416.248047" xlink:href="#DejaVuSans-102"/>
    <use x="451.453125" xlink:href="#DejaVuSans-115"/>
    <use x="503.552734" xlink:href="#DejaVuSans-101"/>
    <use x="565.076172" xlink:href="#DejaVuSans-116"/>
    <use x="604.285156" xlink:href="#DejaVuSans-32"/>
    <use x="636.072266" xlink:href="#DejaVuSans-91"/>
    <use x="675.085938" xlink:href="#DejaVuSans-109"/>
    <use x="772.498047" xlink:href="#DejaVuSans-115"/>
    <use x="824.597656" xlink:href="#DejaVuSans-93"/>
   </g>
  </g>
  <g id="legend_1">
   <g id="patch_102">
    <path d="M 70.64 27.620469 
L 92.64 27.620469 
L 92.64 19.920469 
L 70.64 19.920469 
z
" style="fill:#002a61;"/>
   </g>
   <g id="text_19">
    <!-- 12 min -->
    <g style="fill:#262626;" transform="translate(101.44 27.620469)scale(0.11 -0.11)">
     <use xlink:href="#DejaVuSans-49"/>
     <use x="63.623047" xlink:href="#DejaVuSans-50"/>
     <use x="127.246094" xlink:href="#DejaVuSans-32"/>
     <use x="159.033203" xlink:href="#DejaVuSans-109"/>
     <use x="256.445312" xlink:href="#DejaVuSans-105"/>
     <use x="284.228516" xlink:href="#DejaVuSans-110"/>
    </g>
   </g>
   <g id="patch_103">
    <path d="M 70.64 43.766406 
L 92.64 43.766406 
L 92.64 36.066406 
L 70.64 36.066406 
z
" style="fill:#0675b6;"/>
   </g>
   <g id="text_20">
    <!-- 120 min -->
    <g style="fill:#262626;" transform="translate(101.44 43.766406)scale(0.11 -0.11)">
     <use xlink:href="#DejaVuSans-49"/>
     <use x="63.623047" xlink:href="#DejaVuSans-50"/>
     <use x="127.246094" xlink:href="#DejaVuSans-48"/>
     <use x="190.869141" xlink:href="#DejaVuSans-32"/>
     <use x="222.65625" xlink:href="#DejaVuSans-109"/>
     <use x="320.068359" xlink:href="#DejaVuSans-105"/>
     <use x="347.851562" xlink:href="#DejaVuSans-110"/>
    </g>
   </g>
   <g id="patch_104">
    <path d="M 70.64 59.912344 
L 92.64 59.912344 
L 92.64 52.212344 
L 70.64 52.212344 
z
" style="fill:#7dc2ff;"/>
   </g>
   <g id="text_21">
    <!-- Final -->
    <g style="fill:#262626;" transform="translate(101.44 59.912344)scale(0.11 -0.11)">
     <defs>
      <path d="M 9.8125 72.90625 
L 51.703125 72.90625 
L 51.703125 64.59375 
L 19.671875 64.59375 
L 19.671875 43.109375 
L 48.578125 43.109375 
L 48.578125 34.8125 
L 19.671875 34.8125 
L 19.671875 0 
L 9.8125 0 
z
" id="DejaVuSans-70"/>
      <path d="M 34.28125 27.484375 
Q 23.390625 27.484375 19.1875 25 
Q 14.984375 22.515625 14.984375 16.5 
Q 14.984375 11.71875 18.140625 8.90625 
Q 21.296875 6.109375 26.703125 6.109375 
Q 34.1875 6.109375 38.703125 11.40625 
Q 43.21875 16.703125 43.21875 25.484375 
L 43.21875 27.484375 
z
M 52.203125 31.203125 
L 52.203125 0 
L 43.21875 0 
L 43.21875 8.296875 
Q 40.140625 3.328125 35.546875 0.953125 
Q 30.953125 -1.421875 24.3125 -1.421875 
Q 15.921875 -1.421875 10.953125 3.296875 
Q 6 8.015625 6 15.921875 
Q 6 25.140625 12.171875 29.828125 
Q 18.359375 34.515625 30.609375 34.515625 
L 43.21875 34.515625 
L 43.21875 35.40625 
Q 43.21875 41.609375 39.140625 45 
Q 35.0625 48.390625 27.6875 48.390625 
Q 23 48.390625 18.546875 47.265625 
Q 14.109375 46.140625 10.015625 43.890625 
L 10.015625 52.203125 
Q 14.9375 54.109375 19.578125 55.046875 
Q 24.21875 56 28.609375 56 
Q 40.484375 56 46.34375 49.84375 
Q 52.203125 43.703125 52.203125 31.203125 
z
" id="DejaVuSans-97"/>
      <path d="M 9.421875 75.984375 
L 18.40625 75.984375 
L 18.40625 0 
L 9.421875 0 
z
" id="DejaVuSans-108"/>
     </defs>
     <use xlink:href="#DejaVuSans-70"/>
     <use x="50.269531" xlink:href="#DejaVuSans-105"/>
     <use x="78.052734" xlink:href="#DejaVuSans-110"/>
     <use x="141.431641" xlink:href="#DejaVuSans-97"/>
     <use x="202.710938" xlink:href="#DejaVuSans-108"/>
    </g>
   </g>
  </g>
 </g>
 <defs>
  <clipPath id="p72cc1f0fba">
   <rect height="113.58" width="64.095" x="56.835" y="16.96"/>
  </clipPath>
  <clipPath id="paa1fb3683b">
   <rect height="113.58" width="64.095" x="133.89" y="16.96"/>
  </clipPath>
  <clipPath id="pb865f07c37">
   <rect height="113.58" width="64.095" x="210.945" y="16.96"/>
  </clipPath>
 </defs>
</svg>
